<svg xmlns="http://www.w3.org/2000/svg" viewBox="0 0 362.17 746.18">
  <title>service-mobile_1</title>
  <g>
    <text transform="translate(4.7 724.25)" style="font-size: 14px;fill: #231f20;font-family: Barlow-Regular, Barlow;letter-spacing: 0.028006417410714284em">S<tspan x="8.57" y="0" style="letter-spacing: 0.021030970982142856em">h</tspan><tspan x="16.41" y="0" style="letter-spacing: 0.007952008928571428em">o</tspan><tspan x="24.15" y="0" style="letter-spacing: 0.011021205357142858em">w</tspan><tspan x="34.4" y="0">casing </tspan><tspan x="79.71" y="0" style="letter-spacing: 0.011021205357142858em">y</tspan><tspan x="86.32" y="0">our p</tspan><tspan x="119.04" y="0" style="letter-spacing: 0.023018973214285716em">r</tspan><tspan x="124.46" y="0">oduct th</tspan><tspan x="178.19" y="0" style="letter-spacing: 0.023018973214285716em">r</tspan><tspan x="183.61" y="0">ough a </tspan><tspan x="0" y="19">rich audio visual </tspan><tspan x="107.28" y="19" style="letter-spacing: 0.014020647321428572em">e</tspan><tspan x="114.94" y="19" style="letter-spacing: 0.027971540178571428em">x</tspan><tspan x="122.01" y="19" style="letter-spacing: 0.02099609375em">p</tspan><tspan x="130.03" y="19">erie</tspan><tspan x="155.19" y="19" style="letter-spacing: 0.021030970982142856em">n</tspan><tspan x="163.03" y="19" style="letter-spacing: 0.025006975446428572em">c</tspan><tspan x="170.66" y="19">e</tspan></text>
    <text transform="translate(4.68 504.99)" style="font-size: 14px;fill: #231f20;font-family: Barlow-Regular, Barlow;letter-spacing: 0.014020647321428572em">B<tspan x="8.97" y="0" style="letter-spacing: 0.028006417410714284em">uilding high qualit</tspan><tspan x="122.99" y="0" style="letter-spacing: -0.016008649553571428em">y</tspan><tspan x="129.22" y="0" style="letter-spacing: 0.028041294642857144em">, cu</tspan><tspan x="152.06" y="0" style="letter-spacing: 0.027029854910714284em">s</tspan><tspan x="159.18" y="0" style="letter-spacing: 0.013009207589285714em">t</tspan><tspan x="164.46" y="0" style="letter-spacing: 0.028006417410714284em">omised</tspan><tspan x="211.42" y="0" style="letter-spacing: 0.04799107142857143em"> </tspan><tspan style="letter-spacing: 0.028006417410714284em"><tspan x="0" y="19">onli</tspan><tspan x="23.53" y="19" style="letter-spacing: 0.021030970982142856em">n</tspan><tspan x="31.37" y="19">e p</tspan><tspan x="50.54" y="19" style="letter-spacing: 0.022984095982142856em">r</tspan><tspan x="55.96" y="19">oducts </tspan><tspan x="103.39" y="19" style="letter-spacing: -0.019008091517857144em">f</tspan><tspan x="108.11" y="19">or </tspan><tspan x="124.81" y="19" style="letter-spacing: 0.025006975446428572em">c</tspan><tspan x="132.44" y="19">ompl</tspan><tspan x="164.16" y="19" style="letter-spacing: 0.014020647321428572em">e</tspan><tspan x="171.82" y="19">x </tspan><tspan x="182.08" y="19" style="letter-spacing: 0.021030970982142856em">n</tspan><tspan x="189.92" y="19" style="letter-spacing: 0.027971540178571428em">eeds</tspan></tspan></text>
    <text transform="translate(4.68 262.51)" style="font-size: 14px;fill: #231f20;font-family: Barlow-Regular, Barlow;letter-spacing: 0.015032087053571428em">A<tspan x="8.71" y="0" style="letter-spacing: 0.028006417410714284em">chi</tspan><tspan x="28.28" y="0" style="letter-spacing: 0.014997209821428572em">e</tspan><tspan x="35.95" y="0" style="letter-spacing: 0.028006417410714284em">ving busi</tspan><tspan x="92.99" y="0" style="letter-spacing: 0.021030970982142856em">n</tspan><tspan x="100.83" y="0" style="letter-spacing: 0.019008091517857144em">e</tspan><tspan x="108.55" y="0" style="letter-spacing: 0.013009207589285714em">s</tspan><tspan x="115.47" y="0" style="letter-spacing: 0.028006417410714284em">s objecti</tspan><tspan x="170.64" y="0" style="letter-spacing: 0.011021205357142858em">v</tspan><tspan x="177.45" y="0" style="letter-spacing: 0.019008091517857144em">e</tspan><tspan x="185.18" y="0" style="letter-spacing: 0.028006417410714284em">s with </tspan><tspan style="letter-spacing: 0.028006417410714284em"><tspan x="0" y="19">c</tspan><tspan x="7.67" y="19" style="letter-spacing: 0.023018973214285716em">re</tspan><tspan x="20.87" y="19" style="letter-spacing: 0.023995535714285716em">a</tspan><tspan x="28.36" y="19">ti</tspan><tspan x="37.81" y="19" style="letter-spacing: 0.011021205357142858em">v</tspan><tspan x="44.62" y="19">e solutions </tspan><tspan x="118.05" y="19" style="letter-spacing: 0.020961216517857144em">b</tspan><tspan x="125.98" y="19" style="letter-spacing: 0.015032087053571428em">e</tspan><tspan x="133.66" y="19" style="letter-spacing: 0.011021205357142858em">y</tspan><tspan x="140.27" y="19">o</tspan><tspan x="148.29" y="19" style="letter-spacing: 0.02099609375em">n</tspan><tspan x="156.13" y="19" style="letter-spacing: 0.027971540178571428em">d ju</tspan><tspan x="179.07" y="19" style="letter-spacing: 0.027029854910714284em">s</tspan><tspan x="186.18" y="19" style="letter-spacing: 0.027971540178571428em">t visual </tspan><tspan x="0" y="38">a</tspan><tspan x="7.55" y="38" style="letter-spacing: 0.019008091517857144em">e</tspan><tspan x="15.27" y="38" style="letter-spacing: 0.026994977678571428em">s</tspan><tspan x="22.39" y="38">t</tspan><tspan x="27.87" y="38" style="letter-spacing: 0.02099609375em">he</tspan><tspan x="43.47" y="38">tics</tspan></tspan></text>
    <text transform="translate(4.68 225.84) scale(0.91 1)" style="font-size: 24px;fill: #231f20;font-family: BarlowSemiCondensed-SemiBold, Barlow Semi Condensed;font-weight: 600"><tspan style="letter-spacing: -0.002003408010932139em">D</tspan><tspan x="13.03" y="0">ESIGN </tspan><tspan x="75.29" y="0" style="letter-spacing: -0.010974223882106048em">S</tspan><tspan x="87.33" y="0">T</tspan><tspan x="99.72" y="0" style="letter-spacing: 0.015003299992980682em">R</tspan><tspan x="112.97" y="0" style="letter-spacing: -0.06898401584309663em">A</tspan><tspan x="124.56" y="0">TE</tspan><tspan x="149.25" y="0" style="letter-spacing: -0.015982743909436395em">G</tspan><tspan x="161.76" y="0">Y</tspan></text>
    <path d="M44.63,401.06a5.47,5.47,0,0,1-2.15-.39,3.18,3.18,0,0,1-1.39-1.09,2.83,2.83,0,0,1-.48-1.64v-.47a.14.14,0,0,1,.16-.16h1.17a.14.14,0,0,1,.16.16v.39a1.6,1.6,0,0,0,.7,1.34,3.19,3.19,0,0,0,1.94.53,2.53,2.53,0,0,0,1.66-.47,1.47,1.47,0,0,0,.56-1.21,1.3,1.3,0,0,0-.28-.85,2.82,2.82,0,0,0-.85-.64,16.1,16.1,0,0,0-1.6-.72,16.32,16.32,0,0,1-1.86-.82,3.35,3.35,0,0,1-1.12-1,2.47,2.47,0,0,1-.45-1.52,2.64,2.64,0,0,1,1-2.16,4.2,4.2,0,0,1,2.67-.78,5,5,0,0,1,2.08.4,3.16,3.16,0,0,1,1.38,1.12,2.85,2.85,0,0,1,.49,1.66v.32a.14.14,0,0,1-.16.16H47a.14.14,0,0,1-.16-.16v-.24a1.68,1.68,0,0,0-.67-1.37,2.68,2.68,0,0,0-1.82-.56,2.54,2.54,0,0,0-1.54.41,1.54,1.54,0,0,0-.27,2,2.5,2.5,0,0,0,.8.6c.36.17.91.4,1.65.68a15.34,15.34,0,0,1,1.84.83,3.3,3.3,0,0,1,1.17,1A2.5,2.5,0,0,1,48.5,398a2.72,2.72,0,0,1-1,2.24A4.45,4.45,0,0,1,44.63,401.06Zm12.8-11.33a.14.14,0,0,1,.16.16v1a.14.14,0,0,1-.16.16H54.36s-.06,0-.06.07v9.63a.15.15,0,0,1-.16.16H52.92a.14.14,0,0,1-.16-.16v-9.63c0-.05,0-.07-.06-.07H49.77a.14.14,0,0,1-.16-.16v-1a.14.14,0,0,1,.16-.16Zm7.93,11.2a.18.18,0,0,1-.19-.13l-.58-1.87a.06.06,0,0,0-.06-.05H60a.06.06,0,0,0-.06.05l-.58,1.87a.18.18,0,0,1-.19.13H57.91c-.12,0-.16-.06-.13-.18l3.5-10.89a.18.18,0,0,1,.19-.13h1.6a.2.2,0,0,1,.2.13l3.53,10.89,0,.07c0,.07,0,.11-.15.11Zm-5-3.35a.08.08,0,0,0,0,.07h3.79a.06.06,0,0,0,0-.07l-1.86-5.93a0,0,0,0,0,0,0s0,0,0,0ZM75,400.93a.18.18,0,0,1-.17-.11L72.61,396a.07.07,0,0,0-.07,0h-2.3s-.06,0-.06.07v4.72a.15.15,0,0,1-.16.16H68.8a.14.14,0,0,1-.16-.16V389.89a.14.14,0,0,1,.16-.16h4.3a3.37,3.37,0,0,1,1.68.4,2.79,2.79,0,0,1,1.14,1.12,3.32,3.32,0,0,1,.4,1.66,3.12,3.12,0,0,1-.59,1.91,2.91,2.91,0,0,1-1.62,1s0,0,0,.08l2.32,4.8a.15.15,0,0,1,0,.08c0,.07,0,.11-.13.11Zm-4.78-9.87a.05.05,0,0,0-.06.06v3.58c0,.05,0,.07.06.07h2.67a1.87,1.87,0,0,0,1.36-.5,1.86,1.86,0,0,0-1.36-3.21Zm15.32-1.33a.14.14,0,0,1,.16.16v1a.14.14,0,0,1-.16.16H82.49s-.07,0-.07.07v9.63a.14.14,0,0,1-.16.16H81.05a.14.14,0,0,1-.16-.16v-9.63a.06.06,0,0,0-.07-.07H77.89a.14.14,0,0,1-.16-.16v-1a.14.14,0,0,1,.16-.16Z" style="fill: #61c7cf"/>
    <path d="M34.08,624.8a13.5,13.5,0,1,1-13.5-13.5A13.5,13.5,0,0,1,34.08,624.8Z" style="fill: none;stroke: #e23f41;stroke-opacity: 0.100000001490116;stroke-width: 2px"/>
    <path d="M69.08,624.8a13.5,13.5,0,1,1-13.5-13.5A13.5,13.5,0,0,1,69.08,624.8Z" style="fill: none;stroke: #e23f41;stroke-opacity: 0.200000002980232;stroke-width: 2px"/>
    <path d="M104.08,624.8a13.5,13.5,0,1,1-13.5-13.5A13.5,13.5,0,0,1,104.08,624.8Z" style="fill: none;stroke: #e23f41;stroke-opacity: 0.400000005960465;stroke-width: 2px"/>
    <path d="M139.08,624.8a13.5,13.5,0,1,1-13.5-13.5A13.5,13.5,0,0,1,139.08,624.8Z" style="fill: none;stroke: #e23f41;stroke-opacity: 0.600000023841858;stroke-width: 2px"/>
    <path d="M174.08,624.8a13.5,13.5,0,1,1-13.5-13.5A13.5,13.5,0,0,1,174.08,624.8Z" style="fill: none;stroke: #e23f41;stroke-opacity: 0.800000011920929;stroke-width: 2px"/>
    <path d="M208.08,624.8a13.5,13.5,0,1,1-13.5-13.5A13.5,13.5,0,0,1,208.08,624.8Z" style="fill: none;stroke: #e23f41;stroke-width: 2px"/>
    <path d="M24.86,376.43h80a18.5,18.5,0,0,1,18.5,18.5h0a18.5,18.5,0,0,1-18.5,18.5h-80a18.5,18.5,0,0,1-18.5-18.5h0A18.5,18.5,0,0,1,24.86,376.43Z" style="fill: none;stroke: #61c7cf;stroke-width: 3px"/>
    <path d="M98.07,157.74a1,1,0,0,1,.05,1.42L92,165.74a1,1,0,1,1-1.47-1.36L96,158.53l-5.86-5.45a1,1,0,0,1,1.37-1.47ZM23.33,127.48c10.15-.51,17.36,1.23,23.11,4.16s9.93,7,14.07,10.92,8.27,7.86,13.88,10.68,12.73,4.6,23,4.23l.07,2c-10.52.38-18-1.45-23.93-4.44S63.28,148,59.13,144s-8.18-7.83-13.6-10.59-12.24-4.44-22.1-3.95Z" style="fill: #5cba47"/>
    <circle cx="16.88" cy="128.47" r="6" style="fill: none;stroke: #5cba47;stroke-width: 2px"/>
    <path d="M122.46,416.21q2.51,9.84,5,19.68l3.44-7,6.25,7.5,3.23-2-6.78-7.37,7.71-.09Z" style="fill: none;stroke: #000;stroke-miterlimit: 10"/>
    <g>
      <g>
        <path d="M33.32,140.35l7.29,7.28" style="fill: #fff"/>
        <path d="M32.44,141.23l7.28,7.29a1.25,1.25,0,0,0,1.77-1.77l-7.28-7.28a1.25,1.25,0,0,0-1.77,1.76Z" style="fill: #f15959"/>
      </g>
      <g>
        <path d="M40.61,140.35l-7.29,7.28" style="fill: #fff"/>
        <path d="M39.72,139.47q-3.64,3.63-7.28,7.28a1.27,1.27,0,0,0,0,1.77,1.29,1.29,0,0,0,1.77,0l7.28-7.29a1.25,1.25,0,1,0-1.77-1.76Z" style="fill: #f15959"/>
      </g>
    </g>
    <g>
      <g>
        <path d="M45.63,114.58l7.29,7.29" style="fill: #fff"/>
        <path d="M44.75,115.47q3.64,3.63,7.28,7.28A1.25,1.25,0,1,0,53.8,121l-7.28-7.28a1.25,1.25,0,0,0-1.77,1.77Z" style="fill: #f15959"/>
      </g>
      <g>
        <path d="M52.92,114.58l-7.29,7.29" style="fill: #fff"/>
        <path d="M52,113.7,44.75,121a1.25,1.25,0,1,0,1.77,1.77q3.65-3.65,7.28-7.28A1.25,1.25,0,0,0,52,113.7Z" style="fill: #f15959"/>
      </g>
    </g>
    <g>
      <g>
        <path d="M73,137.52l7.29,7.28" style="fill: #fff"/>
        <path d="M72.16,138.41l7.28,7.28a1.25,1.25,0,1,0,1.77-1.77l-7.28-7.28a1.25,1.25,0,1,0-1.77,1.77Z" style="fill: #f15959"/>
      </g>
      <g>
        <path d="M80.33,137.52,73,144.8" style="fill: #fff"/>
        <path d="M79.44,136.64l-7.28,7.28a1.25,1.25,0,1,0,1.77,1.77l7.28-7.28a1.25,1.25,0,1,0-1.77-1.77Z" style="fill: #f15959"/>
      </g>
    </g>
    <text transform="translate(6.01 470.98) scale(0.91 1)" style="font-size: 24px;fill: #231f20;font-family: BarlowSemiCondensed-SemiBold, Barlow Semi Condensed;font-weight: 600">UI UX <tspan x="55.08" y="0" style="letter-spacing: -0.002003408010932139em">D</tspan><tspan x="68.11" y="0">ESIGN</tspan></text>
    <text transform="translate(4.31 688.34) scale(0.91 1)" style="font-size: 24px;fill: #231f20;font-family: BarlowSemiCondensed-SemiBold, Barlow Semi Condensed;font-weight: 600">M<tspan x="15.05" y="0" style="letter-spacing: -0.004006816021864278em">O</tspan><tspan x="28.01" y="0">TION G</tspan><tspan x="91.08" y="0" style="letter-spacing: 0.015003299992980682em">R</tspan><tspan x="104.33" y="0">APHICS</tspan></text>
    <text transform="translate(4.68 49.75)" style="font-size: 27.522300720214844px;fill: #231f20;font-family: BarlowSemiCondensed-SemiBold, Barlow Semi Condensed;font-weight: 600;letter-spacing: 0.047990202369959774em">S<tspan x="15.44" y="0" style="letter-spacing: 0.049994968679684525em">E</tspan><tspan x="30.93" y="0" style="letter-spacing: 0.04101787352286396em">R</tspan><tspan x="46.84" y="0" style="letter-spacing: 0.049994968679684525em">VICES</tspan></text>
    <polygon points="362.17 0 0 0 0 0 362.17 0 362.17 0" style="fill: #231f20"/>
  </g>
</svg>
