<svg  viewBox="0 0 599 284" fill="none" xmlns="http://www.w3.org/2000/svg">
<rect x="0.5" y="0.5" width="283" height="283" rx="4.5" fill="white" stroke="#E3E3E3"/>
<rect x="315.5" y="0.5" width="283" height="283" rx="4.5" fill="white" stroke="#E3E3E3"/>
<rect x="12" y="11" width="262" height="13" rx="6.5" fill="#9CE4F3"/>
<rect x="343" y="11" width="262" height="13" rx="6.5" transform="rotate(90 343 11)" fill="#9CE4F3"/>
<rect x="13" y="36" width="130" height="121" rx="4" fill="#F5F5F5"/>
<rect x="13" y="170" width="80" height="99" rx="4" fill="#F5F5F5"/>
<rect x="102" y="170" width="80" height="99" rx="4" fill="#F5F5F5"/>
<rect x="191" y="170" width="80" height="99" rx="4" fill="#F5F5F5"/>
<rect x="153" y="44" width="121" height="7" rx="3.5" fill="#F5F5F5"/>
<rect x="153" y="55" width="113" height="7" rx="3.5" fill="#F5F5F5"/>
<rect x="153" y="66" width="118" height="7" rx="3.5" fill="#F5F5F5"/>
<rect x="153" y="77" width="106" height="7" rx="3.5" fill="#F5F5F5"/>
<rect x="153" y="110" width="27" height="7" rx="3.5" fill="#F5F5F5"/>
<rect x="357" y="11" width="115" height="107" rx="4" fill="#F5F5F5"/>
<rect x="357" y="129" width="70" height="87" rx="4" fill="#F5F5F5"/>
<rect x="435" y="129" width="71" height="87" rx="4" fill="#F5F5F5"/>
<rect x="514" y="129" width="70" height="87" rx="4" fill="#F5F5F5"/>
<rect x="357" y="225" width="70" height="54" rx="4" fill="#F5F5F5"/>
<rect x="435" y="225" width="71" height="54" rx="4" fill="#F5F5F5"/>
<rect x="514" y="225" width="70" height="54" rx="4" fill="#F5F5F5"/>
<rect x="480" y="18" width="107" height="6" rx="3" fill="#F5F5F5"/>
<rect x="480" y="28" width="100" height="6" rx="3" fill="#F5F5F5"/>
<rect x="480" y="37" width="104" height="7" rx="3.5" fill="#F5F5F5"/>
<rect x="480" y="47" width="94" height="6" rx="3" fill="#F5F5F5"/>
<rect x="480" y="76" width="24" height="6" rx="3" fill="#F5F5F5"/>
</svg>
