<svg width="368" height="50" viewBox="0 0 368 50" fill="none" xmlns="http://www.w3.org/2000/svg">
<path d="M74.616 29C74.5093 29 74.456 28.9467 74.456 28.84V17.96C74.456 17.8533 74.5093 17.8 74.616 17.8H75.144C75.2507 17.8 75.304 17.8533 75.304 17.96V23.528C75.304 23.5493 75.3147 23.5653 75.336 23.576C75.3573 23.5867 75.3733 23.5813 75.384 23.56L79.736 17.896C79.7787 17.832 79.848 17.8 79.944 17.8H80.552C80.616 17.8 80.6587 17.8213 80.68 17.864C80.7013 17.896 80.6907 17.9387 80.648 17.992L77.384 22.312C77.3733 22.344 77.3733 22.376 77.384 22.408L80.952 28.808C80.9733 28.8507 80.984 28.8827 80.984 28.904C80.984 28.968 80.936 29 80.84 29H80.232C80.1573 29 80.0933 28.9627 80.04 28.888L76.792 23.096C76.7707 23.0427 76.744 23.0427 76.712 23.096L75.336 24.808C75.3147 24.8507 75.304 24.8773 75.304 24.888V28.84C75.304 28.9467 75.2507 29 75.144 29H74.616ZM92.8117 29C92.7158 29 92.6571 28.952 92.6358 28.856L92.0598 26.744C92.0491 26.712 92.0224 26.696 91.9798 26.696H87.9477C87.9051 26.696 87.8784 26.712 87.8677 26.744L87.3077 28.856C87.2864 28.952 87.2277 29 87.1317 29H86.5877C86.5344 29 86.4917 28.984 86.4597 28.952C86.4384 28.92 86.4331 28.8773 86.4437 28.824L89.4518 17.928C89.4731 17.8427 89.5317 17.8 89.6277 17.8H90.2997C90.3957 17.8 90.4544 17.8427 90.4757 17.928L93.4838 28.824L93.4998 28.872C93.4998 28.9573 93.4464 29 93.3398 29H92.8117ZM88.0917 25.928C88.0811 25.9387 88.0811 25.9547 88.0917 25.976C88.1131 25.9867 88.1344 25.992 88.1557 25.992H91.7717C91.7931 25.992 91.8091 25.9867 91.8198 25.976C91.8411 25.9547 91.8464 25.9387 91.8358 25.928L89.9957 19.048C89.9851 19.0267 89.9691 19.016 89.9478 19.016C89.9371 19.016 89.9264 19.0267 89.9158 19.048L88.0917 25.928ZM105.143 17.96C105.143 17.8533 105.196 17.8 105.303 17.8H105.831C105.938 17.8 105.991 17.8533 105.991 17.96V28.84C105.991 28.9467 105.938 29 105.831 29H105.255C105.159 29 105.095 28.9627 105.063 28.888L100.471 19.704C100.45 19.6827 100.428 19.6773 100.407 19.688C100.396 19.688 100.391 19.704 100.391 19.736V28.84C100.391 28.9467 100.338 29 100.231 29H99.7031C99.5965 29 99.5431 28.9467 99.5431 28.84V17.96C99.5431 17.8533 99.5965 17.8 99.7031 17.8H100.279C100.375 17.8 100.439 17.8373 100.471 17.912L105.063 27.064C105.084 27.0853 105.1 27.096 105.111 27.096C105.132 27.0853 105.143 27.064 105.143 27.032V17.96ZM115.647 29.128C114.676 29.128 113.903 28.8667 113.327 28.344C112.751 27.8213 112.463 27.1333 112.463 26.28V25.848C112.463 25.7413 112.516 25.688 112.623 25.688H113.119C113.226 25.688 113.279 25.7413 113.279 25.848V26.232C113.279 26.872 113.492 27.3893 113.919 27.784C114.356 28.1787 114.938 28.376 115.663 28.376C116.356 28.376 116.9 28.1947 117.295 27.832C117.7 27.4587 117.903 26.9627 117.903 26.344C117.903 25.9493 117.812 25.608 117.631 25.32C117.45 25.0213 117.183 24.7493 116.831 24.504C116.49 24.2587 115.999 23.9653 115.359 23.624C114.676 23.2507 114.154 22.936 113.791 22.68C113.428 22.4133 113.135 22.0987 112.911 21.736C112.687 21.3627 112.575 20.904 112.575 20.36C112.575 19.5173 112.836 18.8613 113.359 18.392C113.892 17.912 114.607 17.672 115.503 17.672C116.474 17.672 117.242 17.9387 117.807 18.472C118.372 18.9947 118.655 19.6933 118.655 20.568V20.952C118.655 21.0587 118.602 21.112 118.495 21.112H117.967C117.86 21.112 117.807 21.0587 117.807 20.952V20.6C117.807 19.9387 117.599 19.4107 117.183 19.016C116.767 18.6213 116.202 18.424 115.487 18.424C114.836 18.424 114.324 18.5947 113.951 18.936C113.588 19.2667 113.407 19.7413 113.407 20.36C113.407 20.7547 113.487 21.0853 113.647 21.352C113.818 21.6187 114.058 21.8587 114.367 22.072C114.687 22.2853 115.172 22.568 115.823 22.92C116.538 23.3147 117.092 23.656 117.487 23.944C117.892 24.232 118.202 24.5627 118.415 24.936C118.639 25.2987 118.751 25.7413 118.751 26.264C118.751 27.128 118.468 27.8213 117.903 28.344C117.348 28.8667 116.596 29.128 115.647 29.128ZM128.041 29.128C127.091 29.128 126.329 28.84 125.753 28.264C125.177 27.6773 124.889 26.9093 124.889 25.96V20.84C124.889 20.2213 125.017 19.672 125.273 19.192C125.539 18.712 125.913 18.3387 126.393 18.072C126.873 17.8053 127.422 17.672 128.041 17.672C128.67 17.672 129.225 17.8053 129.705 18.072C130.195 18.3387 130.574 18.712 130.841 19.192C131.107 19.672 131.241 20.2213 131.241 20.84V25.96C131.241 26.5893 131.107 27.144 130.841 27.624C130.574 28.104 130.195 28.4773 129.705 28.744C129.225 29 128.67 29.128 128.041 29.128ZM128.041 28.376C128.745 28.376 129.31 28.1573 129.737 27.72C130.174 27.2827 130.393 26.712 130.393 26.008V20.824C130.393 20.1093 130.174 19.5333 129.737 19.096C129.31 18.648 128.745 18.424 128.041 18.424C127.347 18.424 126.787 18.648 126.361 19.096C125.945 19.5333 125.737 20.1093 125.737 20.824V26.008C125.737 26.712 125.95 27.2827 126.377 27.72C126.803 28.1573 127.358 28.376 128.041 28.376ZM145.582 29C145.475 29 145.422 28.9467 145.422 28.84V17.96C145.422 17.8533 145.475 17.8 145.582 17.8H148.606C149.512 17.8 150.227 18.0667 150.75 18.6C151.283 19.1333 151.55 19.8587 151.55 20.776V26.024C151.55 26.9413 151.283 27.6667 150.75 28.2C150.227 28.7333 149.512 29 148.606 29H145.582ZM146.27 28.184C146.27 28.2267 146.291 28.248 146.334 28.248H148.622C149.251 28.248 149.752 28.0453 150.126 27.64C150.499 27.224 150.686 26.6693 150.686 25.976V20.84C150.686 20.1253 150.499 19.5653 150.126 19.16C149.763 18.7547 149.262 18.552 148.622 18.552H146.334C146.291 18.552 146.27 18.5733 146.27 18.616V28.184ZM164.184 18.392C164.184 18.4987 164.13 18.552 164.024 18.552H159.112C159.069 18.552 159.048 18.5733 159.048 18.616V22.952C159.048 22.9947 159.069 23.016 159.112 23.016H162.472C162.578 23.016 162.632 23.0693 162.632 23.176V23.608C162.632 23.7147 162.578 23.768 162.472 23.768H159.112C159.069 23.768 159.048 23.7893 159.048 23.832V28.184C159.048 28.2267 159.069 28.248 159.112 28.248H164.024C164.13 28.248 164.184 28.3013 164.184 28.408V28.84C164.184 28.9467 164.13 29 164.024 29H158.36C158.253 29 158.2 28.9467 158.2 28.84V17.96C158.2 17.8533 158.253 17.8 158.36 17.8H164.024C164.13 17.8 164.184 17.8533 164.184 17.96V18.392ZM173.241 29.128C172.27 29.128 171.497 28.8667 170.921 28.344C170.345 27.8213 170.057 27.1333 170.057 26.28V25.848C170.057 25.7413 170.11 25.688 170.217 25.688H170.713C170.819 25.688 170.873 25.7413 170.873 25.848V26.232C170.873 26.872 171.086 27.3893 171.513 27.784C171.95 28.1787 172.531 28.376 173.257 28.376C173.95 28.376 174.494 28.1947 174.889 27.832C175.294 27.4587 175.497 26.9627 175.497 26.344C175.497 25.9493 175.406 25.608 175.225 25.32C175.043 25.0213 174.777 24.7493 174.425 24.504C174.083 24.2587 173.593 23.9653 172.953 23.624C172.27 23.2507 171.747 22.936 171.385 22.68C171.022 22.4133 170.729 22.0987 170.505 21.736C170.281 21.3627 170.169 20.904 170.169 20.36C170.169 19.5173 170.43 18.8613 170.953 18.392C171.486 17.912 172.201 17.672 173.097 17.672C174.067 17.672 174.835 17.9387 175.401 18.472C175.966 18.9947 176.249 19.6933 176.249 20.568V20.952C176.249 21.0587 176.195 21.112 176.089 21.112H175.561C175.454 21.112 175.401 21.0587 175.401 20.952V20.6C175.401 19.9387 175.193 19.4107 174.777 19.016C174.361 18.6213 173.795 18.424 173.081 18.424C172.43 18.424 171.918 18.5947 171.545 18.936C171.182 19.2667 171.001 19.7413 171.001 20.36C171.001 20.7547 171.081 21.0853 171.241 21.352C171.411 21.6187 171.651 21.8587 171.961 22.072C172.281 22.2853 172.766 22.568 173.417 22.92C174.131 23.3147 174.686 23.656 175.081 23.944C175.486 24.232 175.795 24.5627 176.009 24.936C176.233 25.2987 176.345 25.7413 176.345 26.264C176.345 27.128 176.062 27.8213 175.497 28.344C174.942 28.8667 174.19 29.128 173.241 29.128ZM182.978 29C182.872 29 182.818 28.9467 182.818 28.84V17.96C182.818 17.8533 182.872 17.8 182.978 17.8H183.506C183.613 17.8 183.666 17.8533 183.666 17.96V28.84C183.666 28.9467 183.613 29 183.506 29H182.978ZM193.553 29.128C192.614 29.128 191.857 28.856 191.281 28.312C190.715 27.7573 190.433 27.0267 190.433 26.12V20.68C190.433 19.7733 190.715 19.048 191.281 18.504C191.857 17.9493 192.614 17.672 193.553 17.672C194.171 17.672 194.715 17.8 195.185 18.056C195.654 18.3013 196.017 18.648 196.273 19.096C196.539 19.544 196.673 20.056 196.673 20.632V21.096C196.673 21.2027 196.619 21.256 196.513 21.256H195.985C195.878 21.256 195.825 21.2027 195.825 21.096V20.632C195.825 19.9707 195.617 19.4373 195.201 19.032C194.785 18.6267 194.235 18.424 193.553 18.424C192.87 18.424 192.321 18.632 191.905 19.048C191.489 19.4533 191.281 19.9867 191.281 20.648V26.152C191.281 26.8133 191.489 27.352 191.905 27.768C192.331 28.1733 192.886 28.376 193.569 28.376C194.251 28.376 194.795 28.1787 195.201 27.784C195.617 27.3787 195.825 26.8507 195.825 26.2V24.248C195.825 24.2053 195.803 24.184 195.761 24.184H193.761C193.654 24.184 193.601 24.1307 193.601 24.024V23.608C193.601 23.5013 193.654 23.448 193.761 23.448H196.513C196.619 23.448 196.673 23.5013 196.673 23.608V26.088C196.673 27.016 196.385 27.7573 195.809 28.312C195.243 28.856 194.491 29.128 193.553 29.128ZM209.037 17.96C209.037 17.8533 209.09 17.8 209.197 17.8H209.725C209.832 17.8 209.885 17.8533 209.885 17.96V28.84C209.885 28.9467 209.832 29 209.725 29H209.149C209.053 29 208.989 28.9627 208.957 28.888L204.365 19.704C204.344 19.6827 204.322 19.6773 204.301 19.688C204.29 19.688 204.285 19.704 204.285 19.736V28.84C204.285 28.9467 204.232 29 204.125 29H203.597C203.49 29 203.437 28.9467 203.437 28.84V17.96C203.437 17.8533 203.49 17.8 203.597 17.8H204.173C204.269 17.8 204.333 17.8373 204.365 17.912L208.957 27.064C208.978 27.0853 208.994 27.096 209.005 27.096C209.026 27.0853 209.037 27.064 209.037 27.032V17.96ZM226.208 29C226.112 29 226.053 28.952 226.032 28.856L223.44 17.976L223.424 17.912C223.424 17.8373 223.472 17.8 223.568 17.8H224.128C224.224 17.8 224.282 17.848 224.304 17.944L226.432 27.144C226.442 27.176 226.453 27.192 226.464 27.192C226.485 27.192 226.501 27.176 226.512 27.144L228.448 17.944C228.469 17.848 228.528 17.8 228.624 17.8H229.152C229.258 17.8 229.317 17.848 229.328 17.944L231.328 27.144C231.338 27.176 231.349 27.192 231.36 27.192C231.37 27.192 231.381 27.176 231.392 27.144L233.472 17.944C233.493 17.848 233.552 17.8 233.648 17.8H234.208C234.261 17.8 234.298 17.816 234.32 17.848C234.352 17.88 234.357 17.9227 234.336 17.976L231.792 28.856C231.77 28.952 231.712 29 231.616 29H231.072C230.976 29 230.917 28.952 230.896 28.856L228.928 19.576C228.917 19.544 228.906 19.528 228.896 19.528C228.885 19.528 228.874 19.544 228.864 19.576L226.912 28.856C226.901 28.952 226.842 29 226.736 29H226.208ZM243.088 29.128C242.138 29.128 241.376 28.84 240.8 28.264C240.224 27.6773 239.936 26.9093 239.936 25.96V20.84C239.936 20.2213 240.064 19.672 240.32 19.192C240.586 18.712 240.96 18.3387 241.44 18.072C241.92 17.8053 242.469 17.672 243.088 17.672C243.717 17.672 244.272 17.8053 244.752 18.072C245.242 18.3387 245.621 18.712 245.888 19.192C246.154 19.672 246.288 20.2213 246.288 20.84V25.96C246.288 26.5893 246.154 27.144 245.888 27.624C245.621 28.104 245.242 28.4773 244.752 28.744C244.272 29 243.717 29.128 243.088 29.128ZM243.088 28.376C243.792 28.376 244.357 28.1573 244.784 27.72C245.221 27.2827 245.44 26.712 245.44 26.008V20.824C245.44 20.1093 245.221 19.5333 244.784 19.096C244.357 18.648 243.792 18.424 243.088 18.424C242.394 18.424 241.834 18.648 241.408 19.096C240.992 19.5333 240.784 20.1093 240.784 20.824V26.008C240.784 26.712 240.997 27.2827 241.424 27.72C241.85 28.1573 242.405 28.376 243.088 28.376ZM258.617 29C258.532 29 258.473 28.9573 258.441 28.872L256.345 23.8C256.335 23.768 256.313 23.752 256.281 23.752H253.977C253.935 23.752 253.913 23.7733 253.913 23.816V28.84C253.913 28.9467 253.86 29 253.753 29H253.225C253.119 29 253.065 28.9467 253.065 28.84V17.96C253.065 17.8533 253.119 17.8 253.225 17.8H256.473C257.295 17.8 257.956 18.0773 258.457 18.632C258.969 19.1867 259.225 19.912 259.225 20.808C259.225 21.5547 259.044 22.184 258.681 22.696C258.319 23.1973 257.823 23.5227 257.193 23.672C257.151 23.6933 257.14 23.72 257.161 23.752L259.289 28.808L259.305 28.872C259.305 28.9573 259.257 29 259.161 29H258.617ZM253.977 18.552C253.935 18.552 253.913 18.5733 253.913 18.616V22.984C253.913 23.0267 253.935 23.048 253.977 23.048H256.393C256.991 23.048 257.471 22.8453 257.833 22.44C258.196 22.024 258.377 21.48 258.377 20.808C258.377 20.136 258.191 19.592 257.817 19.176C257.455 18.76 256.98 18.552 256.393 18.552H253.977ZM265.816 29C265.709 29 265.656 28.9467 265.656 28.84V17.96C265.656 17.8533 265.709 17.8 265.816 17.8H266.344C266.451 17.8 266.504 17.8533 266.504 17.96V23.528C266.504 23.5493 266.515 23.5653 266.536 23.576C266.557 23.5867 266.573 23.5813 266.584 23.56L270.936 17.896C270.979 17.832 271.048 17.8 271.144 17.8H271.752C271.816 17.8 271.859 17.8213 271.88 17.864C271.901 17.896 271.891 17.9387 271.848 17.992L268.584 22.312C268.573 22.344 268.573 22.376 268.584 22.408L272.152 28.808C272.173 28.8507 272.184 28.8827 272.184 28.904C272.184 28.968 272.136 29 272.04 29H271.432C271.357 29 271.293 28.9627 271.24 28.888L267.992 23.096C267.971 23.0427 267.944 23.0427 267.912 23.096L266.536 24.808C266.515 24.8507 266.504 24.8773 266.504 24.888V28.84C266.504 28.9467 266.451 29 266.344 29H265.816ZM280.697 29.128C279.726 29.128 278.953 28.8667 278.377 28.344C277.801 27.8213 277.513 27.1333 277.513 26.28V25.848C277.513 25.7413 277.566 25.688 277.673 25.688H278.169C278.276 25.688 278.329 25.7413 278.329 25.848V26.232C278.329 26.872 278.542 27.3893 278.969 27.784C279.406 28.1787 279.988 28.376 280.713 28.376C281.406 28.376 281.95 28.1947 282.345 27.832C282.75 27.4587 282.953 26.9627 282.953 26.344C282.953 25.9493 282.862 25.608 282.681 25.32C282.5 25.0213 282.233 24.7493 281.881 24.504C281.54 24.2587 281.049 23.9653 280.409 23.624C279.726 23.2507 279.204 22.936 278.841 22.68C278.478 22.4133 278.185 22.0987 277.961 21.736C277.737 21.3627 277.625 20.904 277.625 20.36C277.625 19.5173 277.886 18.8613 278.409 18.392C278.942 17.912 279.657 17.672 280.553 17.672C281.524 17.672 282.292 17.9387 282.857 18.472C283.422 18.9947 283.705 19.6933 283.705 20.568V20.952C283.705 21.0587 283.652 21.112 283.545 21.112H283.017C282.91 21.112 282.857 21.0587 282.857 20.952V20.6C282.857 19.9387 282.649 19.4107 282.233 19.016C281.817 18.6213 281.252 18.424 280.537 18.424C279.886 18.424 279.374 18.5947 279.001 18.936C278.638 19.2667 278.457 19.7413 278.457 20.36C278.457 20.7547 278.537 21.0853 278.697 21.352C278.868 21.6187 279.108 21.8587 279.417 22.072C279.737 22.2853 280.222 22.568 280.873 22.92C281.588 23.3147 282.142 23.656 282.537 23.944C282.942 24.232 283.252 24.5627 283.465 24.936C283.689 25.2987 283.801 25.7413 283.801 26.264C283.801 27.128 283.518 27.8213 282.953 28.344C282.398 28.8667 281.646 29.128 280.697 29.128Z" fill="#F52D01"/>
<path d="M326.216 29C326.163 29 326.115 28.984 326.072 28.952C326.04 28.9093 326.024 28.8613 326.024 28.808V17.992C326.024 17.9387 326.04 17.896 326.072 17.864C326.115 17.8213 326.163 17.8 326.216 17.8H327.688C327.741 17.8 327.784 17.8213 327.816 17.864C327.859 17.896 327.88 17.9387 327.88 17.992V28.808C327.88 28.8613 327.859 28.9093 327.816 28.952C327.784 28.984 327.741 29 327.688 29H326.216ZM333.467 20.696C334.245 20.696 334.853 20.9413 335.291 21.432C335.728 21.9227 335.947 22.6 335.947 23.464V28.808C335.947 28.8613 335.925 28.9093 335.883 28.952C335.851 28.984 335.808 29 335.755 29H334.283C334.229 29 334.181 28.984 334.139 28.952C334.107 28.9093 334.091 28.8613 334.091 28.808V23.72C334.091 23.2827 333.979 22.936 333.755 22.68C333.541 22.424 333.248 22.296 332.875 22.296C332.491 22.296 332.181 22.4293 331.947 22.696C331.723 22.952 331.611 23.2987 331.611 23.736V28.808C331.611 28.8613 331.589 28.9093 331.547 28.952C331.515 28.984 331.472 29 331.419 29H329.947C329.893 29 329.845 28.984 329.803 28.952C329.771 28.9093 329.755 28.8613 329.755 28.808V21.016C329.755 20.9627 329.771 20.92 329.803 20.888C329.845 20.8453 329.893 20.824 329.947 20.824H331.419C331.472 20.824 331.515 20.8453 331.547 20.888C331.589 20.92 331.611 20.9627 331.611 21.016V21.432C331.611 21.464 331.621 21.4853 331.643 21.496C331.664 21.5067 331.685 21.496 331.707 21.464C332.133 20.952 332.72 20.696 333.467 20.696ZM341.951 17.992C341.951 17.9387 341.967 17.896 341.999 17.864C342.041 17.8213 342.089 17.8 342.143 17.8H343.615C343.668 17.8 343.711 17.8213 343.743 17.864C343.785 17.896 343.807 17.9387 343.807 17.992V28.808C343.807 28.8613 343.785 28.9093 343.743 28.952C343.711 28.984 343.668 29 343.615 29H342.143C342.089 29 342.041 28.984 341.999 28.952C341.967 28.9093 341.951 28.8613 341.951 28.808V28.392C341.951 28.36 341.94 28.3387 341.919 28.328C341.897 28.3173 341.876 28.328 341.855 28.36C341.449 28.872 340.868 29.128 340.111 29.128C338.809 29.128 337.977 28.3173 337.615 26.696C337.497 26.2053 337.439 25.6027 337.439 24.888C337.439 24.184 337.487 23.5973 337.583 23.128C337.913 21.5067 338.772 20.696 340.159 20.696C340.927 20.696 341.492 20.9413 341.855 21.432C341.876 21.464 341.897 21.4747 341.919 21.464C341.94 21.4533 341.951 21.432 341.951 21.4V17.992ZM341.775 26.52C341.881 26.1467 341.935 25.608 341.935 24.904C341.935 24.1787 341.876 23.6293 341.759 23.256C341.588 22.616 341.225 22.296 340.671 22.296C340.105 22.296 339.716 22.6107 339.503 23.24C339.364 23.6453 339.295 24.2 339.295 24.904C339.295 25.5547 339.353 26.088 339.471 26.504C339.663 27.1867 340.057 27.528 340.655 27.528C341.22 27.528 341.593 27.192 341.775 26.52ZM346.56 19.704C346.229 19.704 345.957 19.5973 345.743 19.384C345.541 19.1707 345.44 18.8987 345.44 18.568C345.44 18.2373 345.541 17.9653 345.743 17.752C345.957 17.5387 346.229 17.432 346.56 17.432C346.901 17.432 347.173 17.5387 347.376 17.752C347.589 17.9547 347.696 18.2267 347.696 18.568C347.696 18.8987 347.589 19.1707 347.376 19.384C347.162 19.5973 346.89 19.704 346.56 19.704ZM345.824 29C345.77 29 345.722 28.984 345.68 28.952C345.648 28.9093 345.632 28.8613 345.632 28.808V21C345.632 20.9467 345.648 20.904 345.68 20.872C345.722 20.8293 345.77 20.808 345.824 20.808H347.296C347.349 20.808 347.392 20.8293 347.424 20.872C347.466 20.904 347.488 20.9467 347.488 21V28.808C347.488 28.8613 347.466 28.9093 347.424 28.952C347.392 28.984 347.349 29 347.296 29H345.824ZM352.261 20.696C352.869 20.696 353.408 20.8133 353.877 21.048C354.346 21.272 354.709 21.5867 354.965 21.992C355.232 22.3973 355.365 22.8613 355.365 23.384V28.808C355.365 28.8613 355.344 28.9093 355.301 28.952C355.269 28.984 355.226 29 355.173 29H353.701C353.648 29 353.6 28.984 353.557 28.952C353.525 28.9093 353.509 28.8613 353.509 28.808V28.408C353.509 28.376 353.498 28.3547 353.477 28.344C353.456 28.3333 353.434 28.3387 353.413 28.36C352.965 28.872 352.32 29.128 351.477 29.128C350.773 29.128 350.176 28.9413 349.685 28.568C349.194 28.184 348.949 27.5653 348.949 26.712C348.949 25.816 349.232 25.1493 349.797 24.712C350.373 24.2747 351.162 24.056 352.165 24.056H353.429C353.482 24.056 353.509 24.0293 353.509 23.976V23.576C353.509 23.1813 353.397 22.872 353.173 22.648C352.96 22.4133 352.661 22.296 352.277 22.296C351.968 22.296 351.712 22.3707 351.509 22.52C351.317 22.6587 351.194 22.8507 351.141 23.096C351.109 23.2133 351.034 23.272 350.917 23.272L349.365 23.176C349.312 23.176 349.264 23.16 349.221 23.128C349.189 23.0853 349.178 23.0427 349.189 23C349.253 22.3173 349.568 21.7627 350.133 21.336C350.709 20.9093 351.418 20.696 352.261 20.696ZM351.957 27.624C352.373 27.624 352.736 27.5067 353.045 27.272C353.354 27.0267 353.509 26.7067 353.509 26.312V25.48C353.509 25.4267 353.482 25.4 353.429 25.4H352.357C351.888 25.4 351.514 25.5013 351.237 25.704C350.97 25.9067 350.837 26.2 350.837 26.584C350.837 26.9253 350.938 27.1867 351.141 27.368C351.354 27.5387 351.626 27.624 351.957 27.624Z" fill="#858585"/>
<path fill-rule="evenodd" clip-rule="evenodd" d="M23.9287 19.5744C23.3341 20.1685 23 20.9745 23 21.8148L23 25.8896L28.6671 20.2316L36.1832 30.1679C36.8572 31.0589 37.9102 31.5826 39.0277 31.5826L41.9877 31.5825L31.4347 17.4685L40.9185 8H36.8251C35.9846 8 35.1785 8.33365 34.5841 8.92756L23.9287 19.5744Z" fill="#F52D01"/>
<path d="M31.4586 17.4602L41.9995 31.576L39.0413 31.5761C37.925 31.5761 36.8731 31.0529 36.1996 30.1626L28.6882 20.233L31.4586 17.4602Z" fill="url(#paint0_linear)"/>
<rect width="50" height="50" transform="matrix(-4.37114e-08 -1 -1 4.37114e-08 50 50)" fill="#F52D01"/>
<path fill-rule="evenodd" clip-rule="evenodd" d="M16.8804 24.7976C16.3167 25.3519 16 26.1038 16 26.8878L16 30.689L21.3723 25.4108L28.4975 34.6803C29.1364 35.5115 30.1346 36 31.194 36L34 36L23.9959 22.8331L32.9865 14H29.106C28.3092 14 27.5451 14.3113 26.9816 14.8653L16.8804 24.7976Z" fill="white"/>
<path d="M23.9643 22.7376L34.1734 36.4092L31.3083 36.4092C30.2271 36.4093 29.2084 35.9025 28.5561 35.0402L21.2811 25.4232L23.9643 22.7376Z" fill="url(#paint1_linear)"/>
<line x1="306.5" y1="9" x2="306.5" y2="37" stroke="#E2E2E2"/>
<defs>
<linearGradient id="paint0_linear" x1="34.5466" y1="24.5071" x2="30.2802" y2="18.6082" gradientUnits="userSpaceOnUse">
<stop stop-color="#F52D01"/>
<stop offset="1" stop-color="#AC1F00"/>
</linearGradient>
<linearGradient id="paint1_linear" x1="27.4536" y1="30.5214" x2="22.823" y2="23.8496" gradientUnits="userSpaceOnUse">
<stop stop-color="white"/>
<stop offset="1" stop-color="#949494"/>
</linearGradient>
</defs>
</svg>
