<svg xmlns="http://www.w3.org/2000/svg" xmlns:xlink="http://www.w3.org/1999/xlink" viewBox="0 0 362.17 1091.39">
  <defs>
    <mask id="a" x="40.12" y="987.16" width="73.15" height="47.52" maskUnits="userSpaceOnUse">
      <path d="M51.62,1011.93l9,5.54L58,1019.16l1,1.54,3.35-2.17,14.06,8.7a.87.87,0,0,0,.49.14.88.88,0,0,0,.49-.15l13.9-9,3.39,2.1,1-1.55-2.66-1.64,8.85-5.71a.9.9,0,0,0,.42-.78,1,1,0,0,0-.43-.77L77,994.61a.91.91,0,0,0-1,0l-24.45,15.76a.92.92,0,0,0-.42.78A.93.93,0,0,0,51.62,1011.93Zm24.94-15.46,23,14.24-22.75,14.66-23-14.24Z" style="fill: #fff"/>
    </mask>
    <mask id="b" x="40.24" y="1010.6" width="26.43" height="26.59" maskUnits="userSpaceOnUse">
      <path d="M51.74,1024.72l3.89,2.4,1-1.55-2.66-1.64,2.63-1.69-1-1.54-3.84,2.47a.92.92,0,0,0,0,1.55Z" style="fill: #fff"/>
    </mask>
    <mask id="c" x="54.7" y="1021.16" width="27.61" height="25.72" maskUnits="userSpaceOnUse">
      <path d="M65.73,1031.22l-1,1.56,6.52,4,1-1.55Z" style="fill: #fff"/>
    </mask>
    <mask id="d" x="86.97" y="1010.24" width="26.43" height="26.59" maskUnits="userSpaceOnUse">
      <path d="M101.89,1022.71,98,1020.3l-1,1.56,2.65,1.64-2.62,1.69,1,1.54,3.84-2.48a.92.92,0,0,0,0-1.54Z" style="fill: #fff"/>
    </mask>
  </defs>
  <title>process-mobile_2</title>
  <g>
    <text transform="translate(186.51 197.09)" style="font-size: 14px;fill: #231f20;font-family: Barlow-Regular, Barlow;letter-spacing: 0.028006417410714284em">Me<tspan x="18.26" y="0" style="letter-spacing: 0.02099609375em">e</tspan><tspan x="26.01" y="0">ting with t</tspan><tspan x="91.03" y="0" style="letter-spacing: 0.02099609375em">h</tspan><tspan x="98.87" y="0">e client </tspan><tspan style="letter-spacing: 0.013009207589285714em"><tspan x="0" y="19">t</tspan><tspan x="5.28" y="19" style="letter-spacing: 0.028006417410714284em">o u</tspan><tspan x="24.39" y="19" style="letter-spacing: 0.021030970982142856em">n</tspan><tspan x="32.23" y="19" style="letter-spacing: 0.028006417410714284em">de</tspan><tspan x="48.12" y="19" style="letter-spacing: 0.025006975446428572em">r</tspan><tspan x="53.56" y="19" style="letter-spacing: 0.026960100446428572em">s</tspan><tspan x="60.68" y="19" style="letter-spacing: 0.028006417410714284em">ta</tspan><tspan x="73.71" y="19" style="letter-spacing: 0.021030970982142856em">n</tspan><tspan x="81.55" y="19" style="letter-spacing: 0.028006417410714284em">d </tspan></tspan><tspan style="letter-spacing: 0.023018973214285716em"><tspan x="0" y="38">r</tspan><tspan x="5.42" y="38" style="letter-spacing: 0.028006417410714284em">equi</tspan><tspan x="33.25" y="38">r</tspan><tspan x="38.67" y="38" style="letter-spacing: 0.028006417410714284em">e</tspan><tspan x="46.52" y="38" style="letter-spacing: 0.021030970982142856em">m</tspan><tspan x="58.4" y="38" style="letter-spacing: 0.027971540178571428em">ents a</tspan><tspan x="97.54" y="38" style="letter-spacing: 0.021030970982142856em">n</tspan><tspan x="105.38" y="38" style="letter-spacing: 0.028006417410714284em">d s</tspan><tspan x="123.73" y="38" style="letter-spacing: 0.025006975446428572em">c</tspan><tspan x="131.36" y="38" style="letter-spacing: 0.027971540178571428em">o</tspan><tspan x="139.38" y="38" style="letter-spacing: 0.021030970982142856em">p</tspan><tspan x="147.41" y="38" style="letter-spacing: 0.028006417410714284em">e</tspan></tspan></text>
    <text transform="translate(186.51 165.96) scale(0.91 1)" style="font-size: 24px;fill: #231f20;font-family: BarlowSemiCondensed-SemiBold, Barlow Semi Condensed;font-weight: 600">In<tspan x="17.62" y="0" style="letter-spacing: -0.0049639998493096315em">t</tspan><tspan x="25.37" y="0" style="letter-spacing: -0.00002226008901035709em">e</tspan><tspan x="36.98" y="0" style="letter-spacing: -0.004006816021864278em">r</tspan><tspan x="45.1" y="0" style="letter-spacing: 0.00002226008901035709em">a</tspan><tspan x="56.57" y="0" style="letter-spacing: -0.0030051120163982078em">c</tspan><tspan x="67.94" y="0" style="letter-spacing: 0.00002226008901035709em">tion</tspan></text>
    <text transform="translate(186.51 409.68)" style="font-size: 14px;fill: #231f20;font-family: Barlow-Regular, Barlow;letter-spacing: 0.028006417410714284em">Anal<tspan x="27.99" y="0" style="letter-spacing: -0.0029994419642857145em">y</tspan><tspan x="34.4" y="0">sing </tspan><tspan x="64.5" y="0" style="letter-spacing: 0.025041852678571428em">c</tspan><tspan x="72.13" y="0">om</tspan><tspan x="92.12" y="0" style="letter-spacing: 0.020961216517857144em">pe</tspan><tspan x="107.9" y="0">titio</tspan><tspan x="134.82" y="0" style="letter-spacing: 0.007010323660714286em">n</tspan><tspan x="142.46" y="0">, </tspan><tspan x="0" y="19">cur</tspan><tspan x="21.06" y="19" style="letter-spacing: 0.023018973214285716em">r</tspan><tspan x="26.47" y="19">ent t</tspan><tspan x="56.43" y="19" style="letter-spacing: 0.023018973214285716em">r</tspan><tspan x="61.85" y="19">e</tspan><tspan x="69.71" y="19" style="letter-spacing: 0.021030970982142856em">n</tspan><tspan x="77.55" y="19" style="letter-spacing: 0.027971540178571428em">ds a</tspan><tspan x="103.45" y="19" style="letter-spacing: 0.021030970982142856em">n</tspan><tspan x="111.29" y="19">d </tspan><tspan x="0" y="38">planning </tspan><tspan x="58.13" y="38" style="letter-spacing: -0.018973214285714284em">f</tspan><tspan x="62.84" y="38">or t</tspan><tspan x="85.03" y="38" style="letter-spacing: 0.02099609375em">h</tspan><tspan x="92.87" y="38">e p</tspan><tspan x="112.04" y="38" style="letter-spacing: 0.023018973214285716em">r</tspan><tspan x="117.46" y="38" style="letter-spacing: 0.027971540178571428em">oject</tspan></text>
    <text transform="translate(186.51 378.54) scale(0.91 1)" style="font-size: 24px;fill: #231f20;font-family: BarlowSemiCondensed-SemiBold, Barlow Semi Condensed;font-weight: 600"><tspan style="letter-spacing: -0.00298285192738785em">R</tspan><tspan x="12.82" y="0" style="letter-spacing: -0.004006816021864278em">e</tspan><tspan x="24.34" y="0">s</tspan><tspan x="35.04" y="0" style="letter-spacing: -0.005008520027330346em">e</tspan><tspan x="46.54" y="0" style="letter-spacing: 0.00002226008901035709em">a</tspan><tspan x="58.01" y="0" style="letter-spacing: -0.008013632043728555em">r</tspan><tspan x="66.02" y="0">ch</tspan></text>
    <text transform="translate(186.51 615.48)" style="font-size: 14px;fill: #231f20;font-family: Barlow-Regular, Barlow;letter-spacing: 0.021030970982142856em">G<tspan x="8.88" y="0" style="letter-spacing: 0.023995535714285716em">a</tspan><tspan x="16.37" y="0" style="letter-spacing: 0.027971540178571428em">t</tspan><tspan x="21.85" y="0">h</tspan><tspan x="29.69" y="0" style="letter-spacing: 0.028006417410714284em">er id</tspan><tspan x="58.23" y="0" style="letter-spacing: 0.023018973214285716em">e</tspan><tspan x="66.01" y="0" style="letter-spacing: 0.028006417410714284em">as, build IAs </tspan><tspan style="letter-spacing: 0.028006417410714284em"><tspan x="0" y="19">a</tspan><tspan x="7.55" y="19" style="letter-spacing: 0.021030970982142856em">n</tspan><tspan x="15.39" y="19" style="letter-spacing: 0.027971540178571428em">d wi</tspan><tspan x="41.06" y="19" style="letter-spacing: 0.023018973214285716em">r</tspan><tspan x="46.48" y="19" style="letter-spacing: 0.02099609375em">e</tspan><tspan x="54.24" y="19" style="letter-spacing: 0.027971540178571428em">f</tspan><tspan x="59.61" y="19" style="letter-spacing: 0.026018415178571428em">r</tspan><tspan x="65.07" y="19">a</tspan><tspan x="72.62" y="19" style="letter-spacing: 0.02099609375em">m</tspan><tspan x="84.49" y="19" style="letter-spacing: 0.01904296875em">e</tspan><tspan x="92.22" y="19" style="letter-spacing: 0.027971540178571428em">s</tspan></tspan></text>
    <text transform="translate(186.51 584.35) scale(0.91 1)" style="font-size: 24px;fill: #231f20;font-family: BarlowSemiCondensed-SemiBold, Barlow Semi Condensed;font-weight: 600">Id<tspan x="17.78" y="0" style="letter-spacing: -0.004986259938319989em">e</tspan><tspan x="29.28" y="0" style="letter-spacing: -0.00398455593285392em">a</tspan><tspan x="40.66" y="0" style="letter-spacing: -0.00002226008901035709em">tion</tspan></text>
    <text transform="translate(186.51 819.41)" style="font-size: 14px;fill: #231f20;font-family: Barlow-Regular, Barlow;letter-spacing: 0.028006417410714284em">C<tspan x="8.89" y="0" style="letter-spacing: 0.023018973214285716em">re</tspan><tspan x="22.09" y="0" style="letter-spacing: 0.023995535714285716em">a</tspan><tspan x="29.58" y="0" style="letter-spacing: 0.013009207589285714em">t</tspan><tspan x="34.86" y="0">e visual languag</tspan><tspan x="136.58" y="0" style="letter-spacing: 0.008021763392857142em">e</tspan><tspan x="144.16" y="0">, </tspan><tspan x="0" y="19">c</tspan><tspan x="7.67" y="19" style="letter-spacing: 0.023018973214285716em">re</tspan><tspan x="20.87" y="19" style="letter-spacing: 0.023995535714285716em">a</tspan><tspan x="28.36" y="19" style="letter-spacing: 0.013009207589285714em">t</tspan><tspan x="33.64" y="19">e p</tspan><tspan x="52.81" y="19" style="letter-spacing: 0.022984095982142856em">r</tspan><tspan x="58.23" y="19" style="letter-spacing: 0.022007533482142856em">o</tspan><tspan x="66.16" y="19" style="letter-spacing: 0.013009207589285714em">t</tspan><tspan x="71.44" y="19" style="letter-spacing: 0.022007533482142856em">o</tspan><tspan x="79.38" y="19">ty</tspan><tspan x="91.71" y="19" style="letter-spacing: 0.021030970982142856em">p</tspan><tspan x="99.74" y="19" style="letter-spacing: 0.019008091517857144em">e</tspan><tspan x="107.46" y="19">s a</tspan><tspan x="125.33" y="19" style="letter-spacing: 0.02099609375em">n</tspan><tspan x="133.17" y="19">d </tspan><tspan x="0" y="38">defi</tspan><tspan x="24.85" y="38" style="letter-spacing: 0.021030970982142856em">n</tspan><tspan x="32.69" y="38">e in</tspan><tspan x="55.64" y="38" style="letter-spacing: 0.012974330357142858em">t</tspan><tspan x="60.91" y="38">e</tspan><tspan x="68.77" y="38" style="letter-spacing: 0.025983537946428572em">r</tspan><tspan x="74.23" y="38">actions</tspan></text>
    <text transform="translate(186.51 788.28) scale(0.91 1)" style="font-size: 24px;fill: #231f20;font-family: BarlowSemiCondensed-SemiBold, Barlow Semi Condensed;font-weight: 600">D<tspan x="13.08" y="0" style="letter-spacing: -0.004006816021864278em">e</tspan><tspan x="24.6" y="0">sign</tspan></text>
    <text transform="translate(186.51 1028.56)" style="font-size: 14px;fill: #231f20;font-family: Barlow-Regular, Barlow;letter-spacing: -0.02099609375em">W<tspan x="12" y="0" style="letter-spacing: 0.028006417410714284em">ork with d</tspan><tspan x="75.21" y="0" style="letter-spacing: 0.015032087053571428em">e</tspan><tspan x="82.88" y="0" style="letter-spacing: 0.010986328125em">v</tspan><tspan x="89.68" y="0" style="letter-spacing: 0.027971540178571428em">elop</tspan><tspan x="117.29" y="0" style="letter-spacing: 0.02099609375em">m</tspan><tspan x="129.16" y="0" style="letter-spacing: 0.028006417410714284em">ent </tspan><tspan x="153.63" y="0" style="letter-spacing: 0.013009207589285714em">t</tspan><tspan x="158.91" y="0" style="letter-spacing: 0.028006417410714284em">o </tspan><tspan style="letter-spacing: 0.028006417410714284em"><tspan x="0" y="19">imple</tspan><tspan x="35.52" y="19" style="letter-spacing: 0.021030970982142856em">m</tspan><tspan x="47.39" y="19">ent fu</tspan><tspan x="85.13" y="19" style="letter-spacing: 0.02099609375em">n</tspan><tspan x="92.97" y="19" style="letter-spacing: 0.027971540178571428em">ctionality </tspan><tspan x="0" y="38">a</tspan><tspan x="7.55" y="38" style="letter-spacing: 0.021030970982142856em">n</tspan><tspan x="15.39" y="38" style="letter-spacing: 0.027971540178571428em">d build </tspan><tspan x="61.35" y="38" style="letter-spacing: 0.013985770089285714em">e</tspan><tspan x="69" y="38">x</tspan><tspan x="76.07" y="38" style="letter-spacing: 0.021030970982142856em">p</tspan><tspan x="84.1" y="38" style="letter-spacing: 0.027971540178571428em">erie</tspan><tspan x="109.25" y="38" style="letter-spacing: 0.021030970982142856em">n</tspan><tspan x="117.1" y="38" style="letter-spacing: 0.025006975446428572em">c</tspan><tspan x="124.73" y="38" style="letter-spacing: 0.007986886160714286em">e</tspan><tspan x="132.3" y="38">.</tspan></tspan></text>
    <text transform="translate(186.51 997.42) scale(0.91 1)" style="font-size: 24px;fill: #231f20;font-family: BarlowSemiCondensed-SemiBold, Barlow Semi Condensed;font-weight: 600">Imple<tspan x="52.68" y="0" style="letter-spacing: -0.002003408010932139em">m</tspan><tspan x="70.56" y="0">ent</tspan></text>
    <path d="M73.56,269a73.57,73.57,0,1,1,73.57-73.57A73.57,73.57,0,0,1,73.56,269Zm0-144.19a70.63,70.63,0,1,0,70.62,70.62A70.62,70.62,0,0,0,73.56,124.76Z" style="fill: #f1f0f0"/>
    <path d="M147.13,195.38a73.61,73.61,0,0,1-28.23,57.94L117.09,251a70.6,70.6,0,0,0,27.09-55.62Z" style="fill: #ed6d25"/>
    <rect x="71.66" y="471.62" width="4.57" height="63.26" style="fill: #f1f0f0"/>
    <rect x="71.66" y="677.23" width="4.57" height="62.34" style="fill: #f1f0f0"/>
    <rect x="71.66" y="882.83" width="4.57" height="61.44" style="fill: #f1f0f0"/>
    <path d="M73.56,474.56A73.57,73.57,0,1,1,147.13,401,73.57,73.57,0,0,1,73.56,474.56Zm0-144.18A70.62,70.62,0,1,0,144.18,401,70.62,70.62,0,0,0,73.56,330.38Z" style="fill: #f1f0f0"/>
    <path d="M147.13,401a73.58,73.58,0,0,1-82.86,73l.37-2.92A70.61,70.61,0,0,0,144.18,401Z" style="fill: #ee9224"/>
    <path d="M73.56,680.17a73.57,73.57,0,1,1,73.57-73.56A73.56,73.56,0,0,1,73.56,680.17Zm0-144.18a70.62,70.62,0,1,0,70.62,70.62A70.62,70.62,0,0,0,73.56,536Z" style="fill: #f1f0f0"/>
    <path d="M147.13,606.61A73.57,73.57,0,0,1,0,606.61H2.94a70.62,70.62,0,1,0,141.24,0Z" style="fill: #edb623"/>
    <path d="M73.56,885.78a73.56,73.56,0,1,1,73.57-73.56A73.56,73.56,0,0,1,73.56,885.78Zm0-144.18a70.62,70.62,0,1,0,70.62,70.62A70.62,70.62,0,0,0,73.56,741.6Z" style="fill: #f1f0f0"/>
    <path d="M147.13,812.22A73.57,73.57,0,1,1,46.06,744l1.1,2.73a70.62,70.62,0,1,0,97,65.5Z" style="fill: #d6d825"/>
    <path d="M73.56,1091.39a73.56,73.56,0,1,1,73.57-73.56A73.56,73.56,0,0,1,73.56,1091.39Zm0-144.18a70.62,70.62,0,1,0,70.62,70.62A70.62,70.62,0,0,0,73.56,947.21Z" style="fill: #f1f0f0"/>
    <path d="M73.56,1091.39a73.56,73.56,0,1,1,73.57-73.56A73.56,73.56,0,0,1,73.56,1091.39Zm0-144.18a70.62,70.62,0,1,0,70.62,70.62A70.62,70.62,0,0,0,73.56,947.21Z" style="fill: #94c83d"/>
    <rect x="71.66" y="266.21" width="4.57" height="63.97" style="fill: #f1f0f0"/>
    <path d="M70.81,174.56a5.42,5.42,0,0,0,10.84,0,5.48,5.48,0,0,0-5.48-5.41A5.37,5.37,0,0,0,70.81,174.56Zm8.31,0a3,3,0,1,1-5.91,0,3,3,0,0,1,5.91,0Z" style="fill: #ed6d25"/>
    <path d="M54.5,206.39A5.42,5.42,0,1,0,49.08,201,5.43,5.43,0,0,0,54.5,206.39Zm0-8.31a3,3,0,0,1,3,2.95,3,3,0,1,1-5.91,0A3,3,0,0,1,54.5,198.08Z" style="fill: #ed6d25"/>
    <path d="M92.42,201a5.42,5.42,0,1,0,5.42-5.41A5.42,5.42,0,0,0,92.42,201Zm8.31,0a3,3,0,0,1-3,3,3,3,0,1,1,3-3Z" style="fill: #ed6d25"/>
    <path d="M100.3,208.48H95.38a5,5,0,0,0-4.93,4.8l-13-6.58V195.49h4.93a1.24,1.24,0,0,0,1.23-1.23v-7.32A5,5,0,0,0,78.63,182H73.71a5,5,0,0,0-4.93,4.93v7.32A1.24,1.24,0,0,0,70,195.49h4.93v11.15l-13,6.58A5,5,0,0,0,57,208.48H52a5,5,0,0,0-4.93,4.93v7.32A1.24,1.24,0,0,0,48.34,222H60.66a1.24,1.24,0,0,0,1.23-1.23V216l14.22-7.2,14.28,7.26v4.68A1.23,1.23,0,0,0,91.62,222h12.31a1.23,1.23,0,0,0,1.23-1.23v-7.32A4.84,4.84,0,0,0,100.3,208.48Zm-40.88,11H49.58v-6.09A2.46,2.46,0,0,1,52,211H57a2.46,2.46,0,0,1,2.46,2.46ZM71.24,193v-6.09a2.48,2.48,0,0,1,2.47-2.47h4.92a2.47,2.47,0,0,1,2.46,2.47V193Zm31.52,26.47H92.91v-6.09A2.47,2.47,0,0,1,95.38,211h4.92a2.46,2.46,0,0,1,2.46,2.46Z" style="fill: #ed6d25"/>
    <path d="M67.71,635.78a6.66,6.66,0,0,1-5.2-2.6,6.41,6.41,0,0,1-3,.76,6.84,6.84,0,0,1-6.44-5.09,7.08,7.08,0,0,1-6.37-7.29,7.87,7.87,0,0,1,0-.84,7.69,7.69,0,0,1,.57-10.79,7.66,7.66,0,0,1-.84-3.54,7.49,7.49,0,0,1,3.09-6.1,7.73,7.73,0,0,1-.44-2.55,7.23,7.23,0,0,1,5.08-7.07v-.3a7.06,7.06,0,0,1,6.78-7.3h.4a6.76,6.76,0,0,1,6.35-4.73,7,7,0,0,1,6.75,7.27,1,1,0,1,1-2,0,5.07,5.07,0,0,0-4.78-5.3A4.89,4.89,0,0,0,63,584.39a.93.93,0,0,1-.45.63,1,1,0,0,1-.77.11A3.46,3.46,0,0,0,61,585a5.1,5.1,0,0,0-4.82,5.33c0,.34,0,.67.07,1a1,1,0,0,1-.86,1.06,5.18,5.18,0,0,0-4.28,5.31,5.86,5.86,0,0,0,.59,2.53,1,1,0,0,1-.44,1.3,5.43,5.43,0,0,0-2.81,4.82,5.72,5.72,0,0,0,1,3.26,1,1,0,0,1,.14.75,1,1,0,0,1-.44.62,5.43,5.43,0,0,0-2.36,4.58,5.54,5.54,0,0,0,1.69,4.07,1,1,0,0,1,.3.87,5.86,5.86,0,0,0-.09,1,5.11,5.11,0,0,0,4.87,5.34h.08a1,1,0,0,1,1.2.78,5,5,0,0,0,4.7,4.31,4.64,4.64,0,0,0,2.73-.93,1,1,0,0,1,1.43.31,4.75,4.75,0,0,0,4.06,2.45,5.1,5.1,0,0,0,4.78-5.34,1,1,0,0,1,2,0A7.06,7.06,0,0,1,67.71,635.78Z" style="fill: #edb623"/>
    <path d="M73.47,629.45a1,1,0,0,1-1-1V585.62a1,1,0,0,1,2,0v42.85A1,1,0,0,1,73.47,629.45Z" style="fill: #edb623"/>
    <path d="M58.6,603.38a1,1,0,0,1-.82-.45,4.73,4.73,0,0,0-6.48-1.41,1,1,0,1,1-1.06-1.66,6.7,6.7,0,0,1,9.19,2,1,1,0,0,1-.29,1.36A1,1,0,0,1,58.6,603.38Z" style="fill: #edb623"/>
    <path d="M53.82,628.83a1,1,0,0,1-1-.85,1,1,0,0,1,.83-1.11,4.6,4.6,0,0,0,3.08-1.81,4.67,4.67,0,0,0,.9-3.46,1,1,0,0,1,.84-1.11,1,1,0,0,1,1.11.84,6.65,6.65,0,0,1-1.28,4.91A6.58,6.58,0,0,1,54,628.82Z" style="fill: #edb623"/>
    <path d="M73.47,610.88a1,1,0,0,1-.93-.66,4.6,4.6,0,0,0-4.2-3.14,1,1,0,0,1-1-1,1,1,0,0,1,1-1,6.59,6.59,0,0,1,6,4.46,1,1,0,0,1-.61,1.25A1.13,1.13,0,0,1,73.47,610.88Z" style="fill: #edb623"/>
    <path d="M64.6,617.2a10.77,10.77,0,0,1-10.78-9.73,1,1,0,0,1,2-.19,8.8,8.8,0,0,0,8.82,8,1,1,0,0,1,0,2Z" style="fill: #edb623"/>
    <path d="M52.9,616.29a1,1,0,0,1-.69-1.68,6.71,6.71,0,0,1,6-1.85,1,1,0,0,1,.78,1.16,1,1,0,0,1-1.15.77A4.75,4.75,0,0,0,53.6,616,1,1,0,0,1,52.9,616.29Z" style="fill: #edb623"/>
    <path d="M68.46,629.55a1,1,0,0,1-1-1,9.08,9.08,0,0,0-1.66-5.2,1,1,0,1,1,1.61-1.13,11.07,11.07,0,0,1,2,6.33A1,1,0,0,1,68.46,629.55Z" style="fill: #edb623"/>
    <path d="M65.91,587.89a1,1,0,0,1-.85-.49,4.72,4.72,0,0,0-3.16-2.25,1,1,0,0,1-.79-1.14,1,1,0,0,1,1.14-.79,6.61,6.61,0,0,1,4.51,3.19,1,1,0,0,1-.36,1.34A1,1,0,0,1,65.91,587.89Z" style="fill: #edb623"/>
    <path d="M68.13,599.91a1,1,0,0,1-.4-.09,10.86,10.86,0,0,1-6.16-7.75,1,1,0,0,1,.77-1.15,1,1,0,0,1,1.16.77,8.88,8.88,0,0,0,5,6.34,1,1,0,0,1-.41,1.88Z" style="fill: #edb623"/>
    <path d="M64.79,603.8a1,1,0,0,1-1-.83,11,11,0,0,1,.83-6.15,1,1,0,1,1,1.79.8,9.05,9.05,0,0,0-.68,5,1,1,0,0,1-.82,1.12Z" style="fill: #edb623"/>
    <path d="M79.27,635.78a7.07,7.07,0,0,1-6.78-7.31,1,1,0,0,1,2,0,5.11,5.11,0,0,0,4.81,5.34,4.75,4.75,0,0,0,4.06-2.45,1,1,0,0,1,1.44-.3,4.55,4.55,0,0,0,2.69.92,5,5,0,0,0,4.73-4.31,1,1,0,0,1,.44-.65,1,1,0,0,1,.77-.13h.15a5.09,5.09,0,0,0,4.78-5.34,5.84,5.84,0,0,0-.08-1,1,1,0,0,1,.28-.86,5.7,5.7,0,0,0,1.71-4.08,5.41,5.41,0,0,0-2.4-4.58,1,1,0,0,1-.29-1.37,5.82,5.82,0,0,0,1-3.26,5.41,5.41,0,0,0-2.81-4.82,1,1,0,0,1-.43-1.3,5.86,5.86,0,0,0,.59-2.53,5.18,5.18,0,0,0-4.31-5.31,1,1,0,0,1-.67-.39,1,1,0,0,1-.18-.76,4.67,4.67,0,0,0,.08-.91A5.1,5.1,0,0,0,86,585a3.6,3.6,0,0,0-.86.09,1,1,0,0,1-1.22-.74,4.87,4.87,0,0,0-4.67-4.07,5.08,5.08,0,0,0-4.81,5.3,1,1,0,1,1-2,0,7.05,7.05,0,0,1,6.78-7.27,6.76,6.76,0,0,1,6.35,4.73H86a7.06,7.06,0,0,1,6.78,7.3c0,.1,0,.2,0,.3a7.24,7.24,0,0,1,5.09,7.07,7.74,7.74,0,0,1-.45,2.55,7.47,7.47,0,0,1,3.1,6.1,7.57,7.57,0,0,1-.87,3.54,7.47,7.47,0,0,1,2.54,5.67,7.73,7.73,0,0,1-1.94,5.12,7.87,7.87,0,0,1,0,.84,7.08,7.08,0,0,1-6.37,7.29,6.87,6.87,0,0,1-6.47,5.09,6.36,6.36,0,0,1-3-.76A6.64,6.64,0,0,1,79.27,635.78Z" style="fill: #edb623"/>
    <path d="M88.38,603.38a1,1,0,0,1-.54-.16,1,1,0,0,1-.29-1.36,6.65,6.65,0,0,1,9.18-2,1,1,0,1,1-1,1.66,4.69,4.69,0,0,0-6.48,1.41A1,1,0,0,1,88.38,603.38Z" style="fill: #edb623"/>
    <path d="M93.16,628.83H93a6.56,6.56,0,0,1-4.37-2.55,6.67,6.67,0,0,1-1.29-4.94,1,1,0,0,1,1.11-.84,1,1,0,0,1,.84,1.11,4.63,4.63,0,0,0,.91,3.48,4.57,4.57,0,0,0,3.06,1.79,1,1,0,0,1-.13,2Z" style="fill: #edb623"/>
    <path d="M73.47,618.55a1,1,0,0,1-.33-.06,1,1,0,0,1-.59-1.26,6.67,6.67,0,0,1,6-4.45,1,1,0,0,1,1,.94,1,1,0,0,1-.94,1,4.74,4.74,0,0,0-4.26,3.15A1,1,0,0,1,73.47,618.55Z" style="fill: #edb623"/>
    <path d="M82.38,617.2a1,1,0,1,1,0-2,8.81,8.81,0,0,0,8.82-8,1,1,0,0,1,2,.19A10.76,10.76,0,0,1,82.38,617.2Z" style="fill: #edb623"/>
    <path d="M94,616.29a1,1,0,0,1-.7-.3,4.71,4.71,0,0,0-4.22-1.3,1,1,0,0,1-1.15-.77,1,1,0,0,1,.78-1.16,6.62,6.62,0,0,1,6,1.86,1,1,0,0,1,0,1.39A1,1,0,0,1,94,616.29Z" style="fill: #edb623"/>
    <path d="M78.52,629.55a1,1,0,0,1-1-1,11.08,11.08,0,0,1,2-6.33,1,1,0,1,1,1.6,1.13,9.14,9.14,0,0,0-1.65,5.2A1,1,0,0,1,78.52,629.55Z" style="fill: #edb623"/>
    <path d="M81.07,587.89a1,1,0,0,1-.49-.14,1,1,0,0,1-.36-1.34,6.58,6.58,0,0,1,4.51-3.19,1,1,0,0,1,.35,1.93,4.7,4.7,0,0,0-3.16,2.25A1,1,0,0,1,81.07,587.89Z" style="fill: #edb623"/>
    <path d="M78.71,603.77a1,1,0,0,1-.68-.28,1,1,0,0,1,0-1.39,8.87,8.87,0,0,0,2.36-7.78A1,1,0,0,1,82.3,594a10.81,10.81,0,0,1-2.88,9.51A1,1,0,0,1,78.71,603.77Z" style="fill: #edb623"/>
    <path d="M81.4,598.24a1,1,0,0,1-1-.8,1,1,0,0,1,.79-1.15,9.07,9.07,0,0,0,4.55-2.3,1,1,0,1,1,1.35,1.42,10.91,10.91,0,0,1-5.54,2.81Z" style="fill: #edb623"/>
    <path d="M48,833.26a1.3,1.3,0,0,1-1.3-1.3V816.65a1.31,1.31,0,0,1,2.61,0V832A1.31,1.31,0,0,1,48,833.26Z" style="fill: #d6d825;stroke: #fff;stroke-width: 0.4569142162799835px"/>
    <path d="M48,818h0a1.3,1.3,0,0,1-.64-2.44h0l13.78-7.65h0a1.3,1.3,0,1,1,1.27,2.28h0l-13.77,7.65h0A1.28,1.28,0,0,1,48,818Z" style="fill: #d6d825;stroke: #fff;stroke-width: 0.4569142162799835px"/>
    <path d="M75.55,818h0a1.29,1.29,0,0,1-.64-.16h0l-13.77-7.65h0a1.3,1.3,0,0,1,1.26-2.28h0l13.77,7.65a1.3,1.3,0,0,1-.63,2.44Zm0,.23a1.52,1.52,0,0,1-.75-.19Z" style="fill: #d6d825;stroke: #fff;stroke-width: 0.4569142162799835px"/>
    <path d="M61.77,840.92a1.31,1.31,0,0,1-1.3-1.31v-15.3a1.3,1.3,0,1,1,2.6,0v15.3A1.31,1.31,0,0,1,61.77,840.92Z" style="fill: #d6d825;stroke: #fff;stroke-width: 0.4569142162799835px"/>
    <path d="M61.77,840.92h0a1.27,1.27,0,0,1-.63-.17h0L47.36,833.1h0a1.31,1.31,0,0,1,1.27-2.28h0l13.77,7.65a1.31,1.31,0,0,1-.63,2.45Zm0,.22A1.46,1.46,0,0,1,61,841Z" style="fill: #d6d825;stroke: #fff;stroke-width: 0.4569142162799835px"/>
    <path d="M61.77,825.61h0a1.27,1.27,0,0,1-.63-.17h0l-13.78-7.65h0a1.31,1.31,0,0,1,1.27-2.28h0l13.77,7.66a1.3,1.3,0,0,1-.63,2.44Zm0,.23a1.47,1.47,0,0,1-.74-.2Z" style="fill: #d6d825;stroke: #fff;stroke-width: 0.4569142162799835px"/>
    <path d="M75.55,833.26a1.31,1.31,0,0,1-1.31-1.3V816.65a1.31,1.31,0,0,1,2.61,0V832A1.3,1.3,0,0,1,75.55,833.26Z" style="fill: #d6d825;stroke: #fff;stroke-width: 0.4569142162799835px"/>
    <path d="M61.77,840.92a1.31,1.31,0,0,1-1.3-1.31v-15.3a1.3,1.3,0,1,1,2.6,0v15.3A1.31,1.31,0,0,1,61.77,840.92Z" style="fill: #d6d825;stroke: #fff;stroke-width: 0.4569142162799835px"/>
    <path d="M61.77,840.92h0a1.31,1.31,0,0,1-.63-2.45l13.77-7.65h0a1.31,1.31,0,0,1,1.27,2.28h0L62.4,840.75h0A1.27,1.27,0,0,1,61.77,840.92Z" style="fill: #d6d825;stroke: #fff;stroke-width: 0.4569142162799835px"/>
    <path d="M61.77,825.61h0a1.3,1.3,0,0,1-.63-2.44l13.77-7.66h0a1.31,1.31,0,0,1,1.27,2.28h0L62.4,825.44h0A1.27,1.27,0,0,1,61.77,825.61Z" style="fill: #d6d825;stroke: #fff;stroke-width: 0.4569142162799835px"/>
    <path d="M75.55,833.26a1.31,1.31,0,0,1-1.31-1.3V816.65a1.31,1.31,0,0,1,2.61,0V832A1.3,1.3,0,0,1,75.55,833.26Z" style="fill: #d6d825;stroke: #fff;stroke-width: 0.4569142162799835px"/>
    <path d="M75.55,818h0a1.3,1.3,0,0,1-1.26-1,1.31,1.31,0,0,1,.62-1.47l13.78-7.65h0A1.31,1.31,0,0,1,90,810.14h0l-13.78,7.65h0A1.26,1.26,0,0,1,75.55,818Z" style="fill: #d6d825;stroke: #fff;stroke-width: 0.4569142162799835px"/>
    <path d="M102.36,818a1.46,1.46,0,0,0,.74.19,1.53,1.53,0,0,0,.74-2.87Zm0,0-13.78-7.65M102.36,818l-13.78-7.65m0,0a1.55,1.55,0,0,1-.8-1.32,1.54,1.54,0,0,1,2.29-1.36ZM103.1,818h0a1.26,1.26,0,0,1-.63-.16h0l-13.78-7.65h0A1.33,1.33,0,0,1,88,809,1.3,1.3,0,0,1,90,807.86h0l13.77,7.65a1.3,1.3,0,0,1-.63,2.44Z" style="fill: #d6d825;stroke: #fff;stroke-width: 0.4569142162799835px"/>
    <path d="M89.32,840.92a1.31,1.31,0,0,1-1.3-1.31v-15.3a1.31,1.31,0,1,1,2.61,0v15.3A1.31,1.31,0,0,1,89.32,840.92Z" style="fill: #d6d825;stroke: #fff;stroke-width: 0.4569142162799835px"/>
    <path d="M89.32,840.91h0a1.28,1.28,0,0,1-.63-.16h0L74.92,833.1h0a1.31,1.31,0,0,1,0-2.27,1.31,1.31,0,0,1,1.31,0h0L90,838.47a1.3,1.3,0,0,1,.62,1.47A1.28,1.28,0,0,1,89.32,840.91Zm0,.23a1.48,1.48,0,0,1-.74-.19l1.49-2.68a1.53,1.53,0,0,1-.75,2.87Z" style="fill: #d6d825;stroke: #fff;stroke-width: 0.4569142162799835px"/>
    <path d="M89.32,825.61h0a1.29,1.29,0,0,1-.63-.17h0l-13.77-7.65h0a1.3,1.3,0,1,1,1.27-2.28h0L90,823.17a1.3,1.3,0,0,1-.64,2.44Zm0,.23a1.49,1.49,0,0,1-.74-.2L90.07,823a1.53,1.53,0,0,1-.75,2.87Z" style="fill: #d6d825;stroke: #fff;stroke-width: 0.4569142162799835px"/>
    <path d="M103.1,833.26a1.3,1.3,0,0,1-1.3-1.3V816.65a1.3,1.3,0,0,1,2.6,0V832A1.3,1.3,0,0,1,103.1,833.26Z" style="fill: #d6d825;stroke: #fff;stroke-width: 0.4569142162799835px"/>
    <path d="M89.32,840.92a1.31,1.31,0,0,1-1.3-1.31v-15.3a1.31,1.31,0,1,1,2.61,0v15.3A1.31,1.31,0,0,1,89.32,840.92Z" style="fill: #d6d825;stroke: #fff;stroke-width: 0.4569142162799835px"/>
    <path d="M89.33,840.91h0a1.3,1.3,0,0,1-1.27-1,1.31,1.31,0,0,1,.63-1.47h0l13.78-7.65h0a1.31,1.31,0,0,1,1.31,0,1.31,1.31,0,0,1,0,2.27h0L90,840.75h0A1.28,1.28,0,0,1,89.33,840.91Z" style="fill: #d6d825;stroke: #fff;stroke-width: 0.4569142162799835px"/>
    <path d="M89.33,825.61h0a1.3,1.3,0,0,1-.64-2.44h0l13.78-7.66h0a1.31,1.31,0,0,1,1.31,0,1.32,1.32,0,0,1,.64,1.14,1.3,1.3,0,0,1-.68,1.12h0L90,825.44h0A1.29,1.29,0,0,1,89.33,825.61Z" style="fill: #d6d825;stroke: #fff;stroke-width: 0.4569142162799835px"/>
    <path d="M61.77,810.3a1.3,1.3,0,0,1-1.3-1.3V793.69a1.3,1.3,0,1,1,2.6,0V809A1.3,1.3,0,0,1,61.77,810.3Z" style="fill: #d6d825;stroke: #fff;stroke-width: 0.4569142162799835px"/>
    <path d="M61.77,795h0a1.3,1.3,0,0,1-.63-2.44h0l13.77-7.65h0a1.3,1.3,0,0,1,1.94,1.15,1.3,1.3,0,0,1-.68,1.12h0L62.4,794.83h0A1.26,1.26,0,0,1,61.77,795Z" style="fill: #d6d825;stroke: #fff;stroke-width: 0.4569142162799835px"/>
    <path d="M89.32,795h0a1.28,1.28,0,0,1-.63-.16h0l-13.77-7.65h0a1.3,1.3,0,0,1,1.26-2.28h0L90,792.55a1.3,1.3,0,0,1-.64,2.44Zm0,.23a1.6,1.6,0,0,1-.74-.19Z" style="fill: #d6d825;stroke: #fff;stroke-width: 0.4569142162799835px"/>
    <path d="M75.55,818a1.31,1.31,0,0,1-1.31-1.3V801.34a1.31,1.31,0,0,1,2.61,0v15.31A1.3,1.3,0,0,1,75.55,818Z" style="fill: #d6d825;stroke: #fff;stroke-width: 0.4569142162799835px"/>
    <path d="M75.55,818h0a1.29,1.29,0,0,1-.64-.16h0l-13.77-7.65h0a1.3,1.3,0,0,1,1.26-2.28h0l13.77,7.65a1.3,1.3,0,0,1-.63,2.44Zm0,.23a1.52,1.52,0,0,1-.75-.19Z" style="fill: #d6d825;stroke: #fff;stroke-width: 0.4569142162799835px"/>
    <path d="M75.55,802.65h0a1.3,1.3,0,0,1-.64-.17h0l-13.77-7.65h0a1.3,1.3,0,0,1,1.26-2.28h0l13.77,7.66a1.3,1.3,0,0,1-.63,2.44Zm0,.22a1.52,1.52,0,0,1-.75-.19Z" style="fill: #d6d825;stroke: #fff;stroke-width: 0.4569142162799835px"/>
    <path d="M89.32,810.3A1.3,1.3,0,0,1,88,809V793.69a1.31,1.31,0,0,1,2.61,0V809A1.31,1.31,0,0,1,89.32,810.3Z" style="fill: #d6d825;stroke: #fff;stroke-width: 0.4569142162799835px"/>
    <path d="M75.55,818a1.31,1.31,0,0,1-1.31-1.3V801.34a1.31,1.31,0,0,1,2.61,0v15.31A1.3,1.3,0,0,1,75.55,818Z" style="fill: #d6d825;stroke: #fff;stroke-width: 0.4569142162799835px"/>
    <path d="M75.55,818h0a1.3,1.3,0,0,1-1.26-1,1.31,1.31,0,0,1,.62-1.47l13.78-7.65h0A1.31,1.31,0,0,1,90,810.14h0l-13.78,7.65h0A1.26,1.26,0,0,1,75.55,818Z" style="fill: #d6d825;stroke: #fff;stroke-width: 0.4569142162799835px"/>
    <path d="M75.55,802.65h0a1.3,1.3,0,0,1-.64-2.44h0l13.78-7.66h0a1.33,1.33,0,0,1,1.31,0,1.31,1.31,0,0,1,0,2.27h0l-13.78,7.65h0A1.27,1.27,0,0,1,75.55,802.65Z" style="fill: #d6d825;stroke: #fff;stroke-width: 0.4569142162799835px"/>
    <path d="M60.18,373.29c-7.45,4.29-10.34,13.52-6.44,20.57,3.68,6.66,12.12,9,19.32,5.67l3.25,5.86A4.25,4.25,0,0,0,74.55,411l7.07,12.79a4.06,4.06,0,0,0,5.62,1.36l2.45-1.41a4.24,4.24,0,0,0,1.76-5.61l-7.07-12.79A4.05,4.05,0,0,0,78.77,404l-3.25-5.87c6.55-4.55,8.93-13.15,5.25-19.81C76.87,371.25,67.63,369,60.18,373.29Zm1.29,2.33c6.12-3.53,13.64-1.7,16.84,4.09S79.16,393,73,396.55s-13.64,1.69-16.85-4.1S55.35,379.14,61.47,375.62Zm-2.38,13.6a1.46,1.46,0,0,0-.57.85,1.28,1.28,0,0,0,.13,1c2.48,4.49,8.37,5.92,13.1,3.19a1.36,1.36,0,0,0,.43-.36,1.42,1.42,0,0,0,.27-.48,1.63,1.63,0,0,0,.06-.54,1.52,1.52,0,0,0-.15-.5A1.31,1.31,0,0,0,72,392a1.34,1.34,0,0,0-.48-.23,1.4,1.4,0,0,0-.54,0,1.42,1.42,0,0,0-.52.19,6.72,6.72,0,0,1-9.36-2.28,1.27,1.27,0,0,0-.37-.43,1.21,1.21,0,0,0-.52-.22,1.26,1.26,0,0,0-.58,0A1.59,1.59,0,0,0,59.09,389.22Zm18.5,18.5,2.46-1.41a1.31,1.31,0,0,1,1.87.45L89,419.55a1.37,1.37,0,0,1-.58,1.87L86,422.84a1.31,1.31,0,0,1-1.87-.46L77,409.59A1.37,1.37,0,0,1,77.59,407.72Z" style="fill: #ee9224"/>
    <path d="M51.62,1011.93l9,5.54L58,1019.16l1,1.54,3.35-2.17,14.06,8.7a.87.87,0,0,0,.49.14.88.88,0,0,0,.49-.15l13.9-9,3.39,2.1,1-1.55-2.66-1.64,8.85-5.71a.9.9,0,0,0,.42-.78,1,1,0,0,0-.43-.77L77,994.61a.91.91,0,0,0-1,0l-24.45,15.76a.92.92,0,0,0-.42.78A.93.93,0,0,0,51.62,1011.93Zm24.94-15.46,23,14.24-22.75,14.66-23-14.24Z" style="fill: #94c83d"/>
    <g style="mask: url(#a)">
      <path d="M51.62,1011.93l-3.85,6.21h0Zm9,5.54,4,6.14,9.73-6.27-9.84-6.09ZM58,1019.16,54,1013l-6.14,4,4,6.14Zm1,1.54-6.15,4,4,6.14,6.15-4Zm3.35-2.17,3.85-6.21-3.93-2.43-3.88,2.5Zm14.06,8.7,3.86-6.21h0Zm1,0,4,6.16h0Zm13.9-9,3.85-6.21-3.93-2.43-3.88,2.5Zm3.39,2.1-3.84,6.22,6.22,3.85,3.84-6.22Zm1-1.55,6.21,3.85,3.85-6.22-6.22-3.85Zm-2.66-1.64L89,1011l-9.73,6.27,9.84,6.09Zm8.85-5.71,4,6.14h0Zm0-1.55,3.85-6.21h0ZM77,994.61l-3.85,6.22h0Zm-1,0,4,6.14h0Zm-24.45,15.76-4-6.14h0Zm25-13.91,3.85-6.22-3.93-2.43-3.88,2.5Zm23,14.24,4,6.14,9.72-6.27-9.84-6.09Zm-22.75,14.66L73,1031.59l3.92,2.43,3.89-2.5Zm-23-14.24-4-6.14-9.73,6.27,9.85,6.09Zm-6,7,8.95,5.54,7.7-12.43-9-5.54Zm8.84-6.82L54,1013l7.93,12.29,2.62-1.69Zm-4.81,11.8,1,1.54,12.29-7.93-1-1.53Zm11.1,3.72,3.35-2.16-7.92-12.29L55,1014.55Zm-4.46-2.09,14.07,8.7L80.21,1021l-14.06-8.7Zm14,8.69a8.16,8.16,0,0,0,4.43,1.24l-.16-14.62a6.48,6.48,0,0,1,3.45,1Zm4.43,1.24a8.33,8.33,0,0,0,4.36-1.3l-7.9-12.31a6.35,6.35,0,0,1,3.38-1Zm4.37-1.31,13.9-9-7.92-12.29-13.9,9Zm6.09-8.89,3.4,2.1,7.69-12.43-3.39-2.1Zm13.46-.27,1-1.55L89.38,1015l-1,1.56Zm-1.41-11.62L96.79,1011l-7.7,12.43,2.66,1.65Zm-2.54,10.72,8.85-5.71-7.92-12.28L89,1011Zm8.86-5.71a8.22,8.22,0,0,0,3.76-7l-14.62.13a6.38,6.38,0,0,1,2.93-5.43Zm3.76-7a8.21,8.21,0,0,0-3.89-6.92l-7.7,12.43a6.4,6.4,0,0,1-3-5.38Zm-3.9-6.92L80.88,988.39l-7.69,12.44,24.74,15.3ZM80.88,988.39a8.22,8.22,0,0,0-8.78.08L80,1000.76a6.39,6.39,0,0,1-6.83.07Zm-8.78.08-24.45,15.77,7.92,12.29L80,1000.76Zm-24.46,15.77a8.2,8.2,0,0,0-3.76,7l14.62-.13a6.37,6.37,0,0,1-2.93,5.43Zm-3.76,7a8.2,8.2,0,0,0,3.89,6.92l7.7-12.43a6.4,6.4,0,0,1,3,5.38Zm28.84-8.54,23,14.24,7.7-12.43-23-14.24Zm22.91,1.88-22.76,14.67,7.93,12.29,22.75-14.67Zm-14.95,14.6-23-14.24L50,1017.35l23,14.24Zm-22.9-1.88,22.75-14.67L72.6,990.32,49.85,1005Z" style="fill: #94c83d"/>
    </g>
    <path d="M77.3,1022.65l2.73-1.76-1-1.53-2.25,1.45-2.33-1.44-1,1.55,2.82,1.74a.87.87,0,0,0,.49.14A.88.88,0,0,0,77.3,1022.65Z" style="fill: #94c83d"/>
    <path d="M76.61,1001l2.41,1.49,1-1.55-2.91-1.8a.91.91,0,0,0-1,0L73.22,1001l1,1.54Z" style="fill: #94c83d"/>
    <path d="M51.74,1024.72l3.89,2.4,1-1.55-2.66-1.64,2.63-1.69-1-1.54-3.84,2.47a.92.92,0,0,0,0,1.55Z" style="fill: #94c83d"/>
    <g style="mask: url(#b)">
      <path d="M51.74,1024.72l-3.86,6.21h0Zm3.89,2.4-3.85,6.22,6.22,3.85,3.84-6.22Zm1-1.55,6.21,3.85,3.85-6.22-6.22-3.85Zm-2.66-1.64-4-6.15-9.73,6.28,9.85,6.09Zm2.63-1.69,4,6.14,6.14-4-4-6.15Zm-1-1.54,6.14-4-4-6.14-6.14,3.95Zm-3.84,2.47-4-6.14h0Zm-3.83,7.77,3.88,2.4,7.69-12.43-3.88-2.41Zm13.94,0,1-1.55-12.43-7.7-1,1.56Zm-1.41-11.62-2.65-1.64-7.69,12.44,2.65,1.64Zm-2.54,10.72,2.63-1.69-7.92-12.29L50,1017.78Zm4.81-11.8-1-1.53-12.29,7.92,1,1.54Zm-11.09-3.72L47.77,1017l7.92,12.29,3.84-2.48ZM47.76,1017a8.22,8.22,0,0,0-3.76,7l14.62-.13a6.41,6.41,0,0,1-2.93,5.43ZM44,1024a8.21,8.21,0,0,0,3.88,6.91l7.72-12.42a6.4,6.4,0,0,1,3,5.38Z" style="fill: #94c83d"/>
    </g>
    <path d="M65.73,1031.22l-1,1.56,6.52,4,1-1.55Z" style="fill: #94c83d"/>
    <g style="mask: url(#c)">
      <path d="M64.77,1032.78l-6.22-3.85-3.85,6.22,6.22,3.84Zm1-1.56,3.84-6.22-6.21-3.84-3.85,6.21Zm6.52,4,6.22,3.84,3.85-6.21L76.1,1029Zm-1,1.55L67.44,1043l6.22,3.85,3.85-6.22Zm-.31-.19,1-1.55-12.43-7.7-1,1.56Zm-9.1.82,6.53,4L76.1,1029l-6.53-4Zm4.16-6-1,1.56,12.44,7.69,1-1.56Zm9.1-.81-6.53-4L60.92,1039l6.52,4Z" style="fill: #94c83d"/>
    </g>
    <path d="M73.56,1036.07l-1,1.55,3.88,2.41a1,1,0,0,0,.49.13,1,1,0,0,0,.49-.14l3.84-2.48-1-1.54L77,1038.17Z" style="fill: #94c83d"/>
    <path d="M88.05,1031l-6.45,4.15,1,1.54,6.45-4.16Z" style="fill: #94c83d"/>
    <path d="M101.89,1022.71,98,1020.3l-1,1.56,2.65,1.64-2.62,1.69,1,1.54,3.84-2.48a.92.92,0,0,0,0-1.54Z" style="fill: #94c83d"/>
    <g style="mask: url(#d)">
      <path d="M101.89,1022.71l3.86-6.22h0ZM98,1020.3l3.85-6.21-6.22-3.85-3.84,6.22Zm-1,1.56L90.83,1018,87,1024.23l6.22,3.85Zm2.65,1.64,4,6.14,9.73-6.27-9.85-6.09Zm-2.62,1.69-4-6.14L87,1023l4,6.14Zm1,1.54-6.15,4,4,6.14,6.14-4Zm3.84-2.48,4,6.15h0Zm.41-.77-7.31,0h0Zm3.42-7-3.88-2.4-7.7,12.43,3.89,2.4Zm-13.94,0-1,1.55,12.43,7.7,1-1.56Zm1.4,11.62,2.66,1.64,7.69-12.44-2.66-1.64Zm2.54-10.73-2.62,1.7,7.92,12.29,2.63-1.7Zm-4.81,11.8,1,1.54,12.3-7.92-1-1.54Zm11.1,3.72,3.84-2.47L98,1018.11l-3.84,2.47Zm3.85-2.48a8.19,8.19,0,0,0,3.75-7l-14.61.13a6.36,6.36,0,0,1,2.93-5.43Zm3.75-7a8.18,8.18,0,0,0-3.88-6.94l-7.7,12.43a6.41,6.41,0,0,1-3-5.4Z" style="fill: #94c83d"/>
    </g>
    <path d="M102,1035.5l-9-5.54,3.72-2.4-1-1.54-6.45,4.16,1,1.54,1-.66,8.46,5.23L77.07,1051l-23-14.24,8.37-5.39,1,.64,1-1.56-6.52-4-1,1.55,3.77,2.33L51.85,1036a.9.9,0,0,0-.42.77.89.89,0,0,0,.43.77l24.74,15.31a.86.86,0,0,0,.49.13,1,1,0,0,0,.49-.14L102,1037.05a.92.92,0,0,0,.42-.78A.94.94,0,0,0,102,1035.5Z" style="fill: #94c83d"/>
    <text transform="translate(2.94 49.75)" style="font-size: 27.522300720214844px;fill: #231f20;font-family: BarlowSemiCondensed-SemiBold, Barlow Semi Condensed;font-weight: 600;letter-spacing: 0.049994968679684525em">PROCESS</text>
    <polygon points="362.17 0 0 0 0 0 362.17 0 362.17 0" style="fill: #231f20"/>
  </g>
</svg>
