<svg xmlns="http://www.w3.org/2000/svg" xmlns:xlink="http://www.w3.org/1999/xlink" viewBox="0 0 376.04 1061">
  <defs>
    <style>
      .cls-1 {
        fill: #fff;
      }

      .cls-2, .cls-25, .cls-37 {
        font-size: 14px;
        font-family: Barlow-Regular, Barlow;
      }

      .cls-11, .cls-2, .cls-25, .cls-37 {
        fill: #231f20;
      }

      .cls-2, .cls-5 {
        letter-spacing: 0.03em;
      }

      .cls-3 {
        letter-spacing: 0.02em;
      }

      .cls-4 {
        letter-spacing: 0.01em;
      }

      .cls-25, .cls-6 {
        letter-spacing: 0.02em;
      }

      .cls-7 {
        letter-spacing: 0.03em;
      }

      .cls-8 {
        letter-spacing: 0.03em;
      }

      .cls-9 {
        letter-spacing: 0.02em;
      }

      .cls-10 {
        letter-spacing: 0.03em;
      }

      .cls-11 {
        font-size: 24px;
        font-family: BarlowSemiCondensed-SemiBold, Barlow Semi Condensed;
        font-weight: 600;
      }

      .cls-12 {
        letter-spacing: 0em;
      }

      .cls-13 {
        letter-spacing: 0em;
      }

      .cls-14 {
        letter-spacing: 0em;
      }

      .cls-15 {
        letter-spacing: 0em;
      }

      .cls-16 {
        letter-spacing: 0em;
      }

      .cls-17 {
        letter-spacing: 0em;
      }

      .cls-18 {
        letter-spacing: 0.03em;
      }

      .cls-19 {
        letter-spacing: 0.02em;
      }

      .cls-20 {
        letter-spacing: 0.01em;
      }

      .cls-21 {
        letter-spacing: -0.02em;
      }

      .cls-22 {
        letter-spacing: 0em;
      }

      .cls-23 {
        letter-spacing: -0.01em;
      }

      .cls-24 {
        letter-spacing: -0.01em;
      }

      .cls-26 {
        letter-spacing: 0.02em;
      }

      .cls-27 {
        letter-spacing: 0.03em;
      }

      .cls-28 {
        letter-spacing: 0.02em;
      }

      .cls-29 {
        letter-spacing: 0em;
      }

      .cls-30 {
        letter-spacing: 0em;
      }

      .cls-31 {
        letter-spacing: 0.01em;
      }

      .cls-32 {
        letter-spacing: 0.02em;
      }

      .cls-33 {
        letter-spacing: 0.02em;
      }

      .cls-34 {
        letter-spacing: 0.02em;
      }

      .cls-35 {
        letter-spacing: 0.01em;
      }

      .cls-36 {
        letter-spacing: 0.03em;
      }

      .cls-37 {
        letter-spacing: -0.02em;
      }

      .cls-38 {
        letter-spacing: 0.02em;
      }

      .cls-39 {
        letter-spacing: 0.01em;
      }

      .cls-40 {
        letter-spacing: 0.01em;
      }

      .cls-41 {
        letter-spacing: 0.01em;
      }

      .cls-42 {
        letter-spacing: 0em;
      }

      .cls-43 {
        fill: #f1f0f0;
      }

      .cls-44 {
        fill: #ed6d25;
      }

      .cls-45 {
        fill: #ee9224;
      }

      .cls-46 {
        fill: #edb623;
      }

      .cls-47, .cls-49 {
        fill: #d6d825;
      }

      .cls-48 {
        fill: #94c83d;
      }

      .cls-49 {
        stroke: #fff;
        stroke-width: 0.5px;
      }

      .cls-50 {
        mask: url(#mask);
      }

      .cls-51 {
        mask: url(#mask-2);
      }

      .cls-52 {
        mask: url(#mask-3);
      }

      .cls-53 {
        mask: url(#mask-4);
      }
    </style>
    <mask id="mask" x="43.91" y="946.94" width="80.04" height="52" maskUnits="userSpaceOnUse">
      <g id="path-81-inside-1">
        <path class="cls-1" d="M56.49,974l9.8,6.06L63.42,982l1.08,1.69,3.68-2.37,15.38,9.52a1,1,0,0,0,.54.15,1,1,0,0,0,.53-.16L99.84,981l3.71,2.3,1.06-1.7-2.91-1.8,9.69-6.24a1,1,0,0,0,.46-.85,1,1,0,0,0-.48-.84L84.3,955.09a1,1,0,0,0-1.07,0L56.47,972.35a1,1,0,0,0-.45.85A1,1,0,0,0,56.49,974Zm27.29-16.92L109,972.71l-24.89,16L58.89,973.17Z"/>
      </g>
    </mask>
    <mask id="mask-2" x="44.03" y="972.58" width="28.92" height="29.1" maskUnits="userSpaceOnUse">
      <g id="path-87-inside-4">
        <path class="cls-1" d="M56.62,988l4.25,2.63,1.06-1.7L59,987.17l2.87-1.85-1.08-1.68-4.2,2.71a1,1,0,0,0-.46.85A1,1,0,0,0,56.62,988Z"/>
      </g>
    </mask>
    <mask id="mask-3" x="59.86" y="984.14" width="30.22" height="28.14" maskUnits="userSpaceOnUse">
      <g id="path-89-inside-5">
        <path class="cls-1" d="M71.92,995.15l-1,1.7,7.14,4.42,1.06-1.7Z"/>
      </g>
    </mask>
    <mask id="mask-4" x="95.17" y="972.2" width="28.92" height="29.1" maskUnits="userSpaceOnUse">
      <g id="path-95-inside-8">
        <path class="cls-1" d="M111.5,985.84l-4.25-2.63-1,1.7,2.9,1.79-2.87,1.86,1.08,1.68,4.21-2.71a1,1,0,0,0,.45-.85A1,1,0,0,0,111.5,985.84Z"/>
      </g>
    </mask>
  </defs>
  <title>process-ver</title>
  <g id="Layer_2" data-name="Layer 2">
    <g id="Layer_1-2" data-name="Layer 1">
      <text class="cls-2" transform="translate(200.39 73.03)">Me<tspan class="cls-3" x="18.26" y="0">e</tspan><tspan x="26.01" y="0">ting with t</tspan><tspan class="cls-3" x="91.03" y="0">h</tspan><tspan x="98.87" y="0">e client </tspan><tspan class="cls-4"><tspan x="0" y="19">t</tspan><tspan class="cls-5" x="5.28" y="19">o u</tspan><tspan class="cls-6" x="24.39" y="19">n</tspan><tspan class="cls-5" x="32.23" y="19">de</tspan><tspan class="cls-7" x="48.12" y="19">r</tspan><tspan class="cls-8" x="53.56" y="19">s</tspan><tspan class="cls-5" x="60.68" y="19">ta</tspan><tspan class="cls-6" x="73.71" y="19">n</tspan><tspan class="cls-5" x="81.55" y="19">d </tspan></tspan><tspan class="cls-9"><tspan x="0" y="38">r</tspan><tspan class="cls-5" x="5.42" y="38">equi</tspan><tspan x="33.25" y="38">r</tspan><tspan class="cls-5" x="38.67" y="38">e</tspan><tspan class="cls-6" x="46.52" y="38">m</tspan><tspan class="cls-10" x="58.4" y="38">ents a</tspan><tspan class="cls-6" x="97.54" y="38">n</tspan><tspan class="cls-5" x="105.38" y="38">d s</tspan><tspan class="cls-7" x="123.73" y="38">c</tspan><tspan class="cls-10" x="131.36" y="38">o</tspan><tspan class="cls-6" x="139.38" y="38">p</tspan><tspan class="cls-5" x="147.41" y="38">e</tspan></tspan></text>
      <text class="cls-11" transform="translate(200.39 41.9) scale(0.91 1)">In<tspan class="cls-12" x="17.62" y="0">t</tspan><tspan class="cls-13" x="25.37" y="0">e</tspan><tspan class="cls-14" x="36.98" y="0">r</tspan><tspan class="cls-15" x="45.1" y="0">a</tspan><tspan class="cls-16" x="56.57" y="0">c</tspan><tspan class="cls-15" x="67.94" y="0">tion</tspan></text>
      <text class="cls-2" transform="translate(200.39 297.8)">Anal<tspan class="cls-17" x="27.99" y="0">y</tspan><tspan x="34.4" y="0">sing </tspan><tspan class="cls-18" x="64.5" y="0">c</tspan><tspan x="72.13" y="0">om</tspan><tspan class="cls-19" x="92.12" y="0">pe</tspan><tspan x="107.9" y="0">titio</tspan><tspan class="cls-20" x="134.82" y="0">n</tspan><tspan x="142.46" y="0">, </tspan><tspan x="0" y="19">cur</tspan><tspan class="cls-9" x="21.06" y="19">r</tspan><tspan x="26.47" y="19">ent t</tspan><tspan class="cls-9" x="56.43" y="19">r</tspan><tspan x="61.85" y="19">e</tspan><tspan class="cls-6" x="69.71" y="19">n</tspan><tspan class="cls-10" x="77.55" y="19">ds a</tspan><tspan class="cls-6" x="103.45" y="19">n</tspan><tspan x="111.29" y="19">d </tspan><tspan x="0" y="38">planning </tspan><tspan class="cls-21" x="58.13" y="38">f</tspan><tspan x="62.84" y="38">or t</tspan><tspan class="cls-3" x="85.03" y="38">h</tspan><tspan x="92.87" y="38">e p</tspan><tspan class="cls-9" x="112.04" y="38">r</tspan><tspan class="cls-10" x="117.46" y="38">oject</tspan></text>
      <text class="cls-11" transform="translate(200.39 266.67) scale(0.91 1)"><tspan class="cls-22">R</tspan><tspan class="cls-14" x="12.82" y="0">e</tspan><tspan x="24.34" y="0">s</tspan><tspan class="cls-23" x="35.04" y="0">e</tspan><tspan class="cls-15" x="46.54" y="0">a</tspan><tspan class="cls-24" x="58.01" y="0">r</tspan><tspan x="66.02" y="0">ch</tspan></text>
      <text class="cls-25" transform="translate(200.39 539.78)">G<tspan class="cls-26" x="8.88" y="0">a</tspan><tspan class="cls-10" x="16.37" y="0">t</tspan><tspan x="21.85" y="0">h</tspan><tspan class="cls-5" x="29.69" y="0">er id</tspan><tspan class="cls-9" x="58.23" y="0">e</tspan><tspan class="cls-5" x="66.01" y="0">as, build IAs </tspan><tspan class="cls-5"><tspan x="0" y="19">a</tspan><tspan class="cls-6" x="7.55" y="19">n</tspan><tspan class="cls-10" x="15.39" y="19">d wi</tspan><tspan class="cls-9" x="41.06" y="19">r</tspan><tspan class="cls-3" x="46.48" y="19">e</tspan><tspan class="cls-10" x="54.24" y="19">f</tspan><tspan class="cls-27" x="59.61" y="19">r</tspan><tspan x="65.07" y="19">a</tspan><tspan class="cls-3" x="72.62" y="19">m</tspan><tspan class="cls-28" x="84.49" y="19">e</tspan><tspan class="cls-10" x="92.22" y="19">s</tspan></tspan></text>
      <text class="cls-11" transform="translate(200.39 508.64) scale(0.91 1)">Id<tspan class="cls-29" x="17.78" y="0">e</tspan><tspan class="cls-30" x="29.28" y="0">a</tspan><tspan class="cls-13" x="40.66" y="0">tion</tspan></text>
      <text class="cls-2" transform="translate(200.39 753.52)">C<tspan class="cls-9" x="8.89" y="0">re</tspan><tspan class="cls-26" x="22.09" y="0">a</tspan><tspan class="cls-4" x="29.58" y="0">t</tspan><tspan x="34.86" y="0">e visual languag</tspan><tspan class="cls-31" x="136.58" y="0">e</tspan><tspan x="144.16" y="0">, </tspan><tspan x="0" y="19">c</tspan><tspan class="cls-9" x="7.67" y="19">re</tspan><tspan class="cls-26" x="20.87" y="19">a</tspan><tspan class="cls-4" x="28.36" y="19">t</tspan><tspan x="33.64" y="19">e p</tspan><tspan class="cls-32" x="52.81" y="19">r</tspan><tspan class="cls-33" x="58.23" y="19">o</tspan><tspan class="cls-4" x="66.16" y="19">t</tspan><tspan class="cls-33" x="71.44" y="19">o</tspan><tspan x="79.38" y="19">ty</tspan><tspan class="cls-6" x="91.71" y="19">p</tspan><tspan class="cls-34" x="99.74" y="19">e</tspan><tspan x="107.46" y="19">s a</tspan><tspan class="cls-3" x="125.33" y="19">n</tspan><tspan x="133.17" y="19">d </tspan><tspan x="0" y="38">defi</tspan><tspan class="cls-6" x="24.85" y="38">n</tspan><tspan x="32.69" y="38">e in</tspan><tspan class="cls-35" x="55.64" y="38">t</tspan><tspan x="60.91" y="38">e</tspan><tspan class="cls-36" x="68.77" y="38">r</tspan><tspan x="74.23" y="38">actions</tspan></text>
      <text class="cls-11" transform="translate(200.39 722.39) scale(0.91 1)">D<tspan class="cls-14" x="13.08" y="0">e</tspan><tspan x="24.6" y="0">sign</tspan></text>
      <text class="cls-37" transform="translate(200.39 976.94)">W<tspan class="cls-5" x="12" y="0">ork with d</tspan><tspan class="cls-38" x="75.21" y="0">e</tspan><tspan class="cls-39" x="82.88" y="0">v</tspan><tspan class="cls-10" x="89.68" y="0">elop</tspan><tspan class="cls-3" x="117.29" y="0">m</tspan><tspan class="cls-5" x="129.16" y="0">ent </tspan><tspan class="cls-4" x="153.63" y="0">t</tspan><tspan class="cls-5" x="158.91" y="0">o </tspan><tspan class="cls-5"><tspan x="0" y="19">imple</tspan><tspan class="cls-6" x="35.52" y="19">m</tspan><tspan x="47.39" y="19">ent fu</tspan><tspan class="cls-3" x="85.13" y="19">n</tspan><tspan class="cls-10" x="92.97" y="19">ctionality </tspan><tspan x="0" y="38">a</tspan><tspan class="cls-6" x="7.55" y="38">n</tspan><tspan class="cls-10" x="15.39" y="38">d build </tspan><tspan class="cls-40" x="61.35" y="38">e</tspan><tspan x="69" y="38">x</tspan><tspan class="cls-6" x="76.07" y="38">p</tspan><tspan class="cls-10" x="84.1" y="38">erie</tspan><tspan class="cls-6" x="109.25" y="38">n</tspan><tspan class="cls-7" x="117.1" y="38">c</tspan><tspan class="cls-41" x="124.73" y="38">e</tspan><tspan x="132.3" y="38">.</tspan></tspan></text>
      <text class="cls-11" transform="translate(200.39 945.8) scale(0.91 1)">Imple<tspan class="cls-42" x="52.68" y="0">m</tspan><tspan x="70.56" y="0">ent</tspan></text>
      <path class="cls-43" d="M80.5,161A80.5,80.5,0,1,1,161,80.5,80.5,80.5,0,0,1,80.5,161Zm0-157.78A77.28,77.28,0,1,0,157.78,80.5,77.28,77.28,0,0,0,80.5,3.22Z"/>
      <path class="cls-44" d="M161,80.5a80.49,80.49,0,0,1-30.89,63.4l-2-2.54A77.31,77.31,0,0,0,157.78,80.5Z"/>
      <rect class="cls-43" x="78.42" y="382.78" width="5" height="69.22"/>
      <rect class="cls-43" x="78.42" y="607.78" width="5" height="68.22"/>
      <rect class="cls-43" x="78.42" y="832.77" width="5" height="67.23"/>
      <path class="cls-43" d="M80.5,386A80.5,80.5,0,1,1,161,305.5,80.5,80.5,0,0,1,80.5,386Zm0-157.78a77.28,77.28,0,1,0,77.28,77.28A77.28,77.28,0,0,0,80.5,228.22Z"/>
      <path class="cls-45" d="M161,305.5a80.51,80.51,0,0,1-90.67,79.86l.41-3.2a77.27,77.27,0,0,0,87-76.66Z"/>
      <path class="cls-43" d="M80.5,611A80.5,80.5,0,1,1,161,530.5,80.5,80.5,0,0,1,80.5,611Zm0-157.78a77.28,77.28,0,1,0,77.28,77.28A77.28,77.28,0,0,0,80.5,453.22Z"/>
      <path class="cls-46" d="M161,530.5a80.5,80.5,0,0,1-161,0H3.22a77.28,77.28,0,1,0,154.56,0Z"/>
      <path class="cls-43" d="M80.5,836A80.5,80.5,0,1,1,161,755.5,80.5,80.5,0,0,1,80.5,836Zm0-157.78a77.28,77.28,0,1,0,77.28,77.28A77.28,77.28,0,0,0,80.5,678.22Z"/>
      <path class="cls-47" d="M161,755.5A80.51,80.51,0,1,1,50.41,680.84l1.2,3A77.28,77.28,0,1,0,157.78,755.5Z"/>
      <path class="cls-43" d="M80.5,1061A80.5,80.5,0,1,1,161,980.5,80.5,80.5,0,0,1,80.5,1061Zm0-157.78a77.28,77.28,0,1,0,77.28,77.28A77.28,77.28,0,0,0,80.5,903.22Z"/>
      <path class="cls-48" d="M80.5,1061A80.5,80.5,0,1,1,161,980.5,80.5,80.5,0,0,1,80.5,1061Zm0-157.78a77.28,77.28,0,1,0,77.28,77.28A77.28,77.28,0,0,0,80.5,903.22Z"/>
      <rect class="cls-43" x="78.42" y="158" width="5" height="70"/>
      <path class="cls-44" d="M77.49,57.71a5.93,5.93,0,1,0,5.86-5.92A5.87,5.87,0,0,0,77.49,57.71Zm9.1,0A3.24,3.24,0,0,1,83.35,61a3.24,3.24,0,0,1,0-6.47A3.24,3.24,0,0,1,86.59,57.71Z"/>
      <path class="cls-44" d="M59.64,92.54a5.93,5.93,0,1,0-5.93-5.93A5.94,5.94,0,0,0,59.64,92.54Zm0-9.09a3.23,3.23,0,0,1,3.23,3.23,3.23,3.23,0,1,1-6.46,0A3.23,3.23,0,0,1,59.64,83.45Z"/>
      <path class="cls-44" d="M101.14,86.68a5.93,5.93,0,1,0,5.92-5.93A5.93,5.93,0,0,0,101.14,86.68Zm9.09,0A3.24,3.24,0,0,1,107,89.92a3.24,3.24,0,1,1,3.23-3.24Z"/>
      <path class="cls-44" d="M109.76,94.83h-5.39A5.43,5.43,0,0,0,99,100.09L84.7,92.88V80.62h5.39a1.36,1.36,0,0,0,1.35-1.35v-8a5.41,5.41,0,0,0-5.39-5.39H80.66a5.4,5.4,0,0,0-5.39,5.39v8a1.35,1.35,0,0,0,1.35,1.35H82V92.81L67.72,100a5.41,5.41,0,0,0-5.39-5.19H56.94a5.4,5.4,0,0,0-5.38,5.39v8a1.35,1.35,0,0,0,1.34,1.35H66.38a1.35,1.35,0,0,0,1.34-1.35v-5.19l15.56-7.88,15.63,8v5.12a1.36,1.36,0,0,0,1.35,1.35h13.47a1.35,1.35,0,0,0,1.35-1.35v-8A5.31,5.31,0,0,0,109.76,94.83ZM65,106.89H54.25v-6.67a2.7,2.7,0,0,1,2.69-2.69h5.39a2.7,2.7,0,0,1,2.7,2.69ZM78,77.92V71.26a2.71,2.71,0,0,1,2.7-2.7h5.39a2.7,2.7,0,0,1,2.69,2.7v6.66Zm34.49,29H101.68v-6.67a2.7,2.7,0,0,1,2.69-2.69h5.39a2.7,2.7,0,0,1,2.69,2.69Z"/>
      <path class="cls-46" d="M74.09,562.42a7.27,7.27,0,0,1-5.68-2.84,7,7,0,0,1-3.31.83,7.5,7.5,0,0,1-7-5.57,7.75,7.75,0,0,1-7-8c0-.3,0-.61.05-.91a8.41,8.41,0,0,1,.62-11.81,8.46,8.46,0,0,1-.92-3.88,8.18,8.18,0,0,1,3.39-6.67,8.45,8.45,0,0,1-.49-2.79,7.93,7.93,0,0,1,5.56-7.75v-.31c0-4.41,3.33-8,7.42-8l.44,0a7.38,7.38,0,0,1,6.94-5.18c4.07,0,7.39,3.57,7.39,8a1.08,1.08,0,0,1-2.15,0,5.56,5.56,0,0,0-5.24-5.81A5.35,5.35,0,0,0,69,506.18a1.08,1.08,0,0,1-.49.7,1.1,1.1,0,0,1-.85.12,3.54,3.54,0,0,0-.93-.11,5.58,5.58,0,0,0-5.27,5.85,9.79,9.79,0,0,0,.07,1.08,1.09,1.09,0,0,1-.94,1.17,5.66,5.66,0,0,0-4.69,5.81,6.45,6.45,0,0,0,.65,2.76,1.07,1.07,0,0,1-.48,1.42A6,6,0,0,0,53,530.26a6.34,6.34,0,0,0,1.07,3.57,1.07,1.07,0,0,1,.16.82,1,1,0,0,1-.48.68,5.91,5.91,0,0,0-2.58,5A6.06,6.06,0,0,0,53,544.79a1.08,1.08,0,0,1,.32,1,6.92,6.92,0,0,0-.09,1.11,5.57,5.57,0,0,0,5.32,5.84h.09a1.13,1.13,0,0,1,1.31.85,5.45,5.45,0,0,0,5.15,4.71,5,5,0,0,0,3-1,1.09,1.09,0,0,1,1.57.33,5.19,5.19,0,0,0,4.44,2.69c2.89,0,5.24-2.62,5.24-5.85a1.08,1.08,0,0,1,2.15,0C81.48,558.83,78.16,562.42,74.09,562.42Z"/>
      <path class="cls-46" d="M80.4,555.5a1.07,1.07,0,0,1-1.07-1.08V507.54a1.08,1.08,0,1,1,2.15,0v46.88A1.08,1.08,0,0,1,80.4,555.5Z"/>
      <path class="cls-46" d="M64.13,527a1.08,1.08,0,0,1-.9-.49,5.17,5.17,0,0,0-7.09-1.55A1.07,1.07,0,1,1,55,523.12,7.33,7.33,0,0,1,65,525.31a1.07,1.07,0,0,1-.32,1.48A1,1,0,0,1,64.13,527Z"/>
      <path class="cls-46" d="M58.89,554.82a1.07,1.07,0,0,1-.14-2.14,5.07,5.07,0,0,0,3.36-2,5.16,5.16,0,0,0,1-3.79,1.07,1.07,0,0,1,2.13-.29,7.29,7.29,0,0,1-6.19,8.2Z"/>
      <path class="cls-46" d="M80.4,535.18a1.08,1.08,0,0,1-1-.73,5.06,5.06,0,0,0-4.6-3.43,1.09,1.09,0,0,1-1-1.11,1.13,1.13,0,0,1,1.11-1,7.22,7.22,0,0,1,6.58,4.88,1.09,1.09,0,0,1-.67,1.37A1.07,1.07,0,0,1,80.4,535.18Z"/>
      <path class="cls-46" d="M70.69,542.09A11.77,11.77,0,0,1,58.9,531.45a1.08,1.08,0,1,1,2.14-.21,9.64,9.64,0,0,0,9.65,8.7,1.08,1.08,0,0,1,0,2.15Z"/>
      <path class="cls-46" d="M57.89,541.09a1.06,1.06,0,0,1-.76-.31,1.09,1.09,0,0,1,0-1.53,7.34,7.34,0,0,1,6.59-2,1.07,1.07,0,1,1-.41,2.11,5.16,5.16,0,0,0-4.66,1.43A1.07,1.07,0,0,1,57.89,541.09Z"/>
      <path class="cls-46" d="M74.92,555.61a1.08,1.08,0,0,1-1.08-1.08A10,10,0,0,0,72,548.84a1.08,1.08,0,0,1,1.76-1.24,12.16,12.16,0,0,1,2.2,6.93A1.07,1.07,0,0,1,74.92,555.61Z"/>
      <path class="cls-46" d="M72.12,510a1.08,1.08,0,0,1-.93-.53A5.13,5.13,0,0,0,67.73,507a1.08,1.08,0,0,1,.39-2.12,7.24,7.24,0,0,1,4.93,3.5,1.07,1.07,0,0,1-.39,1.47A1,1,0,0,1,72.12,510Z"/>
      <path class="cls-46" d="M74.56,523.17a1,1,0,0,1-.45-.1,11.93,11.93,0,0,1-6.74-8.47,1.09,1.09,0,0,1,.85-1.27,1.07,1.07,0,0,1,1.26.84A9.74,9.74,0,0,0,75,521.11a1.08,1.08,0,0,1-.44,2.06Z"/>
      <path class="cls-46" d="M70.9,527.43a1.07,1.07,0,0,1-1.06-.91,12.09,12.09,0,0,1,.9-6.73,1.08,1.08,0,0,1,2,.87,9.84,9.84,0,0,0-.74,5.53,1.08,1.08,0,0,1-.9,1.23Z"/>
      <path class="cls-46" d="M86.75,562.42c-4.09,0-7.42-3.59-7.42-8a1.08,1.08,0,0,1,2.15,0,5.58,5.58,0,0,0,5.27,5.85,5.19,5.19,0,0,0,4.44-2.69,1,1,0,0,1,.72-.52,1.07,1.07,0,0,1,.86.2,5,5,0,0,0,2.94,1,5.46,5.46,0,0,0,5.18-4.71,1.06,1.06,0,0,1,.47-.71,1.09,1.09,0,0,1,.84-.14h.17c2.89,0,5.24-2.62,5.24-5.84a6.92,6.92,0,0,0-.09-1.11,1.06,1.06,0,0,1,.31-1,6.26,6.26,0,0,0,1.86-4.46,5.94,5.94,0,0,0-2.62-5,1,1,0,0,1-.48-.68,1.07,1.07,0,0,1,.16-.82,6.34,6.34,0,0,0,1.11-3.57,5.94,5.94,0,0,0-3.08-5.28,1.08,1.08,0,0,1-.47-1.42,6.45,6.45,0,0,0,.65-2.76,5.67,5.67,0,0,0-4.72-5.81,1.09,1.09,0,0,1-.74-.43,1.11,1.11,0,0,1-.19-.83,5.85,5.85,0,0,0-5.18-6.84,3.54,3.54,0,0,0-.93.11,1.1,1.1,0,0,1-.85-.12,1.08,1.08,0,0,1-.49-.7,5.36,5.36,0,0,0-5.11-4.45,5.57,5.57,0,0,0-5.27,5.81,1.08,1.08,0,0,1-2.15,0,7.71,7.71,0,0,1,7.42-8,7.38,7.38,0,0,1,6.94,5.18l.44,0c4.09,0,7.42,3.59,7.42,8,0,.1,0,.21,0,.32a7.93,7.93,0,0,1,5.57,7.74,8.45,8.45,0,0,1-.49,2.79,8.18,8.18,0,0,1,3.39,6.67,8.36,8.36,0,0,1-1,3.88,8.21,8.21,0,0,1,2.78,6.2,8.43,8.43,0,0,1-2.13,5.6c0,.31.05.62.05.92a7.75,7.75,0,0,1-7,8,7.52,7.52,0,0,1-7.08,5.57,7,7,0,0,1-3.28-.83A7.29,7.29,0,0,1,86.75,562.42Z"/>
      <path class="cls-46" d="M96.71,527a1.1,1.1,0,0,1-.59-.18,1.08,1.08,0,0,1-.31-1.48,7.26,7.26,0,0,1,10-2.19,1.07,1.07,0,1,1-1.14,1.82,5.13,5.13,0,0,0-7.1,1.54A1.08,1.08,0,0,1,96.71,527Z"/>
      <path class="cls-46" d="M102,554.82h-.15A7.18,7.18,0,0,1,97,552a7.29,7.29,0,0,1-1.41-5.41,1.09,1.09,0,0,1,1.21-.92,1.07,1.07,0,0,1,.92,1.21,5.12,5.12,0,0,0,1,3.82,5.06,5.06,0,0,0,3.35,2,1.07,1.07,0,0,1-.14,2.14Z"/>
      <path class="cls-46" d="M80.4,543.56a1.13,1.13,0,0,1-.36-.06,1.07,1.07,0,0,1-.65-1.37A7.3,7.3,0,0,1,86,537.26a1.08,1.08,0,0,1,1.12,1,1.06,1.06,0,0,1-1,1.12,5.19,5.19,0,0,0-4.66,3.45A1.06,1.06,0,0,1,80.4,543.56Z"/>
      <path class="cls-46" d="M90.15,542.09a1.08,1.08,0,0,1,0-2.15,9.64,9.64,0,0,0,9.65-8.7,1.08,1.08,0,1,1,2.14.21A11.78,11.78,0,0,1,90.15,542.09Z"/>
      <path class="cls-46" d="M102.91,541.09a1.09,1.09,0,0,1-.77-.32,5.12,5.12,0,0,0-4.62-1.42,1.07,1.07,0,0,1-.4-2.11,7.22,7.22,0,0,1,6.56,2,1.07,1.07,0,0,1,0,1.52A1.05,1.05,0,0,1,102.91,541.09Z"/>
      <path class="cls-46" d="M85.92,555.61a1.07,1.07,0,0,1-1.07-1.08,12.16,12.16,0,0,1,2.2-6.93,1.08,1.08,0,0,1,1.76,1.24A10,10,0,0,0,87,554.53,1.08,1.08,0,0,1,85.92,555.61Z"/>
      <path class="cls-46" d="M88.72,510a1,1,0,0,1-.54-.14,1.07,1.07,0,0,1-.39-1.47,7.22,7.22,0,0,1,4.93-3.5A1.08,1.08,0,1,1,93.1,507a5.11,5.11,0,0,0-3.45,2.46A1.08,1.08,0,0,1,88.72,510Z"/>
      <path class="cls-46" d="M86.14,527.4a1,1,0,0,1-.75-.31,1.07,1.07,0,0,1,0-1.52A9.68,9.68,0,0,0,88,517.06a1.07,1.07,0,1,1,2.11-.4,11.82,11.82,0,0,1-3.15,10.41A1.06,1.06,0,0,1,86.14,527.4Z"/>
      <path class="cls-46" d="M89.07,521.34a1.07,1.07,0,0,1-.19-2.13,9.87,9.87,0,0,0,5-2.52,1.08,1.08,0,1,1,1.48,1.56,12,12,0,0,1-6.06,3.07Z"/>
      <path class="cls-49" d="M52.52,778.53a1.43,1.43,0,0,1-1.43-1.43V760.35a1.43,1.43,0,0,1,2.85,0V777.1A1.42,1.42,0,0,1,52.52,778.53Z"/>
      <path class="cls-49" d="M52.52,761.78h0a1.42,1.42,0,0,1-.69-2.67h0l15.07-8.38h0A1.41,1.41,0,0,1,69,752a1.41,1.41,0,0,1-.74,1.22h0L53.21,761.6h0A1.51,1.51,0,0,1,52.52,761.78Z"/>
      <path class="cls-49" d="M82.67,761.78h0a1.51,1.51,0,0,1-.69-.18h0l-15.07-8.38h0a1.43,1.43,0,0,1,1.39-2.49h0l15.07,8.38a1.42,1.42,0,0,1-.69,2.67Zm0,.25a1.67,1.67,0,0,1-.81-.22Z"/>
      <path class="cls-49" d="M67.59,786.9a1.43,1.43,0,0,1-1.42-1.42V768.73a1.43,1.43,0,1,1,2.85,0v16.75A1.43,1.43,0,0,1,67.59,786.9Z"/>
      <path class="cls-49" d="M67.59,786.9h0a1.39,1.39,0,0,1-.69-.18h0l-15.07-8.37h0a1.42,1.42,0,0,1-.54-1.93,1.41,1.41,0,0,1,1.92-.56h0l15.08,8.37a1.43,1.43,0,0,1-.7,2.67Zm0,.25a1.66,1.66,0,0,1-.81-.21Z"/>
      <path class="cls-49" d="M67.59,770.15h0a1.39,1.39,0,0,1-.69-.18h0L51.83,761.6h0a1.42,1.42,0,0,1-.54-1.93,1.41,1.41,0,0,1,1.92-.56h0l15.08,8.37a1.43,1.43,0,0,1-.7,2.67Zm0,.25a1.66,1.66,0,0,1-.81-.21Z"/>
      <path class="cls-49" d="M82.67,778.53a1.42,1.42,0,0,1-1.42-1.43V760.35a1.43,1.43,0,0,1,2.85,0V777.1A1.43,1.43,0,0,1,82.67,778.53Z"/>
      <path class="cls-49" d="M67.59,786.9a1.43,1.43,0,0,1-1.42-1.42V768.73a1.43,1.43,0,1,1,2.85,0v16.75A1.43,1.43,0,0,1,67.59,786.9Z"/>
      <path class="cls-49" d="M67.6,786.9h0a1.43,1.43,0,0,1-.7-2.67L82,775.86h0a1.41,1.41,0,0,1,1.92.56,1.42,1.42,0,0,1-.54,1.93h0l-15.07,8.37h0A1.39,1.39,0,0,1,67.6,786.9Z"/>
      <path class="cls-49" d="M67.6,770.15h0a1.43,1.43,0,0,1-.7-2.67L82,759.11h0a1.41,1.41,0,0,1,1.92.56,1.42,1.42,0,0,1-.54,1.93h0L68.29,770h0A1.39,1.39,0,0,1,67.6,770.15Z"/>
      <path class="cls-49" d="M82.67,778.53a1.42,1.42,0,0,1-1.42-1.43V760.35a1.43,1.43,0,0,1,2.85,0V777.1A1.43,1.43,0,0,1,82.67,778.53Z"/>
      <path class="cls-49" d="M82.67,761.78h0a1.42,1.42,0,0,1-.69-2.67l15.07-8.38h0a1.43,1.43,0,0,1,1.39,2.49h0L83.36,761.6h0A1.51,1.51,0,0,1,82.67,761.78Z"/>
      <path class="cls-49" d="M112,761.81a1.67,1.67,0,0,0,1.63-2.92Zm0,0-15.08-8.37M112,761.81l-15.08-8.37m0,0a1.68,1.68,0,1,1,1.63-2.93Zm15.89,8.34h0a1.51,1.51,0,0,1-.69-.18h0l-15.08-8.38h0a1.41,1.41,0,0,1-.74-1.22,1.43,1.43,0,0,1,.69-1.26,1.45,1.45,0,0,1,1.44,0h0l15.07,8.38a1.41,1.41,0,0,1,.69,1.6A1.42,1.42,0,0,1,112.82,761.78Z"/>
      <path class="cls-49" d="M97.75,786.9a1.43,1.43,0,0,1-1.43-1.42V768.73a1.43,1.43,0,1,1,2.85,0v16.75A1.43,1.43,0,0,1,97.75,786.9Z"/>
      <path class="cls-49" d="M97.75,786.9h0a1.37,1.37,0,0,1-.69-.18h0L82,778.35h0a1.45,1.45,0,0,1-.75-1.23,1.43,1.43,0,0,1,2.13-1.27h0l15.08,8.37a1.42,1.42,0,0,1-.69,2.67Zm0,.25a1.67,1.67,0,0,1-.82-.21L98.56,784a1.67,1.67,0,0,1-.81,3.14Z"/>
      <path class="cls-49" d="M97.75,770.15h0a1.37,1.37,0,0,1-.69-.18h0L82,761.6h0a1.45,1.45,0,0,1-.75-1.23,1.43,1.43,0,0,1,2.13-1.27h0l15.08,8.37a1.42,1.42,0,0,1-.69,2.67Zm0,.25a1.67,1.67,0,0,1-.82-.21l1.63-2.93a1.67,1.67,0,0,1-.81,3.14Z"/>
      <path class="cls-49" d="M112.82,778.53a1.43,1.43,0,0,1-1.42-1.43V760.35a1.43,1.43,0,0,1,2.85,0V777.1A1.43,1.43,0,0,1,112.82,778.53Z"/>
      <path class="cls-49" d="M97.75,786.9a1.43,1.43,0,0,1-1.43-1.42V768.73a1.43,1.43,0,1,1,2.85,0v16.75A1.43,1.43,0,0,1,97.75,786.9Z"/>
      <path class="cls-49" d="M97.75,786.9h0a1.43,1.43,0,0,1-.7-2.67h0l15.08-8.37h0a1.45,1.45,0,0,1,1.44,0,1.42,1.42,0,0,1,.69,1.25,1.44,1.44,0,0,1-.74,1.23h0l-15.08,8.37h0A1.39,1.39,0,0,1,97.75,786.9Z"/>
      <path class="cls-49" d="M97.75,770.15h0a1.43,1.43,0,0,1-.7-2.67h0l15.08-8.37h0a1.45,1.45,0,0,1,1.44,0,1.42,1.42,0,0,1,.69,1.25,1.44,1.44,0,0,1-.74,1.23h0L98.44,770h0A1.39,1.39,0,0,1,97.75,770.15Z"/>
      <path class="cls-49" d="M67.59,753.4A1.43,1.43,0,0,1,66.17,752V735.22a1.43,1.43,0,0,1,2.85,0V752A1.43,1.43,0,0,1,67.59,753.4Z"/>
      <path class="cls-49" d="M67.6,736.65h0a1.42,1.42,0,0,1-1.38-1.07,1.4,1.4,0,0,1,.68-1.6h0L82,725.6h0a1.42,1.42,0,1,1,1.38,2.49h0l-15.07,8.38h0A1.39,1.39,0,0,1,67.6,736.65Z"/>
      <path class="cls-49" d="M97.75,736.65h0a1.37,1.37,0,0,1-.69-.18h0L82,728.1h0a1.43,1.43,0,0,1,1.38-2.5h0L98.44,734a1.42,1.42,0,0,1-.69,2.67Zm0,.25a1.67,1.67,0,0,1-.82-.21Z"/>
      <path class="cls-49" d="M82.67,761.78a1.42,1.42,0,0,1-1.42-1.43V743.6a1.43,1.43,0,1,1,2.85,0v16.75A1.43,1.43,0,0,1,82.67,761.78Z"/>
      <path class="cls-49" d="M82.67,761.78h0a1.51,1.51,0,0,1-.69-.18h0l-15.07-8.38h0a1.43,1.43,0,0,1,1.39-2.49h0l15.07,8.38a1.42,1.42,0,0,1-.69,2.67Zm0,.25a1.67,1.67,0,0,1-.81-.22Z"/>
      <path class="cls-49" d="M82.67,745h0a1.51,1.51,0,0,1-.69-.18h0l-15.07-8.38h0A1.43,1.43,0,0,1,68.29,734h0l15.07,8.37a1.44,1.44,0,0,1,.69,1.61A1.42,1.42,0,0,1,82.67,745Zm0,.25a1.67,1.67,0,0,1-.81-.22Z"/>
      <path class="cls-49" d="M97.75,753.4A1.43,1.43,0,0,1,96.32,752V735.22a1.43,1.43,0,0,1,2.85,0V752A1.43,1.43,0,0,1,97.75,753.4Z"/>
      <path class="cls-49" d="M82.67,761.78a1.42,1.42,0,0,1-1.42-1.43V743.6a1.43,1.43,0,1,1,2.85,0v16.75A1.43,1.43,0,0,1,82.67,761.78Z"/>
      <path class="cls-49" d="M82.67,761.78h0a1.42,1.42,0,0,1-.69-2.67l15.07-8.38h0a1.43,1.43,0,0,1,1.39,2.49h0L83.36,761.6h0A1.51,1.51,0,0,1,82.67,761.78Z"/>
      <path class="cls-49" d="M82.67,745h0a1.43,1.43,0,0,1-.69-2.68h0L97.05,734h0a1.42,1.42,0,1,1,1.38,2.49h0l-15.08,8.38h0A1.51,1.51,0,0,1,82.67,745Z"/>
      <path class="cls-45" d="M65.86,275.18c-8.16,4.7-11.32,14.8-7.06,22.52,4,7.28,13.27,9.88,21.15,6.19l3.55,6.42a4.64,4.64,0,0,0-1.92,6.14l7.74,14a4.45,4.45,0,0,0,6.14,1.5l2.69-1.55a4.64,4.64,0,0,0,1.92-6.14l-7.73-14a4.45,4.45,0,0,0-6.15-1.49l-3.55-6.43c7.17-5,9.77-14.39,5.74-21.68C84.12,273,74,270.49,65.86,275.18Zm1.4,2.55c6.7-3.86,14.93-1.86,18.43,4.48s.93,14.56-5.77,18.42S65,302.49,61.49,296.15,60.56,281.58,67.26,277.73Zm-2.6,14.89a1.59,1.59,0,0,0-.62.92,1.43,1.43,0,0,0,.14,1.06c2.71,4.9,9.16,6.47,14.34,3.49a1.78,1.78,0,0,0,.47-.39,1.62,1.62,0,0,0,.29-.53,1.49,1.49,0,0,0,.06-.59,1.34,1.34,0,0,0-.16-.55,1.31,1.31,0,0,0-.38-.43,1.39,1.39,0,0,0-.52-.25,1.73,1.73,0,0,0-.6,0,2,2,0,0,0-.57.21,7.34,7.34,0,0,1-10.24-2.49,1.36,1.36,0,0,0-.4-.46,1.33,1.33,0,0,0-.57-.25,1.53,1.53,0,0,0-.64,0A1.71,1.71,0,0,0,64.66,292.62Zm20.25,20.24,2.69-1.55a1.44,1.44,0,0,1,2.05.5l7.73,14a1.49,1.49,0,0,1-.64,2l-2.69,1.55a1.43,1.43,0,0,1-2-.5l-7.74-14A1.5,1.5,0,0,1,84.91,312.86Z"/>
      <path class="cls-48" d="M56.49,974l9.8,6.06L63.42,982l1.08,1.69,3.68-2.37,15.38,9.52a1,1,0,0,0,.54.15,1,1,0,0,0,.53-.16L99.84,981l3.71,2.3,1.06-1.7-2.91-1.8,9.69-6.24a1,1,0,0,0,.46-.85,1,1,0,0,0-.48-.84L84.3,955.09a1,1,0,0,0-1.07,0L56.47,972.35a1,1,0,0,0-.45.85A1,1,0,0,0,56.49,974Zm27.29-16.92L109,972.71l-24.89,16L58.89,973.17Z"/>
      <g class="cls-50">
        <path class="cls-48" d="M56.49,974l-4.21,6.8h0Zm9.8,6.06,4.34,6.73L81.27,980,70.5,973.3ZM63.42,982l-4.33-6.72-6.73,4.34,4.34,6.72Zm1.08,1.69L57.78,988l4.34,6.72,6.72-4.33Zm3.68-2.37,4.2-6.8-4.29-2.66-4.25,2.73Zm15.38,9.52L87.79,984h0Zm1.07,0L89,997.51h0ZM99.84,981l4.21-6.8-4.3-2.66-4.24,2.74Zm3.71,2.3-4.2,6.81,6.8,4.2,4.21-6.8Zm1.06-1.7,6.8,4.21,4.21-6.8-6.81-4.21Zm-2.91-1.8-4.33-6.72-10.65,6.86,10.78,6.67Zm9.69-6.24,4.33,6.72h0Zm0-1.69,4.22-6.8h0ZM84.3,955.09l-4.21,6.8h0Zm-1.07,0,4.34,6.72h0ZM56.47,972.35l-4.33-6.72h0Zm27.31-15.23,4.21-6.8-4.29-2.66-4.25,2.74ZM109,972.71l4.34,6.72L124,972.57l-10.77-6.67Zm-24.89,16-4.21,6.8,4.3,2.66,4.24-2.74ZM58.89,973.17l-4.34-6.72-10.64,6.86L54.68,980Zm-6.61,7.67,9.8,6.07L70.5,973.3l-9.8-6.06ZM62,973.38l-2.87,1.85,8.67,13.45,2.87-1.85ZM56.7,986.29,57.78,988l13.45-8.67-1.09-1.68Zm12.14,4.07L72.51,988l-8.67-13.45-3.67,2.37ZM64,988.07l15.38,9.52L87.77,984l-15.39-9.52Zm15.37,9.51a8.94,8.94,0,0,0,4.85,1.36l-.18-16A7,7,0,0,1,87.79,984Zm4.85,1.36A9,9,0,0,0,89,997.51l-8.64-13.46a7,7,0,0,1,3.7-1.11ZM89,997.5l15.2-9.8-8.66-13.45L80.3,984.06Zm6.66-9.72,3.72,2.3,8.41-13.61-3.71-2.3Zm14.73-.3,1-1.7-13.6-8.42-1.06,1.7Zm-1.55-12.71-2.9-1.8L97.5,986.58l2.9,1.79ZM106,986.5l9.68-6.25-8.67-13.44-9.68,6.24Zm9.69-6.25a9,9,0,0,0,4.11-7.64l-16,.14a7,7,0,0,1,3.2-5.94Zm4.11-7.64a9,9,0,0,0-4.25-7.57l-8.43,13.6a7,7,0,0,1-3.31-5.89ZM115.58,965,88.51,948.29l-8.42,13.6,27.07,16.75ZM88.51,948.29a9,9,0,0,0-9.61.09l8.67,13.44a7,7,0,0,1-7.48.07Zm-9.61.09L52.14,965.63l8.67,13.44,26.76-17.25ZM52.13,965.63A9,9,0,0,0,48,973.27l16-.14a7,7,0,0,1-3.21,5.94ZM48,973.27a9,9,0,0,0,4.26,7.57l8.43-13.6A7,7,0,0,1,64,973.13Zm31.56-9.34,25.18,15.58,8.42-13.61L88,950.32ZM104.64,966l-24.9,16,8.67,13.45,24.9-16.05ZM88.29,982,63.1,966.37,54.68,980l25.19,15.58ZM63.22,979.9l24.9-16L79.45,950.4l-24.9,16.05Z"/>
      </g>
      <path class="cls-48" d="M84.59,985.78l3-1.93-1.09-1.68L84,983.76l-2.54-1.58-1.06,1.7,3.09,1.91a1,1,0,0,0,.53.15A1.06,1.06,0,0,0,84.59,985.78Z"/>
      <path class="cls-48" d="M83.83,962.12l2.65,1.64,1-1.7-3.18-2a1,1,0,0,0-1.07,0l-3.15,2,1.08,1.68Z"/>
      <path class="cls-48" d="M56.62,988l4.25,2.63,1.06-1.7L59,987.17l2.87-1.85-1.08-1.68-4.2,2.71a1,1,0,0,0-.46.85A1,1,0,0,0,56.62,988Z"/>
      <g class="cls-51">
        <path class="cls-48" d="M56.62,988l-4.22,6.79h0Zm4.25,2.63-4.21,6.8,6.81,4.21,4.2-6.8Zm1.06-1.7,6.8,4.21,4.21-6.81-6.81-4.2ZM59,987.17l-4.33-6.72L44,987.31,54.81,994Zm2.87-1.85,4.34,6.73L73,987.71,68.61,981Zm-1.08-1.68,6.72-4.34-4.33-6.72-6.73,4.34Zm-4.2,2.71-4.34-6.73h0Zm-4.2,8.49,4.25,2.63,8.42-13.6-4.25-2.63Zm15.26,0,1.06-1.7-13.61-8.42-1,1.7Zm-1.54-12.71-2.9-1.8L54.81,994l2.91,1.79ZM63.35,993.9l2.88-1.85L57.56,978.6l-2.87,1.85ZM68.61,981l-1.08-1.69L54.08,988l1.09,1.68Zm-12.14-4.07-4.2,2.7,8.67,13.45,4.2-2.71Zm-4.2,2.71a9,9,0,0,0-4.12,7.64l16-.14a7,7,0,0,1-3.2,5.94Zm-4.12,7.64a9,9,0,0,0,4.25,7.56l8.45-13.58a7,7,0,0,1,3.3,5.88Z"/>
      </g>
      <path class="cls-48" d="M71.92,995.15l-1,1.7,7.14,4.42,1.06-1.7Z"/>
      <g class="cls-52">
        <path class="cls-48" d="M70.87,996.85l-6.8-4.2-4.21,6.8,6.8,4.21Zm1-1.7,4.21-6.8-6.8-4.21-4.21,6.8Zm7.15,4.42,6.8,4.21,4.21-6.8-6.8-4.21Zm-1.06,1.7-4.21,6.81,6.81,4.21,4.21-6.81Zm-.33-.21,1-1.7-13.61-8.42-1.05,1.71Zm-10,.9,7.14,4.41,8.42-13.6-7.15-4.42Zm4.54-6.6-1.05,1.7,13.61,8.42,1.05-1.7Zm10-.89-7.14-4.42-8.42,13.61,7.14,4.42Z"/>
      </g>
      <path class="cls-48" d="M80.49,1000.46l-1,1.7,4.25,2.63a1,1,0,0,0,.54.15,1,1,0,0,0,.53-.16l4.21-2.71-1.09-1.68-3.67,2.37Z"/>
      <path class="cls-48" d="M96.35,994.93l-7.06,4.55,1.09,1.68,7.05-4.55Z"/>
      <path class="cls-48" d="M111.5,985.84l-4.25-2.63-1,1.7,2.9,1.79-2.87,1.86,1.08,1.68,4.21-2.71a1,1,0,0,0,.45-.85A1,1,0,0,0,111.5,985.84Z"/>
      <g class="cls-53">
        <path class="cls-48" d="M111.5,985.84l4.22-6.8h0Zm-4.25-2.63,4.21-6.81-6.8-4.2-4.21,6.8Zm-1,1.7-6.8-4.21-4.22,6.8,6.81,4.21Zm2.9,1.79,4.34,6.73,10.65-6.87-10.78-6.66Zm-2.87,1.86-4.33-6.73-6.73,4.34,4.34,6.72Zm1.08,1.68-6.72,4.33,4.34,6.72,6.72-4.33Zm4.21-2.71,4.33,6.72h0Zm.45-.85-8,0v0h0Zm3.74-7.65-4.25-2.63L103,990l4.25,2.63Zm-15.26,0-1,1.7,13.6,8.42,1-1.7ZM102,991.71l2.91,1.8,8.41-13.61-2.91-1.8ZM104.77,980l-2.87,1.85,8.66,13.45,2.88-1.85Zm-5.26,12.91,1.08,1.68L114,985.9,113,984.22ZM111.65,997l4.2-2.71-8.67-13.45-4.2,2.71Zm4.21-2.71a9,9,0,0,0,4.11-7.64l-16,.14a7,7,0,0,1,3.2-5.94Zm4.11-7.62a9,9,0,0,0-4.25-7.59l-8.43,13.6a7,7,0,0,1-3.32-5.92Z"/>
      </g>
      <path class="cls-48" d="M111.63,999.84l-9.8-6.07,4.07-2.62-1.08-1.68L97.76,994l1.09,1.68L100,995l9.26,5.73-24.89,16-25.19-15.58,9.16-5.9,1.13.7,1.06-1.7-7.15-4.42-1.05,1.7,4.12,2.55-9.68,6.25a1,1,0,0,0-.46.85,1,1,0,0,0,.47.84l27.08,16.75a1,1,0,0,0,.53.15,1.1,1.1,0,0,0,.53-.16l26.76-17.25a1,1,0,0,0,0-1.69Z"/>
    </g>
  </g>
</svg>
