<svg viewBox="0 0 360 607" fill="none" xmlns="http://www.w3.org/2000/svg" xmlns:xlink="http://www.w3.org/1999/xlink">
    <g opacity="0.19">
        <mask id="mask0" mask-type="alpha" maskUnits="userSpaceOnUse" x="0" y="0" width="360" height="607">
            <rect width="359.642" height="607" fill="#F5F5F5" />
        </mask>
        <g mask="url(#mask0)">
            <rect y="-473.93" width="359.642" height="1307.93" fill="url(#pattern0)" />
        </g>
    </g>
    <rect width="360" height="607" fill="url(#paint0_linear)" />
    <path fill-rule="evenodd" clip-rule="evenodd"
        d="M43.6059 237.476C41.9374 239.144 41 241.405 41 243.763L41 255.196L56.9013 239.321L77.9907 267.201C79.8819 269.701 82.8363 271.17 85.9721 271.17L94.2774 271.17L64.6668 231.568L91.2775 205H79.7918C77.4334 205 75.1717 205.936 73.5039 207.603L43.6059 237.476Z"
        fill="#F52D01" />
    <path
        d="M64.7347 231.544L94.3113 271.152L86.0109 271.152C82.8785 271.152 79.9272 269.684 78.0375 267.186L56.9613 239.325L64.7347 231.544Z"
        fill="url(#paint1_linear)" />
    <path
        d="M122.311 234.743C122.104 234.743 122 234.636 122 234.422V212.578C122 212.364 122.104 212.257 122.311 212.257H123.339C123.547 212.257 123.651 212.364 123.651 212.578V223.918C123.651 223.96 123.672 223.993 123.713 224.014C123.755 224.035 123.786 224.025 123.806 223.982L134.334 212.418C134.438 212.311 134.562 212.257 134.708 212.257H135.86C135.985 212.257 136.068 212.3 136.109 212.385C136.151 212.45 136.13 212.535 136.047 212.642L128.26 221.476C128.219 221.519 128.219 221.583 128.26 221.669L136.763 234.358L136.826 234.518C136.826 234.668 136.732 234.743 136.545 234.743H135.331C135.164 234.743 135.04 234.679 134.957 234.55L127.139 222.89C127.118 222.847 127.087 222.825 127.046 222.825C127.004 222.825 126.973 222.836 126.952 222.858L123.713 226.295C123.672 226.338 123.651 226.391 123.651 226.455V234.422C123.651 234.636 123.547 234.743 123.339 234.743H122.311Z"
        fill="#F52D01" />
    <path
        d="M162.806 234.743C162.619 234.743 162.495 234.657 162.432 234.486L161.093 230.214C161.072 230.149 161.031 230.117 160.968 230.117H151.251C151.189 230.117 151.147 230.149 151.126 230.214L149.818 234.486C149.756 234.657 149.631 234.743 149.444 234.743H148.354C148.126 234.743 148.043 234.625 148.105 234.39L155.02 212.514C155.082 212.343 155.206 212.257 155.393 212.257H156.795C156.982 212.257 157.106 212.343 157.169 212.514L164.114 234.39L164.145 234.518C164.145 234.668 164.052 234.743 163.865 234.743H162.806ZM151.625 228.543C151.604 228.586 151.604 228.629 151.625 228.672C151.666 228.693 151.708 228.704 151.749 228.704H160.47C160.512 228.704 160.543 228.693 160.564 228.672C160.605 228.629 160.615 228.586 160.595 228.543L156.203 214.57C156.182 214.527 156.151 214.506 156.11 214.506C156.068 214.506 156.037 214.527 156.016 214.57L151.625 228.543Z"
        fill="#F52D01" />
    <path
        d="M189.789 212.578C189.789 212.364 189.893 212.257 190.101 212.257H191.129C191.336 212.257 191.44 212.364 191.44 212.578V234.422C191.44 234.636 191.336 234.743 191.129 234.743H190.101C189.955 234.743 189.831 234.668 189.727 234.518L178.452 215.662C178.431 215.598 178.4 215.576 178.359 215.598C178.317 215.598 178.296 215.63 178.296 215.694V234.422C178.296 234.636 178.193 234.743 177.985 234.743H176.957C176.749 234.743 176.646 234.636 176.646 234.422V212.578C176.646 212.364 176.749 212.257 176.957 212.257H178.016C178.161 212.257 178.286 212.332 178.39 212.482L189.634 231.338C189.654 231.402 189.685 231.434 189.727 231.434C189.769 231.413 189.789 231.37 189.789 231.306V212.578Z"
        fill="#F52D01" />
    <path
        d="M211.972 235C209.688 235 207.881 234.475 206.552 233.426C205.224 232.355 204.559 230.931 204.559 229.154V228.094C204.559 227.879 204.663 227.772 204.871 227.772H205.836C206.044 227.772 206.148 227.879 206.148 228.094V229.057C206.148 230.385 206.677 231.456 207.736 232.27C208.795 233.083 210.248 233.49 212.096 233.49C213.82 233.49 215.138 233.126 216.052 232.398C216.966 231.649 217.422 230.621 217.422 229.314C217.422 228.522 217.215 227.837 216.8 227.258C216.405 226.659 215.782 226.102 214.931 225.588C214.1 225.074 212.917 224.485 211.38 223.821C209.761 223.115 208.535 222.526 207.705 222.054C206.895 221.583 206.241 220.994 205.743 220.288C205.244 219.56 204.995 218.628 204.995 217.493C204.995 215.737 205.577 214.388 206.739 213.446C207.923 212.482 209.553 212 211.629 212C213.893 212 215.668 212.535 216.955 213.606C218.243 214.677 218.886 216.112 218.886 217.911V218.649C218.886 218.864 218.783 218.971 218.575 218.971H217.547C217.339 218.971 217.236 218.864 217.236 218.649V218.007C217.236 216.658 216.737 215.576 215.741 214.763C214.744 213.927 213.342 213.51 211.536 213.51C209.958 213.51 208.743 213.852 207.892 214.538C207.04 215.202 206.615 216.165 206.615 217.429C206.615 218.285 206.812 218.981 207.207 219.517C207.601 220.052 208.162 220.523 208.888 220.93C209.636 221.316 210.778 221.83 212.314 222.472C213.851 223.115 215.086 223.736 216.021 224.335C216.976 224.913 217.724 225.599 218.263 226.391C218.803 227.183 219.073 228.136 219.073 229.25C219.073 230.985 218.45 232.377 217.204 233.426C215.959 234.475 214.214 235 211.972 235Z"
        fill="#F52D01" />
    <path
        d="M238.743 235C237.31 235 236.044 234.7 234.943 234.101C233.863 233.48 233.022 232.623 232.42 231.531C231.839 230.417 231.548 229.143 231.548 227.708V219.292C231.548 217.857 231.839 216.594 232.42 215.501C233.022 214.388 233.863 213.531 234.943 212.932C236.044 212.311 237.31 212 238.743 212C240.176 212 241.442 212.311 242.543 212.932C243.643 213.531 244.495 214.388 245.097 215.501C245.699 216.594 246 217.857 246 219.292V227.708C246 229.143 245.699 230.417 245.097 231.531C244.495 232.623 243.643 233.48 242.543 234.101C241.442 234.7 240.176 235 238.743 235ZM238.743 233.522C240.425 233.522 241.775 232.998 242.792 231.948C243.83 230.899 244.349 229.507 244.349 227.772V219.26C244.349 217.547 243.83 216.165 242.792 215.116C241.775 214.045 240.425 213.51 238.743 213.51C237.082 213.51 235.743 214.045 234.725 215.116C233.708 216.165 233.199 217.547 233.199 219.26V227.772C233.199 229.507 233.708 230.899 234.725 231.948C235.743 232.998 237.082 233.522 238.743 233.522Z"
        fill="#F52D01" />
    <path
        d="M122.183 260.844C122.061 260.844 122 260.778 122 260.648V247.352C122 247.222 122.061 247.156 122.183 247.156H126.419C127.588 247.156 128.513 247.489 129.195 248.154C129.877 248.805 130.218 249.698 130.218 250.832V257.168C130.218 258.302 129.877 259.201 129.195 259.866C128.513 260.518 127.588 260.844 126.419 260.844H122.183ZM122.968 259.846C122.968 259.899 122.992 259.925 123.041 259.925H126.474C127.326 259.925 127.996 259.67 128.483 259.162C128.982 258.641 129.238 257.937 129.25 257.05V250.95C129.25 250.063 129 249.366 128.501 248.858C128.014 248.336 127.339 248.075 126.474 248.075H123.041C122.992 248.075 122.968 248.101 122.968 248.154V259.846Z"
        fill="#323232" />
    <path
        d="M141.708 247.88C141.708 248.01 141.647 248.075 141.525 248.075H134.604C134.555 248.075 134.531 248.101 134.531 248.154V253.433C134.531 253.485 134.555 253.511 134.604 253.511H139.516C139.638 253.511 139.699 253.576 139.699 253.707V254.235C139.699 254.365 139.638 254.43 139.516 254.43H134.604C134.555 254.43 134.531 254.456 134.531 254.508V259.846C134.531 259.899 134.555 259.925 134.604 259.925H141.525C141.647 259.925 141.708 259.99 141.708 260.12V260.648C141.708 260.778 141.647 260.844 141.525 260.844H133.746C133.624 260.844 133.563 260.778 133.563 260.648V247.352C133.563 247.222 133.624 247.156 133.746 247.156H141.525C141.647 247.156 141.708 247.222 141.708 247.352V247.88Z"
        fill="#323232" />
    <path
        d="M148.526 261C147.186 261 146.127 260.681 145.348 260.042C144.569 259.39 144.179 258.523 144.179 257.441V256.796C144.179 256.666 144.24 256.601 144.362 256.601H144.928C145.05 256.601 145.111 256.666 145.111 256.796V257.383C145.111 258.191 145.421 258.843 146.042 259.338C146.663 259.833 147.515 260.081 148.599 260.081C149.609 260.081 150.382 259.859 150.918 259.416C151.454 258.96 151.721 258.334 151.721 257.539C151.721 257.057 151.6 256.64 151.356 256.288C151.125 255.923 150.76 255.584 150.26 255.271C149.773 254.958 149.079 254.6 148.179 254.196C147.229 253.765 146.511 253.407 146.024 253.12C145.549 252.833 145.165 252.475 144.873 252.045C144.581 251.601 144.435 251.034 144.435 250.344C144.435 249.275 144.776 248.453 145.457 247.88C146.151 247.293 147.107 247 148.325 247C149.652 247 150.693 247.326 151.447 247.978C152.202 248.629 152.58 249.503 152.58 250.598V251.047C152.58 251.178 152.519 251.243 152.397 251.243H151.794C151.673 251.243 151.612 251.178 151.612 251.047V250.656C151.612 249.835 151.32 249.177 150.735 248.682C150.151 248.173 149.329 247.919 148.27 247.919C147.345 247.919 146.632 248.128 146.133 248.545C145.634 248.949 145.384 249.535 145.384 250.304C145.384 250.826 145.5 251.25 145.731 251.575C145.963 251.901 146.291 252.188 146.718 252.436C147.156 252.67 147.825 252.983 148.726 253.374C149.627 253.765 150.352 254.143 150.9 254.508C151.46 254.86 151.898 255.277 152.214 255.76C152.531 256.242 152.689 256.822 152.689 257.5C152.689 258.556 152.324 259.403 151.594 260.042C150.863 260.681 149.84 261 148.526 261Z"
        fill="#323232" />
    <path
        d="M156.087 260.844C155.965 260.844 155.904 260.778 155.904 260.648V247.352C155.904 247.222 155.965 247.156 156.087 247.156H156.689C156.811 247.156 156.872 247.222 156.872 247.352V260.648C156.872 260.778 156.811 260.844 156.689 260.844H156.087Z"
        fill="#323232" />
    <path
        d="M164.648 261C163.82 261 163.09 260.824 162.457 260.472C161.824 260.12 161.33 259.631 160.977 259.006C160.637 258.367 160.466 257.637 160.466 256.816V251.184C160.466 250.35 160.637 249.62 160.977 248.994C161.33 248.356 161.824 247.867 162.457 247.528C163.09 247.176 163.82 247 164.648 247C165.464 247 166.182 247.176 166.803 247.528C167.436 247.867 167.923 248.343 168.264 248.955C168.617 249.568 168.794 250.272 168.794 251.067V251.341C168.794 251.471 168.733 251.536 168.611 251.536H168.008C167.887 251.536 167.826 251.471 167.826 251.341V251.087C167.826 250.148 167.533 249.385 166.949 248.799C166.365 248.212 165.598 247.919 164.648 247.919C163.686 247.919 162.907 248.219 162.311 248.818C161.726 249.405 161.434 250.181 161.434 251.145V256.855C161.434 257.819 161.726 258.601 162.311 259.201C162.907 259.788 163.692 260.081 164.666 260.081C165.616 260.081 166.377 259.801 166.949 259.24C167.533 258.667 167.826 257.911 167.826 256.972V254.997C167.826 254.945 167.801 254.919 167.753 254.919H164.904C164.782 254.919 164.721 254.854 164.721 254.723V254.196C164.721 254.065 164.782 254 164.904 254H168.611C168.733 254 168.794 254.065 168.794 254.196V256.737C168.794 258.054 168.416 259.097 167.661 259.866C166.906 260.622 165.902 261 164.648 261Z"
        fill="#323232" />
    <path
        d="M180.084 247.352C180.084 247.222 180.145 247.156 180.267 247.156H180.869C180.991 247.156 181.052 247.222 181.052 247.352V260.648C181.052 260.778 180.991 260.844 180.869 260.844H180.267C180.182 260.844 180.109 260.798 180.048 260.707L173.437 249.229C173.425 249.19 173.406 249.177 173.382 249.19C173.358 249.19 173.346 249.209 173.346 249.249V260.648C173.346 260.778 173.285 260.844 173.163 260.844H172.56C172.438 260.844 172.378 260.778 172.378 260.648V247.352C172.378 247.222 172.438 247.156 172.56 247.156H173.181C173.266 247.156 173.339 247.202 173.4 247.293L179.993 258.771C180.005 258.81 180.023 258.83 180.048 258.83C180.072 258.817 180.084 258.791 180.084 258.751V247.352Z"
        fill="#323232" />
    <path
        d="M191.405 260.844C191.308 260.844 191.241 260.791 191.204 260.687L187.643 247.372L187.625 247.313C187.625 247.209 187.686 247.156 187.807 247.156H188.428C188.526 247.156 188.593 247.209 188.629 247.313L191.661 258.712C191.673 258.738 191.685 258.751 191.697 258.751C191.722 258.751 191.74 258.738 191.752 258.712L194.564 247.332C194.589 247.215 194.656 247.156 194.765 247.156H195.404C195.514 247.156 195.581 247.215 195.605 247.332L198.509 258.712C198.521 258.738 198.533 258.751 198.545 258.751C198.57 258.751 198.588 258.738 198.6 258.712L201.668 247.313C201.705 247.209 201.772 247.156 201.869 247.156H202.454C202.514 247.156 202.557 247.176 202.581 247.215C202.618 247.254 202.63 247.306 202.618 247.372L199.057 260.687C199.02 260.791 198.953 260.844 198.856 260.844H198.217C198.107 260.844 198.04 260.785 198.016 260.668L195.149 249.073C195.137 249.047 195.118 249.034 195.094 249.034C195.082 249.034 195.07 249.047 195.057 249.073L192.209 260.668C192.184 260.785 192.117 260.844 192.008 260.844H191.405Z"
        fill="#323232" />
    <path
        d="M208.76 261C207.92 261 207.178 260.818 206.532 260.453C205.899 260.074 205.406 259.553 205.053 258.888C204.712 258.21 204.542 257.435 204.542 256.561V251.439C204.542 250.565 204.712 249.796 205.053 249.131C205.406 248.453 205.899 247.932 206.532 247.567C207.178 247.189 207.92 247 208.76 247C209.6 247 210.343 247.189 210.988 247.567C211.634 247.932 212.133 248.453 212.486 249.131C212.839 249.796 213.015 250.565 213.015 251.439V256.561C213.015 257.435 212.839 258.21 212.486 258.888C212.133 259.553 211.634 260.074 210.988 260.453C210.343 260.818 209.6 261 208.76 261ZM208.76 260.101C209.747 260.101 210.538 259.781 211.134 259.142C211.743 258.504 212.048 257.656 212.048 256.601V251.419C212.048 250.376 211.743 249.535 211.134 248.897C210.538 248.245 209.747 247.919 208.76 247.919C207.786 247.919 207.001 248.245 206.405 248.897C205.808 249.535 205.51 250.376 205.51 251.419V256.601C205.51 257.656 205.808 258.504 206.405 259.142C207.001 259.781 207.786 260.101 208.76 260.101Z"
        fill="#323232" />
    <path
        d="M224.175 260.844C224.065 260.844 223.992 260.798 223.956 260.707L221.162 254.489C221.149 254.45 221.125 254.43 221.089 254.43H217.637C217.588 254.43 217.564 254.456 217.564 254.508V260.648C217.564 260.778 217.503 260.844 217.381 260.844H216.779C216.657 260.844 216.596 260.778 216.596 260.648V247.352C216.596 247.222 216.657 247.156 216.779 247.156H221.381C222.403 247.156 223.225 247.495 223.846 248.173C224.479 248.851 224.796 249.737 224.796 250.832C224.796 251.758 224.558 252.54 224.084 253.179C223.609 253.804 222.97 254.196 222.166 254.352C222.105 254.378 222.087 254.411 222.111 254.45L224.905 260.609C224.918 260.635 224.924 260.668 224.924 260.707C224.924 260.798 224.875 260.844 224.777 260.844H224.175ZM217.637 248.075C217.588 248.075 217.564 248.101 217.564 248.154V253.492C217.564 253.544 217.588 253.57 217.637 253.57H221.289C222.044 253.57 222.653 253.316 223.116 252.807C223.59 252.299 223.828 251.641 223.828 250.832C223.828 250.011 223.59 249.346 223.116 248.838C222.653 248.33 222.044 248.075 221.289 248.075H217.637Z"
        fill="#323232" />
    <path
        d="M228.235 260.844C228.113 260.844 228.052 260.778 228.052 260.648V247.352C228.052 247.222 228.113 247.156 228.235 247.156H228.837C228.959 247.156 229.02 247.222 229.02 247.352V254.254C229.02 254.28 229.032 254.3 229.056 254.313C229.081 254.326 229.099 254.319 229.111 254.293L235.284 247.254C235.345 247.189 235.418 247.156 235.503 247.156H236.179C236.252 247.156 236.3 247.182 236.325 247.235C236.349 247.274 236.337 247.326 236.288 247.391L231.723 252.768C231.698 252.794 231.698 252.833 231.723 252.885L236.708 260.609L236.745 260.707C236.745 260.798 236.69 260.844 236.58 260.844H235.868C235.771 260.844 235.698 260.804 235.649 260.726L231.065 253.628C231.053 253.602 231.035 253.589 231.01 253.589C230.986 253.589 230.968 253.596 230.956 253.609L229.056 255.701C229.032 255.727 229.02 255.76 229.02 255.799V260.648C229.02 260.778 228.959 260.844 228.837 260.844H228.235Z"
        fill="#323232" />
    <path
        d="M242.836 261C241.497 261 240.438 260.681 239.659 260.042C238.879 259.39 238.49 258.523 238.49 257.441V256.796C238.49 256.666 238.551 256.601 238.673 256.601H239.239C239.36 256.601 239.421 256.666 239.421 256.796V257.383C239.421 258.191 239.732 258.843 240.353 259.338C240.974 259.833 241.826 260.081 242.909 260.081C243.92 260.081 244.693 259.859 245.229 259.416C245.764 258.96 246.032 258.334 246.032 257.539C246.032 257.057 245.91 256.64 245.667 256.288C245.436 255.923 245.07 255.584 244.571 255.271C244.084 254.958 243.39 254.6 242.489 254.196C241.54 253.765 240.821 253.407 240.334 253.12C239.86 252.833 239.476 252.475 239.184 252.045C238.892 251.601 238.746 251.034 238.746 250.344C238.746 249.275 239.086 248.453 239.768 247.88C240.462 247.293 241.418 247 242.635 247C243.962 247 245.003 247.326 245.758 247.978C246.513 248.629 246.89 249.503 246.89 250.598V251.047C246.89 251.178 246.83 251.243 246.708 251.243H246.105C245.983 251.243 245.923 251.178 245.923 251.047V250.656C245.923 249.835 245.63 249.177 245.046 248.682C244.462 248.173 243.64 247.919 242.581 247.919C241.655 247.919 240.943 248.128 240.444 248.545C239.945 248.949 239.695 249.535 239.695 250.304C239.695 250.826 239.811 251.25 240.042 251.575C240.273 251.901 240.602 252.188 241.028 252.436C241.467 252.67 242.136 252.983 243.037 253.374C243.938 253.765 244.662 254.143 245.21 254.508C245.77 254.86 246.209 255.277 246.525 255.76C246.842 256.242 247 256.822 247 257.5C247 258.556 246.635 259.403 245.904 260.042C245.174 260.681 244.151 261 242.836 261Z"
        fill="#323232" />
    <defs>
        <pattern id="pattern0" patternContentUnits="objectBoundingBox" width="1" height="1">
            <use xlink:href="#image0" transform="translate(-0.765673) scale(0.00088788 0.000244141)" />
        </pattern>
        <linearGradient id="paint0_linear" x1="180" y1="579" x2="180" y2="-187.864" gradientUnits="userSpaceOnUse">
            <stop stop-color="white" />
            <stop offset="1" stop-color="white" stop-opacity="0" />
        </linearGradient>
        <linearGradient id="paint1_linear" x1="73.3993" y1="251.317" x2="61.4282" y2="234.766"
            gradientUnits="userSpaceOnUse">
            <stop stop-color="#F52D01" />
            <stop offset="1" stop-color="#AC1F00" />
        </linearGradient>
        <image id="image0" xlink:href="https://images.unsplash.com/photo-1531804055935-76f44d7c3621" />
    </defs>
</svg>