
<svg width="25" height="10" viewBox="0 0 25 10" fill="none" xmlns="http://www.w3.org/2000/svg">
<path fill-rule="evenodd" clip-rule="evenodd" d="M12.5269 1.59622e-05C13.5266 0.00223583 14.5347 0.0810413 15.5347 0.243647C16.6777 0.429284 17.7927 0.718144 18.8736 1.10662C20.2944 1.61775 21.6497 2.30063 22.9022 3.13198C23.5666 3.5729 24.203 4.05572 24.8075 4.57794L24.8533 4.62234C24.8666 4.63871 24.8811 4.65453 24.8939 4.67173C24.9941 4.80937 25.0261 4.99389 24.978 5.15733C24.9539 5.23891 24.9108 5.31494 24.8533 5.37765C24.8389 5.39319 24.8227 5.40734 24.8075 5.42205C24.8072 5.42233 24.7883 5.43842 24.788 5.4387C24.0683 6.0586 23.3055 6.62245 22.4927 7.13218C21.7041 7.62694 20.8841 8.05981 20.0327 8.43192C18.6325 9.04405 17.148 9.48469 15.653 9.73665C14.8255 9.87622 13.9819 9.96058 13.1441 9.98916C12.5191 10.0102 11.8938 10.0005 11.2694 9.9603C10.3522 9.9012 9.44635 9.77522 8.5619 9.58736C7.33273 9.32597 6.11995 8.93638 4.96606 8.43192C4.12884 8.06619 3.31523 7.63748 2.53856 7.15272C1.71439 6.63826 0.930227 6.06054 0.19106 5.42205L0.145226 5.37765C0.131893 5.36128 0.117448 5.34546 0.104948 5.32826C-0.0200517 5.15678 -0.0356072 4.91259 0.0702262 4.72529C0.11856 4.63982 0.194949 4.57406 0.268837 4.51107C0.681338 4.15894 1.103 3.82818 1.54773 3.51019C2.37606 2.91776 3.25717 2.38915 4.16829 1.9388C5.16773 1.44487 6.21995 1.03892 7.26995 0.735903C7.92884 0.545826 8.5944 0.393211 9.26634 0.276667C10.1208 0.128491 10.985 0.040251 11.8544 0.0108377C12.0786 0.00306816 12.3022 -0.000261522 12.5269 1.59622e-05ZM12.4925 1.11606C12.0336 1.118 11.5683 1.19736 11.1188 1.36829C10.4836 1.6097 9.90357 2.03203 9.47718 2.55731C9.07662 3.05123 8.79884 3.64477 8.67968 4.27049C8.47996 5.32021 8.72579 6.43931 9.37662 7.3131C9.83718 7.93134 10.4827 8.41 11.2136 8.66612C11.6158 8.80735 12.0358 8.88116 12.475 8.88366C12.4902 8.88366 12.5055 8.88366 12.5208 8.88366C12.9736 8.88116 13.425 8.80097 13.8519 8.64225C14.6 8.36393 15.2619 7.84781 15.7166 7.17991C16.0127 6.74509 16.2197 6.25006 16.3189 5.72922C16.5189 4.67978 16.2727 3.56069 15.6219 2.68661C15.2127 2.13747 14.6655 1.69516 14.0008 1.41657C13.7086 1.2942 13.4008 1.20763 13.0852 1.1599C12.8908 1.13048 12.6944 1.11633 12.5002 1.11606H12.4925ZM8.95495 1.47068C8.94634 1.47262 8.93773 1.47429 8.92884 1.47623C7.96801 1.67269 7.00884 1.95517 6.10218 2.30674C5.3219 2.6092 4.56079 2.96909 3.83801 3.37478C3.21773 3.72274 2.61717 4.11011 2.05189 4.52328C1.84134 4.67728 1.63412 4.836 1.4305 4.99889L1.42939 5C2.14912 5.57689 2.92134 6.103 3.73273 6.56556C4.59745 7.05865 5.50968 7.48154 6.44606 7.82229C7.22857 8.10699 8.03134 8.33535 8.84357 8.50601C8.88135 8.51405 8.91912 8.52182 8.95662 8.52932C8.43884 8.00876 8.0344 7.37526 7.78773 6.68987C7.4569 5.77057 7.4044 4.74887 7.64051 3.79627C7.82551 3.04956 8.19107 2.34531 8.68107 1.76814C8.76829 1.66547 8.85968 1.56613 8.95495 1.47068V1.47068ZM16.043 1.47068C16.875 2.30813 17.4039 3.43915 17.4911 4.63178C17.5802 5.84993 17.2172 7.08723 16.4455 8.07452C16.3205 8.23435 16.1861 8.38613 16.0433 8.52904C16.0969 8.51822 16.1505 8.50712 16.2038 8.49574C17.0458 8.31676 17.89 8.0698 18.6789 7.77567C19.5358 7.45656 20.3664 7.07086 21.1605 6.62522C21.6561 6.34718 22.1322 6.04889 22.6033 5.72146C22.933 5.49225 23.2547 5.25168 23.568 5.00083L23.5691 5C22.8494 4.42283 22.0772 3.897 21.2661 3.43416C20.6183 3.06482 19.9477 2.73601 19.248 2.44742C18.4455 2.11638 17.6244 1.84639 16.773 1.63523C16.5314 1.57529 16.2877 1.52035 16.043 1.47068V1.47068Z" fill="black"/>
<path fill-rule="evenodd" clip-rule="evenodd" d="M12.5078 3.00001C12.7471 3.00054 12.986 3.02822 13.2147 3.08304C13.7297 3.20615 14.19 3.46421 14.5123 3.81295C14.7608 4.08182 14.9229 4.40157 14.9786 4.7337C15.0636 5.24219 14.8932 5.77492 14.5123 6.18746C14.218 6.50615 13.8065 6.75209 13.3376 6.8852C12.8845 7.01384 12.3816 7.03598 11.9065 6.94346C11.5199 6.86807 11.1515 6.71439 10.852 6.50404C10.4507 6.22225 10.1551 5.82421 10.0473 5.39059C9.91948 4.87552 10.0526 4.32829 10.423 3.88676C10.6813 3.57861 11.0477 3.32977 11.4715 3.17662C11.7002 3.09412 11.944 3.03876 12.1988 3.01425C12.3012 3.00449 12.4044 2.99975 12.5078 3.00001V3.00001ZM12.496 4.06021C12.0587 4.061 11.6346 4.26898 11.4389 4.59584C11.2909 4.84336 11.287 5.14413 11.4346 5.39692C11.5717 5.63205 11.8356 5.81789 12.1437 5.89618C12.3609 5.95127 12.5985 5.95496 12.8179 5.9054C12.8275 5.90329 12.8367 5.90119 12.8456 5.89881C13.2344 5.80313 13.5577 5.53399 13.6483 5.20133C13.702 5.00442 13.6747 4.79433 13.5702 4.61113C13.4424 4.38681 13.1975 4.20492 12.9102 4.11899C12.7777 4.07919 12.6344 4.05968 12.496 4.06021V4.06021Z" fill="black"/>
</svg>