<svg width="1280" height="557" viewBox="0 0 1280 557" fill="none" xmlns="http://www.w3.org/2000/svg">
<path d="M1280 557L-0.00012207 557L-7.33758e-05 -5.0866e-05L1280 6.10352e-05L1280 557Z" fill="url(#paint0_linear)"/>
<path d="M117.088 271C116.968 271 116.872 270.964 116.8 270.892C116.728 270.82 116.692 270.724 116.692 270.604V258.814C116.692 258.694 116.728 258.598 116.8 258.526C116.872 258.442 116.968 258.4 117.088 258.4H120.922C122.17 258.4 123.154 258.586 123.874 258.958C124.606 259.318 125.122 259.852 125.422 260.56C125.734 261.268 125.902 262.168 125.926 263.26C125.938 263.62 125.944 264.094 125.944 264.682C125.944 265.282 125.938 265.762 125.926 266.122C125.902 267.274 125.734 268.204 125.422 268.912C125.122 269.608 124.618 270.13 123.91 270.478C123.202 270.826 122.236 271 121.012 271H117.088ZM120.922 269.92C121.882 269.92 122.638 269.794 123.19 269.542C123.742 269.278 124.138 268.87 124.378 268.318C124.63 267.754 124.768 266.992 124.792 266.032C124.804 265.672 124.81 265.222 124.81 264.682C124.81 264.154 124.804 263.71 124.792 263.35C124.768 262.006 124.45 261.028 123.838 260.416C123.238 259.792 122.236 259.48 120.832 259.48H117.826V269.92H120.922ZM129.036 271C128.916 271 128.82 270.964 128.748 270.892C128.676 270.82 128.64 270.724 128.64 270.604V262.054C128.64 261.934 128.676 261.838 128.748 261.766C128.82 261.682 128.916 261.64 129.036 261.64H129.324C129.444 261.64 129.54 261.682 129.612 261.766C129.696 261.838 129.738 261.934 129.738 262.054V262.882C130.17 262.054 130.986 261.64 132.186 261.64H132.852C132.972 261.64 133.068 261.676 133.14 261.748C133.212 261.82 133.248 261.916 133.248 262.036V262.288C133.248 262.408 133.212 262.504 133.14 262.576C133.068 262.648 132.972 262.684 132.852 262.684H132.078C131.358 262.684 130.788 262.894 130.368 263.314C129.948 263.734 129.738 264.304 129.738 265.024V270.604C129.738 270.724 129.696 270.82 129.612 270.892C129.54 270.964 129.444 271 129.324 271H129.036ZM138.251 271.18C137.003 271.18 136.031 270.802 135.335 270.046C134.651 269.278 134.291 268.288 134.255 267.076L134.237 266.32L134.255 265.564C134.291 264.352 134.651 263.368 135.335 262.612C136.031 261.844 137.003 261.46 138.251 261.46C139.499 261.46 140.465 261.844 141.149 262.612C141.845 263.368 142.211 264.352 142.247 265.564C142.259 265.684 142.265 265.936 142.265 266.32C142.265 266.704 142.259 266.956 142.247 267.076C142.211 268.288 141.845 269.278 141.149 270.046C140.465 270.802 139.499 271.18 138.251 271.18ZM138.251 270.136C139.103 270.136 139.787 269.866 140.303 269.326C140.831 268.774 141.113 267.994 141.149 266.986C141.161 266.866 141.167 266.644 141.167 266.32C141.167 265.996 141.161 265.774 141.149 265.654C141.113 264.646 140.831 263.872 140.303 263.332C139.787 262.78 139.103 262.504 138.251 262.504C137.399 262.504 136.709 262.78 136.181 263.332C135.665 263.872 135.389 264.646 135.353 265.654L135.335 266.32L135.353 266.986C135.389 267.994 135.665 268.774 136.181 269.326C136.709 269.866 137.399 270.136 138.251 270.136ZM145.138 274.42C145.018 274.42 144.922 274.384 144.85 274.312C144.778 274.24 144.742 274.144 144.742 274.024V262.036C144.742 261.916 144.778 261.82 144.85 261.748C144.922 261.676 145.018 261.64 145.138 261.64H145.444C145.564 261.64 145.66 261.676 145.732 261.748C145.804 261.82 145.84 261.916 145.84 262.036V262.882C146.536 261.934 147.544 261.46 148.864 261.46C150.16 261.46 151.114 261.874 151.726 262.702C152.35 263.518 152.68 264.526 152.716 265.726C152.728 265.846 152.734 266.044 152.734 266.32C152.734 266.596 152.728 266.794 152.716 266.914C152.68 268.114 152.35 269.128 151.726 269.956C151.114 270.772 150.16 271.18 148.864 271.18C147.556 271.18 146.548 270.706 145.84 269.758V274.024C145.84 274.144 145.804 274.24 145.732 274.312C145.66 274.384 145.564 274.42 145.444 274.42H145.138ZM148.756 270.136C149.728 270.136 150.436 269.83 150.88 269.218C151.336 268.594 151.582 267.796 151.618 266.824C151.63 266.704 151.636 266.536 151.636 266.32C151.636 265.204 151.42 264.292 150.988 263.584C150.556 262.864 149.812 262.504 148.756 262.504C147.808 262.504 147.094 262.822 146.614 263.458C146.134 264.082 145.876 264.82 145.84 265.672L145.822 266.374L145.84 267.076C145.852 267.592 145.966 268.084 146.182 268.552C146.398 269.008 146.722 269.386 147.154 269.686C147.586 269.986 148.12 270.136 148.756 270.136ZM163.333 271.18C162.157 271.18 161.263 270.808 160.651 270.064C160.039 269.32 159.733 268.348 159.733 267.148V262.036C159.733 261.916 159.769 261.82 159.841 261.748C159.913 261.676 160.009 261.64 160.129 261.64H160.435C160.555 261.64 160.651 261.676 160.723 261.748C160.795 261.82 160.831 261.916 160.831 262.036V267.058C160.831 269.11 161.725 270.136 163.513 270.136C164.377 270.136 165.061 269.866 165.565 269.326C166.081 268.774 166.339 268.018 166.339 267.058V262.036C166.339 261.916 166.375 261.82 166.447 261.748C166.519 261.676 166.615 261.64 166.735 261.64H167.041C167.161 261.64 167.257 261.676 167.329 261.748C167.401 261.82 167.437 261.916 167.437 262.036V270.604C167.437 270.724 167.401 270.82 167.329 270.892C167.257 270.964 167.161 271 167.041 271H166.735C166.615 271 166.519 270.964 166.447 270.892C166.375 270.82 166.339 270.724 166.339 270.604V269.758C165.979 270.226 165.565 270.58 165.097 270.82C164.641 271.06 164.053 271.18 163.333 271.18ZM173.323 271.18C172.543 271.18 171.883 271.048 171.343 270.784C170.815 270.52 170.413 270.22 170.137 269.884C169.873 269.548 169.741 269.278 169.741 269.074C169.741 268.966 169.783 268.882 169.867 268.822C169.951 268.75 170.041 268.714 170.137 268.714H170.407C170.491 268.714 170.557 268.732 170.605 268.768C170.665 268.792 170.731 268.852 170.803 268.948C171.067 269.32 171.385 269.614 171.757 269.83C172.141 270.034 172.663 270.136 173.323 270.136C174.067 270.136 174.667 269.998 175.123 269.722C175.579 269.434 175.807 269.026 175.807 268.498C175.807 268.174 175.711 267.91 175.519 267.706C175.339 267.502 175.039 267.328 174.619 267.184C174.211 267.028 173.599 266.854 172.783 266.662C171.715 266.422 170.983 266.092 170.587 265.672C170.203 265.252 170.011 264.718 170.011 264.07C170.011 263.626 170.131 263.206 170.371 262.81C170.623 262.414 170.989 262.09 171.469 261.838C171.961 261.586 172.549 261.46 173.233 261.46C173.953 261.46 174.559 261.586 175.051 261.838C175.555 262.078 175.927 262.36 176.167 262.684C176.419 263.008 176.545 263.272 176.545 263.476C176.545 263.584 176.503 263.674 176.419 263.746C176.347 263.806 176.257 263.836 176.149 263.836H175.879C175.711 263.836 175.579 263.758 175.483 263.602C175.243 263.242 174.967 262.972 174.655 262.792C174.355 262.6 173.881 262.504 173.233 262.504C172.537 262.504 172.009 262.648 171.649 262.936C171.289 263.224 171.109 263.602 171.109 264.07C171.109 264.358 171.181 264.598 171.325 264.79C171.469 264.982 171.739 265.162 172.135 265.33C172.531 265.486 173.107 265.648 173.863 265.816C174.979 266.068 175.765 266.404 176.221 266.824C176.677 267.244 176.905 267.802 176.905 268.498C176.905 268.99 176.767 269.44 176.491 269.848C176.215 270.256 175.807 270.58 175.267 270.82C174.727 271.06 174.079 271.18 173.323 271.18ZM186.373 271.18C185.797 271.18 185.263 271.06 184.771 270.82C184.279 270.58 183.883 270.256 183.583 269.848C183.295 269.44 183.151 268.99 183.151 268.498C183.151 267.706 183.469 267.058 184.105 266.554C184.753 266.05 185.623 265.726 186.715 265.582L189.559 265.186V264.556C189.559 263.896 189.355 263.392 188.947 263.044C188.551 262.684 187.939 262.504 187.111 262.504C186.499 262.504 185.995 262.624 185.599 262.864C185.215 263.104 184.969 263.392 184.861 263.728C184.813 263.872 184.753 263.974 184.681 264.034C184.621 264.082 184.537 264.106 184.429 264.106H184.177C184.069 264.106 183.973 264.07 183.889 263.998C183.817 263.914 183.781 263.818 183.781 263.71C183.781 263.446 183.901 263.14 184.141 262.792C184.381 262.432 184.753 262.12 185.257 261.856C185.761 261.592 186.379 261.46 187.111 261.46C188.395 261.46 189.307 261.766 189.847 262.378C190.387 262.99 190.657 263.734 190.657 264.61V270.604C190.657 270.724 190.621 270.82 190.549 270.892C190.477 270.964 190.381 271 190.261 271H189.955C189.835 271 189.739 270.964 189.667 270.892C189.595 270.82 189.559 270.724 189.559 270.604V269.758C189.295 270.154 188.905 270.49 188.389 270.766C187.885 271.042 187.213 271.18 186.373 271.18ZM186.553 270.136C187.429 270.136 188.149 269.848 188.713 269.272C189.277 268.696 189.559 267.868 189.559 266.788V266.176L187.237 266.5C186.253 266.632 185.509 266.86 185.005 267.184C184.501 267.508 184.249 267.916 184.249 268.408C184.249 268.96 184.477 269.386 184.933 269.686C185.401 269.986 185.941 270.136 186.553 270.136ZM198.54 271C198.42 271 198.324 270.964 198.252 270.892C198.18 270.82 198.144 270.724 198.144 270.604V262.036C198.144 261.916 198.18 261.82 198.252 261.748C198.324 261.676 198.42 261.64 198.54 261.64H198.846C198.966 261.64 199.062 261.676 199.134 261.748C199.206 261.82 199.242 261.916 199.242 262.036V262.666C199.554 262.27 199.914 261.97 200.322 261.766C200.742 261.562 201.24 261.46 201.816 261.46C203.16 261.46 204.12 262.024 204.696 263.152C204.984 262.636 205.392 262.228 205.92 261.928C206.46 261.616 207.072 261.46 207.756 261.46C208.752 261.46 209.562 261.802 210.186 262.486C210.81 263.158 211.122 264.118 211.122 265.366V270.604C211.122 270.724 211.086 270.82 211.014 270.892C210.942 270.964 210.846 271 210.726 271H210.42C210.3 271 210.204 270.964 210.132 270.892C210.06 270.82 210.024 270.724 210.024 270.604V265.546C210.024 264.454 209.796 263.674 209.34 263.206C208.896 262.738 208.308 262.504 207.576 262.504C206.928 262.504 206.364 262.744 205.884 263.224C205.416 263.692 205.182 264.466 205.182 265.546V270.604C205.182 270.724 205.146 270.82 205.074 270.892C205.002 270.964 204.906 271 204.786 271H204.48C204.36 271 204.264 270.964 204.192 270.892C204.12 270.82 204.084 270.724 204.084 270.604V265.546C204.084 264.466 203.85 263.692 203.382 263.224C202.914 262.744 202.332 262.504 201.636 262.504C200.988 262.504 200.424 262.744 199.944 263.224C199.476 263.692 199.242 264.46 199.242 265.528V270.604C199.242 270.724 199.206 270.82 199.134 270.892C199.062 270.964 198.966 271 198.846 271H198.54ZM216.466 271.18C215.89 271.18 215.356 271.06 214.864 270.82C214.372 270.58 213.976 270.256 213.676 269.848C213.388 269.44 213.244 268.99 213.244 268.498C213.244 267.706 213.562 267.058 214.198 266.554C214.846 266.05 215.716 265.726 216.808 265.582L219.652 265.186V264.556C219.652 263.896 219.448 263.392 219.04 263.044C218.644 262.684 218.032 262.504 217.204 262.504C216.592 262.504 216.088 262.624 215.692 262.864C215.308 263.104 215.062 263.392 214.954 263.728C214.906 263.872 214.846 263.974 214.774 264.034C214.714 264.082 214.63 264.106 214.522 264.106H214.27C214.162 264.106 214.066 264.07 213.982 263.998C213.91 263.914 213.874 263.818 213.874 263.71C213.874 263.446 213.994 263.14 214.234 262.792C214.474 262.432 214.846 262.12 215.35 261.856C215.854 261.592 216.472 261.46 217.204 261.46C218.488 261.46 219.4 261.766 219.94 262.378C220.48 262.99 220.75 263.734 220.75 264.61V270.604C220.75 270.724 220.714 270.82 220.642 270.892C220.57 270.964 220.474 271 220.354 271H220.048C219.928 271 219.832 270.964 219.76 270.892C219.688 270.82 219.652 270.724 219.652 270.604V269.758C219.388 270.154 218.998 270.49 218.482 270.766C217.978 271.042 217.306 271.18 216.466 271.18ZM216.646 270.136C217.522 270.136 218.242 269.848 218.806 269.272C219.37 268.696 219.652 267.868 219.652 266.788V266.176L217.33 266.5C216.346 266.632 215.602 266.86 215.098 267.184C214.594 267.508 214.342 267.916 214.342 268.408C214.342 268.96 214.57 269.386 215.026 269.686C215.494 269.986 216.034 270.136 216.646 270.136ZM223.795 259.714C223.675 259.714 223.579 259.678 223.507 259.606C223.435 259.534 223.399 259.438 223.399 259.318V258.634C223.399 258.514 223.435 258.418 223.507 258.346C223.579 258.262 223.675 258.22 223.795 258.22H224.479C224.599 258.22 224.695 258.262 224.767 258.346C224.851 258.418 224.893 258.514 224.893 258.634V259.318C224.893 259.438 224.851 259.534 224.767 259.606C224.695 259.678 224.599 259.714 224.479 259.714H223.795ZM223.993 271C223.873 271 223.777 270.964 223.705 270.892C223.633 270.82 223.597 270.724 223.597 270.604V262.036C223.597 261.916 223.633 261.82 223.705 261.748C223.777 261.676 223.873 261.64 223.993 261.64H224.299C224.419 261.64 224.515 261.676 224.587 261.748C224.659 261.82 224.695 261.916 224.695 262.036V270.604C224.695 270.724 224.659 270.82 224.587 270.892C224.515 270.964 224.419 271 224.299 271H223.993ZM228.018 271C227.898 271 227.802 270.964 227.73 270.892C227.658 270.82 227.622 270.724 227.622 270.604V258.616C227.622 258.496 227.658 258.4 227.73 258.328C227.802 258.256 227.898 258.22 228.018 258.22H228.324C228.444 258.22 228.54 258.256 228.612 258.328C228.684 258.4 228.72 258.496 228.72 258.616V270.604C228.72 270.724 228.684 270.82 228.612 270.892C228.54 270.964 228.444 271 228.324 271H228.018ZM239.852 271.18C238.604 271.18 237.632 270.802 236.936 270.046C236.252 269.278 235.892 268.288 235.856 267.076L235.838 266.32L235.856 265.564C235.892 264.352 236.252 263.368 236.936 262.612C237.632 261.844 238.604 261.46 239.852 261.46C241.1 261.46 242.066 261.844 242.75 262.612C243.446 263.368 243.812 264.352 243.848 265.564C243.86 265.684 243.866 265.936 243.866 266.32C243.866 266.704 243.86 266.956 243.848 267.076C243.812 268.288 243.446 269.278 242.75 270.046C242.066 270.802 241.1 271.18 239.852 271.18ZM239.852 270.136C240.704 270.136 241.388 269.866 241.904 269.326C242.432 268.774 242.714 267.994 242.75 266.986C242.762 266.866 242.768 266.644 242.768 266.32C242.768 265.996 242.762 265.774 242.75 265.654C242.714 264.646 242.432 263.872 241.904 263.332C241.388 262.78 240.704 262.504 239.852 262.504C239 262.504 238.31 262.78 237.782 263.332C237.266 263.872 236.99 264.646 236.954 265.654L236.936 266.32L236.954 266.986C236.99 267.994 237.266 268.774 237.782 269.326C238.31 269.866 239 270.136 239.852 270.136ZM246.721 271C246.601 271 246.505 270.964 246.433 270.892C246.361 270.82 246.325 270.724 246.325 270.604V262.036C246.325 261.916 246.361 261.82 246.433 261.748C246.505 261.676 246.601 261.64 246.721 261.64H247.027C247.147 261.64 247.243 261.676 247.315 261.748C247.387 261.82 247.423 261.916 247.423 262.036V262.882C247.783 262.414 248.191 262.06 248.647 261.82C249.115 261.58 249.715 261.46 250.447 261.46C251.623 261.46 252.529 261.838 253.165 262.594C253.801 263.338 254.119 264.304 254.119 265.492V270.604C254.119 270.724 254.083 270.82 254.011 270.892C253.939 270.964 253.843 271 253.723 271H253.417C253.297 271 253.201 270.964 253.129 270.892C253.057 270.82 253.021 270.724 253.021 270.604V265.582C253.021 264.61 252.781 263.854 252.301 263.314C251.833 262.774 251.155 262.504 250.267 262.504C249.403 262.504 248.713 262.78 248.197 263.332C247.681 263.872 247.423 264.622 247.423 265.582V270.604C247.423 270.724 247.387 270.82 247.315 270.892C247.243 270.964 247.147 271 247.027 271H246.721ZM257.212 264.7C257.092 264.7 256.996 264.664 256.924 264.592C256.852 264.52 256.816 264.424 256.816 264.304V263.44C256.816 263.32 256.852 263.224 256.924 263.152C256.996 263.068 257.092 263.026 257.212 263.026H258.076C258.196 263.026 258.292 263.068 258.364 263.152C258.448 263.224 258.49 263.32 258.49 263.44V264.304C258.49 264.424 258.448 264.52 258.364 264.592C258.292 264.664 258.196 264.7 258.076 264.7H257.212ZM257.212 271C257.092 271 256.996 270.964 256.924 270.892C256.852 270.82 256.816 270.724 256.816 270.604V269.74C256.816 269.62 256.852 269.524 256.924 269.452C256.996 269.368 257.092 269.326 257.212 269.326H258.076C258.196 269.326 258.292 269.368 258.364 269.452C258.448 269.524 258.49 269.62 258.49 269.74V270.604C258.49 270.724 258.448 270.82 258.364 270.892C258.292 270.964 258.196 271 258.076 271H257.212ZM118.888 296C118.732 296 118.612 295.964 118.528 295.892C118.444 295.82 118.372 295.706 118.312 295.55L115.774 287.198L115.738 287C115.738 286.904 115.774 286.82 115.846 286.748C115.918 286.676 116.002 286.64 116.098 286.64H116.44C116.548 286.64 116.638 286.67 116.71 286.73C116.782 286.79 116.824 286.85 116.836 286.91L119.05 294.398L121.408 287C121.432 286.904 121.486 286.82 121.57 286.748C121.654 286.676 121.762 286.64 121.894 286.64H122.254C122.386 286.64 122.494 286.676 122.578 286.748C122.662 286.82 122.716 286.904 122.74 287L125.098 294.398L127.312 286.91C127.324 286.85 127.366 286.79 127.438 286.73C127.51 286.67 127.6 286.64 127.708 286.64H128.05C128.146 286.64 128.23 286.676 128.302 286.748C128.374 286.82 128.41 286.904 128.41 287L128.374 287.198L125.836 295.55C125.776 295.706 125.704 295.82 125.62 295.892C125.536 295.964 125.416 296 125.26 296H124.954C124.63 296 124.426 295.85 124.342 295.55L122.074 288.458L119.806 295.55C119.722 295.85 119.518 296 119.194 296H118.888ZM133.944 296.18C132.696 296.18 131.724 295.802 131.028 295.046C130.344 294.278 129.984 293.288 129.948 292.076L129.93 291.32L129.948 290.564C129.984 289.352 130.344 288.368 131.028 287.612C131.724 286.844 132.696 286.46 133.944 286.46C135.192 286.46 136.158 286.844 136.842 287.612C137.538 288.368 137.904 289.352 137.94 290.564C137.952 290.684 137.958 290.936 137.958 291.32C137.958 291.704 137.952 291.956 137.94 292.076C137.904 293.288 137.538 294.278 136.842 295.046C136.158 295.802 135.192 296.18 133.944 296.18ZM133.944 295.136C134.796 295.136 135.48 294.866 135.996 294.326C136.524 293.774 136.806 292.994 136.842 291.986C136.854 291.866 136.86 291.644 136.86 291.32C136.86 290.996 136.854 290.774 136.842 290.654C136.806 289.646 136.524 288.872 135.996 288.332C135.48 287.78 134.796 287.504 133.944 287.504C133.092 287.504 132.402 287.78 131.874 288.332C131.358 288.872 131.082 289.646 131.046 290.654L131.028 291.32L131.046 291.986C131.082 292.994 131.358 293.774 131.874 294.326C132.402 294.866 133.092 295.136 133.944 295.136ZM140.813 296C140.693 296 140.597 295.964 140.525 295.892C140.453 295.82 140.417 295.724 140.417 295.604V287.054C140.417 286.934 140.453 286.838 140.525 286.766C140.597 286.682 140.693 286.64 140.813 286.64H141.101C141.221 286.64 141.317 286.682 141.389 286.766C141.473 286.838 141.515 286.934 141.515 287.054V287.882C141.947 287.054 142.763 286.64 143.963 286.64H144.629C144.749 286.64 144.845 286.676 144.917 286.748C144.989 286.82 145.025 286.916 145.025 287.036V287.288C145.025 287.408 144.989 287.504 144.917 287.576C144.845 287.648 144.749 287.684 144.629 287.684H143.855C143.135 287.684 142.565 287.894 142.145 288.314C141.725 288.734 141.515 289.304 141.515 290.024V295.604C141.515 295.724 141.473 295.82 141.389 295.892C141.317 295.964 141.221 296 141.101 296H140.813ZM147.089 296C146.969 296 146.873 295.964 146.801 295.892C146.729 295.82 146.693 295.724 146.693 295.604V283.616C146.693 283.496 146.729 283.4 146.801 283.328C146.873 283.256 146.969 283.22 147.089 283.22H147.395C147.515 283.22 147.611 283.256 147.683 283.328C147.755 283.4 147.791 283.496 147.791 283.616V289.988L151.805 286.946C151.997 286.802 152.129 286.718 152.201 286.694C152.273 286.658 152.393 286.64 152.561 286.64H152.903C153.011 286.64 153.095 286.676 153.155 286.748C153.227 286.808 153.263 286.892 153.263 287C153.263 287.132 153.185 287.252 153.029 287.36L148.475 290.816L153.479 295.28C153.635 295.424 153.713 295.544 153.713 295.64C153.713 295.748 153.677 295.838 153.605 295.91C153.545 295.97 153.461 296 153.353 296H153.065C152.885 296 152.753 295.988 152.669 295.964C152.585 295.928 152.465 295.838 152.309 295.694L147.791 291.68V295.604C147.791 295.724 147.755 295.82 147.683 295.892C147.611 295.964 147.515 296 147.395 296H147.089ZM161.242 298.034C159.442 298.034 158.02 297.572 156.976 296.648C155.944 295.724 155.332 294.386 155.14 292.634C155.104 292.286 155.086 291.764 155.086 291.068C155.086 290.36 155.104 289.856 155.14 289.556C155.344 287.828 155.968 286.49 157.012 285.542C158.056 284.582 159.466 284.102 161.242 284.102C163.282 284.102 164.83 284.57 165.886 285.506C166.954 286.43 167.53 287.78 167.614 289.556C167.638 290.06 167.65 290.444 167.65 290.708C167.65 291.296 167.638 291.71 167.614 291.95C167.506 293.702 166.732 294.578 165.292 294.578C164.788 294.578 164.38 294.464 164.068 294.236C163.768 294.008 163.54 293.768 163.384 293.516C162.892 294.344 162.142 294.758 161.134 294.758C160.222 294.758 159.502 294.44 158.974 293.804C158.446 293.156 158.182 292.25 158.182 291.086C158.182 289.922 158.446 289.016 158.974 288.368C159.514 287.72 160.234 287.396 161.134 287.396C161.59 287.396 161.962 287.48 162.25 287.648C162.538 287.816 162.784 288.026 162.988 288.278V287.936C162.988 287.816 163.024 287.72 163.096 287.648C163.168 287.576 163.264 287.54 163.384 287.54H163.69C163.81 287.54 163.906 287.576 163.978 287.648C164.05 287.72 164.086 287.816 164.086 287.936V291.86C164.086 292.4 164.194 292.814 164.41 293.102C164.638 293.39 164.932 293.534 165.292 293.534C165.76 293.534 166.078 293.36 166.246 293.012C166.414 292.652 166.504 292.262 166.516 291.842C166.54 291.602 166.552 291.218 166.552 290.69C166.552 290.234 166.54 289.886 166.516 289.646C166.408 288.158 165.934 287.036 165.094 286.28C164.266 285.524 162.982 285.146 161.242 285.146C159.79 285.146 158.632 285.536 157.768 286.316C156.916 287.096 156.406 288.206 156.238 289.646C156.202 289.946 156.184 290.42 156.184 291.068C156.184 291.704 156.202 292.196 156.238 292.544C156.394 293.96 156.898 295.058 157.75 295.838C158.614 296.606 159.778 296.99 161.242 296.99C162.058 296.99 162.73 296.918 163.258 296.774C163.798 296.63 164.158 296.498 164.338 296.378C164.53 296.258 164.83 296.042 165.238 295.73C165.25 295.718 165.292 295.682 165.364 295.622C165.448 295.55 165.55 295.514 165.67 295.514H166.138C166.246 295.514 166.336 295.55 166.408 295.622C166.48 295.694 166.516 295.784 166.516 295.892C166.516 295.976 166.486 296.06 166.426 296.144C165.862 296.72 165.178 297.176 164.374 297.512C163.57 297.86 162.526 298.034 161.242 298.034ZM161.134 293.714C161.806 293.714 162.28 293.486 162.556 293.03C162.844 292.562 162.988 291.914 162.988 291.086C162.988 290.258 162.844 289.61 162.556 289.142C162.28 288.674 161.806 288.44 161.134 288.44C160.486 288.44 160.012 288.68 159.712 289.16C159.424 289.628 159.28 290.27 159.28 291.086C159.28 291.842 159.43 292.472 159.73 292.976C160.03 293.468 160.498 293.714 161.134 293.714ZM172.837 296.18C172.261 296.18 171.727 296.06 171.235 295.82C170.743 295.58 170.347 295.256 170.047 294.848C169.759 294.44 169.615 293.99 169.615 293.498C169.615 292.706 169.933 292.058 170.569 291.554C171.217 291.05 172.087 290.726 173.179 290.582L176.023 290.186V289.556C176.023 288.896 175.819 288.392 175.411 288.044C175.015 287.684 174.403 287.504 173.575 287.504C172.963 287.504 172.459 287.624 172.063 287.864C171.679 288.104 171.433 288.392 171.325 288.728C171.277 288.872 171.217 288.974 171.145 289.034C171.085 289.082 171.001 289.106 170.893 289.106H170.641C170.533 289.106 170.437 289.07 170.353 288.998C170.281 288.914 170.245 288.818 170.245 288.71C170.245 288.446 170.365 288.14 170.605 287.792C170.845 287.432 171.217 287.12 171.721 286.856C172.225 286.592 172.843 286.46 173.575 286.46C174.859 286.46 175.771 286.766 176.311 287.378C176.851 287.99 177.121 288.734 177.121 289.61V295.604C177.121 295.724 177.085 295.82 177.013 295.892C176.941 295.964 176.845 296 176.725 296H176.419C176.299 296 176.203 295.964 176.131 295.892C176.059 295.82 176.023 295.724 176.023 295.604V294.758C175.759 295.154 175.369 295.49 174.853 295.766C174.349 296.042 173.677 296.18 172.837 296.18ZM173.017 295.136C173.893 295.136 174.613 294.848 175.177 294.272C175.741 293.696 176.023 292.868 176.023 291.788V291.176L173.701 291.5C172.717 291.632 171.973 291.86 171.469 292.184C170.965 292.508 170.713 292.916 170.713 293.408C170.713 293.96 170.941 294.386 171.397 294.686C171.865 294.986 172.405 295.136 173.017 295.136ZM180.382 299.42C180.262 299.42 180.166 299.384 180.094 299.312C180.022 299.24 179.986 299.144 179.986 299.024V287.036C179.986 286.916 180.022 286.82 180.094 286.748C180.166 286.676 180.262 286.64 180.382 286.64H180.688C180.808 286.64 180.904 286.676 180.976 286.748C181.048 286.82 181.084 286.916 181.084 287.036V287.882C181.78 286.934 182.788 286.46 184.108 286.46C185.404 286.46 186.358 286.874 186.97 287.702C187.594 288.518 187.924 289.526 187.96 290.726C187.972 290.846 187.978 291.044 187.978 291.32C187.978 291.596 187.972 291.794 187.96 291.914C187.924 293.114 187.594 294.128 186.97 294.956C186.358 295.772 185.404 296.18 184.108 296.18C182.8 296.18 181.792 295.706 181.084 294.758V299.024C181.084 299.144 181.048 299.24 180.976 299.312C180.904 299.384 180.808 299.42 180.688 299.42H180.382ZM184 295.136C184.972 295.136 185.68 294.83 186.124 294.218C186.58 293.594 186.826 292.796 186.862 291.824C186.874 291.704 186.88 291.536 186.88 291.32C186.88 290.204 186.664 289.292 186.232 288.584C185.8 287.864 185.056 287.504 184 287.504C183.052 287.504 182.338 287.822 181.858 288.458C181.378 289.082 181.12 289.82 181.084 290.672L181.066 291.374L181.084 292.076C181.096 292.592 181.21 293.084 181.426 293.552C181.642 294.008 181.966 294.386 182.398 294.686C182.83 294.986 183.364 295.136 184 295.136ZM193.811 296.18C192.515 296.18 191.555 295.76 190.931 294.92C190.319 294.068 189.995 293.036 189.959 291.824L189.941 291.32L189.959 290.816C189.995 289.604 190.319 288.578 190.931 287.738C191.555 286.886 192.515 286.46 193.811 286.46C195.119 286.46 196.127 286.934 196.835 287.882V283.616C196.835 283.496 196.871 283.4 196.943 283.328C197.015 283.256 197.111 283.22 197.231 283.22H197.537C197.657 283.22 197.753 283.256 197.825 283.328C197.897 283.4 197.933 283.496 197.933 283.616V295.604C197.933 295.724 197.897 295.82 197.825 295.892C197.753 295.964 197.657 296 197.537 296H197.231C197.111 296 197.015 295.964 196.943 295.892C196.871 295.82 196.835 295.724 196.835 295.604V294.758C196.139 295.706 195.131 296.18 193.811 296.18ZM193.919 295.136C194.867 295.136 195.581 294.824 196.061 294.2C196.541 293.564 196.799 292.82 196.835 291.968C196.847 291.848 196.853 291.614 196.853 291.266C196.853 290.918 196.847 290.684 196.835 290.564C196.823 290.048 196.709 289.562 196.493 289.106C196.277 288.638 195.953 288.254 195.521 287.954C195.089 287.654 194.555 287.504 193.919 287.504C192.947 287.504 192.233 287.816 191.777 288.44C191.333 289.052 191.093 289.844 191.057 290.816L191.039 291.32C191.039 292.436 191.255 293.354 191.687 294.074C192.119 294.782 192.863 295.136 193.919 295.136ZM204.342 296.18C203.202 296.18 202.284 295.808 201.588 295.064C200.892 294.308 200.496 293.3 200.4 292.04L200.382 291.32L200.4 290.6C200.496 289.352 200.886 288.35 201.57 287.594C202.266 286.838 203.19 286.46 204.342 286.46C205.59 286.46 206.562 286.874 207.258 287.702C207.966 288.53 208.32 289.664 208.32 291.104V291.374C208.32 291.494 208.278 291.59 208.194 291.662C208.122 291.734 208.026 291.77 207.906 291.77H201.498V291.95C201.522 292.514 201.648 293.042 201.876 293.534C202.116 294.014 202.446 294.404 202.866 294.704C203.286 294.992 203.778 295.136 204.342 295.136C205.002 295.136 205.536 295.01 205.944 294.758C206.364 294.494 206.664 294.23 206.844 293.966C206.952 293.822 207.03 293.732 207.078 293.696C207.138 293.66 207.24 293.642 207.384 293.642H207.672C207.78 293.642 207.87 293.672 207.942 293.732C208.014 293.792 208.05 293.87 208.05 293.966C208.05 294.218 207.888 294.524 207.564 294.884C207.252 295.232 206.814 295.538 206.25 295.802C205.686 296.054 205.05 296.18 204.342 296.18ZM207.222 290.762V290.69C207.222 289.766 206.958 289.004 206.43 288.404C205.914 287.804 205.218 287.504 204.342 287.504C203.466 287.504 202.77 287.804 202.254 288.404C201.75 289.004 201.498 289.766 201.498 290.69V290.762H207.222ZM213.664 296.18C212.884 296.18 212.224 296.048 211.684 295.784C211.156 295.52 210.754 295.22 210.478 294.884C210.214 294.548 210.082 294.278 210.082 294.074C210.082 293.966 210.124 293.882 210.208 293.822C210.292 293.75 210.382 293.714 210.478 293.714H210.748C210.832 293.714 210.898 293.732 210.946 293.768C211.006 293.792 211.072 293.852 211.144 293.948C211.408 294.32 211.726 294.614 212.098 294.83C212.482 295.034 213.004 295.136 213.664 295.136C214.408 295.136 215.008 294.998 215.464 294.722C215.92 294.434 216.148 294.026 216.148 293.498C216.148 293.174 216.052 292.91 215.86 292.706C215.68 292.502 215.38 292.328 214.96 292.184C214.552 292.028 213.94 291.854 213.124 291.662C212.056 291.422 211.324 291.092 210.928 290.672C210.544 290.252 210.352 289.718 210.352 289.07C210.352 288.626 210.472 288.206 210.712 287.81C210.964 287.414 211.33 287.09 211.81 286.838C212.302 286.586 212.89 286.46 213.574 286.46C214.294 286.46 214.9 286.586 215.392 286.838C215.896 287.078 216.268 287.36 216.508 287.684C216.76 288.008 216.886 288.272 216.886 288.476C216.886 288.584 216.844 288.674 216.76 288.746C216.688 288.806 216.598 288.836 216.49 288.836H216.22C216.052 288.836 215.92 288.758 215.824 288.602C215.584 288.242 215.308 287.972 214.996 287.792C214.696 287.6 214.222 287.504 213.574 287.504C212.878 287.504 212.35 287.648 211.99 287.936C211.63 288.224 211.45 288.602 211.45 289.07C211.45 289.358 211.522 289.598 211.666 289.79C211.81 289.982 212.08 290.162 212.476 290.33C212.872 290.486 213.448 290.648 214.204 290.816C215.32 291.068 216.106 291.404 216.562 291.824C217.018 292.244 217.246 292.802 217.246 293.498C217.246 293.99 217.108 294.44 216.832 294.848C216.556 295.256 216.148 295.58 215.608 295.82C215.068 296.06 214.42 296.18 213.664 296.18ZM219.752 284.714C219.632 284.714 219.536 284.678 219.464 284.606C219.392 284.534 219.356 284.438 219.356 284.318V283.634C219.356 283.514 219.392 283.418 219.464 283.346C219.536 283.262 219.632 283.22 219.752 283.22H220.436C220.556 283.22 220.652 283.262 220.724 283.346C220.808 283.418 220.85 283.514 220.85 283.634V284.318C220.85 284.438 220.808 284.534 220.724 284.606C220.652 284.678 220.556 284.714 220.436 284.714H219.752ZM219.95 296C219.83 296 219.734 295.964 219.662 295.892C219.59 295.82 219.554 295.724 219.554 295.604V287.036C219.554 286.916 219.59 286.82 219.662 286.748C219.734 286.676 219.83 286.64 219.95 286.64H220.256C220.376 286.64 220.472 286.676 220.544 286.748C220.616 286.82 220.652 286.916 220.652 287.036V295.604C220.652 295.724 220.616 295.82 220.544 295.892C220.472 295.964 220.376 296 220.256 296H219.95ZM227.054 299.96C226.118 299.96 225.368 299.798 224.804 299.474C224.24 299.15 223.844 298.778 223.616 298.358C223.4 297.95 223.292 297.59 223.292 297.278C223.292 297.17 223.328 297.08 223.4 297.008C223.484 296.936 223.58 296.9 223.688 296.9H223.94C224.048 296.9 224.132 296.924 224.192 296.972C224.264 297.032 224.324 297.134 224.372 297.278C224.744 298.37 225.608 298.916 226.964 298.916C227.996 298.916 228.758 298.7 229.25 298.268C229.742 297.848 229.988 297.092 229.988 296V294.758C229.292 295.706 228.284 296.18 226.964 296.18C225.668 296.18 224.708 295.76 224.084 294.92C223.472 294.068 223.148 293.036 223.112 291.824L223.094 291.32L223.112 290.816C223.148 289.604 223.472 288.578 224.084 287.738C224.708 286.886 225.668 286.46 226.964 286.46C228.272 286.46 229.28 286.934 229.988 287.882V287.054C229.988 286.934 230.024 286.838 230.096 286.766C230.168 286.682 230.264 286.64 230.384 286.64H230.672C230.792 286.64 230.888 286.682 230.96 286.766C231.044 286.838 231.086 286.934 231.086 287.054V295.82C231.086 297.104 230.786 298.112 230.186 298.844C229.586 299.588 228.542 299.96 227.054 299.96ZM227.072 295.136C228.02 295.136 228.734 294.824 229.214 294.2C229.694 293.564 229.952 292.82 229.988 291.968C230 291.848 230.006 291.632 230.006 291.32C230.006 291.008 230 290.792 229.988 290.672C229.952 289.82 229.694 289.082 229.214 288.458C228.734 287.822 228.02 287.504 227.072 287.504C226.1 287.504 225.386 287.816 224.93 288.44C224.486 289.052 224.246 289.844 224.21 290.816L224.192 291.32L224.21 291.824C224.246 292.796 224.486 293.594 224.93 294.218C225.386 294.83 226.1 295.136 227.072 295.136ZM234.417 296C234.297 296 234.201 295.964 234.129 295.892C234.057 295.82 234.021 295.724 234.021 295.604V287.036C234.021 286.916 234.057 286.82 234.129 286.748C234.201 286.676 234.297 286.64 234.417 286.64H234.723C234.843 286.64 234.939 286.676 235.011 286.748C235.083 286.82 235.119 286.916 235.119 287.036V287.882C235.479 287.414 235.887 287.06 236.343 286.82C236.811 286.58 237.411 286.46 238.143 286.46C239.319 286.46 240.225 286.838 240.861 287.594C241.497 288.338 241.814 289.304 241.814 290.492V295.604C241.814 295.724 241.779 295.82 241.707 295.892C241.635 295.964 241.539 296 241.419 296H241.113C240.993 296 240.897 295.964 240.825 295.892C240.753 295.82 240.717 295.724 240.717 295.604V290.582C240.717 289.61 240.477 288.854 239.997 288.314C239.529 287.774 238.851 287.504 237.963 287.504C237.099 287.504 236.409 287.78 235.893 288.332C235.377 288.872 235.119 289.622 235.119 290.582V295.604C235.119 295.724 235.083 295.82 235.011 295.892C234.939 295.964 234.843 296 234.723 296H234.417ZM246.962 296C246.806 296 246.686 295.964 246.602 295.892C246.518 295.82 246.446 295.706 246.386 295.55L243.848 287.198L243.812 287C243.812 286.904 243.848 286.82 243.92 286.748C243.992 286.676 244.076 286.64 244.172 286.64H244.514C244.622 286.64 244.712 286.67 244.784 286.73C244.856 286.79 244.898 286.85 244.91 286.91L247.124 294.398L249.482 287C249.506 286.904 249.56 286.82 249.644 286.748C249.728 286.676 249.836 286.64 249.968 286.64H250.328C250.46 286.64 250.568 286.676 250.652 286.748C250.736 286.82 250.79 286.904 250.814 287L253.172 294.398L255.386 286.91C255.398 286.85 255.44 286.79 255.512 286.73C255.584 286.67 255.674 286.64 255.782 286.64H256.124C256.22 286.64 256.304 286.676 256.376 286.748C256.448 286.82 256.484 286.904 256.484 287L256.448 287.198L253.91 295.55C253.85 295.706 253.778 295.82 253.694 295.892C253.61 295.964 253.49 296 253.334 296H253.028C252.704 296 252.5 295.85 252.416 295.55L250.148 288.458L247.88 295.55C247.796 295.85 247.592 296 247.268 296H246.962ZM262.018 296.18C260.77 296.18 259.798 295.802 259.102 295.046C258.418 294.278 258.058 293.288 258.022 292.076L258.004 291.32L258.022 290.564C258.058 289.352 258.418 288.368 259.102 287.612C259.798 286.844 260.77 286.46 262.018 286.46C263.266 286.46 264.232 286.844 264.916 287.612C265.612 288.368 265.978 289.352 266.014 290.564C266.026 290.684 266.032 290.936 266.032 291.32C266.032 291.704 266.026 291.956 266.014 292.076C265.978 293.288 265.612 294.278 264.916 295.046C264.232 295.802 263.266 296.18 262.018 296.18ZM262.018 295.136C262.87 295.136 263.554 294.866 264.07 294.326C264.598 293.774 264.88 292.994 264.916 291.986C264.928 291.866 264.934 291.644 264.934 291.32C264.934 290.996 264.928 290.774 264.916 290.654C264.88 289.646 264.598 288.872 264.07 288.332C263.554 287.78 262.87 287.504 262.018 287.504C261.166 287.504 260.476 287.78 259.948 288.332C259.432 288.872 259.156 289.646 259.12 290.654L259.102 291.32L259.12 291.986C259.156 292.994 259.432 293.774 259.948 294.326C260.476 294.866 261.166 295.136 262.018 295.136ZM268.887 296C268.767 296 268.671 295.964 268.599 295.892C268.527 295.82 268.491 295.724 268.491 295.604V287.054C268.491 286.934 268.527 286.838 268.599 286.766C268.671 286.682 268.767 286.64 268.887 286.64H269.175C269.295 286.64 269.391 286.682 269.463 286.766C269.547 286.838 269.589 286.934 269.589 287.054V287.882C270.021 287.054 270.837 286.64 272.037 286.64H272.703C272.823 286.64 272.919 286.676 272.991 286.748C273.063 286.82 273.099 286.916 273.099 287.036V287.288C273.099 287.408 273.063 287.504 272.991 287.576C272.919 287.648 272.823 287.684 272.703 287.684H271.929C271.209 287.684 270.639 287.894 270.219 288.314C269.799 288.734 269.589 289.304 269.589 290.024V295.604C269.589 295.724 269.547 295.82 269.463 295.892C269.391 295.964 269.295 296 269.175 296H268.887ZM275.163 296C275.043 296 274.947 295.964 274.875 295.892C274.803 295.82 274.767 295.724 274.767 295.604V283.616C274.767 283.496 274.803 283.4 274.875 283.328C274.947 283.256 275.043 283.22 275.163 283.22H275.469C275.589 283.22 275.685 283.256 275.757 283.328C275.829 283.4 275.865 283.496 275.865 283.616V289.988L279.879 286.946C280.071 286.802 280.203 286.718 280.275 286.694C280.347 286.658 280.467 286.64 280.635 286.64H280.977C281.085 286.64 281.169 286.676 281.229 286.748C281.301 286.808 281.337 286.892 281.337 287C281.337 287.132 281.259 287.252 281.103 287.36L276.549 290.816L281.553 295.28C281.709 295.424 281.787 295.544 281.787 295.64C281.787 295.748 281.751 295.838 281.679 295.91C281.619 295.97 281.535 296 281.427 296H281.139C280.959 296 280.827 295.988 280.743 295.964C280.659 295.928 280.539 295.838 280.383 295.694L275.865 291.68V295.604C275.865 295.724 275.829 295.82 275.757 295.892C275.685 295.964 275.589 296 275.469 296H275.163ZM286.332 296.18C285.552 296.18 284.892 296.048 284.352 295.784C283.824 295.52 283.422 295.22 283.146 294.884C282.882 294.548 282.75 294.278 282.75 294.074C282.75 293.966 282.792 293.882 282.876 293.822C282.96 293.75 283.05 293.714 283.146 293.714H283.416C283.5 293.714 283.566 293.732 283.614 293.768C283.674 293.792 283.74 293.852 283.812 293.948C284.076 294.32 284.394 294.614 284.766 294.83C285.15 295.034 285.672 295.136 286.332 295.136C287.076 295.136 287.676 294.998 288.132 294.722C288.588 294.434 288.816 294.026 288.816 293.498C288.816 293.174 288.72 292.91 288.528 292.706C288.348 292.502 288.048 292.328 287.628 292.184C287.22 292.028 286.608 291.854 285.792 291.662C284.724 291.422 283.992 291.092 283.596 290.672C283.212 290.252 283.02 289.718 283.02 289.07C283.02 288.626 283.14 288.206 283.38 287.81C283.632 287.414 283.998 287.09 284.478 286.838C284.97 286.586 285.558 286.46 286.242 286.46C286.962 286.46 287.568 286.586 288.06 286.838C288.564 287.078 288.936 287.36 289.176 287.684C289.428 288.008 289.554 288.272 289.554 288.476C289.554 288.584 289.512 288.674 289.428 288.746C289.356 288.806 289.266 288.836 289.158 288.836H288.888C288.72 288.836 288.588 288.758 288.492 288.602C288.252 288.242 287.976 287.972 287.664 287.792C287.364 287.6 286.89 287.504 286.242 287.504C285.546 287.504 285.018 287.648 284.658 287.936C284.298 288.224 284.118 288.602 284.118 289.07C284.118 289.358 284.19 289.598 284.334 289.79C284.478 289.982 284.748 290.162 285.144 290.33C285.54 290.486 286.116 290.648 286.872 290.816C287.988 291.068 288.774 291.404 289.23 291.824C289.686 292.244 289.914 292.802 289.914 293.498C289.914 293.99 289.776 294.44 289.5 294.848C289.224 295.256 288.816 295.58 288.276 295.82C287.736 296.06 287.088 296.18 286.332 296.18ZM292.474 296C292.354 296 292.258 295.964 292.186 295.892C292.114 295.82 292.078 295.724 292.078 295.604V294.74C292.078 294.62 292.114 294.524 292.186 294.452C292.258 294.368 292.354 294.326 292.474 294.326H293.338C293.458 294.326 293.554 294.368 293.626 294.452C293.71 294.524 293.752 294.62 293.752 294.74V295.604C293.752 295.724 293.71 295.82 293.626 295.892C293.554 295.964 293.458 296 293.338 296H292.474ZM299.846 296.18C298.598 296.18 297.632 295.82 296.948 295.1C296.264 294.368 295.904 293.348 295.868 292.04L295.85 291.32L295.868 290.6C295.904 289.292 296.264 288.278 296.948 287.558C297.632 286.826 298.598 286.46 299.846 286.46C300.638 286.46 301.31 286.604 301.862 286.892C302.426 287.168 302.846 287.528 303.122 287.972C303.398 288.404 303.548 288.854 303.572 289.322C303.584 289.43 303.548 289.526 303.464 289.61C303.38 289.682 303.284 289.718 303.176 289.718H302.924C302.804 289.718 302.714 289.694 302.654 289.646C302.606 289.586 302.552 289.484 302.492 289.34C302.252 288.68 301.916 288.212 301.484 287.936C301.052 287.648 300.506 287.504 299.846 287.504C298.982 287.504 298.292 287.768 297.776 288.296C297.272 288.812 297.002 289.61 296.966 290.69L296.948 291.32L296.966 291.95C297.002 293.03 297.272 293.834 297.776 294.362C298.292 294.878 298.982 295.136 299.846 295.136C300.506 295.136 301.052 294.998 301.484 294.722C301.916 294.434 302.252 293.96 302.492 293.3C302.552 293.156 302.606 293.06 302.654 293.012C302.714 292.952 302.804 292.922 302.924 292.922H303.176C303.284 292.922 303.38 292.964 303.464 293.048C303.548 293.12 303.584 293.21 303.572 293.318C303.548 293.786 303.398 294.242 303.122 294.686C302.846 295.118 302.426 295.478 301.862 295.766C301.31 296.042 300.638 296.18 299.846 296.18ZM309.514 296.18C308.266 296.18 307.294 295.802 306.598 295.046C305.914 294.278 305.554 293.288 305.518 292.076L305.5 291.32L305.518 290.564C305.554 289.352 305.914 288.368 306.598 287.612C307.294 286.844 308.266 286.46 309.514 286.46C310.762 286.46 311.728 286.844 312.412 287.612C313.108 288.368 313.474 289.352 313.51 290.564C313.522 290.684 313.528 290.936 313.528 291.32C313.528 291.704 313.522 291.956 313.51 292.076C313.474 293.288 313.108 294.278 312.412 295.046C311.728 295.802 310.762 296.18 309.514 296.18ZM309.514 295.136C310.366 295.136 311.05 294.866 311.566 294.326C312.094 293.774 312.376 292.994 312.412 291.986C312.424 291.866 312.43 291.644 312.43 291.32C312.43 290.996 312.424 290.774 312.412 290.654C312.376 289.646 312.094 288.872 311.566 288.332C311.05 287.78 310.366 287.504 309.514 287.504C308.662 287.504 307.972 287.78 307.444 288.332C306.928 288.872 306.652 289.646 306.616 290.654L306.598 291.32L306.616 291.986C306.652 292.994 306.928 293.774 307.444 294.326C307.972 294.866 308.662 295.136 309.514 295.136ZM316.383 296C316.263 296 316.167 295.964 316.095 295.892C316.023 295.82 315.987 295.724 315.987 295.604V287.036C315.987 286.916 316.023 286.82 316.095 286.748C316.167 286.676 316.263 286.64 316.383 286.64H316.689C316.809 286.64 316.905 286.676 316.977 286.748C317.049 286.82 317.085 286.916 317.085 287.036V287.666C317.397 287.27 317.757 286.97 318.165 286.766C318.585 286.562 319.083 286.46 319.659 286.46C321.003 286.46 321.963 287.024 322.539 288.152C322.827 287.636 323.235 287.228 323.763 286.928C324.303 286.616 324.915 286.46 325.599 286.46C326.595 286.46 327.405 286.802 328.029 287.486C328.653 288.158 328.965 289.118 328.965 290.366V295.604C328.965 295.724 328.929 295.82 328.857 295.892C328.785 295.964 328.689 296 328.569 296H328.263C328.143 296 328.047 295.964 327.975 295.892C327.903 295.82 327.867 295.724 327.867 295.604V290.546C327.867 289.454 327.639 288.674 327.183 288.206C326.739 287.738 326.151 287.504 325.419 287.504C324.771 287.504 324.207 287.744 323.727 288.224C323.259 288.692 323.025 289.466 323.025 290.546V295.604C323.025 295.724 322.989 295.82 322.917 295.892C322.845 295.964 322.749 296 322.629 296H322.323C322.203 296 322.107 295.964 322.035 295.892C321.963 295.82 321.927 295.724 321.927 295.604V290.546C321.927 289.466 321.693 288.692 321.225 288.224C320.757 287.744 320.175 287.504 319.479 287.504C318.831 287.504 318.267 287.744 317.787 288.224C317.319 288.692 317.085 289.46 317.085 290.528V295.604C317.085 295.724 317.049 295.82 316.977 295.892C316.905 295.964 316.809 296 316.689 296H316.383Z" fill="#575757"/>
<path d="M120.958 366.18C117.874 366.18 116.29 364.524 116.206 361.212C116.194 360.852 116.188 360.348 116.188 359.7C116.188 359.052 116.194 358.548 116.206 358.188C116.254 356.556 116.698 355.32 117.538 354.48C118.378 353.64 119.518 353.22 120.958 353.22C122.398 353.22 123.538 353.64 124.378 354.48C125.218 355.32 125.662 356.556 125.71 358.188C125.734 358.908 125.746 359.412 125.746 359.7C125.746 359.988 125.734 360.492 125.71 361.212C125.626 364.524 124.042 366.18 120.958 366.18ZM120.958 365.1C122.038 365.1 122.896 364.776 123.532 364.128C124.18 363.468 124.528 362.466 124.576 361.122C124.6 360.402 124.612 359.928 124.612 359.7C124.612 359.472 124.6 358.998 124.576 358.278C124.528 356.934 124.18 355.938 123.532 355.29C122.884 354.63 122.026 354.3 120.958 354.3C119.89 354.3 119.032 354.63 118.384 355.29C117.736 355.938 117.388 356.934 117.34 358.278C117.328 358.638 117.322 359.112 117.322 359.7C117.322 360.288 117.328 360.762 117.34 361.122C117.388 362.466 117.73 363.468 118.366 364.128C119.014 364.776 119.878 365.1 120.958 365.1ZM128.772 366C128.652 366 128.556 365.964 128.484 365.892C128.412 365.82 128.376 365.724 128.376 365.604V357.054C128.376 356.934 128.412 356.838 128.484 356.766C128.556 356.682 128.652 356.64 128.772 356.64H129.06C129.18 356.64 129.276 356.682 129.348 356.766C129.432 356.838 129.474 356.934 129.474 357.054V357.882C129.906 357.054 130.722 356.64 131.922 356.64H132.588C132.708 356.64 132.804 356.676 132.876 356.748C132.948 356.82 132.984 356.916 132.984 357.036V357.288C132.984 357.408 132.948 357.504 132.876 357.576C132.804 357.648 132.708 357.684 132.588 357.684H131.814C131.094 357.684 130.524 357.894 130.104 358.314C129.684 358.734 129.474 359.304 129.474 360.024V365.604C129.474 365.724 129.432 365.82 129.348 365.892C129.276 365.964 129.18 366 129.06 366H128.772ZM142.327 369.96C141.391 369.96 140.641 369.798 140.077 369.474C139.513 369.15 139.117 368.778 138.889 368.358C138.673 367.95 138.565 367.59 138.565 367.278C138.565 367.17 138.601 367.08 138.673 367.008C138.757 366.936 138.853 366.9 138.961 366.9H139.213C139.321 366.9 139.405 366.924 139.465 366.972C139.537 367.032 139.597 367.134 139.645 367.278C140.017 368.37 140.881 368.916 142.237 368.916C143.269 368.916 144.031 368.7 144.523 368.268C145.015 367.848 145.261 367.092 145.261 366V364.758C144.565 365.706 143.557 366.18 142.237 366.18C140.941 366.18 139.981 365.76 139.357 364.92C138.745 364.068 138.421 363.036 138.385 361.824L138.367 361.32L138.385 360.816C138.421 359.604 138.745 358.578 139.357 357.738C139.981 356.886 140.941 356.46 142.237 356.46C143.545 356.46 144.553 356.934 145.261 357.882V357.054C145.261 356.934 145.297 356.838 145.369 356.766C145.441 356.682 145.537 356.64 145.657 356.64H145.945C146.065 356.64 146.161 356.682 146.233 356.766C146.317 356.838 146.359 356.934 146.359 357.054V365.82C146.359 367.104 146.059 368.112 145.459 368.844C144.859 369.588 143.815 369.96 142.327 369.96ZM142.345 365.136C143.293 365.136 144.007 364.824 144.487 364.2C144.967 363.564 145.225 362.82 145.261 361.968C145.273 361.848 145.279 361.632 145.279 361.32C145.279 361.008 145.273 360.792 145.261 360.672C145.225 359.82 144.967 359.082 144.487 358.458C144.007 357.822 143.293 357.504 142.345 357.504C141.373 357.504 140.659 357.816 140.203 358.44C139.759 359.052 139.519 359.844 139.483 360.816L139.465 361.32L139.483 361.824C139.519 362.796 139.759 363.594 140.203 364.218C140.659 364.83 141.373 365.136 142.345 365.136ZM149.492 354.714C149.372 354.714 149.276 354.678 149.204 354.606C149.132 354.534 149.096 354.438 149.096 354.318V353.634C149.096 353.514 149.132 353.418 149.204 353.346C149.276 353.262 149.372 353.22 149.492 353.22H150.176C150.296 353.22 150.392 353.262 150.464 353.346C150.548 353.418 150.59 353.514 150.59 353.634V354.318C150.59 354.438 150.548 354.534 150.464 354.606C150.392 354.678 150.296 354.714 150.176 354.714H149.492ZM149.69 366C149.57 366 149.474 365.964 149.402 365.892C149.33 365.82 149.294 365.724 149.294 365.604V357.036C149.294 356.916 149.33 356.82 149.402 356.748C149.474 356.676 149.57 356.64 149.69 356.64H149.996C150.116 356.64 150.212 356.676 150.284 356.748C150.356 356.82 150.392 356.916 150.392 357.036V365.604C150.392 365.724 150.356 365.82 150.284 365.892C150.212 365.964 150.116 366 149.996 366H149.69ZM156.524 366C156.188 366 155.96 365.85 155.84 365.55L152.528 357.198L152.492 357C152.492 356.904 152.528 356.82 152.6 356.748C152.672 356.676 152.756 356.64 152.852 356.64H153.23C153.338 356.64 153.422 356.67 153.482 356.73C153.554 356.79 153.602 356.85 153.626 356.91L156.668 364.686L159.71 356.91C159.734 356.85 159.776 356.79 159.836 356.73C159.908 356.67 159.998 356.64 160.106 356.64H160.484C160.58 356.64 160.664 356.676 160.736 356.748C160.808 356.82 160.844 356.904 160.844 357L160.808 357.198L157.496 365.55C157.376 365.85 157.148 366 156.812 366H156.524ZM166.11 366.18C164.97 366.18 164.052 365.808 163.356 365.064C162.66 364.308 162.264 363.3 162.168 362.04L162.15 361.32L162.168 360.6C162.264 359.352 162.654 358.35 163.338 357.594C164.034 356.838 164.958 356.46 166.11 356.46C167.358 356.46 168.33 356.874 169.026 357.702C169.734 358.53 170.088 359.664 170.088 361.104V361.374C170.088 361.494 170.046 361.59 169.962 361.662C169.89 361.734 169.794 361.77 169.674 361.77H163.266V361.95C163.29 362.514 163.416 363.042 163.644 363.534C163.884 364.014 164.214 364.404 164.634 364.704C165.054 364.992 165.546 365.136 166.11 365.136C166.77 365.136 167.304 365.01 167.712 364.758C168.132 364.494 168.432 364.23 168.612 363.966C168.72 363.822 168.798 363.732 168.846 363.696C168.906 363.66 169.008 363.642 169.152 363.642H169.44C169.548 363.642 169.638 363.672 169.71 363.732C169.782 363.792 169.818 363.87 169.818 363.966C169.818 364.218 169.656 364.524 169.332 364.884C169.02 365.232 168.582 365.538 168.018 365.802C167.454 366.054 166.818 366.18 166.11 366.18ZM168.99 360.762V360.69C168.99 359.766 168.726 359.004 168.198 358.404C167.682 357.804 166.986 357.504 166.11 357.504C165.234 357.504 164.538 357.804 164.022 358.404C163.518 359.004 163.266 359.766 163.266 360.69V360.762H168.99ZM180.613 366.18C179.437 366.18 178.543 365.808 177.931 365.064C177.319 364.32 177.013 363.348 177.013 362.148V357.036C177.013 356.916 177.049 356.82 177.121 356.748C177.193 356.676 177.289 356.64 177.409 356.64H177.715C177.835 356.64 177.931 356.676 178.003 356.748C178.075 356.82 178.111 356.916 178.111 357.036V362.058C178.111 364.11 179.005 365.136 180.793 365.136C181.657 365.136 182.341 364.866 182.845 364.326C183.361 363.774 183.619 363.018 183.619 362.058V357.036C183.619 356.916 183.655 356.82 183.727 356.748C183.799 356.676 183.895 356.64 184.015 356.64H184.321C184.441 356.64 184.537 356.676 184.609 356.748C184.681 356.82 184.717 356.916 184.717 357.036V365.604C184.717 365.724 184.681 365.82 184.609 365.892C184.537 365.964 184.441 366 184.321 366H184.015C183.895 366 183.799 365.964 183.727 365.892C183.655 365.82 183.619 365.724 183.619 365.604V364.758C183.259 365.226 182.845 365.58 182.377 365.82C181.921 366.06 181.333 366.18 180.613 366.18ZM190.602 366.18C189.822 366.18 189.162 366.048 188.622 365.784C188.094 365.52 187.692 365.22 187.416 364.884C187.152 364.548 187.02 364.278 187.02 364.074C187.02 363.966 187.062 363.882 187.146 363.822C187.23 363.75 187.32 363.714 187.416 363.714H187.686C187.77 363.714 187.836 363.732 187.884 363.768C187.944 363.792 188.01 363.852 188.082 363.948C188.346 364.32 188.664 364.614 189.036 364.83C189.42 365.034 189.942 365.136 190.602 365.136C191.346 365.136 191.946 364.998 192.402 364.722C192.858 364.434 193.086 364.026 193.086 363.498C193.086 363.174 192.99 362.91 192.798 362.706C192.618 362.502 192.318 362.328 191.898 362.184C191.49 362.028 190.878 361.854 190.062 361.662C188.994 361.422 188.262 361.092 187.866 360.672C187.482 360.252 187.29 359.718 187.29 359.07C187.29 358.626 187.41 358.206 187.65 357.81C187.902 357.414 188.268 357.09 188.748 356.838C189.24 356.586 189.828 356.46 190.512 356.46C191.232 356.46 191.838 356.586 192.33 356.838C192.834 357.078 193.206 357.36 193.446 357.684C193.698 358.008 193.824 358.272 193.824 358.476C193.824 358.584 193.782 358.674 193.698 358.746C193.626 358.806 193.536 358.836 193.428 358.836H193.158C192.99 358.836 192.858 358.758 192.762 358.602C192.522 358.242 192.246 357.972 191.934 357.792C191.634 357.6 191.16 357.504 190.512 357.504C189.816 357.504 189.288 357.648 188.928 357.936C188.568 358.224 188.388 358.602 188.388 359.07C188.388 359.358 188.46 359.598 188.604 359.79C188.748 359.982 189.018 360.162 189.414 360.33C189.81 360.486 190.386 360.648 191.142 360.816C192.258 361.068 193.044 361.404 193.5 361.824C193.956 362.244 194.184 362.802 194.184 363.498C194.184 363.99 194.046 364.44 193.77 364.848C193.494 365.256 193.086 365.58 192.546 365.82C192.006 366.06 191.358 366.18 190.602 366.18ZM203.652 366.18C203.076 366.18 202.542 366.06 202.05 365.82C201.558 365.58 201.162 365.256 200.862 364.848C200.574 364.44 200.43 363.99 200.43 363.498C200.43 362.706 200.748 362.058 201.384 361.554C202.032 361.05 202.902 360.726 203.994 360.582L206.838 360.186V359.556C206.838 358.896 206.634 358.392 206.226 358.044C205.83 357.684 205.218 357.504 204.39 357.504C203.778 357.504 203.274 357.624 202.878 357.864C202.494 358.104 202.248 358.392 202.14 358.728C202.092 358.872 202.032 358.974 201.96 359.034C201.9 359.082 201.816 359.106 201.708 359.106H201.456C201.348 359.106 201.252 359.07 201.168 358.998C201.096 358.914 201.06 358.818 201.06 358.71C201.06 358.446 201.18 358.14 201.42 357.792C201.66 357.432 202.032 357.12 202.536 356.856C203.04 356.592 203.658 356.46 204.39 356.46C205.674 356.46 206.586 356.766 207.126 357.378C207.666 357.99 207.936 358.734 207.936 359.61V365.604C207.936 365.724 207.9 365.82 207.828 365.892C207.756 365.964 207.66 366 207.54 366H207.234C207.114 366 207.018 365.964 206.946 365.892C206.874 365.82 206.838 365.724 206.838 365.604V364.758C206.574 365.154 206.184 365.49 205.668 365.766C205.164 366.042 204.492 366.18 203.652 366.18ZM203.832 365.136C204.708 365.136 205.428 364.848 205.992 364.272C206.556 363.696 206.838 362.868 206.838 361.788V361.176L204.516 361.5C203.532 361.632 202.788 361.86 202.284 362.184C201.78 362.508 201.528 362.916 201.528 363.408C201.528 363.96 201.756 364.386 202.212 364.686C202.68 364.986 203.22 365.136 203.832 365.136ZM218.969 366.18C217.721 366.18 216.755 365.82 216.071 365.1C215.387 364.368 215.027 363.348 214.991 362.04L214.973 361.32L214.991 360.6C215.027 359.292 215.387 358.278 216.071 357.558C216.755 356.826 217.721 356.46 218.969 356.46C219.761 356.46 220.433 356.604 220.985 356.892C221.549 357.168 221.969 357.528 222.245 357.972C222.521 358.404 222.671 358.854 222.695 359.322C222.707 359.43 222.671 359.526 222.587 359.61C222.503 359.682 222.407 359.718 222.299 359.718H222.047C221.927 359.718 221.837 359.694 221.777 359.646C221.729 359.586 221.675 359.484 221.615 359.34C221.375 358.68 221.039 358.212 220.607 357.936C220.175 357.648 219.629 357.504 218.969 357.504C218.105 357.504 217.415 357.768 216.899 358.296C216.395 358.812 216.125 359.61 216.089 360.69L216.071 361.32L216.089 361.95C216.125 363.03 216.395 363.834 216.899 364.362C217.415 364.878 218.105 365.136 218.969 365.136C219.629 365.136 220.175 364.998 220.607 364.722C221.039 364.434 221.375 363.96 221.615 363.3C221.675 363.156 221.729 363.06 221.777 363.012C221.837 362.952 221.927 362.922 222.047 362.922H222.299C222.407 362.922 222.503 362.964 222.587 363.048C222.671 363.12 222.707 363.21 222.695 363.318C222.671 363.786 222.521 364.242 222.245 364.686C221.969 365.118 221.549 365.478 220.985 365.766C220.433 366.042 219.761 366.18 218.969 366.18ZM227.593 366.18C227.017 366.18 226.483 366.06 225.991 365.82C225.499 365.58 225.103 365.256 224.803 364.848C224.515 364.44 224.371 363.99 224.371 363.498C224.371 362.706 224.689 362.058 225.325 361.554C225.973 361.05 226.843 360.726 227.935 360.582L230.779 360.186V359.556C230.779 358.896 230.575 358.392 230.167 358.044C229.771 357.684 229.159 357.504 228.331 357.504C227.719 357.504 227.215 357.624 226.819 357.864C226.435 358.104 226.189 358.392 226.081 358.728C226.033 358.872 225.973 358.974 225.901 359.034C225.841 359.082 225.757 359.106 225.649 359.106H225.397C225.289 359.106 225.193 359.07 225.109 358.998C225.037 358.914 225.001 358.818 225.001 358.71C225.001 358.446 225.121 358.14 225.361 357.792C225.601 357.432 225.973 357.12 226.477 356.856C226.981 356.592 227.599 356.46 228.331 356.46C229.615 356.46 230.527 356.766 231.067 357.378C231.607 357.99 231.877 358.734 231.877 359.61V365.604C231.877 365.724 231.841 365.82 231.769 365.892C231.697 365.964 231.601 366 231.481 366H231.175C231.055 366 230.959 365.964 230.887 365.892C230.815 365.82 230.779 365.724 230.779 365.604V364.758C230.515 365.154 230.125 365.49 229.609 365.766C229.105 366.042 228.433 366.18 227.593 366.18ZM227.773 365.136C228.649 365.136 229.369 364.848 229.933 364.272C230.497 363.696 230.779 362.868 230.779 361.788V361.176L228.457 361.5C227.473 361.632 226.729 361.86 226.225 362.184C225.721 362.508 225.469 362.916 225.469 363.408C225.469 363.96 225.697 364.386 226.153 364.686C226.621 364.986 227.161 365.136 227.773 365.136ZM235.138 366C235.018 366 234.922 365.964 234.85 365.892C234.778 365.82 234.742 365.724 234.742 365.604V353.616C234.742 353.496 234.778 353.4 234.85 353.328C234.922 353.256 235.018 353.22 235.138 353.22H235.444C235.564 353.22 235.66 353.256 235.732 353.328C235.804 353.4 235.84 353.496 235.84 353.616V365.604C235.84 365.724 235.804 365.82 235.732 365.892C235.66 365.964 235.564 366 235.444 366H235.138ZM239.181 366C239.061 366 238.965 365.964 238.893 365.892C238.821 365.82 238.785 365.724 238.785 365.604V353.616C238.785 353.496 238.821 353.4 238.893 353.328C238.965 353.256 239.061 353.22 239.181 353.22H239.487C239.607 353.22 239.703 353.256 239.775 353.328C239.847 353.4 239.883 353.496 239.883 353.616V365.604C239.883 365.724 239.847 365.82 239.775 365.892C239.703 365.964 239.607 366 239.487 366H239.181ZM118.618 391C118.51 391 118.42 390.964 118.348 390.892C118.288 390.808 118.258 390.712 118.258 390.604C118.258 390.532 118.288 390.454 118.348 390.37L121.192 386.374C120.832 386.47 120.442 386.518 120.022 386.518C119.11 386.518 118.33 386.32 117.682 385.924C117.046 385.528 116.566 385.012 116.242 384.376C115.918 383.74 115.756 383.074 115.756 382.378C115.756 381.682 115.918 381.016 116.242 380.38C116.566 379.744 117.046 379.228 117.682 378.832C118.33 378.424 119.11 378.22 120.022 378.22C120.934 378.22 121.714 378.424 122.362 378.832C123.01 379.228 123.496 379.744 123.82 380.38C124.144 381.016 124.306 381.682 124.306 382.378C124.306 383.002 124.204 383.554 124 384.034C123.796 384.514 123.544 384.97 123.244 385.402L119.536 390.64C119.524 390.664 119.488 390.712 119.428 390.784C119.38 390.844 119.314 390.898 119.23 390.946C119.158 390.982 119.074 391 118.978 391H118.618ZM120.022 385.438C120.586 385.438 121.108 385.312 121.588 385.06C122.068 384.808 122.452 384.448 122.74 383.98C123.028 383.512 123.172 382.978 123.172 382.378C123.172 381.766 123.028 381.226 122.74 380.758C122.452 380.29 122.068 379.93 121.588 379.678C121.108 379.426 120.586 379.3 120.022 379.3C119.458 379.3 118.936 379.426 118.456 379.678C117.976 379.93 117.592 380.29 117.304 380.758C117.028 381.226 116.89 381.766 116.89 382.378C116.89 382.99 117.028 383.53 117.304 383.998C117.592 384.454 117.976 384.808 118.456 385.06C118.936 385.312 119.458 385.438 120.022 385.438ZM130.845 391.18C129.333 391.18 128.241 390.724 127.569 389.812C126.909 388.9 126.561 387.7 126.525 386.212L126.507 384.718L126.525 383.188C126.561 381.7 126.909 380.5 127.569 379.588C128.241 378.676 129.333 378.22 130.845 378.22C132.357 378.22 133.443 378.676 134.103 379.588C134.775 380.5 135.129 381.7 135.165 383.188C135.177 383.524 135.183 384.034 135.183 384.718C135.183 385.39 135.177 385.888 135.165 386.212C135.129 387.7 134.775 388.9 134.103 389.812C133.443 390.724 132.357 391.18 130.845 391.18ZM130.845 390.1C131.877 390.1 132.657 389.758 133.185 389.074C133.725 388.378 134.007 387.394 134.031 386.122C134.043 385.774 134.049 385.294 134.049 384.682C134.049 384.07 134.043 383.602 134.031 383.278C134.007 382.03 133.725 381.058 133.185 380.362C132.657 379.654 131.877 379.3 130.845 379.3C129.813 379.3 129.027 379.654 128.487 380.362C127.959 381.058 127.683 382.03 127.659 383.278L127.641 384.682L127.659 386.122C127.683 387.394 127.959 388.378 128.487 389.074C129.027 389.758 129.813 390.1 130.845 390.1ZM143.701 391C143.581 391 143.485 390.964 143.413 390.892C143.341 390.82 143.305 390.724 143.305 390.604V387.76H137.365C137.245 387.76 137.149 387.724 137.077 387.652C137.005 387.58 136.969 387.484 136.969 387.364V387.076C136.969 386.896 137.035 386.716 137.167 386.536L142.639 378.706C142.699 378.61 142.789 378.538 142.909 378.49C143.029 378.43 143.161 378.4 143.305 378.4H144.043C144.163 378.4 144.259 378.436 144.331 378.508C144.403 378.58 144.439 378.676 144.439 378.796V386.68H146.077C146.197 386.68 146.293 386.716 146.365 386.788C146.437 386.86 146.473 386.956 146.473 387.076V387.364C146.473 387.484 146.437 387.58 146.365 387.652C146.293 387.724 146.197 387.76 146.077 387.76H144.439V390.604C144.439 390.724 144.403 390.82 144.331 390.892C144.259 390.964 144.163 391 144.043 391H143.701ZM143.305 386.68V379.678L138.391 386.68H143.305ZM150.54 391C150.432 391 150.342 390.964 150.27 390.892C150.21 390.808 150.18 390.712 150.18 390.604C150.18 390.532 150.21 390.454 150.27 390.37L153.114 386.374C152.754 386.47 152.364 386.518 151.944 386.518C151.032 386.518 150.252 386.32 149.604 385.924C148.968 385.528 148.488 385.012 148.164 384.376C147.84 383.74 147.678 383.074 147.678 382.378C147.678 381.682 147.84 381.016 148.164 380.38C148.488 379.744 148.968 379.228 149.604 378.832C150.252 378.424 151.032 378.22 151.944 378.22C152.856 378.22 153.636 378.424 154.284 378.832C154.932 379.228 155.418 379.744 155.742 380.38C156.066 381.016 156.228 381.682 156.228 382.378C156.228 383.002 156.126 383.554 155.922 384.034C155.718 384.514 155.466 384.97 155.166 385.402L151.458 390.64C151.446 390.664 151.41 390.712 151.35 390.784C151.302 390.844 151.236 390.898 151.152 390.946C151.08 390.982 150.996 391 150.9 391H150.54ZM151.944 385.438C152.508 385.438 153.03 385.312 153.51 385.06C153.99 384.808 154.374 384.448 154.662 383.98C154.95 383.512 155.094 382.978 155.094 382.378C155.094 381.766 154.95 381.226 154.662 380.758C154.374 380.29 153.99 379.93 153.51 379.678C153.03 379.426 152.508 379.3 151.944 379.3C151.38 379.3 150.858 379.426 150.378 379.678C149.898 379.93 149.514 380.29 149.226 380.758C148.95 381.226 148.812 381.766 148.812 382.378C148.812 382.99 148.95 383.53 149.226 383.998C149.514 384.454 149.898 384.808 150.378 385.06C150.858 385.312 151.38 385.438 151.944 385.438ZM162.785 391.18C161.945 391.18 161.183 391.036 160.499 390.748C159.827 390.46 159.293 390.034 158.897 389.47C158.501 388.906 158.303 388.234 158.303 387.454C158.303 386.71 158.483 386.068 158.843 385.528C159.203 384.988 159.701 384.568 160.337 384.268C159.833 383.992 159.443 383.626 159.167 383.17C158.891 382.702 158.753 382.156 158.753 381.532C158.753 380.488 159.131 379.678 159.887 379.102C160.655 378.514 161.621 378.22 162.785 378.22C163.949 378.22 164.909 378.514 165.665 379.102C166.433 379.678 166.817 380.488 166.817 381.532C166.817 382.156 166.673 382.702 166.385 383.17C166.109 383.626 165.725 383.992 165.233 384.268C165.869 384.568 166.367 384.988 166.727 385.528C167.087 386.068 167.267 386.71 167.267 387.454C167.267 388.234 167.069 388.906 166.673 389.47C166.277 390.034 165.737 390.46 165.053 390.748C164.381 391.036 163.625 391.18 162.785 391.18ZM162.785 383.746C163.601 383.722 164.285 383.512 164.837 383.116C165.401 382.72 165.683 382.192 165.683 381.532C165.683 380.848 165.407 380.308 164.855 379.912C164.303 379.504 163.613 379.3 162.785 379.3C161.957 379.3 161.267 379.504 160.715 379.912C160.163 380.308 159.887 380.848 159.887 381.532C159.887 382.216 160.163 382.756 160.715 383.152C161.267 383.548 161.957 383.746 162.785 383.746ZM162.785 390.1C163.733 390.1 164.525 389.86 165.161 389.38C165.809 388.9 166.133 388.258 166.133 387.454C166.133 386.662 165.815 386.026 165.179 385.546C164.543 385.066 163.745 384.826 162.785 384.826C161.825 384.826 161.027 385.066 160.391 385.546C159.755 386.026 159.437 386.662 159.437 387.454C159.437 388.258 159.755 388.9 160.391 389.38C161.039 389.86 161.837 390.1 162.785 390.1ZM173.39 391.18C172.55 391.18 171.818 391.024 171.194 390.712C170.582 390.388 170.108 389.974 169.772 389.47C169.448 388.966 169.274 388.426 169.25 387.85V387.814C169.25 387.718 169.28 387.646 169.34 387.598C169.412 387.538 169.502 387.508 169.61 387.508H169.952C170.072 387.508 170.168 387.538 170.24 387.598C170.312 387.646 170.366 387.754 170.402 387.922C170.582 388.654 170.948 389.2 171.5 389.56C172.052 389.92 172.682 390.1 173.39 390.1C174.314 390.1 175.076 389.824 175.676 389.272C176.288 388.72 176.594 387.952 176.594 386.968C176.594 386.368 176.45 385.846 176.162 385.402C175.886 384.958 175.502 384.616 175.01 384.376C174.518 384.136 173.978 384.016 173.39 384.016C172.91 384.016 172.52 384.082 172.22 384.214C171.932 384.334 171.638 384.502 171.338 384.718C171.158 384.85 171.008 384.946 170.888 385.006C170.78 385.066 170.66 385.096 170.528 385.096H170.204C170.096 385.096 170 385.06 169.916 384.988C169.832 384.904 169.796 384.808 169.808 384.7L170.348 378.814C170.36 378.682 170.396 378.58 170.456 378.508C170.528 378.436 170.624 378.4 170.744 378.4H176.612C176.732 378.4 176.828 378.436 176.9 378.508C176.972 378.58 177.008 378.676 177.008 378.796V379.084C177.008 379.204 176.972 379.3 176.9 379.372C176.828 379.444 176.732 379.48 176.612 379.48H171.446L171.068 383.548C171.704 383.14 172.478 382.936 173.39 382.936C174.206 382.936 174.938 383.092 175.586 383.404C176.246 383.716 176.768 384.178 177.152 384.79C177.536 385.39 177.728 386.116 177.728 386.968C177.728 387.868 177.536 388.636 177.152 389.272C176.768 389.908 176.246 390.388 175.586 390.712C174.938 391.024 174.206 391.18 173.39 391.18ZM185.958 391C185.838 391 185.742 390.964 185.67 390.892C185.598 390.82 185.562 390.724 185.562 390.604V387.76H179.622C179.502 387.76 179.406 387.724 179.334 387.652C179.262 387.58 179.226 387.484 179.226 387.364V387.076C179.226 386.896 179.292 386.716 179.424 386.536L184.896 378.706C184.956 378.61 185.046 378.538 185.166 378.49C185.286 378.43 185.418 378.4 185.562 378.4H186.3C186.42 378.4 186.516 378.436 186.588 378.508C186.66 378.58 186.696 378.676 186.696 378.796V386.68H188.334C188.454 386.68 188.55 386.716 188.622 386.788C188.694 386.86 188.73 386.956 188.73 387.076V387.364C188.73 387.484 188.694 387.58 188.622 387.652C188.55 387.724 188.454 387.76 188.334 387.76H186.696V390.604C186.696 390.724 186.66 390.82 186.588 390.892C186.516 390.964 186.42 391 186.3 391H185.958ZM185.562 386.68V379.678L180.648 386.68H185.562ZM194.503 391.18C193.639 391.18 192.883 391.036 192.235 390.748C191.599 390.46 191.107 390.082 190.759 389.614C190.411 389.146 190.225 388.642 190.201 388.102C190.201 387.994 190.237 387.91 190.309 387.85C190.381 387.79 190.471 387.76 190.579 387.76H190.831C190.951 387.76 191.053 387.79 191.137 387.85C191.221 387.898 191.281 388.006 191.317 388.174C191.485 388.882 191.863 389.38 192.451 389.668C193.051 389.956 193.735 390.1 194.503 390.1C195.463 390.1 196.231 389.872 196.807 389.416C197.383 388.96 197.671 388.3 197.671 387.436C197.671 385.78 196.675 384.952 194.683 384.952H193.099C192.979 384.952 192.883 384.916 192.811 384.844C192.739 384.772 192.703 384.676 192.703 384.556V384.286C192.703 384.154 192.757 384.01 192.865 383.854L196.573 379.48H191.137C191.017 379.48 190.921 379.444 190.849 379.372C190.777 379.3 190.741 379.204 190.741 379.084V378.814C190.741 378.694 190.777 378.598 190.849 378.526C190.921 378.442 191.017 378.4 191.137 378.4H197.851C197.983 378.4 198.085 378.436 198.157 378.508C198.229 378.58 198.265 378.682 198.265 378.814V379.084C198.265 379.192 198.217 379.306 198.121 379.426L194.323 383.872H194.683C195.955 383.872 196.957 384.172 197.689 384.772C198.433 385.372 198.805 386.26 198.805 387.436C198.805 388.204 198.619 388.876 198.247 389.452C197.875 390.016 197.365 390.448 196.717 390.748C196.069 391.036 195.331 391.18 194.503 391.18ZM204.767 391.18C203.927 391.18 203.195 391.024 202.571 390.712C201.959 390.388 201.485 389.974 201.149 389.47C200.825 388.966 200.651 388.426 200.627 387.85V387.814C200.627 387.718 200.657 387.646 200.717 387.598C200.789 387.538 200.879 387.508 200.987 387.508H201.329C201.449 387.508 201.545 387.538 201.617 387.598C201.689 387.646 201.743 387.754 201.779 387.922C201.959 388.654 202.325 389.2 202.877 389.56C203.429 389.92 204.059 390.1 204.767 390.1C205.691 390.1 206.453 389.824 207.053 389.272C207.665 388.72 207.971 387.952 207.971 386.968C207.971 386.368 207.827 385.846 207.539 385.402C207.263 384.958 206.879 384.616 206.387 384.376C205.895 384.136 205.355 384.016 204.767 384.016C204.287 384.016 203.897 384.082 203.597 384.214C203.309 384.334 203.015 384.502 202.715 384.718C202.535 384.85 202.385 384.946 202.265 385.006C202.157 385.066 202.037 385.096 201.905 385.096H201.581C201.473 385.096 201.377 385.06 201.293 384.988C201.209 384.904 201.173 384.808 201.185 384.7L201.725 378.814C201.737 378.682 201.773 378.58 201.833 378.508C201.905 378.436 202.001 378.4 202.121 378.4H207.989C208.109 378.4 208.205 378.436 208.277 378.508C208.349 378.58 208.385 378.676 208.385 378.796V379.084C208.385 379.204 208.349 379.3 208.277 379.372C208.205 379.444 208.109 379.48 207.989 379.48H202.823L202.445 383.548C203.081 383.14 203.855 382.936 204.767 382.936C205.583 382.936 206.315 383.092 206.963 383.404C207.623 383.716 208.145 384.178 208.529 384.79C208.913 385.39 209.105 386.116 209.105 386.968C209.105 387.868 208.913 388.636 208.529 389.272C208.145 389.908 207.623 390.388 206.963 390.712C206.315 391.024 205.583 391.18 204.767 391.18ZM211.359 391C211.239 391 211.143 390.964 211.071 390.892C210.999 390.82 210.963 390.724 210.963 390.604V390.334C210.963 390.094 211.113 389.842 211.413 389.578L216.075 384.916C216.735 384.304 217.179 383.788 217.407 383.368C217.635 382.948 217.749 382.45 217.749 381.874C217.749 381.07 217.515 380.44 217.047 379.984C216.591 379.528 215.937 379.3 215.085 379.3C214.281 379.3 213.639 379.534 213.159 380.002C212.679 380.47 212.391 381.1 212.295 381.892C212.283 382.024 212.229 382.126 212.133 382.198C212.049 382.27 211.965 382.306 211.881 382.306H211.521C211.401 382.306 211.305 382.276 211.233 382.216C211.173 382.144 211.143 382.06 211.143 381.964C211.167 381.376 211.323 380.794 211.611 380.218C211.899 379.642 212.337 379.168 212.925 378.796C213.513 378.412 214.233 378.22 215.085 378.22C216.369 378.22 217.323 378.568 217.947 379.264C218.571 379.96 218.883 380.83 218.883 381.874C218.883 382.594 218.727 383.242 218.415 383.818C218.103 384.394 217.605 385 216.921 385.636L212.709 389.92H218.739C218.871 389.92 218.973 389.956 219.045 390.028C219.117 390.1 219.153 390.202 219.153 390.334V390.604C219.153 390.724 219.111 390.82 219.027 390.892C218.955 390.964 218.859 391 218.739 391H211.359Z" fill="#575757"/>
<path d="M123.07 168.24C121.77 168.24 120.62 167.98 119.62 167.46C118.62 166.92 117.84 166.17 117.28 165.21C116.74 164.25 116.47 163.14 116.47 161.88V153.06C116.47 151.8 116.74 150.7 117.28 149.76C117.84 148.8 118.62 148.06 119.62 147.54C120.62 147.02 121.77 146.76 123.07 146.76C124.37 146.76 125.52 147.02 126.52 147.54C127.52 148.04 128.29 148.76 128.83 149.7C129.39 150.62 129.67 151.7 129.67 152.94V153.12C129.67 153.22 129.63 153.31 129.55 153.39C129.49 153.47 129.41 153.51 129.31 153.51L126.52 153.63C126.28 153.63 126.16 153.51 126.16 153.27V152.91C126.16 151.97 125.87 151.21 125.29 150.63C124.73 150.05 123.99 149.76 123.07 149.76C122.13 149.76 121.37 150.05 120.79 150.63C120.23 151.21 119.95 151.97 119.95 152.91V162.12C119.95 163.06 120.23 163.82 120.79 164.4C121.37 164.96 122.13 165.24 123.07 165.24C123.99 165.24 124.73 164.96 125.29 164.4C125.87 163.82 126.16 163.06 126.16 162.12V161.73C126.16 161.51 126.28 161.4 126.52 161.4L129.31 161.52C129.41 161.52 129.49 161.56 129.55 161.64C129.63 161.7 129.67 161.78 129.67 161.88V162C129.67 163.24 129.39 164.34 128.83 165.3C128.29 166.24 127.52 166.97 126.52 167.49C125.52 167.99 124.37 168.24 123.07 168.24ZM142.126 168.27C140.806 168.27 139.636 168 138.616 167.46C137.616 166.92 136.836 166.16 136.276 165.18C135.736 164.18 135.466 163.03 135.466 161.73V153.27C135.466 151.99 135.736 150.86 136.276 149.88C136.836 148.88 137.616 148.11 138.616 147.57C139.636 147.03 140.806 146.76 142.126 146.76C143.466 146.76 144.636 147.03 145.636 147.57C146.656 148.11 147.446 148.88 148.006 149.88C148.566 150.86 148.846 151.99 148.846 153.27V161.73C148.846 163.03 148.566 164.18 148.006 165.18C147.446 166.16 146.656 166.92 145.636 167.46C144.636 168 143.466 168.27 142.126 168.27ZM142.126 165.27C143.106 165.27 143.886 164.96 144.466 164.34C145.066 163.7 145.366 162.88 145.366 161.88V153.18C145.366 152.16 145.066 151.34 144.466 150.72C143.886 150.08 143.106 149.76 142.126 149.76C141.166 149.76 140.396 150.08 139.816 150.72C139.236 151.34 138.946 152.16 138.946 153.18V161.88C138.946 162.88 139.236 163.7 139.816 164.34C140.396 164.96 141.166 165.27 142.126 165.27ZM165.584 147.36C165.584 147.26 165.614 147.18 165.674 147.12C165.754 147.04 165.844 147 165.944 147H168.704C168.804 147 168.884 147.04 168.944 147.12C169.024 147.18 169.064 147.26 169.064 147.36V167.64C169.064 167.74 169.024 167.83 168.944 167.91C168.884 167.97 168.804 168 168.704 168H165.794C165.614 168 165.474 167.91 165.374 167.73L158.834 154.29C158.794 154.23 158.754 154.21 158.714 154.23C158.674 154.23 158.654 154.27 158.654 154.35L158.684 167.64C158.684 167.74 158.644 167.83 158.564 167.91C158.504 167.97 158.424 168 158.324 168H155.564C155.464 168 155.374 167.97 155.294 167.91C155.234 167.83 155.204 167.74 155.204 167.64V147.36C155.204 147.26 155.234 147.18 155.294 147.12C155.374 147.04 155.464 147 155.564 147H158.444C158.644 147 158.784 147.09 158.864 147.27L165.434 160.77C165.474 160.83 165.514 160.86 165.554 160.86C165.594 160.84 165.614 160.79 165.614 160.71L165.584 147.36ZM188.141 147C188.241 147 188.321 147.04 188.381 147.12C188.461 147.18 188.501 147.26 188.501 147.36V149.67C188.501 149.77 188.461 149.86 188.381 149.94C188.321 150 188.241 150.03 188.141 150.03H183.491C183.391 150.03 183.341 150.08 183.341 150.18V167.64C183.341 167.74 183.301 167.83 183.221 167.91C183.161 167.97 183.081 168 182.981 168H180.221C180.121 168 180.031 167.97 179.951 167.91C179.891 167.83 179.861 167.74 179.861 167.64V150.18C179.861 150.08 179.811 150.03 179.711 150.03H175.241C175.141 150.03 175.051 150 174.971 149.94C174.911 149.86 174.881 149.77 174.881 149.67V147.36C174.881 147.26 174.911 147.18 174.971 147.12C175.051 147.04 175.141 147 175.241 147H188.141ZM203.469 168C203.249 168 203.109 167.9 203.049 167.7L202.269 164.49C202.249 164.41 202.199 164.37 202.119 164.37H195.939C195.859 164.37 195.809 164.41 195.789 164.49L195.039 167.7C194.979 167.9 194.839 168 194.619 168H191.769C191.509 168 191.409 167.87 191.469 167.61L196.929 147.3C196.989 147.1 197.129 147 197.349 147H200.769C200.989 147 201.129 147.1 201.189 147.3L206.649 167.61L206.679 167.73C206.679 167.91 206.569 168 206.349 168H203.469ZM196.509 161.46C196.489 161.52 196.499 161.57 196.539 161.61C196.579 161.63 196.619 161.64 196.659 161.64H201.399C201.439 161.64 201.479 161.63 201.519 161.61C201.559 161.57 201.569 161.52 201.549 161.46L199.089 151.62C199.069 151.56 199.039 151.53 198.999 151.53C198.959 151.53 198.929 151.56 198.909 151.62L196.509 161.46ZM217.904 168.24C216.604 168.24 215.454 167.98 214.454 167.46C213.454 166.92 212.674 166.17 212.114 165.21C211.574 164.25 211.304 163.14 211.304 161.88V153.06C211.304 151.8 211.574 150.7 212.114 149.76C212.674 148.8 213.454 148.06 214.454 147.54C215.454 147.02 216.604 146.76 217.904 146.76C219.204 146.76 220.354 147.02 221.354 147.54C222.354 148.04 223.124 148.76 223.664 149.7C224.224 150.62 224.504 151.7 224.504 152.94V153.12C224.504 153.22 224.464 153.31 224.384 153.39C224.324 153.47 224.244 153.51 224.144 153.51L221.354 153.63C221.114 153.63 220.994 153.51 220.994 153.27V152.91C220.994 151.97 220.704 151.21 220.124 150.63C219.564 150.05 218.824 149.76 217.904 149.76C216.964 149.76 216.204 150.05 215.624 150.63C215.064 151.21 214.784 151.97 214.784 152.91V162.12C214.784 163.06 215.064 163.82 215.624 164.4C216.204 164.96 216.964 165.24 217.904 165.24C218.824 165.24 219.564 164.96 220.124 164.4C220.704 163.82 220.994 163.06 220.994 162.12V161.73C220.994 161.51 221.114 161.4 221.354 161.4L224.144 161.52C224.244 161.52 224.324 161.56 224.384 161.64C224.464 161.7 224.504 161.78 224.504 161.88V162C224.504 163.24 224.224 164.34 223.664 165.3C223.124 166.24 222.354 166.97 221.354 167.49C220.354 167.99 219.204 168.24 217.904 168.24ZM242.903 147C243.003 147 243.083 147.04 243.143 147.12C243.223 147.18 243.263 147.26 243.263 147.36V149.67C243.263 149.77 243.223 149.86 243.143 149.94C243.083 150 243.003 150.03 242.903 150.03H238.253C238.153 150.03 238.103 150.08 238.103 150.18V167.64C238.103 167.74 238.063 167.83 237.983 167.91C237.923 167.97 237.843 168 237.743 168H234.983C234.883 168 234.793 167.97 234.713 167.91C234.653 167.83 234.623 167.74 234.623 167.64V150.18C234.623 150.08 234.573 150.03 234.473 150.03H230.003C229.903 150.03 229.813 150 229.733 149.94C229.673 149.86 229.643 149.77 229.643 149.67V147.36C229.643 147.26 229.673 147.18 229.733 147.12C229.813 147.04 229.903 147 230.003 147H242.903ZM264.528 168.24C263.228 168.24 262.078 167.97 261.078 167.43C260.078 166.89 259.298 166.13 258.738 165.15C258.198 164.15 257.928 163 257.928 161.7V147.36C257.928 147.26 257.958 147.18 258.018 147.12C258.098 147.04 258.188 147 258.288 147H261.048C261.148 147 261.228 147.04 261.288 147.12C261.368 147.18 261.408 147.26 261.408 147.36V161.88C261.408 162.88 261.688 163.69 262.248 164.31C262.828 164.93 263.588 165.24 264.528 165.24C265.468 165.24 266.228 164.93 266.808 164.31C267.388 163.69 267.678 162.88 267.678 161.88V147.36C267.678 147.26 267.708 147.18 267.768 147.12C267.848 147.04 267.938 147 268.038 147H270.798C270.898 147 270.978 147.04 271.038 147.12C271.118 147.18 271.158 147.26 271.158 147.36V161.7C271.158 163 270.878 164.15 270.318 165.15C269.778 166.13 269.008 166.89 268.008 167.43C267.008 167.97 265.848 168.24 264.528 168.24ZM283.657 168.24C282.337 168.24 281.177 168.01 280.177 167.55C279.177 167.07 278.397 166.4 277.837 165.54C277.297 164.66 277.027 163.65 277.027 162.51V161.73C277.027 161.63 277.057 161.55 277.117 161.49C277.197 161.41 277.287 161.37 277.387 161.37H280.087C280.187 161.37 280.267 161.41 280.327 161.49C280.407 161.55 280.447 161.63 280.447 161.73V162.33C280.447 163.19 280.747 163.89 281.347 164.43C281.947 164.97 282.757 165.24 283.777 165.24C284.717 165.24 285.437 165 285.937 164.52C286.437 164.04 286.687 163.41 286.687 162.63C286.687 162.09 286.547 161.63 286.267 161.25C285.987 160.85 285.587 160.49 285.067 160.17C284.567 159.83 283.787 159.38 282.727 158.82C281.507 158.18 280.527 157.61 279.787 157.11C279.047 156.61 278.417 155.97 277.897 155.19C277.397 154.41 277.147 153.46 277.147 152.34C277.147 150.62 277.717 149.26 278.857 148.26C280.017 147.26 281.537 146.76 283.417 146.76C284.717 146.76 285.867 147.01 286.867 147.51C287.867 147.99 288.637 148.68 289.177 149.58C289.717 150.48 289.987 151.51 289.987 152.67V153.3C289.987 153.4 289.947 153.49 289.867 153.57C289.807 153.63 289.727 153.66 289.627 153.66H286.927C286.827 153.66 286.737 153.63 286.657 153.57C286.597 153.49 286.567 153.4 286.567 153.3V152.73C286.567 151.87 286.277 151.16 285.697 150.6C285.117 150.04 284.337 149.76 283.357 149.76C282.497 149.76 281.817 149.99 281.317 150.45C280.817 150.89 280.567 151.51 280.567 152.31C280.567 152.85 280.697 153.31 280.957 153.69C281.217 154.07 281.607 154.43 282.127 154.77C282.667 155.11 283.477 155.55 284.557 156.09C285.997 156.91 287.057 157.55 287.737 158.01C288.417 158.47 288.987 159.07 289.447 159.81C289.927 160.53 290.167 161.42 290.167 162.48C290.167 164.24 289.577 165.64 288.397 166.68C287.217 167.72 285.637 168.24 283.657 168.24Z" fill="#323232"/>
<defs>
<linearGradient id="paint0_linear" x1="368" y1="289.5" x2="1257.5" y2="818" gradientUnits="userSpaceOnUse">
<stop stop-color="white"/>
<stop offset="1" stop-color="white" stop-opacity="0"/>
</linearGradient>
</defs>
</svg>
