<svg width="809" height="260" viewBox="0 0 809 260" fill="none" xmlns="http://www.w3.org/2000/svg">
<rect x="34" y="188" width="2" height="34" transform="rotate(90 34 188)" fill="black"/>
<path d="M2.016 231C1.896 231 1.836 230.94 1.836 230.82V218.58C1.836 218.46 1.896 218.4 2.016 218.4H2.61C2.73 218.4 2.79 218.46 2.79 218.58V230.82C2.79 230.94 2.73 231 2.61 231H2.016ZM9.77063 221.802C10.6946 221.802 11.4386 222.084 12.0026 222.648C12.5786 223.212 12.8666 223.956 12.8666 224.88V230.82C12.8666 230.94 12.8066 231 12.6866 231H12.0926C11.9726 231 11.9126 230.94 11.9126 230.82V225.06C11.9126 224.352 11.6966 223.776 11.2646 223.332C10.8326 222.876 10.2686 222.648 9.57263 222.648C8.85263 222.648 8.27063 222.87 7.82663 223.314C7.38263 223.746 7.16063 224.316 7.16063 225.024V230.82C7.16063 230.94 7.10063 231 6.98063 231H6.38663C6.26663 231 6.20663 230.94 6.20663 230.82V222.108C6.20663 221.988 6.26663 221.928 6.38663 221.928H6.98063C7.10063 221.928 7.16063 221.988 7.16063 222.108V222.99C7.16063 223.026 7.16663 223.05 7.17863 223.062C7.20263 223.062 7.22063 223.05 7.23263 223.026C7.49663 222.63 7.84463 222.33 8.27663 222.126C8.70863 221.91 9.20663 221.802 9.77063 221.802ZM23.2581 222.558C23.2581 222.678 23.1981 222.738 23.0781 222.738H20.9721C20.9241 222.738 20.9001 222.762 20.9001 222.81V228.498C20.9001 229.11 21.0381 229.542 21.3141 229.794C21.5901 230.034 22.0341 230.154 22.6461 230.154H23.0601C23.1801 230.154 23.2401 230.214 23.2401 230.334V230.82C23.2401 230.94 23.1801 231 23.0601 231L22.5201 231.018C21.6801 231.018 21.0441 230.856 20.6121 230.532C20.1921 230.208 19.9761 229.614 19.9641 228.75V222.81C19.9641 222.762 19.9401 222.738 19.8921 222.738H18.8121C18.6921 222.738 18.6321 222.678 18.6321 222.558V222.108C18.6321 221.988 18.6921 221.928 18.8121 221.928H19.8921C19.9401 221.928 19.9641 221.904 19.9641 221.856V219.804C19.9641 219.684 20.0241 219.624 20.1441 219.624H20.7201C20.8401 219.624 20.9001 219.684 20.9001 219.804V221.856C20.9001 221.904 20.9241 221.928 20.9721 221.928H23.0781C23.1981 221.928 23.2581 221.988 23.2581 222.108V222.558ZM29.5109 221.802C30.4349 221.802 31.1789 222.084 31.7429 222.648C32.3189 223.212 32.6069 223.956 32.6069 224.88V230.82C32.6069 230.94 32.5469 231 32.4269 231H31.8329C31.7129 231 31.6529 230.94 31.6529 230.82V225.06C31.6529 224.352 31.4369 223.776 31.0049 223.332C30.5729 222.876 30.0089 222.648 29.3129 222.648C28.5929 222.648 28.0109 222.87 27.5669 223.314C27.1229 223.746 26.9009 224.316 26.9009 225.024V230.82C26.9009 230.94 26.8409 231 26.7209 231H26.1269C26.0069 231 25.9469 230.94 25.9469 230.82V218.58C25.9469 218.46 26.0069 218.4 26.1269 218.4H26.7209C26.8409 218.4 26.9009 218.46 26.9009 218.58V222.99C26.9009 223.026 26.9069 223.05 26.9189 223.062C26.9429 223.062 26.9609 223.05 26.9729 223.026C27.2369 222.63 27.5849 222.33 28.0169 222.126C28.4489 221.91 28.9469 221.802 29.5109 221.802ZM36.3528 220.11C36.0888 220.11 35.8728 220.026 35.7048 219.858C35.5368 219.69 35.4528 219.474 35.4528 219.21C35.4528 218.946 35.5368 218.73 35.7048 218.562C35.8728 218.394 36.0888 218.31 36.3528 218.31C36.6168 218.31 36.8328 218.394 37.0008 218.562C37.1688 218.73 37.2528 218.946 37.2528 219.21C37.2528 219.474 37.1688 219.69 37.0008 219.858C36.8328 220.026 36.6168 220.11 36.3528 220.11ZM36.0108 230.982C35.8908 230.982 35.8308 230.922 35.8308 230.802V222.09C35.8308 221.97 35.8908 221.91 36.0108 221.91H36.6048C36.7248 221.91 36.7848 221.97 36.7848 222.09V230.802C36.7848 230.922 36.7248 230.982 36.6048 230.982H36.0108ZM43.0463 231.09C42.3983 231.09 41.8223 230.988 41.3183 230.784C40.8263 230.568 40.4423 230.28 40.1663 229.92C39.8903 229.56 39.7523 229.164 39.7523 228.732V228.498C39.7523 228.378 39.8123 228.318 39.9323 228.318H40.4903C40.6103 228.318 40.6703 228.378 40.6703 228.498V228.696C40.6703 229.14 40.8923 229.524 41.3363 229.848C41.7803 230.16 42.3443 230.316 43.0283 230.316C43.7003 230.316 44.2463 230.154 44.6663 229.83C45.0863 229.506 45.2963 229.104 45.2963 228.624C45.2963 228.288 45.1883 228.012 44.9723 227.796C44.7563 227.58 44.4983 227.418 44.1983 227.31C43.9103 227.19 43.4723 227.04 42.8843 226.86C42.2123 226.656 41.6723 226.464 41.2643 226.284C40.8563 226.104 40.5083 225.852 40.2203 225.528C39.9443 225.192 39.8063 224.772 39.8063 224.268C39.8063 223.536 40.0943 222.954 40.6703 222.522C41.2583 222.078 42.0263 221.856 42.9743 221.856C43.6103 221.856 44.1683 221.964 44.6483 222.18C45.1403 222.384 45.5183 222.666 45.7823 223.026C46.0583 223.386 46.1963 223.794 46.1963 224.25V224.304C46.1963 224.424 46.1363 224.484 46.0163 224.484H45.4583C45.3383 224.484 45.2783 224.424 45.2783 224.304V224.25C45.2783 223.794 45.0623 223.416 44.6303 223.116C44.2103 222.804 43.6523 222.648 42.9563 222.648C42.2843 222.648 41.7443 222.792 41.3363 223.08C40.9283 223.356 40.7243 223.734 40.7243 224.214C40.7243 224.67 40.9103 225.012 41.2823 225.24C41.6663 225.468 42.2603 225.702 43.0643 225.942C43.7603 226.146 44.3123 226.338 44.7203 226.518C45.1403 226.698 45.5003 226.956 45.8003 227.292C46.1003 227.616 46.2503 228.042 46.2503 228.57C46.2503 229.326 45.9563 229.938 45.3683 230.406C44.7923 230.862 44.0183 231.09 43.0463 231.09ZM54.2019 231C54.1059 231 54.0399 230.952 54.0039 230.856L51.4479 222.126L51.4299 222.072C51.4299 221.976 51.4899 221.928 51.6099 221.928H52.2219C52.3299 221.928 52.3959 221.982 52.4199 222.09L54.4899 229.596C54.5019 229.62 54.5139 229.632 54.5259 229.632C54.5499 229.632 54.5679 229.62 54.5799 229.596L56.6679 222.072C56.6919 221.976 56.7579 221.928 56.8659 221.928H57.4239C57.5199 221.928 57.5859 221.976 57.6219 222.072L59.7459 229.578C59.7579 229.602 59.7699 229.614 59.7819 229.614C59.8059 229.614 59.8239 229.602 59.8359 229.578L61.9419 222.09C61.9659 221.982 62.0319 221.928 62.1399 221.928L62.7339 221.946C62.7939 221.946 62.8419 221.964 62.8779 222C62.9139 222.036 62.9199 222.084 62.8959 222.144L60.3219 230.856C60.2859 230.952 60.2199 231 60.1239 231H59.5119C59.4159 231 59.3499 230.952 59.3139 230.856L57.1899 223.656C57.1779 223.632 57.1599 223.62 57.1359 223.62C57.1239 223.62 57.1119 223.632 57.0999 223.656L55.0299 230.856C54.9939 230.952 54.9279 231 54.8319 231H54.2019ZM68.1408 231.144C67.3008 231.144 66.5808 230.922 65.9808 230.478C65.3808 230.034 64.9728 229.44 64.7568 228.696C64.6248 228.216 64.5588 227.466 64.5588 226.446C64.5588 225.426 64.6248 224.682 64.7568 224.214C64.9728 223.47 65.3748 222.882 65.9628 222.45C66.5628 222.006 67.2948 221.784 68.1588 221.784C68.9988 221.784 69.7188 222.006 70.3188 222.45C70.9308 222.894 71.3388 223.482 71.5428 224.214C71.6148 224.49 71.6628 224.802 71.6868 225.15C71.7108 225.486 71.7228 225.918 71.7228 226.446C71.7228 226.998 71.7108 227.442 71.6868 227.778C71.6628 228.114 71.6148 228.42 71.5428 228.696C71.3388 229.44 70.9308 230.034 70.3188 230.478C69.7188 230.922 68.9928 231.144 68.1408 231.144ZM68.1408 230.298C68.7768 230.298 69.3168 230.124 69.7608 229.776C70.2168 229.416 70.5108 228.948 70.6428 228.372C70.7268 228.048 70.7688 227.412 70.7688 226.464C70.7688 225.504 70.7328 224.868 70.6608 224.556C70.5288 223.968 70.2348 223.5 69.7788 223.152C69.3348 222.804 68.7888 222.63 68.1408 222.63C67.4928 222.63 66.9468 222.804 66.5028 223.152C66.0588 223.5 65.7708 223.968 65.6388 224.556C65.5548 224.928 65.5128 225.564 65.5128 226.464C65.5128 227.364 65.5548 228 65.6388 228.372C65.7708 228.96 66.0588 229.428 66.5028 229.776C66.9468 230.124 67.4928 230.298 68.1408 230.298ZM77.988 221.856C78.396 221.856 78.744 221.928 79.032 222.072C79.128 222.108 79.164 222.186 79.14 222.306L78.978 222.882C78.942 223.002 78.864 223.038 78.744 222.99C78.504 222.894 78.204 222.852 77.844 222.864C77.172 222.876 76.614 223.134 76.17 223.638C75.738 224.13 75.522 224.736 75.522 225.456V230.82C75.522 230.94 75.462 231 75.342 231H74.748C74.628 231 74.568 230.94 74.568 230.82V222.108C74.568 221.988 74.628 221.928 74.748 221.928H75.342C75.462 221.928 75.522 221.988 75.522 222.108V223.332C75.522 223.368 75.528 223.392 75.54 223.404C75.564 223.404 75.582 223.386 75.594 223.35C75.846 222.882 76.17 222.516 76.566 222.252C76.974 221.988 77.448 221.856 77.988 221.856ZM81.2167 231C81.0967 231 81.0367 230.94 81.0367 230.82V218.58C81.0367 218.46 81.0967 218.4 81.2167 218.4H81.8107C81.9307 218.4 81.9907 218.46 81.9907 218.58V230.82C81.9907 230.94 81.9307 231 81.8107 231H81.2167ZM90.7493 218.58C90.7493 218.46 90.8093 218.4 90.9293 218.4H91.5233C91.6433 218.4 91.7033 218.46 91.7033 218.58V230.82C91.7033 230.94 91.6433 231 91.5233 231H90.9293C90.8093 231 90.7493 230.94 90.7493 230.82V229.938C90.7493 229.902 90.7373 229.884 90.7133 229.884C90.7013 229.872 90.6833 229.878 90.6593 229.902C90.4073 230.298 90.0713 230.604 89.6513 230.82C89.2313 231.036 88.7573 231.144 88.2293 231.144C87.4133 231.144 86.7233 230.928 86.1593 230.496C85.5953 230.064 85.2113 229.482 85.0073 228.75C84.9233 228.474 84.8693 228.168 84.8453 227.832C84.8213 227.484 84.8093 227.034 84.8093 226.482C84.8093 225.942 84.8213 225.498 84.8453 225.15C84.8693 224.802 84.9173 224.49 84.9893 224.214C85.1693 223.47 85.5413 222.882 86.1053 222.45C86.6813 222.006 87.3893 221.784 88.2293 221.784C88.7573 221.784 89.2313 221.892 89.6513 222.108C90.0713 222.324 90.4073 222.63 90.6593 223.026C90.6713 223.062 90.6893 223.08 90.7133 223.08C90.7373 223.068 90.7493 223.044 90.7493 223.008V218.58ZM90.5153 228.606C90.5993 228.378 90.6533 228.12 90.6773 227.832C90.7133 227.544 90.7313 227.094 90.7313 226.482C90.7313 225.846 90.7133 225.384 90.6773 225.096C90.6413 224.796 90.5813 224.526 90.4973 224.286C90.3653 223.794 90.1073 223.398 89.7233 223.098C89.3513 222.786 88.8893 222.63 88.3373 222.63C87.7733 222.63 87.2873 222.786 86.8793 223.098C86.4713 223.398 86.1953 223.788 86.0513 224.268C85.9433 224.496 85.8653 224.76 85.8173 225.06C85.7813 225.348 85.7633 225.816 85.7633 226.464C85.7633 227.088 85.7813 227.544 85.8173 227.832C85.8533 228.108 85.9133 228.366 85.9973 228.606C86.1173 229.11 86.3873 229.518 86.8073 229.83C87.2273 230.142 87.7313 230.298 88.3193 230.298C88.8833 230.298 89.3513 230.142 89.7233 229.83C90.1073 229.518 90.3713 229.11 90.5153 228.606ZM101.715 231.144C100.875 231.144 100.155 230.922 99.555 230.478C98.955 230.034 98.547 229.44 98.331 228.696C98.199 228.216 98.133 227.466 98.133 226.446C98.133 225.426 98.199 224.682 98.331 224.214C98.547 223.47 98.949 222.882 99.537 222.45C100.137 222.006 100.869 221.784 101.733 221.784C102.573 221.784 103.293 222.006 103.893 222.45C104.505 222.894 104.913 223.482 105.117 224.214C105.189 224.49 105.237 224.802 105.261 225.15C105.285 225.486 105.297 225.918 105.297 226.446C105.297 226.998 105.285 227.442 105.261 227.778C105.237 228.114 105.189 228.42 105.117 228.696C104.913 229.44 104.505 230.034 103.893 230.478C103.293 230.922 102.567 231.144 101.715 231.144ZM101.715 230.298C102.351 230.298 102.891 230.124 103.335 229.776C103.791 229.416 104.085 228.948 104.217 228.372C104.301 228.048 104.343 227.412 104.343 226.464C104.343 225.504 104.307 224.868 104.235 224.556C104.103 223.968 103.809 223.5 103.353 223.152C102.909 222.804 102.363 222.63 101.715 222.63C101.067 222.63 100.521 222.804 100.077 223.152C99.633 223.5 99.345 223.968 99.213 224.556C99.129 224.928 99.087 225.564 99.087 226.464C99.087 227.364 99.129 228 99.213 228.372C99.345 228.96 99.633 229.428 100.077 229.776C100.521 230.124 101.067 230.298 101.715 230.298ZM111.384 219.246C110.676 219.246 110.19 219.414 109.926 219.75C109.674 220.086 109.548 220.632 109.548 221.388V221.856C109.548 221.904 109.572 221.928 109.62 221.928H111.726C111.846 221.928 111.906 221.988 111.906 222.108V222.63C111.906 222.75 111.846 222.81 111.726 222.81H109.62C109.572 222.81 109.548 222.834 109.548 222.882V230.82C109.548 230.94 109.488 231 109.368 231H108.774C108.654 231 108.594 230.94 108.594 230.82V222.882C108.594 222.834 108.57 222.81 108.522 222.81H107.334C107.214 222.81 107.154 222.75 107.154 222.63V222.108C107.154 221.988 107.214 221.928 107.334 221.928H108.522C108.57 221.928 108.594 221.904 108.594 221.856V221.352C108.594 220.644 108.672 220.08 108.828 219.66C108.996 219.24 109.272 218.928 109.656 218.724C110.052 218.508 110.604 218.4 111.312 218.4H111.78C111.9 218.4 111.96 218.46 111.96 218.58V219.066C111.96 219.186 111.9 219.246 111.78 219.246H111.384ZM121.245 231.144C120.393 231.144 119.667 230.922 119.067 230.478C118.479 230.034 118.083 229.44 117.879 228.696C117.723 228.12 117.645 227.37 117.645 226.446C117.645 225.558 117.723 224.814 117.879 224.214C118.071 223.482 118.467 222.894 119.067 222.45C119.667 222.006 120.393 221.784 121.245 221.784C122.097 221.784 122.829 222 123.441 222.432C124.065 222.864 124.461 223.404 124.629 224.052C124.677 224.22 124.713 224.388 124.737 224.556V224.592C124.737 224.676 124.683 224.73 124.575 224.754L123.999 224.826H123.963C123.879 224.826 123.825 224.772 123.801 224.664L123.747 224.412C123.639 223.908 123.357 223.488 122.901 223.152C122.445 222.804 121.893 222.63 121.245 222.63C120.585 222.63 120.033 222.804 119.589 223.152C119.157 223.5 118.881 223.962 118.761 224.538C118.653 224.994 118.599 225.636 118.599 226.464C118.599 227.304 118.653 227.94 118.761 228.372C118.881 228.96 119.157 229.428 119.589 229.776C120.033 230.124 120.585 230.298 121.245 230.298C121.893 230.298 122.445 230.13 122.901 229.794C123.369 229.446 123.651 229.014 123.747 228.498L123.765 228.408C123.789 228.276 123.861 228.222 123.981 228.246L124.539 228.336C124.659 228.36 124.713 228.426 124.701 228.534L124.629 228.858C124.461 229.53 124.065 230.082 123.441 230.514C122.829 230.934 122.097 231.144 121.245 231.144ZM127.412 231C127.292 231 127.232 230.94 127.232 230.82V218.58C127.232 218.46 127.292 218.4 127.412 218.4H128.006C128.126 218.4 128.186 218.46 128.186 218.58V230.82C128.186 230.94 128.126 231 128.006 231H127.412ZM136.855 222.108C136.855 221.988 136.915 221.928 137.035 221.928H137.611C137.731 221.928 137.791 221.988 137.791 222.108V230.82C137.791 230.94 137.731 231 137.611 231H137.035C136.915 231 136.855 230.94 136.855 230.82V229.938C136.855 229.902 136.843 229.884 136.819 229.884C136.795 229.872 136.777 229.884 136.765 229.92C136.513 230.316 136.171 230.616 135.739 230.82C135.319 231.024 134.821 231.126 134.245 231.126C133.357 231.126 132.619 230.862 132.031 230.334C131.443 229.806 131.149 229.08 131.149 228.156V222.108C131.149 221.988 131.209 221.928 131.329 221.928H131.905C132.025 221.928 132.085 221.988 132.085 222.108V227.904C132.085 228.624 132.295 229.2 132.715 229.632C133.147 230.064 133.717 230.28 134.425 230.28C135.157 230.28 135.745 230.064 136.189 229.632C136.633 229.188 136.855 228.612 136.855 227.904V222.108ZM144.705 222.558C144.705 222.678 144.645 222.738 144.525 222.738H142.419C142.371 222.738 142.347 222.762 142.347 222.81V228.498C142.347 229.11 142.485 229.542 142.761 229.794C143.037 230.034 143.481 230.154 144.093 230.154H144.507C144.627 230.154 144.687 230.214 144.687 230.334V230.82C144.687 230.94 144.627 231 144.507 231L143.967 231.018C143.127 231.018 142.491 230.856 142.059 230.532C141.639 230.208 141.423 229.614 141.411 228.75V222.81C141.411 222.762 141.387 222.738 141.339 222.738H140.259C140.139 222.738 140.079 222.678 140.079 222.558V222.108C140.079 221.988 140.139 221.928 140.259 221.928H141.339C141.387 221.928 141.411 221.904 141.411 221.856V219.804C141.411 219.684 141.471 219.624 141.591 219.624H142.167C142.287 219.624 142.347 219.684 142.347 219.804V221.856C142.347 221.904 142.371 221.928 142.419 221.928H144.525C144.645 221.928 144.705 221.988 144.705 222.108V222.558ZM151.174 222.558C151.174 222.678 151.114 222.738 150.994 222.738H148.888C148.84 222.738 148.816 222.762 148.816 222.81V228.498C148.816 229.11 148.954 229.542 149.23 229.794C149.506 230.034 149.95 230.154 150.562 230.154H150.976C151.096 230.154 151.156 230.214 151.156 230.334V230.82C151.156 230.94 151.096 231 150.976 231L150.436 231.018C149.596 231.018 148.96 230.856 148.528 230.532C148.108 230.208 147.892 229.614 147.88 228.75V222.81C147.88 222.762 147.856 222.738 147.808 222.738H146.728C146.608 222.738 146.548 222.678 146.548 222.558V222.108C146.548 221.988 146.608 221.928 146.728 221.928H147.808C147.856 221.928 147.88 221.904 147.88 221.856V219.804C147.88 219.684 147.94 219.624 148.06 219.624H148.636C148.756 219.624 148.816 219.684 148.816 219.804V221.856C148.816 221.904 148.84 221.928 148.888 221.928H150.994C151.114 221.928 151.174 221.988 151.174 222.108V222.558ZM156.948 230.298C157.512 230.298 157.992 230.172 158.388 229.92C158.796 229.656 159.114 229.296 159.342 228.84C159.402 228.732 159.48 228.702 159.576 228.75L160.044 228.984C160.152 229.044 160.182 229.122 160.134 229.218C159.87 229.806 159.45 230.274 158.874 230.622C158.31 230.97 157.644 231.144 156.876 231.144C156.036 231.144 155.322 230.94 154.734 230.532C154.146 230.124 153.744 229.566 153.528 228.858C153.432 228.558 153.366 228.222 153.33 227.85C153.294 227.478 153.276 227.01 153.276 226.446C153.276 225.858 153.282 225.414 153.294 225.114C153.318 224.814 153.36 224.538 153.42 224.286C153.612 223.53 154.002 222.924 154.59 222.468C155.19 222.012 155.922 221.784 156.786 221.784C157.77 221.784 158.556 222.042 159.144 222.558C159.732 223.062 160.098 223.764 160.242 224.664C160.278 224.892 160.302 225.162 160.314 225.474C160.326 225.774 160.332 226.152 160.332 226.608C160.332 226.728 160.272 226.788 160.152 226.788H154.284C154.236 226.788 154.212 226.812 154.212 226.86C154.212 227.628 154.242 228.138 154.302 228.39C154.434 228.978 154.728 229.446 155.184 229.794C155.652 230.13 156.24 230.298 156.948 230.298ZM154.338 224.502C154.278 224.73 154.236 225.198 154.212 225.906C154.212 225.954 154.236 225.978 154.284 225.978H159.306C159.354 225.978 159.378 225.954 159.378 225.906C159.378 225.306 159.348 224.856 159.288 224.556C159.156 223.98 158.868 223.518 158.424 223.17C157.98 222.81 157.434 222.63 156.786 222.63C156.138 222.63 155.598 222.804 155.166 223.152C154.734 223.488 154.458 223.938 154.338 224.502ZM166.529 221.856C166.937 221.856 167.285 221.928 167.573 222.072C167.669 222.108 167.705 222.186 167.681 222.306L167.519 222.882C167.483 223.002 167.405 223.038 167.285 222.99C167.045 222.894 166.745 222.852 166.385 222.864C165.713 222.876 165.155 223.134 164.711 223.638C164.279 224.13 164.063 224.736 164.063 225.456V230.82C164.063 230.94 164.003 231 163.883 231H163.289C163.169 231 163.109 230.94 163.109 230.82V222.108C163.109 221.988 163.169 221.928 163.289 221.928H163.883C164.003 221.928 164.063 221.988 164.063 222.108V223.332C164.063 223.368 164.069 223.392 164.081 223.404C164.105 223.404 164.123 223.386 164.135 223.35C164.387 222.882 164.711 222.516 165.107 222.252C165.515 221.988 165.989 221.856 166.529 221.856ZM174.981 231C174.885 231 174.819 230.952 174.783 230.856L172.227 222.126L172.209 222.072C172.209 221.976 172.269 221.928 172.389 221.928H173.001C173.109 221.928 173.175 221.982 173.199 222.09L175.269 229.596C175.281 229.62 175.293 229.632 175.305 229.632C175.329 229.632 175.347 229.62 175.359 229.596L177.447 222.072C177.471 221.976 177.537 221.928 177.645 221.928H178.203C178.299 221.928 178.365 221.976 178.401 222.072L180.525 229.578C180.537 229.602 180.549 229.614 180.561 229.614C180.585 229.614 180.603 229.602 180.615 229.578L182.721 222.09C182.745 221.982 182.811 221.928 182.919 221.928L183.513 221.946C183.573 221.946 183.621 221.964 183.657 222C183.693 222.036 183.699 222.084 183.675 222.144L181.101 230.856C181.065 230.952 180.999 231 180.903 231H180.291C180.195 231 180.129 230.952 180.093 230.856L177.969 223.656C177.957 223.632 177.939 223.62 177.915 223.62C177.903 223.62 177.891 223.632 177.879 223.656L175.809 230.856C175.773 230.952 175.707 231 175.611 231H174.981ZM189.028 230.298C189.592 230.298 190.072 230.172 190.468 229.92C190.876 229.656 191.194 229.296 191.422 228.84C191.482 228.732 191.56 228.702 191.656 228.75L192.124 228.984C192.232 229.044 192.262 229.122 192.214 229.218C191.95 229.806 191.53 230.274 190.954 230.622C190.39 230.97 189.724 231.144 188.956 231.144C188.116 231.144 187.402 230.94 186.814 230.532C186.226 230.124 185.824 229.566 185.608 228.858C185.512 228.558 185.446 228.222 185.41 227.85C185.374 227.478 185.356 227.01 185.356 226.446C185.356 225.858 185.362 225.414 185.374 225.114C185.398 224.814 185.44 224.538 185.5 224.286C185.692 223.53 186.082 222.924 186.67 222.468C187.27 222.012 188.002 221.784 188.866 221.784C189.85 221.784 190.636 222.042 191.224 222.558C191.812 223.062 192.178 223.764 192.322 224.664C192.358 224.892 192.382 225.162 192.394 225.474C192.406 225.774 192.412 226.152 192.412 226.608C192.412 226.728 192.352 226.788 192.232 226.788H186.364C186.316 226.788 186.292 226.812 186.292 226.86C186.292 227.628 186.322 228.138 186.382 228.39C186.514 228.978 186.808 229.446 187.264 229.794C187.732 230.13 188.32 230.298 189.028 230.298ZM186.418 224.502C186.358 224.73 186.316 225.198 186.292 225.906C186.292 225.954 186.316 225.978 186.364 225.978H191.386C191.434 225.978 191.458 225.954 191.458 225.906C191.458 225.306 191.428 224.856 191.368 224.556C191.236 223.98 190.948 223.518 190.504 223.17C190.06 222.81 189.514 222.63 188.866 222.63C188.218 222.63 187.678 222.804 187.246 223.152C186.814 223.488 186.538 223.938 186.418 224.502ZM204.445 218.58C204.445 218.46 204.505 218.4 204.625 218.4H205.219C205.339 218.4 205.399 218.46 205.399 218.58V230.82C205.399 230.94 205.339 231 205.219 231H204.625C204.505 231 204.445 230.94 204.445 230.82V229.938C204.445 229.902 204.433 229.884 204.409 229.884C204.397 229.872 204.379 229.878 204.355 229.902C204.103 230.298 203.767 230.604 203.347 230.82C202.927 231.036 202.453 231.144 201.925 231.144C201.109 231.144 200.419 230.928 199.855 230.496C199.291 230.064 198.907 229.482 198.703 228.75C198.619 228.474 198.565 228.168 198.541 227.832C198.517 227.484 198.505 227.034 198.505 226.482C198.505 225.942 198.517 225.498 198.541 225.15C198.565 224.802 198.613 224.49 198.685 224.214C198.865 223.47 199.237 222.882 199.801 222.45C200.377 222.006 201.085 221.784 201.925 221.784C202.453 221.784 202.927 221.892 203.347 222.108C203.767 222.324 204.103 222.63 204.355 223.026C204.367 223.062 204.385 223.08 204.409 223.08C204.433 223.068 204.445 223.044 204.445 223.008V218.58ZM204.211 228.606C204.295 228.378 204.349 228.12 204.373 227.832C204.409 227.544 204.427 227.094 204.427 226.482C204.427 225.846 204.409 225.384 204.373 225.096C204.337 224.796 204.277 224.526 204.193 224.286C204.061 223.794 203.803 223.398 203.419 223.098C203.047 222.786 202.585 222.63 202.033 222.63C201.469 222.63 200.983 222.786 200.575 223.098C200.167 223.398 199.891 223.788 199.747 224.268C199.639 224.496 199.561 224.76 199.513 225.06C199.477 225.348 199.459 225.816 199.459 226.464C199.459 227.088 199.477 227.544 199.513 227.832C199.549 228.108 199.609 228.366 199.693 228.606C199.813 229.11 200.083 229.518 200.503 229.83C200.923 230.142 201.427 230.298 202.015 230.298C202.579 230.298 203.047 230.142 203.419 229.83C203.803 229.518 204.067 229.11 204.211 228.606ZM211.807 231.144C210.967 231.144 210.247 230.922 209.647 230.478C209.047 230.034 208.639 229.44 208.423 228.696C208.291 228.216 208.225 227.466 208.225 226.446C208.225 225.426 208.291 224.682 208.423 224.214C208.639 223.47 209.041 222.882 209.629 222.45C210.229 222.006 210.961 221.784 211.825 221.784C212.665 221.784 213.385 222.006 213.985 222.45C214.597 222.894 215.005 223.482 215.209 224.214C215.281 224.49 215.329 224.802 215.353 225.15C215.377 225.486 215.389 225.918 215.389 226.446C215.389 226.998 215.377 227.442 215.353 227.778C215.329 228.114 215.281 228.42 215.209 228.696C215.005 229.44 214.597 230.034 213.985 230.478C213.385 230.922 212.659 231.144 211.807 231.144ZM211.807 230.298C212.443 230.298 212.983 230.124 213.427 229.776C213.883 229.416 214.177 228.948 214.309 228.372C214.393 228.048 214.435 227.412 214.435 226.464C214.435 225.504 214.399 224.868 214.327 224.556C214.195 223.968 213.901 223.5 213.445 223.152C213.001 222.804 212.455 222.63 211.807 222.63C211.159 222.63 210.613 222.804 210.169 223.152C209.725 223.5 209.437 223.968 209.305 224.556C209.221 224.928 209.179 225.564 209.179 226.464C209.179 227.364 209.221 228 209.305 228.372C209.437 228.96 209.725 229.428 210.169 229.776C210.613 230.124 211.159 230.298 211.807 230.298ZM225.401 221.802C226.325 221.802 227.069 222.084 227.633 222.648C228.209 223.212 228.497 223.956 228.497 224.88V230.82C228.497 230.94 228.437 231 228.317 231H227.723C227.603 231 227.543 230.94 227.543 230.82V225.06C227.543 224.352 227.327 223.776 226.895 223.332C226.463 222.876 225.899 222.648 225.203 222.648C224.483 222.648 223.901 222.87 223.457 223.314C223.013 223.746 222.791 224.316 222.791 225.024V230.82C222.791 230.94 222.731 231 222.611 231H222.017C221.897 231 221.837 230.94 221.837 230.82V222.108C221.837 221.988 221.897 221.928 222.017 221.928H222.611C222.731 221.928 222.791 221.988 222.791 222.108V222.99C222.791 223.026 222.797 223.05 222.809 223.062C222.833 223.062 222.851 223.05 222.863 223.026C223.127 222.63 223.475 222.33 223.907 222.126C224.339 221.91 224.837 221.802 225.401 221.802ZM234.641 231.144C233.801 231.144 233.081 230.922 232.481 230.478C231.881 230.034 231.473 229.44 231.257 228.696C231.125 228.216 231.059 227.466 231.059 226.446C231.059 225.426 231.125 224.682 231.257 224.214C231.473 223.47 231.875 222.882 232.463 222.45C233.063 222.006 233.795 221.784 234.659 221.784C235.499 221.784 236.219 222.006 236.819 222.45C237.431 222.894 237.839 223.482 238.043 224.214C238.115 224.49 238.163 224.802 238.187 225.15C238.211 225.486 238.223 225.918 238.223 226.446C238.223 226.998 238.211 227.442 238.187 227.778C238.163 228.114 238.115 228.42 238.043 228.696C237.839 229.44 237.431 230.034 236.819 230.478C236.219 230.922 235.493 231.144 234.641 231.144ZM234.641 230.298C235.277 230.298 235.817 230.124 236.261 229.776C236.717 229.416 237.011 228.948 237.143 228.372C237.227 228.048 237.269 227.412 237.269 226.464C237.269 225.504 237.233 224.868 237.161 224.556C237.029 223.968 236.735 223.5 236.279 223.152C235.835 222.804 235.289 222.63 234.641 222.63C233.993 222.63 233.447 222.804 233.003 223.152C232.559 223.5 232.271 223.968 232.139 224.556C232.055 224.928 232.013 225.564 232.013 226.464C232.013 227.364 232.055 228 232.139 228.372C232.271 228.96 232.559 229.428 233.003 229.776C233.447 230.124 233.993 230.298 234.641 230.298ZM244.778 222.558C244.778 222.678 244.718 222.738 244.598 222.738H242.492C242.444 222.738 242.42 222.762 242.42 222.81V228.498C242.42 229.11 242.558 229.542 242.834 229.794C243.11 230.034 243.554 230.154 244.166 230.154H244.58C244.7 230.154 244.76 230.214 244.76 230.334V230.82C244.76 230.94 244.7 231 244.58 231L244.04 231.018C243.2 231.018 242.564 230.856 242.132 230.532C241.712 230.208 241.496 229.614 241.484 228.75V222.81C241.484 222.762 241.46 222.738 241.412 222.738H240.332C240.212 222.738 240.152 222.678 240.152 222.558V222.108C240.152 221.988 240.212 221.928 240.332 221.928H241.412C241.46 221.928 241.484 221.904 241.484 221.856V219.804C241.484 219.684 241.544 219.624 241.664 219.624H242.24C242.36 219.624 242.42 219.684 242.42 219.804V221.856C242.42 221.904 242.444 221.928 242.492 221.928H244.598C244.718 221.928 244.778 221.988 244.778 222.108V222.558ZM252.87 231C252.774 231 252.708 230.952 252.672 230.856L250.116 222.126L250.098 222.072C250.098 221.976 250.158 221.928 250.278 221.928H250.89C250.998 221.928 251.064 221.982 251.088 222.09L253.158 229.596C253.17 229.62 253.182 229.632 253.194 229.632C253.218 229.632 253.236 229.62 253.248 229.596L255.336 222.072C255.36 221.976 255.426 221.928 255.534 221.928H256.092C256.188 221.928 256.254 221.976 256.29 222.072L258.414 229.578C258.426 229.602 258.438 229.614 258.45 229.614C258.474 229.614 258.492 229.602 258.504 229.578L260.61 222.09C260.634 221.982 260.7 221.928 260.808 221.928L261.402 221.946C261.462 221.946 261.51 221.964 261.546 222C261.582 222.036 261.588 222.084 261.564 222.144L258.99 230.856C258.954 230.952 258.888 231 258.792 231H258.18C258.084 231 258.018 230.952 257.982 230.856L255.858 223.656C255.846 223.632 255.828 223.62 255.804 223.62C255.792 223.62 255.78 223.632 255.768 223.656L253.698 230.856C253.662 230.952 253.596 231 253.5 231H252.87ZM266.644 221.784C267.7 221.784 268.504 222.06 269.056 222.612C269.608 223.152 269.884 223.884 269.884 224.808V230.82C269.884 230.94 269.824 231 269.704 231H269.11C268.99 231 268.93 230.94 268.93 230.82V229.974C268.93 229.95 268.918 229.932 268.894 229.92C268.882 229.908 268.864 229.914 268.84 229.938C268.528 230.334 268.12 230.634 267.616 230.838C267.124 231.042 266.572 231.144 265.96 231.144C265.132 231.144 264.43 230.934 263.854 230.514C263.278 230.094 262.99 229.452 262.99 228.588C262.99 227.7 263.32 226.998 263.98 226.482C264.64 225.966 265.546 225.708 266.698 225.708H268.858C268.906 225.708 268.93 225.684 268.93 225.636V224.826C268.93 224.154 268.738 223.62 268.354 223.224C267.982 222.828 267.406 222.63 266.626 222.63C266.014 222.63 265.51 222.756 265.114 223.008C264.718 223.26 264.472 223.596 264.376 224.016C264.34 224.136 264.268 224.19 264.16 224.178L263.53 224.088C263.398 224.064 263.344 224.016 263.368 223.944C263.476 223.296 263.824 222.774 264.412 222.378C265.012 221.982 265.756 221.784 266.644 221.784ZM266.122 230.316C266.878 230.316 267.532 230.13 268.084 229.758C268.648 229.386 268.93 228.87 268.93 228.21V226.572C268.93 226.524 268.906 226.5 268.858 226.5H266.788C265.936 226.5 265.246 226.68 264.718 227.04C264.202 227.4 263.944 227.898 263.944 228.534C263.944 229.122 264.148 229.566 264.556 229.866C264.964 230.166 265.486 230.316 266.122 230.316ZM276.308 221.802C277.232 221.802 277.976 222.084 278.54 222.648C279.116 223.212 279.404 223.956 279.404 224.88V230.82C279.404 230.94 279.344 231 279.224 231H278.63C278.51 231 278.45 230.94 278.45 230.82V225.06C278.45 224.352 278.234 223.776 277.802 223.332C277.37 222.876 276.806 222.648 276.11 222.648C275.39 222.648 274.808 222.87 274.364 223.314C273.92 223.746 273.698 224.316 273.698 225.024V230.82C273.698 230.94 273.638 231 273.518 231H272.924C272.804 231 272.744 230.94 272.744 230.82V222.108C272.744 221.988 272.804 221.928 272.924 221.928H273.518C273.638 221.928 273.698 221.988 273.698 222.108V222.99C273.698 223.026 273.704 223.05 273.716 223.062C273.74 223.062 273.758 223.05 273.77 223.026C274.034 222.63 274.382 222.33 274.814 222.126C275.246 221.91 275.744 221.802 276.308 221.802ZM286.192 222.558C286.192 222.678 286.132 222.738 286.012 222.738H283.906C283.858 222.738 283.834 222.762 283.834 222.81V228.498C283.834 229.11 283.972 229.542 284.248 229.794C284.524 230.034 284.968 230.154 285.58 230.154H285.994C286.114 230.154 286.174 230.214 286.174 230.334V230.82C286.174 230.94 286.114 231 285.994 231L285.454 231.018C284.614 231.018 283.978 230.856 283.546 230.532C283.126 230.208 282.91 229.614 282.898 228.75V222.81C282.898 222.762 282.874 222.738 282.826 222.738H281.746C281.626 222.738 281.566 222.678 281.566 222.558V222.108C281.566 221.988 281.626 221.928 281.746 221.928H282.826C282.874 221.928 282.898 221.904 282.898 221.856V219.804C282.898 219.684 282.958 219.624 283.078 219.624H283.654C283.774 219.624 283.834 219.684 283.834 219.804V221.856C283.834 221.904 283.858 221.928 283.906 221.928H286.012C286.132 221.928 286.192 221.988 286.192 222.108V222.558ZM296.264 222.558C296.264 222.678 296.204 222.738 296.084 222.738H293.978C293.93 222.738 293.906 222.762 293.906 222.81V228.498C293.906 229.11 294.044 229.542 294.32 229.794C294.596 230.034 295.04 230.154 295.652 230.154H296.066C296.186 230.154 296.246 230.214 296.246 230.334V230.82C296.246 230.94 296.186 231 296.066 231L295.526 231.018C294.686 231.018 294.05 230.856 293.618 230.532C293.198 230.208 292.982 229.614 292.97 228.75V222.81C292.97 222.762 292.946 222.738 292.898 222.738H291.818C291.698 222.738 291.638 222.678 291.638 222.558V222.108C291.638 221.988 291.698 221.928 291.818 221.928H292.898C292.946 221.928 292.97 221.904 292.97 221.856V219.804C292.97 219.684 293.03 219.624 293.15 219.624H293.726C293.846 219.624 293.906 219.684 293.906 219.804V221.856C293.906 221.904 293.93 221.928 293.978 221.928H296.084C296.204 221.928 296.264 221.988 296.264 222.108V222.558ZM301.93 231.144C301.09 231.144 300.37 230.922 299.77 230.478C299.17 230.034 298.762 229.44 298.546 228.696C298.414 228.216 298.348 227.466 298.348 226.446C298.348 225.426 298.414 224.682 298.546 224.214C298.762 223.47 299.164 222.882 299.752 222.45C300.352 222.006 301.084 221.784 301.948 221.784C302.788 221.784 303.508 222.006 304.108 222.45C304.72 222.894 305.128 223.482 305.332 224.214C305.404 224.49 305.452 224.802 305.476 225.15C305.5 225.486 305.512 225.918 305.512 226.446C305.512 226.998 305.5 227.442 305.476 227.778C305.452 228.114 305.404 228.42 305.332 228.696C305.128 229.44 304.72 230.034 304.108 230.478C303.508 230.922 302.782 231.144 301.93 231.144ZM301.93 230.298C302.566 230.298 303.106 230.124 303.55 229.776C304.006 229.416 304.3 228.948 304.432 228.372C304.516 228.048 304.558 227.412 304.558 226.464C304.558 225.504 304.522 224.868 304.45 224.556C304.318 223.968 304.024 223.5 303.568 223.152C303.124 222.804 302.578 222.63 301.93 222.63C301.282 222.63 300.736 222.804 300.292 223.152C299.848 223.5 299.56 223.968 299.428 224.556C299.344 224.928 299.302 225.564 299.302 226.464C299.302 227.364 299.344 228 299.428 228.372C299.56 228.96 299.848 229.428 300.292 229.776C300.736 230.124 301.282 230.298 301.93 230.298ZM314.967 221.784C316.023 221.784 316.827 222.06 317.379 222.612C317.931 223.152 318.207 223.884 318.207 224.808V230.82C318.207 230.94 318.147 231 318.027 231H317.433C317.313 231 317.253 230.94 317.253 230.82V229.974C317.253 229.95 317.241 229.932 317.217 229.92C317.205 229.908 317.187 229.914 317.163 229.938C316.851 230.334 316.443 230.634 315.939 230.838C315.447 231.042 314.895 231.144 314.283 231.144C313.455 231.144 312.753 230.934 312.177 230.514C311.601 230.094 311.313 229.452 311.313 228.588C311.313 227.7 311.643 226.998 312.303 226.482C312.963 225.966 313.869 225.708 315.021 225.708H317.181C317.229 225.708 317.253 225.684 317.253 225.636V224.826C317.253 224.154 317.061 223.62 316.677 223.224C316.305 222.828 315.729 222.63 314.949 222.63C314.337 222.63 313.833 222.756 313.437 223.008C313.041 223.26 312.795 223.596 312.699 224.016C312.663 224.136 312.591 224.19 312.483 224.178L311.853 224.088C311.721 224.064 311.667 224.016 311.691 223.944C311.799 223.296 312.147 222.774 312.735 222.378C313.335 221.982 314.079 221.784 314.967 221.784ZM314.445 230.316C315.201 230.316 315.855 230.13 316.407 229.758C316.971 229.386 317.253 228.87 317.253 228.21V226.572C317.253 226.524 317.229 226.5 317.181 226.5H315.111C314.259 226.5 313.569 226.68 313.041 227.04C312.525 227.4 312.267 227.898 312.267 228.534C312.267 229.122 312.471 229.566 312.879 229.866C313.287 230.166 313.809 230.316 314.445 230.316ZM326.718 218.58C326.718 218.46 326.778 218.4 326.898 218.4H327.492C327.612 218.4 327.672 218.46 327.672 218.58V230.82C327.672 230.94 327.612 231 327.492 231H326.898C326.778 231 326.718 230.94 326.718 230.82V229.938C326.718 229.902 326.706 229.884 326.682 229.884C326.67 229.872 326.652 229.878 326.628 229.902C326.376 230.298 326.04 230.604 325.62 230.82C325.2 231.036 324.726 231.144 324.198 231.144C323.382 231.144 322.692 230.928 322.128 230.496C321.564 230.064 321.18 229.482 320.976 228.75C320.892 228.474 320.838 228.168 320.814 227.832C320.79 227.484 320.778 227.034 320.778 226.482C320.778 225.942 320.79 225.498 320.814 225.15C320.838 224.802 320.886 224.49 320.958 224.214C321.138 223.47 321.51 222.882 322.074 222.45C322.65 222.006 323.358 221.784 324.198 221.784C324.726 221.784 325.2 221.892 325.62 222.108C326.04 222.324 326.376 222.63 326.628 223.026C326.64 223.062 326.658 223.08 326.682 223.08C326.706 223.068 326.718 223.044 326.718 223.008V218.58ZM326.484 228.606C326.568 228.378 326.622 228.12 326.646 227.832C326.682 227.544 326.7 227.094 326.7 226.482C326.7 225.846 326.682 225.384 326.646 225.096C326.61 224.796 326.55 224.526 326.466 224.286C326.334 223.794 326.076 223.398 325.692 223.098C325.32 222.786 324.858 222.63 324.306 222.63C323.742 222.63 323.256 222.786 322.848 223.098C322.44 223.398 322.164 223.788 322.02 224.268C321.912 224.496 321.834 224.76 321.786 225.06C321.75 225.348 321.732 225.816 321.732 226.464C321.732 227.088 321.75 227.544 321.786 227.832C321.822 228.108 321.882 228.366 321.966 228.606C322.086 229.11 322.356 229.518 322.776 229.83C323.196 230.142 323.7 230.298 324.288 230.298C324.852 230.298 325.32 230.142 325.692 229.83C326.076 229.518 326.34 229.11 326.484 228.606ZM336.456 218.58C336.456 218.46 336.516 218.4 336.636 218.4H337.23C337.35 218.4 337.41 218.46 337.41 218.58V230.82C337.41 230.94 337.35 231 337.23 231H336.636C336.516 231 336.456 230.94 336.456 230.82V229.938C336.456 229.902 336.444 229.884 336.42 229.884C336.408 229.872 336.39 229.878 336.366 229.902C336.114 230.298 335.778 230.604 335.358 230.82C334.938 231.036 334.464 231.144 333.936 231.144C333.12 231.144 332.43 230.928 331.866 230.496C331.302 230.064 330.918 229.482 330.714 228.75C330.63 228.474 330.576 228.168 330.552 227.832C330.528 227.484 330.516 227.034 330.516 226.482C330.516 225.942 330.528 225.498 330.552 225.15C330.576 224.802 330.624 224.49 330.696 224.214C330.876 223.47 331.248 222.882 331.812 222.45C332.388 222.006 333.096 221.784 333.936 221.784C334.464 221.784 334.938 221.892 335.358 222.108C335.778 222.324 336.114 222.63 336.366 223.026C336.378 223.062 336.396 223.08 336.42 223.08C336.444 223.068 336.456 223.044 336.456 223.008V218.58ZM336.222 228.606C336.306 228.378 336.36 228.12 336.384 227.832C336.42 227.544 336.438 227.094 336.438 226.482C336.438 225.846 336.42 225.384 336.384 225.096C336.348 224.796 336.288 224.526 336.204 224.286C336.072 223.794 335.814 223.398 335.43 223.098C335.058 222.786 334.596 222.63 334.044 222.63C333.48 222.63 332.994 222.786 332.586 223.098C332.178 223.398 331.902 223.788 331.758 224.268C331.65 224.496 331.572 224.76 331.524 225.06C331.488 225.348 331.47 225.816 331.47 226.464C331.47 227.088 331.488 227.544 331.524 227.832C331.56 228.108 331.62 228.366 331.704 228.606C331.824 229.11 332.094 229.518 332.514 229.83C332.934 230.142 333.438 230.298 334.026 230.298C334.59 230.298 335.058 230.142 335.43 229.83C335.814 229.518 336.078 229.11 336.222 228.606ZM353.146 221.802C354.022 221.802 354.724 222.066 355.252 222.594C355.78 223.122 356.044 223.848 356.044 224.772V230.82C356.044 230.94 355.984 231 355.864 231H355.288C355.168 231 355.108 230.94 355.108 230.82V224.952C355.108 224.244 354.898 223.686 354.478 223.278C354.07 222.858 353.536 222.648 352.876 222.648C352.18 222.648 351.616 222.852 351.184 223.26C350.764 223.668 350.554 224.22 350.554 224.916V230.82C350.554 230.94 350.494 231 350.374 231H349.798C349.678 231 349.618 230.94 349.618 230.82V224.952C349.618 224.244 349.414 223.686 349.006 223.278C348.598 222.858 348.064 222.648 347.404 222.648C346.696 222.648 346.132 222.852 345.712 223.26C345.304 223.668 345.1 224.22 345.1 224.916V230.82C345.1 230.94 345.04 231 344.92 231H344.326C344.206 231 344.146 230.94 344.146 230.82V222.108C344.146 221.988 344.206 221.928 344.326 221.928H344.92C345.04 221.928 345.1 221.988 345.1 222.108V222.918C345.1 222.942 345.112 222.96 345.136 222.972C345.16 222.984 345.178 222.978 345.19 222.954C345.442 222.57 345.778 222.282 346.198 222.09C346.63 221.898 347.116 221.802 347.656 221.802C348.28 221.802 348.814 221.94 349.258 222.216C349.714 222.48 350.056 222.858 350.284 223.35C350.308 223.398 350.338 223.404 350.374 223.368C350.626 222.852 350.992 222.462 351.472 222.198C351.952 221.934 352.51 221.802 353.146 221.802ZM362.17 231.144C361.33 231.144 360.61 230.922 360.01 230.478C359.41 230.034 359.002 229.44 358.786 228.696C358.654 228.216 358.588 227.466 358.588 226.446C358.588 225.426 358.654 224.682 358.786 224.214C359.002 223.47 359.404 222.882 359.992 222.45C360.592 222.006 361.324 221.784 362.188 221.784C363.028 221.784 363.748 222.006 364.348 222.45C364.96 222.894 365.368 223.482 365.572 224.214C365.644 224.49 365.692 224.802 365.716 225.15C365.74 225.486 365.752 225.918 365.752 226.446C365.752 226.998 365.74 227.442 365.716 227.778C365.692 228.114 365.644 228.42 365.572 228.696C365.368 229.44 364.96 230.034 364.348 230.478C363.748 230.922 363.022 231.144 362.17 231.144ZM362.17 230.298C362.806 230.298 363.346 230.124 363.79 229.776C364.246 229.416 364.54 228.948 364.672 228.372C364.756 228.048 364.798 227.412 364.798 226.464C364.798 225.504 364.762 224.868 364.69 224.556C364.558 223.968 364.264 223.5 363.808 223.152C363.364 222.804 362.818 222.63 362.17 222.63C361.522 222.63 360.976 222.804 360.532 223.152C360.088 223.5 359.8 223.968 359.668 224.556C359.584 224.928 359.542 225.564 359.542 226.464C359.542 227.364 359.584 228 359.668 228.372C359.8 228.96 360.088 229.428 360.532 229.776C360.976 230.124 361.522 230.298 362.17 230.298ZM372.017 221.856C372.425 221.856 372.773 221.928 373.061 222.072C373.157 222.108 373.193 222.186 373.169 222.306L373.007 222.882C372.971 223.002 372.893 223.038 372.773 222.99C372.533 222.894 372.233 222.852 371.873 222.864C371.201 222.876 370.643 223.134 370.199 223.638C369.767 224.13 369.551 224.736 369.551 225.456V230.82C369.551 230.94 369.491 231 369.371 231H368.777C368.657 231 368.597 230.94 368.597 230.82V222.108C368.597 221.988 368.657 221.928 368.777 221.928H369.371C369.491 221.928 369.551 221.988 369.551 222.108V223.332C369.551 223.368 369.557 223.392 369.569 223.404C369.593 223.404 369.611 223.386 369.623 223.35C369.875 222.882 370.199 222.516 370.595 222.252C371.003 221.988 371.477 221.856 372.017 221.856ZM378.397 230.298C378.961 230.298 379.441 230.172 379.837 229.92C380.245 229.656 380.563 229.296 380.791 228.84C380.851 228.732 380.929 228.702 381.025 228.75L381.493 228.984C381.601 229.044 381.631 229.122 381.583 229.218C381.319 229.806 380.899 230.274 380.323 230.622C379.759 230.97 379.093 231.144 378.325 231.144C377.485 231.144 376.771 230.94 376.183 230.532C375.595 230.124 375.193 229.566 374.977 228.858C374.881 228.558 374.815 228.222 374.779 227.85C374.743 227.478 374.725 227.01 374.725 226.446C374.725 225.858 374.731 225.414 374.743 225.114C374.767 224.814 374.809 224.538 374.869 224.286C375.061 223.53 375.451 222.924 376.039 222.468C376.639 222.012 377.371 221.784 378.235 221.784C379.219 221.784 380.005 222.042 380.593 222.558C381.181 223.062 381.547 223.764 381.691 224.664C381.727 224.892 381.751 225.162 381.763 225.474C381.775 225.774 381.781 226.152 381.781 226.608C381.781 226.728 381.721 226.788 381.601 226.788H375.733C375.685 226.788 375.661 226.812 375.661 226.86C375.661 227.628 375.691 228.138 375.751 228.39C375.883 228.978 376.177 229.446 376.633 229.794C377.101 230.13 377.689 230.298 378.397 230.298ZM375.787 224.502C375.727 224.73 375.685 225.198 375.661 225.906C375.661 225.954 375.685 225.978 375.733 225.978H380.755C380.803 225.978 380.827 225.954 380.827 225.906C380.827 225.306 380.797 224.856 380.737 224.556C380.605 223.98 380.317 223.518 379.873 223.17C379.429 222.81 378.883 222.63 378.235 222.63C377.587 222.63 377.047 222.804 376.615 223.152C376.183 223.488 375.907 223.938 375.787 224.502ZM385.143 230.928C384.879 230.928 384.663 230.844 384.495 230.676C384.327 230.508 384.243 230.292 384.243 230.028C384.243 229.764 384.327 229.548 384.495 229.38C384.663 229.212 384.879 229.128 385.143 229.128C385.407 229.128 385.623 229.212 385.791 229.38C385.959 229.548 386.043 229.764 386.043 230.028C386.043 230.292 385.959 230.508 385.791 230.676C385.623 230.844 385.407 230.928 385.143 230.928Z" fill="#363636"/>
<rect x="1" width="50" height="50" fill="#F52D01"/>
<path d="M8.68 111C8.41333 111 8.24 110.867 8.16 110.6L1.88 83.52V83.36C1.88 83.12 2.02667 83 2.32 83H7.24C7.56 83 7.73333 83.1467 7.76 83.44L10.8 98.8C10.8267 98.88 10.8667 98.92 10.92 98.92C10.9733 98.92 11.0133 98.88 11.04 98.8L13.96 83.44C13.9867 83.1467 14.16 83 14.48 83H18.92C19.2133 83 19.3867 83.1467 19.44 83.44L22.64 98.8C22.6667 98.88 22.7067 98.92 22.76 98.92C22.8133 98.92 22.8533 98.88 22.88 98.8L25.76 83.44C25.7867 83.1467 25.96 83 26.28 83H31C31.3467 83 31.48 83.1733 31.4 83.52L25.56 110.56C25.5067 110.853 25.3333 111 25.04 111H20.52C20.2267 111 20.0533 110.853 20 110.56L16.76 94.48C16.7333 94.4 16.6933 94.36 16.64 94.36C16.5867 94.36 16.5467 94.4 16.52 94.48L13.6 110.56C13.5733 110.853 13.4 111 13.08 111H8.68ZM51.3709 87.36C51.3709 87.4933 51.3176 87.6133 51.2109 87.72C51.1309 87.8 51.0243 87.84 50.8909 87.84H40.1709C40.0376 87.84 39.9709 87.9067 39.9709 88.04V94.28C39.9709 94.4133 40.0376 94.48 40.1709 94.48H46.8509C46.9843 94.48 47.0909 94.5333 47.1709 94.64C47.2776 94.72 47.3309 94.8267 47.3309 94.96V98.84C47.3309 98.9733 47.2776 99.0933 47.1709 99.2C47.0909 99.28 46.9843 99.32 46.8509 99.32H40.1709C40.0376 99.32 39.9709 99.3867 39.9709 99.52V105.96C39.9709 106.093 40.0376 106.16 40.1709 106.16H50.8909C51.0243 106.16 51.1309 106.213 51.2109 106.32C51.3176 106.4 51.3709 106.507 51.3709 106.64V110.52C51.3709 110.653 51.3176 110.773 51.2109 110.88C51.1309 110.96 51.0243 111 50.8909 111H34.8109C34.6776 111 34.5576 110.96 34.4509 110.88C34.3709 110.773 34.3309 110.653 34.3309 110.52V83.48C34.3309 83.3467 34.3709 83.24 34.4509 83.16C34.5576 83.0533 34.6776 83 34.8109 83H50.8909C51.0243 83 51.1309 83.0533 51.2109 83.16C51.3176 83.24 51.3709 83.3467 51.3709 83.48V87.36ZM81.0084 103.24C81.0084 105.773 80.1818 107.707 78.5284 109.04C76.9018 110.347 74.7951 111 72.2084 111H63.2484C63.1151 111 62.9951 110.96 62.8884 110.88C62.8084 110.773 62.7684 110.653 62.7684 110.52V83.48C62.7684 83.3467 62.8084 83.24 62.8884 83.16C62.9951 83.0533 63.1151 83 63.2484 83H71.6084C74.4618 83 76.6751 83.64 78.2484 84.92C79.8218 86.1733 80.6084 88.0933 80.6084 90.68C80.6084 93.32 79.5818 95.2267 77.5284 96.4C77.3951 96.48 77.3818 96.56 77.4884 96.64C79.8351 97.9733 81.0084 100.173 81.0084 103.24ZM68.6084 87.84C68.4751 87.84 68.4084 87.9067 68.4084 88.04V94.32C68.4084 94.4533 68.4751 94.52 68.6084 94.52H71.6484C72.7151 94.52 73.5551 94.2267 74.1684 93.64C74.7818 93.0533 75.0884 92.24 75.0884 91.2C75.0884 90.1333 74.7818 89.3067 74.1684 88.72C73.5818 88.1333 72.7418 87.84 71.6484 87.84H68.6084ZM71.9684 106.12C73.0351 106.12 73.8618 105.813 74.4484 105.2C75.0618 104.56 75.3684 103.667 75.3684 102.52C75.3684 101.373 75.0618 100.48 74.4484 99.84C73.8618 99.1733 73.0351 98.84 71.9684 98.84H68.6084C68.4751 98.84 68.4084 98.9067 68.4084 99.04V105.92C68.4084 106.053 68.4751 106.12 68.6084 106.12H71.9684ZM101.566 87.36C101.566 87.4933 101.513 87.6133 101.406 87.72C101.326 87.8 101.22 87.84 101.086 87.84H90.3663C90.2329 87.84 90.1663 87.9067 90.1663 88.04V94.28C90.1663 94.4133 90.2329 94.48 90.3663 94.48H97.0463C97.1796 94.48 97.2863 94.5333 97.3663 94.64C97.4729 94.72 97.5263 94.8267 97.5263 94.96V98.84C97.5263 98.9733 97.4729 99.0933 97.3663 99.2C97.2863 99.28 97.1796 99.32 97.0463 99.32H90.3663C90.2329 99.32 90.1663 99.3867 90.1663 99.52V105.96C90.1663 106.093 90.2329 106.16 90.3663 106.16H101.086C101.22 106.16 101.326 106.213 101.406 106.32C101.513 106.4 101.566 106.507 101.566 106.64V110.52C101.566 110.653 101.513 110.773 101.406 110.88C101.326 110.96 101.22 111 101.086 111H85.0063C84.8729 111 84.7529 110.96 84.6463 110.88C84.5663 110.773 84.5263 110.653 84.5263 110.52V83.48C84.5263 83.3467 84.5663 83.24 84.6463 83.16C84.7529 83.0533 84.8729 83 85.0063 83H101.086C101.22 83 101.326 83.0533 101.406 83.16C101.513 83.24 101.566 83.3467 101.566 83.48V87.36ZM105.436 111C105.303 111 105.183 110.96 105.076 110.88C104.996 110.773 104.956 110.653 104.956 110.52V83.48C104.956 83.3467 104.996 83.24 105.076 83.16C105.183 83.0533 105.303 83 105.436 83H110.116C110.249 83 110.356 83.0533 110.436 83.16C110.543 83.24 110.596 83.3467 110.596 83.48V105.96C110.596 106.093 110.663 106.16 110.796 106.16H121.516C121.649 106.16 121.756 106.213 121.836 106.32C121.943 106.4 121.996 106.507 121.996 106.64V110.52C121.996 110.653 121.943 110.773 121.836 110.88C121.756 110.96 121.649 111 121.516 111H105.436ZM125.397 111C125.264 111 125.144 110.96 125.037 110.88C124.957 110.773 124.917 110.653 124.917 110.52V83.48C124.917 83.3467 124.957 83.24 125.037 83.16C125.144 83.0533 125.264 83 125.397 83H130.077C130.21 83 130.317 83.0533 130.397 83.16C130.504 83.24 130.557 83.3467 130.557 83.48V110.52C130.557 110.653 130.504 110.773 130.397 110.88C130.317 110.96 130.21 111 130.077 111H125.397ZM151.801 87.36C151.801 87.4933 151.747 87.6133 151.641 87.72C151.561 87.8 151.454 87.84 151.321 87.84H140.601C140.467 87.84 140.401 87.9067 140.401 88.04V94.28C140.401 94.4133 140.467 94.48 140.601 94.48H147.281C147.414 94.48 147.521 94.5333 147.601 94.64C147.707 94.72 147.761 94.8267 147.761 94.96V98.84C147.761 98.9733 147.707 99.0933 147.601 99.2C147.521 99.28 147.414 99.32 147.281 99.32H140.601C140.467 99.32 140.401 99.3867 140.401 99.52V105.96C140.401 106.093 140.467 106.16 140.601 106.16H151.321C151.454 106.16 151.561 106.213 151.641 106.32C151.747 106.4 151.801 106.507 151.801 106.64V110.52C151.801 110.653 151.747 110.773 151.641 110.88C151.561 110.96 151.454 111 151.321 111H135.241C135.107 111 134.987 110.96 134.881 110.88C134.801 110.773 134.761 110.653 134.761 110.52V83.48C134.761 83.3467 134.801 83.24 134.881 83.16C134.987 83.0533 135.107 83 135.241 83H151.321C151.454 83 151.561 83.0533 151.641 83.16C151.747 83.24 151.801 83.3467 151.801 83.48V87.36ZM161.708 111C161.414 111 161.228 110.867 161.148 110.6L154.188 83.52V83.36C154.188 83.12 154.334 83 154.628 83H159.708C160.001 83 160.174 83.1467 160.228 83.44L164.268 102.04C164.294 102.147 164.334 102.2 164.388 102.2C164.441 102.2 164.481 102.147 164.508 102.04L168.508 83.44C168.561 83.1467 168.734 83 169.028 83H173.948C174.321 83 174.468 83.1733 174.388 83.52L167.348 110.6C167.268 110.867 167.081 111 166.788 111H161.708ZM194.418 87.36C194.418 87.4933 194.364 87.6133 194.258 87.72C194.178 87.8 194.071 87.84 193.938 87.84H183.218C183.084 87.84 183.018 87.9067 183.018 88.04V94.28C183.018 94.4133 183.084 94.48 183.218 94.48H189.898C190.031 94.48 190.138 94.5333 190.218 94.64C190.324 94.72 190.378 94.8267 190.378 94.96V98.84C190.378 98.9733 190.324 99.0933 190.218 99.2C190.138 99.28 190.031 99.32 189.898 99.32H183.218C183.084 99.32 183.018 99.3867 183.018 99.52V105.96C183.018 106.093 183.084 106.16 183.218 106.16H193.938C194.071 106.16 194.178 106.213 194.258 106.32C194.364 106.4 194.418 106.507 194.418 106.64V110.52C194.418 110.653 194.364 110.773 194.258 110.88C194.178 110.96 194.071 111 193.938 111H177.858C177.724 111 177.604 110.96 177.498 110.88C177.418 110.773 177.378 110.653 177.378 110.52V83.48C177.378 83.3467 177.418 83.24 177.498 83.16C177.604 83.0533 177.724 83 177.858 83H193.938C194.071 83 194.178 83.0533 194.258 83.16C194.364 83.24 194.418 83.3467 194.418 83.48V87.36ZM206.295 111C206.162 111 206.042 110.96 205.935 110.88C205.855 110.773 205.815 110.653 205.815 110.52V83.48C205.815 83.3467 205.855 83.24 205.935 83.16C206.042 83.0533 206.162 83 206.295 83H210.975C211.109 83 211.215 83.0533 211.295 83.16C211.402 83.24 211.455 83.3467 211.455 83.48V110.52C211.455 110.653 211.402 110.773 211.295 110.88C211.215 110.96 211.109 111 210.975 111H206.295ZM229.419 83.48C229.419 83.3467 229.459 83.24 229.539 83.16C229.646 83.0533 229.766 83 229.899 83H234.539C234.672 83 234.779 83.0533 234.859 83.16C234.966 83.24 235.019 83.3467 235.019 83.48V110.52C235.019 110.653 234.966 110.773 234.859 110.88C234.779 110.96 234.672 111 234.539 111H229.659C229.392 111 229.206 110.88 229.099 110.64L221.459 94.36C221.406 94.28 221.352 94.24 221.299 94.24C221.246 94.24 221.219 94.2933 221.219 94.4L221.259 110.52C221.259 110.653 221.206 110.773 221.099 110.88C221.019 110.96 220.912 111 220.779 111H216.139C216.006 111 215.886 110.96 215.779 110.88C215.699 110.773 215.659 110.653 215.659 110.52V83.48C215.659 83.3467 215.699 83.24 215.779 83.16C215.886 83.0533 216.006 83 216.139 83H220.979C221.246 83 221.432 83.12 221.539 83.36L229.179 99.64C229.232 99.72 229.286 99.76 229.339 99.76C229.392 99.76 229.419 99.7067 229.419 99.6V83.48ZM262.061 111C261.767 111 261.581 110.867 261.501 110.6L260.581 106.68C260.554 106.573 260.487 106.52 260.381 106.52H252.901C252.794 106.52 252.727 106.573 252.701 106.68L251.781 110.6C251.701 110.867 251.527 111 251.261 111H246.421C246.074 111 245.941 110.827 246.021 110.48L253.221 83.4C253.301 83.1333 253.487 83 253.781 83H259.581C259.874 83 260.061 83.1333 260.141 83.4L267.341 110.48L267.381 110.64C267.381 110.88 267.234 111 266.941 111H262.061ZM253.781 101.92C253.754 102 253.767 102.067 253.821 102.12C253.874 102.147 253.927 102.16 253.981 102.16H259.261C259.314 102.16 259.367 102.147 259.421 102.12C259.474 102.067 259.487 102 259.461 101.92L256.701 90.32C256.674 90.2133 256.634 90.16 256.581 90.16C256.527 90.16 256.487 90.2133 256.461 90.32L253.781 101.92ZM286.754 111.32C284.914 111.32 283.301 111 281.914 110.36C280.528 109.693 279.448 108.773 278.674 107.6C277.928 106.4 277.554 105.027 277.554 103.48V102.44C277.554 102.307 277.594 102.2 277.674 102.12C277.781 102.013 277.901 101.96 278.034 101.96H282.634C282.768 101.96 282.874 102.013 282.954 102.12C283.061 102.2 283.114 102.307 283.114 102.44V103.2C283.114 104.133 283.461 104.92 284.154 105.56C284.848 106.173 285.781 106.48 286.954 106.48C287.994 106.48 288.781 106.213 289.314 105.68C289.874 105.147 290.154 104.467 290.154 103.64C290.154 103.027 289.981 102.507 289.634 102.08C289.288 101.627 288.794 101.213 288.154 100.84C287.541 100.44 286.581 99.9067 285.274 99.24C283.674 98.44 282.368 97.6933 281.354 97C280.341 96.3067 279.474 95.4133 278.754 94.32C278.034 93.2267 277.674 91.9067 277.674 90.36C277.674 88.8133 278.034 87.4667 278.754 86.32C279.501 85.1467 280.541 84.2533 281.874 83.64C283.208 83 284.728 82.68 286.434 82.68C288.221 82.68 289.808 83.0267 291.194 83.72C292.581 84.3867 293.661 85.3333 294.434 86.56C295.208 87.7867 295.594 89.2 295.594 90.8V91.6C295.594 91.7333 295.541 91.8533 295.434 91.96C295.354 92.04 295.248 92.08 295.114 92.08H290.514C290.381 92.08 290.261 92.04 290.154 91.96C290.074 91.8533 290.034 91.7333 290.034 91.6V90.88C290.034 89.92 289.701 89.12 289.034 88.48C288.368 87.84 287.461 87.52 286.314 87.52C285.354 87.52 284.594 87.7733 284.034 88.28C283.501 88.76 283.234 89.44 283.234 90.32C283.234 90.9333 283.394 91.4667 283.714 91.92C284.034 92.3733 284.528 92.8133 285.194 93.24C285.861 93.64 286.874 94.1733 288.234 94.84L289.074 95.32C290.621 96.1733 291.821 96.92 292.674 97.56C293.554 98.1733 294.288 98.96 294.874 99.92C295.461 100.88 295.754 102.04 295.754 103.4C295.754 105.827 294.928 107.76 293.274 109.2C291.648 110.613 289.474 111.32 286.754 111.32ZM316.262 83C316.396 83 316.502 83.0533 316.582 83.16C316.689 83.24 316.742 83.3467 316.742 83.48V87.4C316.742 87.5333 316.689 87.6533 316.582 87.76C316.502 87.84 316.396 87.88 316.262 87.88H310.182C310.049 87.88 309.982 87.9467 309.982 88.08V110.52C309.982 110.653 309.929 110.773 309.822 110.88C309.742 110.96 309.636 111 309.502 111H304.822C304.689 111 304.569 110.96 304.462 110.88C304.382 110.773 304.342 110.653 304.342 110.52V88.08C304.342 87.9467 304.276 87.88 304.142 87.88H298.262C298.129 87.88 298.009 87.84 297.902 87.76C297.822 87.6533 297.782 87.5333 297.782 87.4V83.48C297.782 83.3467 297.822 83.24 297.902 83.16C298.009 83.0533 298.129 83 298.262 83H316.262ZM333.077 111C332.784 111 332.597 110.867 332.517 110.6L328.477 99.56C328.424 99.4533 328.357 99.4 328.277 99.4H325.757C325.624 99.4 325.557 99.4667 325.557 99.6V110.52C325.557 110.653 325.504 110.773 325.397 110.88C325.317 110.96 325.21 111 325.077 111H320.397C320.264 111 320.144 110.96 320.037 110.88C319.957 110.773 319.917 110.653 319.917 110.52V83.48C319.917 83.3467 319.957 83.24 320.037 83.16C320.144 83.0533 320.264 83 320.397 83H330.157C331.73 83 333.13 83.36 334.357 84.08C335.584 84.7733 336.53 85.76 337.197 87.04C337.864 88.32 338.197 89.7867 338.197 91.44C338.197 93.1467 337.824 94.6267 337.077 95.88C336.33 97.1333 335.277 98.0667 333.917 98.68C333.784 98.7333 333.744 98.8267 333.797 98.96L338.357 110.44C338.384 110.493 338.397 110.56 338.397 110.64C338.397 110.88 338.25 111 337.957 111H333.077ZM325.757 87.84C325.624 87.84 325.557 87.9067 325.557 88.04V94.88C325.557 95.0133 325.624 95.08 325.757 95.08H329.237C330.224 95.08 331.024 94.76 331.637 94.12C332.25 93.4533 332.557 92.5733 332.557 91.48C332.557 90.36 332.25 89.48 331.637 88.84C331.024 88.1733 330.224 87.84 329.237 87.84H325.757ZM356.826 111C356.533 111 356.346 110.867 356.266 110.6L355.346 106.68C355.32 106.573 355.253 106.52 355.146 106.52H347.666C347.56 106.52 347.493 106.573 347.466 106.68L346.546 110.6C346.466 110.867 346.293 111 346.026 111H341.186C340.84 111 340.706 110.827 340.786 110.48L347.986 83.4C348.066 83.1333 348.253 83 348.546 83H354.346C354.64 83 354.826 83.1333 354.906 83.4L362.106 110.48L362.146 110.64C362.146 110.88 362 111 361.706 111H356.826ZM348.546 101.92C348.52 102 348.533 102.067 348.586 102.12C348.64 102.147 348.693 102.16 348.746 102.16H354.026C354.08 102.16 354.133 102.147 354.186 102.12C354.24 102.067 354.253 102 354.226 101.92L351.466 90.32C351.44 90.2133 351.4 90.16 351.346 90.16C351.293 90.16 351.253 90.2133 351.226 90.32L348.546 101.92ZM365.592 111C365.459 111 365.339 110.96 365.232 110.88C365.152 110.773 365.112 110.653 365.112 110.52V83.48C365.112 83.3467 365.152 83.24 365.232 83.16C365.339 83.0533 365.459 83 365.592 83H370.272C370.406 83 370.512 83.0533 370.592 83.16C370.699 83.24 370.752 83.3467 370.752 83.48V110.52C370.752 110.653 370.699 110.773 370.592 110.88C370.512 110.96 370.406 111 370.272 111H365.592ZM383.636 111.32C381.823 111.32 380.223 110.96 378.836 110.24C377.449 109.52 376.369 108.507 375.596 107.2C374.849 105.867 374.476 104.333 374.476 102.6V91.36C374.476 89.6267 374.849 88.1067 375.596 86.8C376.369 85.4933 377.449 84.48 378.836 83.76C380.223 83.04 381.823 82.68 383.636 82.68C385.423 82.68 387.009 83.04 388.396 83.76C389.809 84.4533 390.889 85.44 391.636 86.72C392.409 87.9733 392.796 89.4 392.796 91V91.88C392.796 92.0133 392.743 92.1333 392.636 92.24C392.556 92.32 392.449 92.36 392.316 92.36H387.636C387.503 92.36 387.383 92.32 387.276 92.24C387.196 92.1333 387.156 92.0133 387.156 91.88V91.04C387.156 90.0267 386.836 89.1867 386.196 88.52C385.556 87.8533 384.703 87.52 383.636 87.52C382.569 87.52 381.703 87.8667 381.036 88.56C380.396 89.2533 380.076 90.16 380.076 91.28V102.72C380.076 103.84 380.409 104.747 381.076 105.44C381.769 106.133 382.663 106.48 383.756 106.48C384.796 106.48 385.623 106.173 386.236 105.56C386.876 104.947 387.196 104.107 387.196 103.04V100.56C387.196 100.427 387.129 100.36 386.996 100.36H383.876C383.743 100.36 383.623 100.32 383.516 100.24C383.436 100.133 383.396 100.013 383.396 99.88V96.24C383.396 96.1067 383.436 96 383.516 95.92C383.623 95.8133 383.743 95.76 383.876 95.76H392.316C392.449 95.76 392.556 95.8133 392.636 95.92C392.743 96 392.796 96.1067 392.796 96.24V102.6C392.796 105.267 391.956 107.387 390.276 108.96C388.623 110.533 386.409 111.32 383.636 111.32ZM408.998 83.48C408.998 83.3467 409.038 83.24 409.118 83.16C409.224 83.0533 409.344 83 409.478 83H414.158C414.291 83 414.398 83.0533 414.478 83.16C414.584 83.24 414.637 83.3467 414.637 83.48V110.52C414.637 110.653 414.584 110.773 414.478 110.88C414.398 110.96 414.291 111 414.158 111H409.478C409.344 111 409.224 110.96 409.118 110.88C409.038 110.773 408.998 110.653 408.998 110.52V99.56C408.998 99.4267 408.931 99.36 408.798 99.36H402.398C402.264 99.36 402.198 99.4267 402.198 99.56V110.52C402.198 110.653 402.144 110.773 402.038 110.88C401.958 110.96 401.851 111 401.718 111H397.038C396.904 111 396.784 110.96 396.678 110.88C396.598 110.773 396.558 110.653 396.558 110.52V83.48C396.558 83.3467 396.598 83.24 396.678 83.16C396.784 83.0533 396.904 83 397.038 83H401.718C401.851 83 401.958 83.0533 402.038 83.16C402.144 83.24 402.198 83.3467 402.198 83.48V94.28C402.198 94.4133 402.264 94.48 402.398 94.48H408.798C408.931 94.48 408.998 94.4133 408.998 94.28V83.48ZM436.106 83C436.239 83 436.346 83.0533 436.426 83.16C436.533 83.24 436.586 83.3467 436.586 83.48V87.4C436.586 87.5333 436.533 87.6533 436.426 87.76C436.346 87.84 436.239 87.88 436.106 87.88H430.026C429.893 87.88 429.826 87.9467 429.826 88.08V110.52C429.826 110.653 429.773 110.773 429.666 110.88C429.586 110.96 429.479 111 429.346 111H424.666C424.533 111 424.413 110.96 424.306 110.88C424.226 110.773 424.186 110.653 424.186 110.52V88.08C424.186 87.9467 424.119 87.88 423.986 87.88H418.106C417.973 87.88 417.853 87.84 417.746 87.76C417.666 87.6533 417.626 87.5333 417.626 87.4V83.48C417.626 83.3467 417.666 83.24 417.746 83.16C417.853 83.0533 417.973 83 418.106 83H436.106ZM464.768 87.36C464.768 87.4933 464.715 87.6133 464.608 87.72C464.528 87.8 464.422 87.84 464.288 87.84H453.608C453.475 87.84 453.408 87.9067 453.408 88.04V94.28C453.408 94.4133 453.475 94.48 453.608 94.48H460.248C460.382 94.48 460.488 94.5333 460.568 94.64C460.675 94.72 460.728 94.8267 460.728 94.96V98.84C460.728 98.9733 460.675 99.0933 460.568 99.2C460.488 99.28 460.382 99.32 460.248 99.32H453.608C453.475 99.32 453.408 99.3867 453.408 99.52V110.52C453.408 110.653 453.355 110.773 453.248 110.88C453.168 110.96 453.062 111 452.928 111H448.248C448.115 111 447.995 110.96 447.888 110.88C447.808 110.773 447.768 110.653 447.768 110.52V83.48C447.768 83.3467 447.808 83.24 447.888 83.16C447.995 83.0533 448.115 83 448.248 83H464.288C464.422 83 464.528 83.0533 464.608 83.16C464.715 83.24 464.768 83.3467 464.768 83.48V87.36ZM476.139 111.36C474.299 111.36 472.672 110.987 471.259 110.24C469.872 109.493 468.792 108.44 468.019 107.08C467.245 105.72 466.859 104.133 466.859 102.32V91.68C466.859 89.8933 467.245 88.32 468.019 86.96C468.792 85.6 469.872 84.5467 471.259 83.8C472.672 83.0533 474.299 82.68 476.139 82.68C477.979 82.68 479.605 83.0533 481.019 83.8C482.432 84.5467 483.525 85.6 484.299 86.96C485.072 88.32 485.459 89.8933 485.459 91.68V102.32C485.459 104.133 485.072 105.72 484.299 107.08C483.525 108.44 482.432 109.493 481.019 110.24C479.605 110.987 477.979 111.36 476.139 111.36ZM476.139 106.52C477.259 106.52 478.152 106.16 478.819 105.44C479.485 104.693 479.819 103.733 479.819 102.56V91.52C479.819 90.32 479.485 89.36 478.819 88.64C478.152 87.8933 477.259 87.52 476.139 87.52C475.045 87.52 474.165 87.8933 473.499 88.64C472.832 89.36 472.499 90.32 472.499 91.52V102.56C472.499 103.733 472.832 104.693 473.499 105.44C474.165 106.16 475.045 106.52 476.139 106.52ZM502.374 111C502.08 111 501.894 110.867 501.814 110.6L497.774 99.56C497.72 99.4533 497.654 99.4 497.574 99.4H495.054C494.92 99.4 494.854 99.4667 494.854 99.6V110.52C494.854 110.653 494.8 110.773 494.694 110.88C494.614 110.96 494.507 111 494.374 111H489.694C489.56 111 489.44 110.96 489.334 110.88C489.254 110.773 489.214 110.653 489.214 110.52V83.48C489.214 83.3467 489.254 83.24 489.334 83.16C489.44 83.0533 489.56 83 489.694 83H499.454C501.027 83 502.427 83.36 503.654 84.08C504.88 84.7733 505.827 85.76 506.494 87.04C507.16 88.32 507.494 89.7867 507.494 91.44C507.494 93.1467 507.12 94.6267 506.374 95.88C505.627 97.1333 504.574 98.0667 503.214 98.68C503.08 98.7333 503.04 98.8267 503.094 98.96L507.654 110.44C507.68 110.493 507.694 110.56 507.694 110.64C507.694 110.88 507.547 111 507.254 111H502.374ZM495.054 87.84C494.92 87.84 494.854 87.9067 494.854 88.04V94.88C494.854 95.0133 494.92 95.08 495.054 95.08H498.534C499.52 95.08 500.32 94.76 500.934 94.12C501.547 93.4533 501.854 92.5733 501.854 91.48C501.854 90.36 501.547 89.48 500.934 88.84C500.32 88.1733 499.52 87.84 498.534 87.84H495.054ZM515.985 111C515.718 111 515.545 110.867 515.465 110.6L509.185 83.52V83.36C509.185 83.12 509.331 83 509.625 83H514.545C514.865 83 515.038 83.1467 515.065 83.44L518.105 98.8C518.131 98.88 518.171 98.92 518.225 98.92C518.278 98.92 518.318 98.88 518.345 98.8L521.265 83.44C521.291 83.1467 521.465 83 521.785 83H526.225C526.518 83 526.691 83.1467 526.745 83.44L529.945 98.8C529.971 98.88 530.011 98.92 530.065 98.92C530.118 98.92 530.158 98.88 530.185 98.8L533.065 83.44C533.091 83.1467 533.265 83 533.585 83H538.305C538.651 83 538.785 83.1733 538.705 83.52L532.865 110.56C532.811 110.853 532.638 111 532.345 111H527.825C527.531 111 527.358 110.853 527.305 110.56L524.065 94.48C524.038 94.4 523.998 94.36 523.945 94.36C523.891 94.36 523.851 94.4 523.825 94.48L520.905 110.56C520.878 110.853 520.705 111 520.385 111H515.985ZM553.037 111C552.744 111 552.557 110.867 552.477 110.6L551.557 106.68C551.531 106.573 551.464 106.52 551.357 106.52H543.877C543.771 106.52 543.704 106.573 543.677 106.68L542.757 110.6C542.677 110.867 542.504 111 542.237 111H537.397C537.051 111 536.917 110.827 536.997 110.48L544.197 83.4C544.277 83.1333 544.464 83 544.757 83H550.557C550.851 83 551.037 83.1333 551.117 83.4L558.317 110.48L558.357 110.64C558.357 110.88 558.211 111 557.917 111H553.037ZM544.757 101.92C544.731 102 544.744 102.067 544.797 102.12C544.851 102.147 544.904 102.16 544.957 102.16H550.237C550.291 102.16 550.344 102.147 550.397 102.12C550.451 102.067 550.464 102 550.437 101.92L547.677 90.32C547.651 90.2133 547.611 90.16 547.557 90.16C547.504 90.16 547.464 90.2133 547.437 90.32L544.757 101.92ZM574.483 111C574.19 111 574.003 110.867 573.923 110.6L569.883 99.56C569.83 99.4533 569.763 99.4 569.683 99.4H567.163C567.03 99.4 566.963 99.4667 566.963 99.6V110.52C566.963 110.653 566.91 110.773 566.803 110.88C566.723 110.96 566.616 111 566.483 111H561.803C561.67 111 561.55 110.96 561.443 110.88C561.363 110.773 561.323 110.653 561.323 110.52V83.48C561.323 83.3467 561.363 83.24 561.443 83.16C561.55 83.0533 561.67 83 561.803 83H571.563C573.136 83 574.536 83.36 575.763 84.08C576.99 84.7733 577.936 85.76 578.603 87.04C579.27 88.32 579.603 89.7867 579.603 91.44C579.603 93.1467 579.23 94.6267 578.483 95.88C577.736 97.1333 576.683 98.0667 575.323 98.68C575.19 98.7333 575.15 98.8267 575.203 98.96L579.763 110.44C579.79 110.493 579.803 110.56 579.803 110.64C579.803 110.88 579.656 111 579.363 111H574.483ZM567.163 87.84C567.03 87.84 566.963 87.9067 566.963 88.04V94.88C566.963 95.0133 567.03 95.08 567.163 95.08H570.643C571.63 95.08 572.43 94.76 573.043 94.12C573.656 93.4533 573.963 92.5733 573.963 91.48C573.963 90.36 573.656 89.48 573.043 88.84C572.43 88.1733 571.63 87.84 570.643 87.84H567.163ZM583.522 111C583.389 111 583.269 110.96 583.162 110.88C583.082 110.773 583.042 110.653 583.042 110.52V83.48C583.042 83.3467 583.082 83.24 583.162 83.16C583.269 83.0533 583.389 83 583.522 83H592.122C593.909 83 595.482 83.3333 596.842 84C598.229 84.6667 599.295 85.6133 600.042 86.84C600.789 88.0667 601.162 89.4933 601.162 91.12V102.88C601.162 104.507 600.789 105.933 600.042 107.16C599.295 108.387 598.229 109.333 596.842 110C595.482 110.667 593.909 111 592.122 111H583.522ZM588.682 105.96C588.682 106.093 588.749 106.16 588.882 106.16L592.162 106.12C593.149 106.12 593.949 105.773 594.562 105.08C595.175 104.36 595.495 103.413 595.522 102.24V91.76C595.522 90.56 595.215 89.6133 594.602 88.92C593.989 88.2 593.175 87.84 592.162 87.84H588.882C588.749 87.84 588.682 87.9067 588.682 88.04V105.96ZM627.725 111C627.431 111 627.245 110.867 627.165 110.6L626.245 106.68C626.218 106.573 626.151 106.52 626.045 106.52H618.565C618.458 106.52 618.391 106.573 618.365 106.68L617.445 110.6C617.365 110.867 617.191 111 616.925 111H612.085C611.738 111 611.605 110.827 611.685 110.48L618.885 83.4C618.965 83.1333 619.151 83 619.445 83H625.245C625.538 83 625.725 83.1333 625.805 83.4L633.005 110.48L633.045 110.64C633.045 110.88 632.898 111 632.605 111H627.725ZM619.445 101.92C619.418 102 619.431 102.067 619.485 102.12C619.538 102.147 619.591 102.16 619.645 102.16H624.925C624.978 102.16 625.031 102.147 625.085 102.12C625.138 102.067 625.151 102 625.125 101.92L622.365 90.32C622.338 90.2133 622.298 90.16 622.245 90.16C622.191 90.16 622.151 90.2133 622.125 90.32L619.445 101.92ZM646.051 82.96C647.651 82.96 649.064 83.32 650.291 84.04C651.544 84.76 652.504 85.7733 653.171 87.08C653.864 88.3867 654.211 89.88 654.211 91.56C654.211 93.2133 653.864 94.68 653.171 95.96C652.504 97.2133 651.544 98.1867 650.291 98.88C649.064 99.5733 647.651 99.92 646.051 99.92H641.731C641.597 99.92 641.531 99.9867 641.531 100.12V110.52C641.531 110.653 641.477 110.773 641.371 110.88C641.291 110.96 641.184 111 641.051 111H636.371C636.237 111 636.117 110.96 636.011 110.88C635.931 110.773 635.891 110.653 635.891 110.52V83.44C635.891 83.3067 635.931 83.2 636.011 83.12C636.117 83.0133 636.237 82.96 636.371 82.96H646.051ZM645.131 95.44C646.171 95.44 646.997 95.1067 647.611 94.44C648.251 93.7467 648.571 92.8267 648.571 91.68C648.571 90.5067 648.251 89.5733 647.611 88.88C646.997 88.1867 646.171 87.84 645.131 87.84H641.731C641.597 87.84 641.531 87.9067 641.531 88.04V95.24C641.531 95.3733 641.597 95.44 641.731 95.44H645.131ZM667.301 82.96C668.901 82.96 670.314 83.32 671.541 84.04C672.794 84.76 673.754 85.7733 674.421 87.08C675.114 88.3867 675.461 89.88 675.461 91.56C675.461 93.2133 675.114 94.68 674.421 95.96C673.754 97.2133 672.794 98.1867 671.541 98.88C670.314 99.5733 668.901 99.92 667.301 99.92H662.981C662.847 99.92 662.781 99.9867 662.781 100.12V110.52C662.781 110.653 662.727 110.773 662.621 110.88C662.541 110.96 662.434 111 662.301 111H657.621C657.487 111 657.367 110.96 657.261 110.88C657.181 110.773 657.141 110.653 657.141 110.52V83.44C657.141 83.3067 657.181 83.2 657.261 83.12C657.367 83.0133 657.487 82.96 657.621 82.96H667.301ZM666.381 95.44C667.421 95.44 668.247 95.1067 668.861 94.44C669.501 93.7467 669.821 92.8267 669.821 91.68C669.821 90.5067 669.501 89.5733 668.861 88.88C668.247 88.1867 667.421 87.84 666.381 87.84H662.981C662.847 87.84 662.781 87.9067 662.781 88.04V95.24C662.781 95.3733 662.847 95.44 662.981 95.44H666.381ZM691.671 111C691.377 111 691.191 110.867 691.111 110.6L687.071 99.56C687.017 99.4533 686.951 99.4 686.871 99.4H684.351C684.217 99.4 684.151 99.4667 684.151 99.6V110.52C684.151 110.653 684.097 110.773 683.991 110.88C683.911 110.96 683.804 111 683.671 111H678.991C678.857 111 678.737 110.96 678.631 110.88C678.551 110.773 678.511 110.653 678.511 110.52V83.48C678.511 83.3467 678.551 83.24 678.631 83.16C678.737 83.0533 678.857 83 678.991 83H688.751C690.324 83 691.724 83.36 692.951 84.08C694.177 84.7733 695.124 85.76 695.791 87.04C696.457 88.32 696.791 89.7867 696.791 91.44C696.791 93.1467 696.417 94.6267 695.671 95.88C694.924 97.1333 693.871 98.0667 692.511 98.68C692.377 98.7333 692.337 98.8267 692.391 98.96L696.951 110.44C696.977 110.493 696.991 110.56 696.991 110.64C696.991 110.88 696.844 111 696.551 111H691.671ZM684.351 87.84C684.217 87.84 684.151 87.9067 684.151 88.04V94.88C684.151 95.0133 684.217 95.08 684.351 95.08H687.831C688.817 95.08 689.617 94.76 690.231 94.12C690.844 93.4533 691.151 92.5733 691.151 91.48C691.151 90.36 690.844 89.48 690.231 88.84C689.617 88.1733 688.817 87.84 687.831 87.84H684.351ZM709.029 111.36C707.189 111.36 705.563 110.987 704.149 110.24C702.763 109.493 701.683 108.44 700.909 107.08C700.136 105.72 699.749 104.133 699.749 102.32V91.68C699.749 89.8933 700.136 88.32 700.909 86.96C701.683 85.6 702.763 84.5467 704.149 83.8C705.563 83.0533 707.189 82.68 709.029 82.68C710.869 82.68 712.496 83.0533 713.909 83.8C715.323 84.5467 716.416 85.6 717.189 86.96C717.963 88.32 718.349 89.8933 718.349 91.68V102.32C718.349 104.133 717.963 105.72 717.189 107.08C716.416 108.44 715.323 109.493 713.909 110.24C712.496 110.987 710.869 111.36 709.029 111.36ZM709.029 106.52C710.149 106.52 711.043 106.16 711.709 105.44C712.376 104.693 712.709 103.733 712.709 102.56V91.52C712.709 90.32 712.376 89.36 711.709 88.64C711.043 87.8933 710.149 87.52 709.029 87.52C707.936 87.52 707.056 87.8933 706.389 88.64C705.723 89.36 705.389 90.32 705.389 91.52V102.56C705.389 103.733 705.723 104.693 706.389 105.44C707.056 106.16 707.936 106.52 709.029 106.52ZM736.397 111C736.103 111 735.917 110.867 735.837 110.6L734.917 106.68C734.89 106.573 734.823 106.52 734.717 106.52H727.237C727.13 106.52 727.063 106.573 727.037 106.68L726.117 110.6C726.037 110.867 725.863 111 725.597 111H720.757C720.41 111 720.277 110.827 720.357 110.48L727.557 83.4C727.637 83.1333 727.823 83 728.117 83H733.917C734.21 83 734.397 83.1333 734.477 83.4L741.677 110.48L741.717 110.64C741.717 110.88 741.57 111 741.277 111H736.397ZM728.117 101.92C728.09 102 728.103 102.067 728.157 102.12C728.21 102.147 728.263 102.16 728.317 102.16H733.597C733.65 102.16 733.703 102.147 733.757 102.12C733.81 102.067 733.823 102 733.797 101.92L731.037 90.32C731.01 90.2133 730.97 90.16 730.917 90.16C730.863 90.16 730.823 90.2133 730.797 90.32L728.117 101.92ZM752.581 111.32C750.768 111.32 749.168 110.96 747.781 110.24C746.395 109.52 745.315 108.493 744.541 107.16C743.795 105.827 743.421 104.28 743.421 102.52V91.4C743.421 89.6667 743.795 88.1467 744.541 86.84C745.315 85.5067 746.395 84.48 747.781 83.76C749.168 83.04 750.768 82.68 752.581 82.68C754.395 82.68 755.995 83.04 757.381 83.76C758.768 84.4533 759.835 85.44 760.581 86.72C761.355 88 761.741 89.4933 761.741 91.2V91.4C761.741 91.5333 761.688 91.6533 761.581 91.76C761.501 91.8667 761.395 91.92 761.261 91.92L756.581 92.12C756.261 92.12 756.101 91.9733 756.101 91.68V91.16C756.101 90.0667 755.781 89.1867 755.141 88.52C754.501 87.8533 753.648 87.52 752.581 87.52C751.515 87.52 750.661 87.8533 750.021 88.52C749.381 89.1867 749.061 90.0667 749.061 91.16V102.88C749.061 103.973 749.381 104.853 750.021 105.52C750.661 106.16 751.515 106.48 752.581 106.48C753.648 106.48 754.501 106.16 755.141 105.52C755.781 104.853 756.101 103.973 756.101 102.88V102.36C756.101 102.067 756.261 101.92 756.581 101.92L761.261 102.12C761.395 102.12 761.501 102.173 761.581 102.28C761.688 102.36 761.741 102.467 761.741 102.6V102.72C761.741 104.427 761.355 105.933 760.581 107.24C759.835 108.547 758.768 109.56 757.381 110.28C755.995 110.973 754.395 111.32 752.581 111.32ZM777.787 83.48C777.787 83.3467 777.827 83.24 777.907 83.16C778.013 83.0533 778.133 83 778.267 83H782.947C783.08 83 783.187 83.0533 783.267 83.16C783.373 83.24 783.427 83.3467 783.427 83.48V110.52C783.427 110.653 783.373 110.773 783.267 110.88C783.187 110.96 783.08 111 782.947 111H778.267C778.133 111 778.013 110.96 777.907 110.88C777.827 110.773 777.787 110.653 777.787 110.52V99.56C777.787 99.4267 777.72 99.36 777.587 99.36H771.187C771.053 99.36 770.987 99.4267 770.987 99.56V110.52C770.987 110.653 770.933 110.773 770.827 110.88C770.747 110.96 770.64 111 770.507 111H765.827C765.693 111 765.573 110.96 765.467 110.88C765.387 110.773 765.347 110.653 765.347 110.52V83.48C765.347 83.3467 765.387 83.24 765.467 83.16C765.573 83.0533 765.693 83 765.827 83H770.507C770.64 83 770.747 83.0533 770.827 83.16C770.933 83.24 770.987 83.3467 770.987 83.48V94.28C770.987 94.4133 771.053 94.48 771.187 94.48H777.587C777.72 94.48 777.787 94.4133 777.787 94.28V83.48ZM20.52 130C20.6533 130 20.76 130.053 20.84 130.16C20.9467 130.24 21 130.347 21 130.48V134.4C21 134.533 20.9467 134.653 20.84 134.76C20.76 134.84 20.6533 134.88 20.52 134.88H14.44C14.3067 134.88 14.24 134.947 14.24 135.08V157.52C14.24 157.653 14.1867 157.773 14.08 157.88C14 157.96 13.8933 158 13.76 158H9.08C8.94667 158 8.82667 157.96 8.72 157.88C8.64 157.773 8.6 157.653 8.6 157.52V135.08C8.6 134.947 8.53333 134.88 8.4 134.88H2.52C2.38667 134.88 2.26667 134.84 2.16 134.76C2.08 134.653 2.04 134.533 2.04 134.4V130.48C2.04 130.347 2.08 130.24 2.16 130.16C2.26667 130.053 2.38667 130 2.52 130H20.52ZM32.0372 158.36C30.1972 158.36 28.5705 157.987 27.1572 157.24C25.7705 156.493 24.6905 155.44 23.9172 154.08C23.1439 152.72 22.7572 151.133 22.7572 149.32V138.68C22.7572 136.893 23.1439 135.32 23.9172 133.96C24.6905 132.6 25.7705 131.547 27.1572 130.8C28.5705 130.053 30.1972 129.68 32.0372 129.68C33.8772 129.68 35.5039 130.053 36.9172 130.8C38.3305 131.547 39.4239 132.6 40.1972 133.96C40.9705 135.32 41.3572 136.893 41.3572 138.68V149.32C41.3572 151.133 40.9705 152.72 40.1972 154.08C39.4239 155.44 38.3305 156.493 36.9172 157.24C35.5039 157.987 33.8772 158.36 32.0372 158.36ZM32.0372 153.52C33.1572 153.52 34.0505 153.16 34.7172 152.44C35.3839 151.693 35.7172 150.733 35.7172 149.56V138.52C35.7172 137.32 35.3839 136.36 34.7172 135.64C34.0505 134.893 33.1572 134.52 32.0372 134.52C30.9439 134.52 30.0639 134.893 29.3972 135.64C28.7305 136.36 28.3972 137.32 28.3972 138.52V149.56C28.3972 150.733 28.7305 151.693 29.3972 152.44C30.0639 153.16 30.9439 153.52 32.0372 153.52ZM61.92 158.36C60.08 158.36 58.4533 157.987 57.04 157.24C55.6533 156.493 54.5733 155.44 53.8 154.08C53.0267 152.72 52.64 151.133 52.64 149.32V138.68C52.64 136.893 53.0267 135.32 53.8 133.96C54.5733 132.6 55.6533 131.547 57.04 130.8C58.4533 130.053 60.08 129.68 61.92 129.68C63.76 129.68 65.3867 130.053 66.8 130.8C68.2133 131.547 69.3067 132.6 70.08 133.96C70.8533 135.32 71.24 136.893 71.24 138.68V149.32C71.24 151.133 70.8533 152.72 70.08 154.08C69.3067 155.44 68.2133 156.493 66.8 157.24C65.3867 157.987 63.76 158.36 61.92 158.36ZM61.92 153.52C63.04 153.52 63.9333 153.16 64.6 152.44C65.2667 151.693 65.6 150.733 65.6 149.56V138.52C65.6 137.32 65.2667 136.36 64.6 135.64C63.9333 134.893 63.04 134.52 61.92 134.52C60.8267 134.52 59.9467 134.893 59.28 135.64C58.6133 136.36 58.28 137.32 58.28 138.52V149.56C58.28 150.733 58.6133 151.693 59.28 152.44C59.9467 153.16 60.8267 153.52 61.92 153.52ZM83.955 158.32C82.1417 158.32 80.5417 157.947 79.155 157.2C77.7683 156.453 76.6883 155.413 75.915 154.08C75.1683 152.72 74.795 151.16 74.795 149.4V130.48C74.795 130.347 74.835 130.24 74.915 130.16C75.0217 130.053 75.1417 130 75.275 130H79.955C80.0883 130 80.195 130.053 80.275 130.16C80.3817 130.24 80.435 130.347 80.435 130.48V149.68C80.435 150.827 80.755 151.747 81.395 152.44C82.035 153.133 82.8883 153.48 83.955 153.48C85.0217 153.48 85.875 153.133 86.515 152.44C87.155 151.747 87.475 150.827 87.475 149.68V130.48C87.475 130.347 87.515 130.24 87.595 130.16C87.7017 130.053 87.8217 130 87.955 130H92.635C92.7683 130 92.875 130.053 92.955 130.16C93.0617 130.24 93.115 130.347 93.115 130.48V149.4C93.115 151.16 92.7283 152.72 91.955 154.08C91.2083 155.413 90.1417 156.453 88.755 157.2C87.3683 157.947 85.7683 158.32 83.955 158.32ZM110.303 158C110.01 158 109.823 157.867 109.743 157.6L105.703 146.56C105.65 146.453 105.583 146.4 105.503 146.4H102.983C102.85 146.4 102.783 146.467 102.783 146.6V157.52C102.783 157.653 102.73 157.773 102.623 157.88C102.543 157.96 102.437 158 102.303 158H97.6234C97.4901 158 97.3701 157.96 97.2634 157.88C97.1834 157.773 97.1434 157.653 97.1434 157.52V130.48C97.1434 130.347 97.1834 130.24 97.2634 130.16C97.3701 130.053 97.4901 130 97.6234 130H107.383C108.957 130 110.357 130.36 111.583 131.08C112.81 131.773 113.757 132.76 114.423 134.04C115.09 135.32 115.423 136.787 115.423 138.44C115.423 140.147 115.05 141.627 114.303 142.88C113.557 144.133 112.503 145.067 111.143 145.68C111.01 145.733 110.97 145.827 111.023 145.96L115.583 157.44C115.61 157.493 115.623 157.56 115.623 157.64C115.623 157.88 115.477 158 115.183 158H110.303ZM102.983 134.84C102.85 134.84 102.783 134.907 102.783 135.04V141.88C102.783 142.013 102.85 142.08 102.983 142.08H106.463C107.45 142.08 108.25 141.76 108.863 141.12C109.477 140.453 109.783 139.573 109.783 138.48C109.783 137.36 109.477 136.48 108.863 135.84C108.25 135.173 107.45 134.84 106.463 134.84H102.983ZM127.35 158C127.217 158 127.097 157.96 126.99 157.88C126.91 157.773 126.87 157.653 126.87 157.52V130.48C126.87 130.347 126.91 130.24 126.99 130.16C127.097 130.053 127.217 130 127.35 130H135.95C137.737 130 139.31 130.333 140.67 131C142.057 131.667 143.123 132.613 143.87 133.84C144.617 135.067 144.99 136.493 144.99 138.12V149.88C144.99 151.507 144.617 152.933 143.87 154.16C143.123 155.387 142.057 156.333 140.67 157C139.31 157.667 137.737 158 135.95 158H127.35ZM132.51 152.96C132.51 153.093 132.577 153.16 132.71 153.16L135.99 153.12C136.977 153.12 137.777 152.773 138.39 152.08C139.003 151.36 139.323 150.413 139.35 149.24V138.76C139.35 137.56 139.043 136.613 138.43 135.92C137.817 135.2 137.003 134.84 135.99 134.84H132.71C132.577 134.84 132.51 134.907 132.51 135.04V152.96ZM165.746 134.36C165.746 134.493 165.693 134.613 165.586 134.72C165.506 134.8 165.399 134.84 165.266 134.84H154.546C154.413 134.84 154.346 134.907 154.346 135.04V141.28C154.346 141.413 154.413 141.48 154.546 141.48H161.226C161.359 141.48 161.466 141.533 161.546 141.64C161.653 141.72 161.706 141.827 161.706 141.96V145.84C161.706 145.973 161.653 146.093 161.546 146.2C161.466 146.28 161.359 146.32 161.226 146.32H154.546C154.413 146.32 154.346 146.387 154.346 146.52V152.96C154.346 153.093 154.413 153.16 154.546 153.16H165.266C165.399 153.16 165.506 153.213 165.586 153.32C165.693 153.4 165.746 153.507 165.746 153.64V157.52C165.746 157.653 165.693 157.773 165.586 157.88C165.506 157.96 165.399 158 165.266 158H149.186C149.053 158 148.933 157.96 148.826 157.88C148.746 157.773 148.706 157.653 148.706 157.52V130.48C148.706 130.347 148.746 130.24 148.826 130.16C148.933 130.053 149.053 130 149.186 130H165.266C165.399 130 165.506 130.053 165.586 130.16C165.693 130.24 165.746 130.347 165.746 130.48V134.36ZM177.536 158.32C175.696 158.32 174.082 158 172.696 157.36C171.309 156.693 170.229 155.773 169.456 154.6C168.709 153.4 168.336 152.027 168.336 150.48V149.44C168.336 149.307 168.376 149.2 168.456 149.12C168.562 149.013 168.682 148.96 168.816 148.96H173.416C173.549 148.96 173.656 149.013 173.736 149.12C173.842 149.2 173.896 149.307 173.896 149.44V150.2C173.896 151.133 174.242 151.92 174.936 152.56C175.629 153.173 176.562 153.48 177.736 153.48C178.776 153.48 179.562 153.213 180.096 152.68C180.656 152.147 180.936 151.467 180.936 150.64C180.936 150.027 180.762 149.507 180.416 149.08C180.069 148.627 179.576 148.213 178.936 147.84C178.322 147.44 177.362 146.907 176.056 146.24C174.456 145.44 173.149 144.693 172.136 144C171.122 143.307 170.256 142.413 169.536 141.32C168.816 140.227 168.456 138.907 168.456 137.36C168.456 135.813 168.816 134.467 169.536 133.32C170.282 132.147 171.322 131.253 172.656 130.64C173.989 130 175.509 129.68 177.216 129.68C179.002 129.68 180.589 130.027 181.976 130.72C183.362 131.387 184.442 132.333 185.216 133.56C185.989 134.787 186.376 136.2 186.376 137.8V138.6C186.376 138.733 186.322 138.853 186.216 138.96C186.136 139.04 186.029 139.08 185.896 139.08H181.296C181.162 139.08 181.042 139.04 180.936 138.96C180.856 138.853 180.816 138.733 180.816 138.6V137.88C180.816 136.92 180.482 136.12 179.816 135.48C179.149 134.84 178.242 134.52 177.096 134.52C176.136 134.52 175.376 134.773 174.816 135.28C174.282 135.76 174.016 136.44 174.016 137.32C174.016 137.933 174.176 138.467 174.496 138.92C174.816 139.373 175.309 139.813 175.976 140.24C176.642 140.64 177.656 141.173 179.016 141.84L179.856 142.32C181.402 143.173 182.602 143.92 183.456 144.56C184.336 145.173 185.069 145.96 185.656 146.92C186.242 147.88 186.536 149.04 186.536 150.4C186.536 152.827 185.709 154.76 184.056 156.2C182.429 157.613 180.256 158.32 177.536 158.32ZM190.397 158C190.264 158 190.144 157.96 190.037 157.88C189.957 157.773 189.917 157.653 189.917 157.52V130.48C189.917 130.347 189.957 130.24 190.037 130.16C190.144 130.053 190.264 130 190.397 130H195.077C195.21 130 195.317 130.053 195.397 130.16C195.504 130.24 195.557 130.347 195.557 130.48V157.52C195.557 157.653 195.504 157.773 195.397 157.88C195.317 157.96 195.21 158 195.077 158H190.397ZM208.441 158.32C206.627 158.32 205.027 157.96 203.641 157.24C202.254 156.52 201.174 155.507 200.401 154.2C199.654 152.867 199.281 151.333 199.281 149.6V138.36C199.281 136.627 199.654 135.107 200.401 133.8C201.174 132.493 202.254 131.48 203.641 130.76C205.027 130.04 206.627 129.68 208.441 129.68C210.227 129.68 211.814 130.04 213.201 130.76C214.614 131.453 215.694 132.44 216.441 133.72C217.214 134.973 217.601 136.4 217.601 138V138.88C217.601 139.013 217.547 139.133 217.441 139.24C217.361 139.32 217.254 139.36 217.121 139.36H212.441C212.307 139.36 212.187 139.32 212.081 139.24C212.001 139.133 211.961 139.013 211.961 138.88V138.04C211.961 137.027 211.641 136.187 211.001 135.52C210.361 134.853 209.507 134.52 208.441 134.52C207.374 134.52 206.507 134.867 205.841 135.56C205.201 136.253 204.881 137.16 204.881 138.28V149.72C204.881 150.84 205.214 151.747 205.881 152.44C206.574 153.133 207.467 153.48 208.561 153.48C209.601 153.48 210.427 153.173 211.041 152.56C211.681 151.947 212.001 151.107 212.001 150.04V147.56C212.001 147.427 211.934 147.36 211.801 147.36H208.681C208.547 147.36 208.427 147.32 208.321 147.24C208.241 147.133 208.201 147.013 208.201 146.88V143.24C208.201 143.107 208.241 143 208.321 142.92C208.427 142.813 208.547 142.76 208.681 142.76H217.121C217.254 142.76 217.361 142.813 217.441 142.92C217.547 143 217.601 143.107 217.601 143.24V149.6C217.601 152.267 216.761 154.387 215.081 155.96C213.427 157.533 211.214 158.32 208.441 158.32ZM235.122 130.48C235.122 130.347 235.162 130.24 235.242 130.16C235.349 130.053 235.469 130 235.602 130H240.242C240.376 130 240.482 130.053 240.562 130.16C240.669 130.24 240.722 130.347 240.722 130.48V157.52C240.722 157.653 240.669 157.773 240.562 157.88C240.482 157.96 240.376 158 240.242 158H235.362C235.096 158 234.909 157.88 234.802 157.64L227.162 141.36C227.109 141.28 227.056 141.24 227.002 141.24C226.949 141.24 226.922 141.293 226.922 141.4L226.962 157.52C226.962 157.653 226.909 157.773 226.802 157.88C226.722 157.96 226.616 158 226.482 158H221.842C221.709 158 221.589 157.96 221.482 157.88C221.402 157.773 221.362 157.653 221.362 157.52V130.48C221.362 130.347 221.402 130.24 221.482 130.16C221.589 130.053 221.709 130 221.842 130H226.682C226.949 130 227.136 130.12 227.242 130.36L234.882 146.64C234.936 146.72 234.989 146.76 235.042 146.76C235.096 146.76 235.122 146.707 235.122 146.6V130.48ZM263.004 129.96C264.604 129.96 266.017 130.32 267.244 131.04C268.497 131.76 269.457 132.773 270.124 134.08C270.817 135.387 271.164 136.88 271.164 138.56C271.164 140.213 270.817 141.68 270.124 142.96C269.457 144.213 268.497 145.187 267.244 145.88C266.017 146.573 264.604 146.92 263.004 146.92H258.684C258.55 146.92 258.484 146.987 258.484 147.12V157.52C258.484 157.653 258.43 157.773 258.324 157.88C258.244 157.96 258.137 158 258.004 158H253.324C253.19 158 253.07 157.96 252.964 157.88C252.884 157.773 252.844 157.653 252.844 157.52V130.44C252.844 130.307 252.884 130.2 252.964 130.12C253.07 130.013 253.19 129.96 253.324 129.96H263.004ZM262.084 142.44C263.124 142.44 263.95 142.107 264.564 141.44C265.204 140.747 265.524 139.827 265.524 138.68C265.524 137.507 265.204 136.573 264.564 135.88C263.95 135.187 263.124 134.84 262.084 134.84H258.684C258.55 134.84 258.484 134.907 258.484 135.04V142.24C258.484 142.373 258.55 142.44 258.684 142.44H262.084ZM287.374 158C287.08 158 286.894 157.867 286.814 157.6L282.774 146.56C282.72 146.453 282.654 146.4 282.574 146.4H280.054C279.92 146.4 279.854 146.467 279.854 146.6V157.52C279.854 157.653 279.8 157.773 279.694 157.88C279.614 157.96 279.507 158 279.374 158H274.694C274.56 158 274.44 157.96 274.334 157.88C274.254 157.773 274.214 157.653 274.214 157.52V130.48C274.214 130.347 274.254 130.24 274.334 130.16C274.44 130.053 274.56 130 274.694 130H284.454C286.027 130 287.427 130.36 288.654 131.08C289.88 131.773 290.827 132.76 291.494 134.04C292.16 135.32 292.494 136.787 292.494 138.44C292.494 140.147 292.12 141.627 291.374 142.88C290.627 144.133 289.574 145.067 288.214 145.68C288.08 145.733 288.04 145.827 288.094 145.96L292.654 157.44C292.68 157.493 292.694 157.56 292.694 157.64C292.694 157.88 292.547 158 292.254 158H287.374ZM280.054 134.84C279.92 134.84 279.854 134.907 279.854 135.04V141.88C279.854 142.013 279.92 142.08 280.054 142.08H283.534C284.52 142.08 285.32 141.76 285.934 141.12C286.547 140.453 286.854 139.573 286.854 138.48C286.854 137.36 286.547 136.48 285.934 135.84C285.32 135.173 284.52 134.84 283.534 134.84H280.054ZM304.733 158.36C302.893 158.36 301.266 157.987 299.853 157.24C298.466 156.493 297.386 155.44 296.613 154.08C295.839 152.72 295.453 151.133 295.453 149.32V138.68C295.453 136.893 295.839 135.32 296.613 133.96C297.386 132.6 298.466 131.547 299.853 130.8C301.266 130.053 302.893 129.68 304.733 129.68C306.573 129.68 308.199 130.053 309.613 130.8C311.026 131.547 312.119 132.6 312.893 133.96C313.666 135.32 314.053 136.893 314.053 138.68V149.32C314.053 151.133 313.666 152.72 312.893 154.08C312.119 155.44 311.026 156.493 309.613 157.24C308.199 157.987 306.573 158.36 304.733 158.36ZM304.733 153.52C305.853 153.52 306.746 153.16 307.413 152.44C308.079 151.693 308.413 150.733 308.413 149.56V138.52C308.413 137.32 308.079 136.36 307.413 135.64C306.746 134.893 305.853 134.52 304.733 134.52C303.639 134.52 302.759 134.893 302.093 135.64C301.426 136.36 301.093 137.32 301.093 138.52V149.56C301.093 150.733 301.426 151.693 302.093 152.44C302.759 153.16 303.639 153.52 304.733 153.52ZM336.048 150.24C336.048 152.773 335.221 154.707 333.568 156.04C331.941 157.347 329.834 158 327.248 158H318.288C318.154 158 318.034 157.96 317.928 157.88C317.848 157.773 317.808 157.653 317.808 157.52V130.48C317.808 130.347 317.848 130.24 317.928 130.16C318.034 130.053 318.154 130 318.288 130H326.648C329.501 130 331.714 130.64 333.288 131.92C334.861 133.173 335.648 135.093 335.648 137.68C335.648 140.32 334.621 142.227 332.568 143.4C332.434 143.48 332.421 143.56 332.528 143.64C334.874 144.973 336.048 147.173 336.048 150.24ZM323.648 134.84C323.514 134.84 323.448 134.907 323.448 135.04V141.32C323.448 141.453 323.514 141.52 323.648 141.52H326.688C327.754 141.52 328.594 141.227 329.208 140.64C329.821 140.053 330.128 139.24 330.128 138.2C330.128 137.133 329.821 136.307 329.208 135.72C328.621 135.133 327.781 134.84 326.688 134.84H323.648ZM327.008 153.12C328.074 153.12 328.901 152.813 329.488 152.2C330.101 151.56 330.408 150.667 330.408 149.52C330.408 148.373 330.101 147.48 329.488 146.84C328.901 146.173 328.074 145.84 327.008 145.84H323.648C323.514 145.84 323.448 145.907 323.448 146.04V152.92C323.448 153.053 323.514 153.12 323.648 153.12H327.008ZM340.084 158C339.951 158 339.831 157.96 339.724 157.88C339.644 157.773 339.604 157.653 339.604 157.52V130.48C339.604 130.347 339.644 130.24 339.724 130.16C339.831 130.053 339.951 130 340.084 130H344.764C344.898 130 345.004 130.053 345.084 130.16C345.191 130.24 345.244 130.347 345.244 130.48V152.96C345.244 153.093 345.311 153.16 345.444 153.16H356.164C356.298 153.16 356.404 153.213 356.484 153.32C356.591 153.4 356.644 153.507 356.644 153.64V157.52C356.644 157.653 356.591 157.773 356.484 157.88C356.404 157.96 356.298 158 356.164 158H340.084ZM376.605 134.36C376.605 134.493 376.552 134.613 376.445 134.72C376.365 134.8 376.259 134.84 376.125 134.84H365.405C365.272 134.84 365.205 134.907 365.205 135.04V141.28C365.205 141.413 365.272 141.48 365.405 141.48H372.085C372.219 141.48 372.325 141.533 372.405 141.64C372.512 141.72 372.565 141.827 372.565 141.96V145.84C372.565 145.973 372.512 146.093 372.405 146.2C372.325 146.28 372.219 146.32 372.085 146.32H365.405C365.272 146.32 365.205 146.387 365.205 146.52V152.96C365.205 153.093 365.272 153.16 365.405 153.16H376.125C376.259 153.16 376.365 153.213 376.445 153.32C376.552 153.4 376.605 153.507 376.605 153.64V157.52C376.605 157.653 376.552 157.773 376.445 157.88C376.365 157.96 376.259 158 376.125 158H360.045C359.912 158 359.792 157.96 359.685 157.88C359.605 157.773 359.565 157.653 359.565 157.52V130.48C359.565 130.347 359.605 130.24 359.685 130.16C359.792 130.053 359.912 130 360.045 130H376.125C376.259 130 376.365 130.053 376.445 130.16C376.552 130.24 376.605 130.347 376.605 130.48V134.36ZM395.395 130.32C395.502 130.107 395.688 130 395.955 130H400.595C400.728 130 400.835 130.053 400.915 130.16C401.022 130.24 401.075 130.347 401.075 130.48V157.52C401.075 157.653 401.022 157.773 400.915 157.88C400.835 157.96 400.728 158 400.595 158H395.915C395.782 158 395.662 157.96 395.555 157.88C395.475 157.773 395.435 157.653 395.435 157.52V139.76C395.435 139.653 395.408 139.6 395.355 139.6C395.302 139.573 395.248 139.6 395.195 139.68L391.515 145.76C391.408 145.973 391.222 146.08 390.955 146.08H390.035C389.768 146.08 389.582 145.973 389.475 145.76L385.795 139.68C385.742 139.6 385.688 139.573 385.635 139.6C385.582 139.6 385.555 139.653 385.555 139.76V157.52C385.555 157.653 385.502 157.773 385.395 157.88C385.315 157.96 385.208 158 385.075 158H380.395C380.262 158 380.142 157.96 380.035 157.88C379.955 157.773 379.915 157.653 379.915 157.52V130.48C379.915 130.347 379.955 130.24 380.035 130.16C380.142 130.053 380.262 130 380.395 130H385.035C385.302 130 385.488 130.107 385.595 130.32L390.395 138.2C390.475 138.36 390.555 138.36 390.635 138.2L395.395 130.32ZM413.629 158.32C411.789 158.32 410.176 158 408.789 157.36C407.403 156.693 406.323 155.773 405.549 154.6C404.803 153.4 404.429 152.027 404.429 150.48V149.44C404.429 149.307 404.469 149.2 404.549 149.12C404.656 149.013 404.776 148.96 404.909 148.96H409.509C409.643 148.96 409.749 149.013 409.829 149.12C409.936 149.2 409.989 149.307 409.989 149.44V150.2C409.989 151.133 410.336 151.92 411.029 152.56C411.723 153.173 412.656 153.48 413.829 153.48C414.869 153.48 415.656 153.213 416.189 152.68C416.749 152.147 417.029 151.467 417.029 150.64C417.029 150.027 416.856 149.507 416.509 149.08C416.163 148.627 415.669 148.213 415.029 147.84C414.416 147.44 413.456 146.907 412.149 146.24C410.549 145.44 409.243 144.693 408.229 144C407.216 143.307 406.349 142.413 405.629 141.32C404.909 140.227 404.549 138.907 404.549 137.36C404.549 135.813 404.909 134.467 405.629 133.32C406.376 132.147 407.416 131.253 408.749 130.64C410.083 130 411.603 129.68 413.309 129.68C415.096 129.68 416.683 130.027 418.069 130.72C419.456 131.387 420.536 132.333 421.309 133.56C422.083 134.787 422.469 136.2 422.469 137.8V138.6C422.469 138.733 422.416 138.853 422.309 138.96C422.229 139.04 422.123 139.08 421.989 139.08H417.389C417.256 139.08 417.136 139.04 417.029 138.96C416.949 138.853 416.909 138.733 416.909 138.6V137.88C416.909 136.92 416.576 136.12 415.909 135.48C415.243 134.84 414.336 134.52 413.189 134.52C412.229 134.52 411.469 134.773 410.909 135.28C410.376 135.76 410.109 136.44 410.109 137.32C410.109 137.933 410.269 138.467 410.589 138.92C410.909 139.373 411.403 139.813 412.069 140.24C412.736 140.64 413.749 141.173 415.109 141.84L415.949 142.32C417.496 143.173 418.696 143.92 419.549 144.56C420.429 145.173 421.163 145.96 421.749 146.92C422.336 147.88 422.629 149.04 422.629 150.4C422.629 152.827 421.803 154.76 420.149 156.2C418.523 157.613 416.349 158.32 413.629 158.32Z" fill="#414141"/>
<g filter="url(#filter0_i)">
<path d="M34.2135 16.4938L28.9867 39.2558L24.4852 26.1904L10.9999 21.7199L34.2135 16.4938Z" fill="white"/>
</g>
<defs>
<filter id="filter0_i" x="10" y="7.5" width="32.9813" height="32.9813" filterUnits="userSpaceOnUse" color-interpolation-filters="sRGB">
<feFlood flood-opacity="0" result="BackgroundImageFix"/>
<feBlend mode="normal" in="SourceGraphic" in2="BackgroundImageFix" result="shape"/>
<feColorMatrix in="SourceAlpha" type="matrix" values="0 0 0 0 0 0 0 0 0 0 0 0 0 0 0 0 0 0 127 0" result="hardAlpha"/>
<feOffset dx="-1" dy="1"/>
<feGaussianBlur stdDeviation="1"/>
<feComposite in2="hardAlpha" operator="arithmetic" k2="-1" k3="1"/>
<feColorMatrix type="matrix" values="0 0 0 0 0 0 0 0 0 0 0 0 0 0 0 0 0 0 0.3 0"/>
<feBlend mode="normal" in2="shape" result="effect1_innerShadow"/>
</filter>
</defs>
</svg>
