<svg  viewBox="0 0 227 295" fill="none" xmlns="http://www.w3.org/2000/svg">
<rect x="29" y="228" width="2" height="28" transform="rotate(90 29 228)" fill="black"/>
<path d="M2.624 274C2.53067 274 2.456 273.972 2.4 273.916C2.344 273.86 2.316 273.785 2.316 273.692V264.508C2.316 264.415 2.344 264.34 2.4 264.284C2.456 264.228 2.53067 264.2 2.624 264.2H2.89C2.98333 264.2 3.058 264.228 3.114 264.284C3.17 264.34 3.198 264.415 3.198 264.508V273.692C3.198 273.785 3.17 273.86 3.114 273.916C3.058 273.972 2.98333 274 2.89 274H2.624ZM5.95567 274C5.86234 274 5.78767 273.972 5.73167 273.916C5.67567 273.86 5.64767 273.785 5.64767 273.692V267.028C5.64767 266.935 5.67567 266.86 5.73167 266.804C5.78767 266.748 5.86234 266.72 5.95567 266.72H6.19367C6.28701 266.72 6.36167 266.748 6.41767 266.804C6.47367 266.86 6.50167 266.935 6.50167 267.028V267.686C6.78167 267.322 7.09901 267.047 7.45367 266.86C7.81767 266.673 8.28434 266.58 8.85367 266.58C9.76834 266.58 10.473 266.874 10.9677 267.462C11.4623 268.041 11.7097 268.792 11.7097 269.716V273.692C11.7097 273.785 11.6817 273.86 11.6257 273.916C11.5697 273.972 11.495 274 11.4017 274H11.1637C11.0703 274 10.9957 273.972 10.9397 273.916C10.8837 273.86 10.8557 273.785 10.8557 273.692V269.786C10.8557 269.03 10.669 268.442 10.2957 268.022C9.93167 267.602 9.40434 267.392 8.71367 267.392C8.04167 267.392 7.50501 267.607 7.10367 268.036C6.70234 268.456 6.50167 269.039 6.50167 269.786V273.692C6.50167 273.785 6.47367 273.86 6.41767 273.916C6.36167 273.972 6.28701 274 6.19367 274H5.95567ZM19.6504 274C18.9597 274 18.4697 273.795 18.1804 273.384C17.8911 272.964 17.7464 272.39 17.7464 271.662V267.532H16.6544C16.5611 267.532 16.4864 267.504 16.4304 267.448C16.3744 267.392 16.3464 267.317 16.3464 267.224V267.028C16.3464 266.935 16.3744 266.86 16.4304 266.804C16.4864 266.748 16.5611 266.72 16.6544 266.72H17.7464V264.368C17.7464 264.275 17.7744 264.2 17.8304 264.144C17.8864 264.088 17.9611 264.06 18.0544 264.06H18.2924C18.3857 264.06 18.4604 264.088 18.5164 264.144C18.5724 264.2 18.6004 264.275 18.6004 264.368V266.72H20.3364C20.4297 266.72 20.5044 266.748 20.5604 266.804C20.6164 266.86 20.6444 266.935 20.6444 267.028V267.224C20.6444 267.317 20.6164 267.392 20.5604 267.448C20.5044 267.504 20.4297 267.532 20.3364 267.532H18.6004V271.606C18.6004 272.129 18.6844 272.525 18.8524 272.796C19.0297 273.057 19.3191 273.188 19.7204 273.188H20.4764C20.5697 273.188 20.6444 273.216 20.7004 273.272C20.7564 273.328 20.7844 273.403 20.7844 273.496V273.692C20.7844 273.785 20.7564 273.86 20.7004 273.916C20.6444 273.972 20.5697 274 20.4764 274H19.6504ZM22.5537 274C22.4603 274 22.3857 273.972 22.3297 273.916C22.2737 273.86 22.2457 273.785 22.2457 273.692V264.368C22.2457 264.275 22.2737 264.2 22.3297 264.144C22.3857 264.088 22.4603 264.06 22.5537 264.06H22.7917C22.885 264.06 22.9597 264.088 23.0157 264.144C23.0717 264.2 23.0997 264.275 23.0997 264.368V267.686C23.3797 267.322 23.697 267.047 24.0517 266.86C24.4157 266.673 24.8823 266.58 25.4517 266.58C26.3663 266.58 27.071 266.874 27.5657 267.462C28.0603 268.041 28.3077 268.792 28.3077 269.716V273.692C28.3077 273.785 28.2797 273.86 28.2237 273.916C28.1677 273.972 28.093 274 27.9997 274H27.7617C27.6683 274 27.5937 273.972 27.5377 273.916C27.4817 273.86 27.4537 273.785 27.4537 273.692V269.786C27.4537 269.03 27.267 268.442 26.8937 268.022C26.5297 267.602 26.0023 267.392 25.3117 267.392C24.6397 267.392 24.103 267.607 23.7017 268.036C23.3003 268.456 23.0997 269.039 23.0997 269.786V273.692C23.0997 273.785 23.0717 273.86 23.0157 273.916C22.9597 273.972 22.885 274 22.7917 274H22.5537ZM30.6571 265.222C30.5638 265.222 30.4891 265.194 30.4331 265.138C30.3771 265.082 30.3491 265.007 30.3491 264.914V264.382C30.3491 264.289 30.3771 264.214 30.4331 264.158C30.4891 264.093 30.5638 264.06 30.6571 264.06H31.1891C31.2825 264.06 31.3571 264.093 31.4131 264.158C31.4785 264.214 31.5111 264.289 31.5111 264.382V264.914C31.5111 265.007 31.4785 265.082 31.4131 265.138C31.3571 265.194 31.2825 265.222 31.1891 265.222H30.6571ZM30.8111 274C30.7178 274 30.6431 273.972 30.5871 273.916C30.5311 273.86 30.5031 273.785 30.5031 273.692V267.028C30.5031 266.935 30.5311 266.86 30.5871 266.804C30.6431 266.748 30.7178 266.72 30.8111 266.72H31.0491C31.1425 266.72 31.2171 266.748 31.2731 266.804C31.3291 266.86 31.3571 266.935 31.3571 267.028V273.692C31.3571 273.785 31.3291 273.86 31.2731 273.916C31.2171 273.972 31.1425 274 31.0491 274H30.8111ZM35.9303 274.14C35.3237 274.14 34.8103 274.037 34.3903 273.832C33.9797 273.627 33.667 273.393 33.4523 273.132C33.247 272.871 33.1443 272.661 33.1443 272.502C33.1443 272.418 33.177 272.353 33.2423 272.306C33.3077 272.25 33.3777 272.222 33.4523 272.222H33.6623C33.7277 272.222 33.779 272.236 33.8163 272.264C33.863 272.283 33.9143 272.329 33.9703 272.404C34.1757 272.693 34.423 272.922 34.7123 273.09C35.011 273.249 35.417 273.328 35.9303 273.328C36.509 273.328 36.9757 273.221 37.3303 273.006C37.685 272.782 37.8623 272.465 37.8623 272.054C37.8623 271.802 37.7877 271.597 37.6383 271.438C37.4983 271.279 37.265 271.144 36.9383 271.032C36.621 270.911 36.145 270.775 35.5103 270.626C34.6797 270.439 34.1103 270.183 33.8023 269.856C33.5037 269.529 33.3543 269.114 33.3543 268.61C33.3543 268.265 33.4477 267.938 33.6343 267.63C33.8303 267.322 34.115 267.07 34.4883 266.874C34.871 266.678 35.3283 266.58 35.8603 266.58C36.4203 266.58 36.8917 266.678 37.2743 266.874C37.6663 267.061 37.9557 267.28 38.1423 267.532C38.3383 267.784 38.4363 267.989 38.4363 268.148C38.4363 268.232 38.4037 268.302 38.3383 268.358C38.2823 268.405 38.2123 268.428 38.1283 268.428H37.9183C37.7877 268.428 37.685 268.367 37.6103 268.246C37.4237 267.966 37.209 267.756 36.9663 267.616C36.733 267.467 36.3643 267.392 35.8603 267.392C35.319 267.392 34.9083 267.504 34.6283 267.728C34.3483 267.952 34.2083 268.246 34.2083 268.61C34.2083 268.834 34.2643 269.021 34.3763 269.17C34.4883 269.319 34.6983 269.459 35.0063 269.59C35.3143 269.711 35.7623 269.837 36.3503 269.968C37.2183 270.164 37.8297 270.425 38.1843 270.752C38.539 271.079 38.7163 271.513 38.7163 272.054C38.7163 272.437 38.609 272.787 38.3943 273.104C38.1797 273.421 37.8623 273.673 37.4423 273.86C37.0223 274.047 36.5183 274.14 35.9303 274.14ZM45.6822 274C45.5609 274 45.4675 273.972 45.4022 273.916C45.3369 273.86 45.2809 273.771 45.2342 273.65L43.2602 267.154L43.2322 267C43.2322 266.925 43.2602 266.86 43.3162 266.804C43.3722 266.748 43.4375 266.72 43.5122 266.72H43.7782C43.8622 266.72 43.9322 266.743 43.9882 266.79C44.0442 266.837 44.0769 266.883 44.0862 266.93L45.8082 272.754L47.6422 267C47.6609 266.925 47.7029 266.86 47.7682 266.804C47.8335 266.748 47.9175 266.72 48.0202 266.72H48.3002C48.4029 266.72 48.4869 266.748 48.5522 266.804C48.6175 266.86 48.6595 266.925 48.6782 267L50.5122 272.754L52.2342 266.93C52.2435 266.883 52.2762 266.837 52.3322 266.79C52.3882 266.743 52.4582 266.72 52.5422 266.72H52.8082C52.8829 266.72 52.9482 266.748 53.0042 266.804C53.0602 266.86 53.0882 266.925 53.0882 267L53.0602 267.154L51.0862 273.65C51.0395 273.771 50.9835 273.86 50.9182 273.916C50.8529 273.972 50.7595 274 50.6382 274H50.4002C50.1482 274 49.9895 273.883 49.9242 273.65L48.1602 268.134L46.3962 273.65C46.3309 273.883 46.1722 274 45.9202 274H45.6822ZM57.3923 274.14C56.4217 274.14 55.6657 273.846 55.1243 273.258C54.5923 272.661 54.3123 271.891 54.2843 270.948L54.2703 270.36L54.2843 269.772C54.3123 268.829 54.5923 268.064 55.1243 267.476C55.6657 266.879 56.4217 266.58 57.3923 266.58C58.363 266.58 59.1143 266.879 59.6463 267.476C60.1877 268.064 60.4723 268.829 60.5003 269.772C60.5097 269.865 60.5143 270.061 60.5143 270.36C60.5143 270.659 60.5097 270.855 60.5003 270.948C60.4723 271.891 60.1877 272.661 59.6463 273.258C59.1143 273.846 58.363 274.14 57.3923 274.14ZM57.3923 273.328C58.055 273.328 58.587 273.118 58.9883 272.698C59.399 272.269 59.6183 271.662 59.6463 270.878C59.6557 270.785 59.6603 270.612 59.6603 270.36C59.6603 270.108 59.6557 269.935 59.6463 269.842C59.6183 269.058 59.399 268.456 58.9883 268.036C58.587 267.607 58.055 267.392 57.3923 267.392C56.7297 267.392 56.193 267.607 55.7823 268.036C55.381 268.456 55.1663 269.058 55.1383 269.842L55.1243 270.36L55.1383 270.878C55.1663 271.662 55.381 272.269 55.7823 272.698C56.193 273.118 56.7297 273.328 57.3923 273.328ZM62.735 274C62.6416 274 62.567 273.972 62.511 273.916C62.455 273.86 62.427 273.785 62.427 273.692V267.042C62.427 266.949 62.455 266.874 62.511 266.818C62.567 266.753 62.6416 266.72 62.735 266.72H62.959C63.0523 266.72 63.127 266.753 63.183 266.818C63.2483 266.874 63.281 266.949 63.281 267.042V267.686C63.617 267.042 64.2516 266.72 65.185 266.72H65.703C65.7963 266.72 65.871 266.748 65.927 266.804C65.983 266.86 66.011 266.935 66.011 267.028V267.224C66.011 267.317 65.983 267.392 65.927 267.448C65.871 267.504 65.7963 267.532 65.703 267.532H65.101C64.541 267.532 64.0976 267.695 63.771 268.022C63.4443 268.349 63.281 268.792 63.281 269.352V273.692C63.281 273.785 63.2483 273.86 63.183 273.916C63.127 273.972 63.0523 274 62.959 274H62.735ZM67.6162 274C67.5228 274 67.4482 273.972 67.3922 273.916C67.3362 273.86 67.3082 273.785 67.3082 273.692V264.368C67.3082 264.275 67.3362 264.2 67.3922 264.144C67.4482 264.088 67.5228 264.06 67.6162 264.06H67.8542C67.9475 264.06 68.0222 264.088 68.0782 264.144C68.1342 264.2 68.1622 264.275 68.1622 264.368V273.692C68.1622 273.785 68.1342 273.86 68.0782 273.916C68.0222 273.972 67.9475 274 67.8542 274H67.6162ZM73.0707 274.14C72.0627 274.14 71.316 273.813 70.8307 273.16C70.3547 272.497 70.1027 271.695 70.0747 270.752L70.0607 270.36L70.0747 269.968C70.1027 269.025 70.3547 268.227 70.8307 267.574C71.316 266.911 72.0627 266.58 73.0707 266.58C74.088 266.58 74.872 266.949 75.4227 267.686V264.368C75.4227 264.275 75.4507 264.2 75.5067 264.144C75.5627 264.088 75.6374 264.06 75.7307 264.06H75.9687C76.062 264.06 76.1367 264.088 76.1927 264.144C76.2487 264.2 76.2767 264.275 76.2767 264.368V273.692C76.2767 273.785 76.2487 273.86 76.1927 273.916C76.1367 273.972 76.062 274 75.9687 274H75.7307C75.6374 274 75.5627 273.972 75.5067 273.916C75.4507 273.86 75.4227 273.785 75.4227 273.692V273.034C74.8814 273.771 74.0974 274.14 73.0707 274.14ZM73.1547 273.328C73.892 273.328 74.4474 273.085 74.8207 272.6C75.194 272.105 75.3947 271.527 75.4227 270.864C75.432 270.771 75.4367 270.589 75.4367 270.318C75.4367 270.047 75.432 269.865 75.4227 269.772C75.4134 269.371 75.3247 268.993 75.1567 268.638C74.9887 268.274 74.7367 267.975 74.4007 267.742C74.0647 267.509 73.6494 267.392 73.1547 267.392C72.3987 267.392 71.8434 267.635 71.4887 268.12C71.1434 268.596 70.9567 269.212 70.9287 269.968L70.9147 270.36C70.9147 271.228 71.0827 271.942 71.4187 272.502C71.7547 273.053 72.3334 273.328 73.1547 273.328ZM84.9412 274.14C83.9705 274.14 83.2145 273.846 82.6732 273.258C82.1412 272.661 81.8612 271.891 81.8332 270.948L81.8192 270.36L81.8332 269.772C81.8612 268.829 82.1412 268.064 82.6732 267.476C83.2145 266.879 83.9705 266.58 84.9412 266.58C85.9118 266.58 86.6632 266.879 87.1952 267.476C87.7365 268.064 88.0212 268.829 88.0492 269.772C88.0585 269.865 88.0632 270.061 88.0632 270.36C88.0632 270.659 88.0585 270.855 88.0492 270.948C88.0212 271.891 87.7365 272.661 87.1952 273.258C86.6632 273.846 85.9118 274.14 84.9412 274.14ZM84.9412 273.328C85.6038 273.328 86.1358 273.118 86.5372 272.698C86.9478 272.269 87.1672 271.662 87.1952 270.878C87.2045 270.785 87.2092 270.612 87.2092 270.36C87.2092 270.108 87.2045 269.935 87.1952 269.842C87.1672 269.058 86.9478 268.456 86.5372 268.036C86.1358 267.607 85.6038 267.392 84.9412 267.392C84.2785 267.392 83.7418 267.607 83.3312 268.036C82.9298 268.456 82.7152 269.058 82.6872 269.842L82.6732 270.36L82.6872 270.878C82.7152 271.662 82.9298 272.269 83.3312 272.698C83.7418 273.118 84.2785 273.328 84.9412 273.328ZM90.8741 274C90.7808 274 90.7061 273.972 90.6501 273.916C90.5941 273.86 90.5661 273.785 90.5661 273.692V267.532H89.3201C89.2268 267.532 89.1521 267.504 89.0961 267.448C89.0401 267.392 89.0121 267.317 89.0121 267.224V267.028C89.0121 266.935 89.0401 266.86 89.0961 266.804C89.1521 266.748 89.2268 266.72 89.3201 266.72H90.5661V265.922C90.5661 265.213 90.7201 264.657 91.0281 264.256C91.3361 263.845 91.8868 263.64 92.6801 263.64H93.4081C93.5014 263.64 93.5761 263.668 93.6321 263.724C93.6881 263.78 93.7161 263.855 93.7161 263.948V264.144C93.7161 264.237 93.6881 264.312 93.6321 264.368C93.5761 264.424 93.5014 264.452 93.4081 264.452H92.6801C92.2041 264.452 91.8728 264.578 91.6861 264.83C91.5088 265.073 91.4201 265.46 91.4201 265.992V266.72H93.2681C93.3614 266.72 93.4361 266.748 93.4921 266.804C93.5481 266.86 93.5761 266.935 93.5761 267.028V267.224C93.5761 267.317 93.5481 267.392 93.4921 267.448C93.4361 267.504 93.3614 267.532 93.2681 267.532H91.4201V273.692C91.4201 273.785 91.3921 273.86 91.3361 273.916C91.2801 273.972 91.2054 274 91.1121 274H90.8741ZM100.964 274.14C99.9936 274.14 99.2423 273.86 98.7103 273.3C98.1783 272.731 97.8983 271.937 97.8703 270.92L97.8563 270.36L97.8703 269.8C97.8983 268.783 98.1783 267.994 98.7103 267.434C99.2423 266.865 99.9936 266.58 100.964 266.58C101.58 266.58 102.103 266.692 102.532 266.916C102.971 267.131 103.298 267.411 103.512 267.756C103.727 268.092 103.844 268.442 103.862 268.806C103.872 268.89 103.844 268.965 103.778 269.03C103.713 269.086 103.638 269.114 103.554 269.114H103.358C103.265 269.114 103.195 269.095 103.148 269.058C103.111 269.011 103.069 268.932 103.022 268.82C102.836 268.307 102.574 267.943 102.238 267.728C101.902 267.504 101.478 267.392 100.964 267.392C100.292 267.392 99.7556 267.597 99.3543 268.008C98.9623 268.409 98.7523 269.03 98.7243 269.87L98.7103 270.36L98.7243 270.85C98.7523 271.69 98.9623 272.315 99.3543 272.726C99.7556 273.127 100.292 273.328 100.964 273.328C101.478 273.328 101.902 273.221 102.238 273.006C102.574 272.782 102.836 272.413 103.022 271.9C103.069 271.788 103.111 271.713 103.148 271.676C103.195 271.629 103.265 271.606 103.358 271.606H103.554C103.638 271.606 103.713 271.639 103.778 271.704C103.844 271.76 103.872 271.83 103.862 271.914C103.844 272.278 103.727 272.633 103.512 272.978C103.298 273.314 102.971 273.594 102.532 273.818C102.103 274.033 101.58 274.14 100.964 274.14ZM106.034 274C105.941 274 105.866 273.972 105.81 273.916C105.754 273.86 105.726 273.785 105.726 273.692V264.368C105.726 264.275 105.754 264.2 105.81 264.144C105.866 264.088 105.941 264.06 106.034 264.06H106.272C106.365 264.06 106.44 264.088 106.496 264.144C106.552 264.2 106.58 264.275 106.58 264.368V273.692C106.58 273.785 106.552 273.86 106.496 273.916C106.44 273.972 106.365 274 106.272 274H106.034ZM111.587 274.14C110.672 274.14 109.977 273.851 109.501 273.272C109.025 272.693 108.787 271.937 108.787 271.004V267.028C108.787 266.935 108.815 266.86 108.871 266.804C108.927 266.748 109.001 266.72 109.095 266.72H109.333C109.426 266.72 109.501 266.748 109.557 266.804C109.613 266.86 109.641 266.935 109.641 267.028V270.934C109.641 272.53 110.336 273.328 111.727 273.328C112.399 273.328 112.931 273.118 113.323 272.698C113.724 272.269 113.925 271.681 113.925 270.934V267.028C113.925 266.935 113.953 266.86 114.009 266.804C114.065 266.748 114.139 266.72 114.233 266.72H114.471C114.564 266.72 114.639 266.748 114.695 266.804C114.751 266.86 114.779 266.935 114.779 267.028V273.692C114.779 273.785 114.751 273.86 114.695 273.916C114.639 273.972 114.564 274 114.471 274H114.233C114.139 274 114.065 273.972 114.009 273.916C113.953 273.86 113.925 273.785 113.925 273.692V273.034C113.645 273.398 113.323 273.673 112.959 273.86C112.604 274.047 112.147 274.14 111.587 274.14ZM119.496 274C118.805 274 118.315 273.795 118.026 273.384C117.737 272.964 117.592 272.39 117.592 271.662V267.532H116.5C116.407 267.532 116.332 267.504 116.276 267.448C116.22 267.392 116.192 267.317 116.192 267.224V267.028C116.192 266.935 116.22 266.86 116.276 266.804C116.332 266.748 116.407 266.72 116.5 266.72H117.592V264.368C117.592 264.275 117.62 264.2 117.676 264.144C117.732 264.088 117.807 264.06 117.9 264.06H118.138C118.231 264.06 118.306 264.088 118.362 264.144C118.418 264.2 118.446 264.275 118.446 264.368V266.72H120.182C120.275 266.72 120.35 266.748 120.406 266.804C120.462 266.86 120.49 266.935 120.49 267.028V267.224C120.49 267.317 120.462 267.392 120.406 267.448C120.35 267.504 120.275 267.532 120.182 267.532H118.446V271.606C118.446 272.129 118.53 272.525 118.698 272.796C118.875 273.057 119.165 273.188 119.566 273.188H120.322C120.415 273.188 120.49 273.216 120.546 273.272C120.602 273.328 120.63 273.403 120.63 273.496V273.692C120.63 273.785 120.602 273.86 120.546 273.916C120.49 273.972 120.415 274 120.322 274H119.496ZM124.527 274C123.837 274 123.347 273.795 123.057 273.384C122.768 272.964 122.623 272.39 122.623 271.662V267.532H121.531C121.438 267.532 121.363 267.504 121.307 267.448C121.251 267.392 121.223 267.317 121.223 267.224V267.028C121.223 266.935 121.251 266.86 121.307 266.804C121.363 266.748 121.438 266.72 121.531 266.72H122.623V264.368C122.623 264.275 122.651 264.2 122.707 264.144C122.763 264.088 122.838 264.06 122.931 264.06H123.169C123.263 264.06 123.337 264.088 123.393 264.144C123.449 264.2 123.477 264.275 123.477 264.368V266.72H125.213C125.307 266.72 125.381 266.748 125.437 266.804C125.493 266.86 125.521 266.935 125.521 267.028V267.224C125.521 267.317 125.493 267.392 125.437 267.448C125.381 267.504 125.307 267.532 125.213 267.532H123.477V271.606C123.477 272.129 123.561 272.525 123.729 272.796C123.907 273.057 124.196 273.188 124.597 273.188H125.353C125.447 273.188 125.521 273.216 125.577 273.272C125.633 273.328 125.661 273.403 125.661 273.496V273.692C125.661 273.785 125.633 273.86 125.577 273.916C125.521 273.972 125.447 274 125.353 274H124.527ZM129.811 274.14C128.924 274.14 128.21 273.851 127.669 273.272C127.127 272.684 126.819 271.9 126.745 270.92L126.731 270.36L126.745 269.8C126.819 268.829 127.123 268.05 127.655 267.462C128.196 266.874 128.915 266.58 129.811 266.58C130.781 266.58 131.537 266.902 132.079 267.546C132.629 268.19 132.905 269.072 132.905 270.192V270.402C132.905 270.495 132.872 270.57 132.807 270.626C132.751 270.682 132.676 270.71 132.583 270.71H127.599V270.85C127.617 271.289 127.715 271.699 127.893 272.082C128.079 272.455 128.336 272.759 128.663 272.992C128.989 273.216 129.372 273.328 129.811 273.328C130.324 273.328 130.739 273.23 131.057 273.034C131.383 272.829 131.617 272.623 131.757 272.418C131.841 272.306 131.901 272.236 131.939 272.208C131.985 272.18 132.065 272.166 132.177 272.166H132.401C132.485 272.166 132.555 272.189 132.611 272.236C132.667 272.283 132.695 272.343 132.695 272.418C132.695 272.614 132.569 272.852 132.317 273.132C132.074 273.403 131.733 273.641 131.295 273.846C130.856 274.042 130.361 274.14 129.811 274.14ZM132.051 269.926V269.87C132.051 269.151 131.845 268.559 131.435 268.092C131.033 267.625 130.492 267.392 129.811 267.392C129.129 267.392 128.588 267.625 128.187 268.092C127.795 268.559 127.599 269.151 127.599 269.87V269.926H132.051ZM135.059 274C134.966 274 134.891 273.972 134.835 273.916C134.779 273.86 134.751 273.785 134.751 273.692V267.042C134.751 266.949 134.779 266.874 134.835 266.818C134.891 266.753 134.966 266.72 135.059 266.72H135.283C135.377 266.72 135.451 266.753 135.507 266.818C135.573 266.874 135.605 266.949 135.605 267.042V267.686C135.941 267.042 136.576 266.72 137.509 266.72H138.027C138.121 266.72 138.195 266.748 138.251 266.804C138.307 266.86 138.335 266.935 138.335 267.028V267.224C138.335 267.317 138.307 267.392 138.251 267.448C138.195 267.504 138.121 267.532 138.027 267.532H137.425C136.865 267.532 136.422 267.695 136.095 268.022C135.769 268.349 135.605 268.792 135.605 269.352V273.692C135.605 273.785 135.573 273.86 135.507 273.916C135.451 273.972 135.377 274 135.283 274H135.059ZM144.448 274C144.326 274 144.233 273.972 144.168 273.916C144.102 273.86 144.046 273.771 144 273.65L142.026 267.154L141.998 267C141.998 266.925 142.026 266.86 142.082 266.804C142.138 266.748 142.203 266.72 142.278 266.72H142.544C142.628 266.72 142.698 266.743 142.754 266.79C142.81 266.837 142.842 266.883 142.852 266.93L144.574 272.754L146.408 267C146.426 266.925 146.468 266.86 146.534 266.804C146.599 266.748 146.683 266.72 146.786 266.72H147.066C147.168 266.72 147.252 266.748 147.318 266.804C147.383 266.86 147.425 266.925 147.444 267L149.278 272.754L151 266.93C151.009 266.883 151.042 266.837 151.098 266.79C151.154 266.743 151.224 266.72 151.308 266.72H151.574C151.648 266.72 151.714 266.748 151.77 266.804C151.826 266.86 151.854 266.925 151.854 267L151.826 267.154L149.852 273.65C149.805 273.771 149.749 273.86 149.684 273.916C149.618 273.972 149.525 274 149.404 274H149.166C148.914 274 148.755 273.883 148.69 273.65L146.926 268.134L145.162 273.65C145.096 273.883 144.938 274 144.686 274H144.448ZM156.088 274.14C155.201 274.14 154.487 273.851 153.946 273.272C153.405 272.684 153.097 271.9 153.022 270.92L153.008 270.36L153.022 269.8C153.097 268.829 153.4 268.05 153.932 267.462C154.473 266.874 155.192 266.58 156.088 266.58C157.059 266.58 157.815 266.902 158.356 267.546C158.907 268.19 159.182 269.072 159.182 270.192V270.402C159.182 270.495 159.149 270.57 159.084 270.626C159.028 270.682 158.953 270.71 158.86 270.71H153.876V270.85C153.895 271.289 153.993 271.699 154.17 272.082C154.357 272.455 154.613 272.759 154.94 272.992C155.267 273.216 155.649 273.328 156.088 273.328C156.601 273.328 157.017 273.23 157.334 273.034C157.661 272.829 157.894 272.623 158.034 272.418C158.118 272.306 158.179 272.236 158.216 272.208C158.263 272.18 158.342 272.166 158.454 272.166H158.678C158.762 272.166 158.832 272.189 158.888 272.236C158.944 272.283 158.972 272.343 158.972 272.418C158.972 272.614 158.846 272.852 158.594 273.132C158.351 273.403 158.011 273.641 157.572 273.846C157.133 274.042 156.639 274.14 156.088 274.14ZM158.328 269.926V269.87C158.328 269.151 158.123 268.559 157.712 268.092C157.311 267.625 156.769 267.392 156.088 267.392C155.407 267.392 154.865 267.625 154.464 268.092C154.072 268.559 153.876 269.151 153.876 269.87V269.926H158.328ZM167.27 274.14C166.262 274.14 165.515 273.813 165.03 273.16C164.554 272.497 164.302 271.695 164.274 270.752L164.26 270.36L164.274 269.968C164.302 269.025 164.554 268.227 165.03 267.574C165.515 266.911 166.262 266.58 167.27 266.58C168.287 266.58 169.071 266.949 169.622 267.686V264.368C169.622 264.275 169.65 264.2 169.706 264.144C169.762 264.088 169.837 264.06 169.93 264.06H170.168C170.261 264.06 170.336 264.088 170.392 264.144C170.448 264.2 170.476 264.275 170.476 264.368V273.692C170.476 273.785 170.448 273.86 170.392 273.916C170.336 273.972 170.261 274 170.168 274H169.93C169.837 274 169.762 273.972 169.706 273.916C169.65 273.86 169.622 273.785 169.622 273.692V273.034C169.081 273.771 168.297 274.14 167.27 274.14ZM167.354 273.328C168.091 273.328 168.647 273.085 169.02 272.6C169.393 272.105 169.594 271.527 169.622 270.864C169.631 270.771 169.636 270.589 169.636 270.318C169.636 270.047 169.631 269.865 169.622 269.772C169.613 269.371 169.524 268.993 169.356 268.638C169.188 268.274 168.936 267.975 168.6 267.742C168.264 267.509 167.849 267.392 167.354 267.392C166.598 267.392 166.043 267.635 165.688 268.12C165.343 268.596 165.156 269.212 165.128 269.968L165.114 270.36C165.114 271.228 165.282 271.942 165.618 272.502C165.954 273.053 166.533 273.328 167.354 273.328ZM175.531 274.14C174.56 274.14 173.804 273.846 173.263 273.258C172.731 272.661 172.451 271.891 172.423 270.948L172.409 270.36L172.423 269.772C172.451 268.829 172.731 268.064 173.263 267.476C173.804 266.879 174.56 266.58 175.531 266.58C176.502 266.58 177.253 266.879 177.785 267.476C178.326 268.064 178.611 268.829 178.639 269.772C178.648 269.865 178.653 270.061 178.653 270.36C178.653 270.659 178.648 270.855 178.639 270.948C178.611 271.891 178.326 272.661 177.785 273.258C177.253 273.846 176.502 274.14 175.531 274.14ZM175.531 273.328C176.194 273.328 176.726 273.118 177.127 272.698C177.538 272.269 177.757 271.662 177.785 270.878C177.794 270.785 177.799 270.612 177.799 270.36C177.799 270.108 177.794 269.935 177.785 269.842C177.757 269.058 177.538 268.456 177.127 268.036C176.726 267.607 176.194 267.392 175.531 267.392C174.868 267.392 174.332 267.607 173.921 268.036C173.52 268.456 173.305 269.058 173.277 269.842L173.263 270.36L173.277 270.878C173.305 271.662 173.52 272.269 173.921 272.698C174.332 273.118 174.868 273.328 175.531 273.328ZM184.483 274C184.39 274 184.315 273.972 184.259 273.916C184.203 273.86 184.175 273.785 184.175 273.692V267.028C184.175 266.935 184.203 266.86 184.259 266.804C184.315 266.748 184.39 266.72 184.483 266.72H184.721C184.814 266.72 184.889 266.748 184.945 266.804C185.001 266.86 185.029 266.935 185.029 267.028V267.686C185.309 267.322 185.626 267.047 185.981 266.86C186.345 266.673 186.812 266.58 187.381 266.58C188.296 266.58 189 266.874 189.495 267.462C189.99 268.041 190.237 268.792 190.237 269.716V273.692C190.237 273.785 190.209 273.86 190.153 273.916C190.097 273.972 190.022 274 189.929 274H189.691C189.598 274 189.523 273.972 189.467 273.916C189.411 273.86 189.383 273.785 189.383 273.692V269.786C189.383 269.03 189.196 268.442 188.823 268.022C188.459 267.602 187.932 267.392 187.241 267.392C186.569 267.392 186.032 267.607 185.631 268.036C185.23 268.456 185.029 269.039 185.029 269.786V273.692C185.029 273.785 185.001 273.86 184.945 273.916C184.889 273.972 184.814 274 184.721 274H184.483ZM195.205 274.14C194.234 274.14 193.478 273.846 192.937 273.258C192.405 272.661 192.125 271.891 192.097 270.948L192.083 270.36L192.097 269.772C192.125 268.829 192.405 268.064 192.937 267.476C193.478 266.879 194.234 266.58 195.205 266.58C196.175 266.58 196.927 266.879 197.459 267.476C198 268.064 198.285 268.829 198.313 269.772C198.322 269.865 198.327 270.061 198.327 270.36C198.327 270.659 198.322 270.855 198.313 270.948C198.285 271.891 198 272.661 197.459 273.258C196.927 273.846 196.175 274.14 195.205 274.14ZM195.205 273.328C195.867 273.328 196.399 273.118 196.801 272.698C197.211 272.269 197.431 271.662 197.459 270.878C197.468 270.785 197.473 270.612 197.473 270.36C197.473 270.108 197.468 269.935 197.459 269.842C197.431 269.058 197.211 268.456 196.801 268.036C196.399 267.607 195.867 267.392 195.205 267.392C194.542 267.392 194.005 267.607 193.595 268.036C193.193 268.456 192.979 269.058 192.951 269.842L192.937 270.36L192.951 270.878C192.979 271.662 193.193 272.269 193.595 272.698C194.005 273.118 194.542 273.328 195.205 273.328ZM202.607 274C201.917 274 201.427 273.795 201.137 273.384C200.848 272.964 200.703 272.39 200.703 271.662V267.532H199.611C199.518 267.532 199.443 267.504 199.387 267.448C199.331 267.392 199.303 267.317 199.303 267.224V267.028C199.303 266.935 199.331 266.86 199.387 266.804C199.443 266.748 199.518 266.72 199.611 266.72H200.703V264.368C200.703 264.275 200.731 264.2 200.787 264.144C200.843 264.088 200.918 264.06 201.011 264.06H201.249C201.343 264.06 201.417 264.088 201.473 264.144C201.529 264.2 201.557 264.275 201.557 264.368V266.72H203.293C203.387 266.72 203.461 266.748 203.517 266.804C203.573 266.86 203.601 266.935 203.601 267.028V267.224C203.601 267.317 203.573 267.392 203.517 267.448C203.461 267.504 203.387 267.532 203.293 267.532H201.557V271.606C201.557 272.129 201.641 272.525 201.809 272.796C201.987 273.057 202.276 273.188 202.677 273.188H203.433C203.527 273.188 203.601 273.216 203.657 273.272C203.713 273.328 203.741 273.403 203.741 273.496V273.692C203.741 273.785 203.713 273.86 203.657 273.916C203.601 273.972 203.527 274 203.433 274H202.607ZM4.024 294C3.90267 294 3.80933 293.972 3.744 293.916C3.67867 293.86 3.62267 293.771 3.576 293.65L1.602 287.154L1.574 287C1.574 286.925 1.602 286.86 1.658 286.804C1.714 286.748 1.77933 286.72 1.854 286.72H2.12C2.204 286.72 2.274 286.743 2.33 286.79C2.386 286.837 2.41867 286.883 2.428 286.93L4.15 292.754L5.984 287C6.00267 286.925 6.04467 286.86 6.11 286.804C6.17533 286.748 6.25933 286.72 6.362 286.72H6.642C6.74467 286.72 6.82867 286.748 6.894 286.804C6.95933 286.86 7.00133 286.925 7.02 287L8.854 292.754L10.576 286.93C10.5853 286.883 10.618 286.837 10.674 286.79C10.73 286.743 10.8 286.72 10.884 286.72H11.15C11.2247 286.72 11.29 286.748 11.346 286.804C11.402 286.86 11.43 286.925 11.43 287L11.402 287.154L9.428 293.65C9.38133 293.771 9.32533 293.86 9.26 293.916C9.19467 293.972 9.10133 294 8.98 294H8.742C8.49 294 8.33133 293.883 8.266 293.65L6.502 288.134L4.738 293.65C4.67267 293.883 4.514 294 4.262 294H4.024ZM14.9085 294.14C14.4605 294.14 14.0451 294.047 13.6625 293.86C13.2798 293.673 12.9718 293.421 12.7385 293.104C12.5145 292.787 12.4025 292.437 12.4025 292.054C12.4025 291.438 12.6498 290.934 13.1445 290.542C13.6485 290.15 14.3251 289.898 15.1745 289.786L17.3865 289.478V288.988C17.3865 288.475 17.2278 288.083 16.9105 287.812C16.6025 287.532 16.1265 287.392 15.4825 287.392C15.0065 287.392 14.6145 287.485 14.3065 287.672C14.0078 287.859 13.8165 288.083 13.7325 288.344C13.6951 288.456 13.6485 288.535 13.5925 288.582C13.5458 288.619 13.4805 288.638 13.3965 288.638H13.2005C13.1165 288.638 13.0418 288.61 12.9765 288.554C12.9205 288.489 12.8925 288.414 12.8925 288.33C12.8925 288.125 12.9858 287.887 13.1725 287.616C13.3591 287.336 13.6485 287.093 14.0405 286.888C14.4325 286.683 14.9131 286.58 15.4825 286.58C16.4811 286.58 17.1905 286.818 17.6105 287.294C18.0305 287.77 18.2405 288.349 18.2405 289.03V293.692C18.2405 293.785 18.2125 293.86 18.1565 293.916C18.1005 293.972 18.0258 294 17.9325 294H17.6945C17.6011 294 17.5265 293.972 17.4705 293.916C17.4145 293.86 17.3865 293.785 17.3865 293.692V293.034C17.1811 293.342 16.8778 293.603 16.4765 293.818C16.0845 294.033 15.5618 294.14 14.9085 294.14ZM15.0485 293.328C15.7298 293.328 16.2898 293.104 16.7285 292.656C17.1671 292.208 17.3865 291.564 17.3865 290.724V290.248L15.5805 290.5C14.8151 290.603 14.2365 290.78 13.8445 291.032C13.4525 291.284 13.2565 291.601 13.2565 291.984C13.2565 292.413 13.4338 292.745 13.7885 292.978C14.1525 293.211 14.5725 293.328 15.0485 293.328ZM20.7623 294C20.669 294 20.5943 293.972 20.5383 293.916C20.4823 293.86 20.4543 293.785 20.4543 293.692V287.028C20.4543 286.935 20.4823 286.86 20.5383 286.804C20.5943 286.748 20.669 286.72 20.7623 286.72H21.0003C21.0936 286.72 21.1683 286.748 21.2243 286.804C21.2803 286.86 21.3083 286.935 21.3083 287.028V287.686C21.5883 287.322 21.9056 287.047 22.2603 286.86C22.6243 286.673 23.091 286.58 23.6603 286.58C24.575 286.58 25.2796 286.874 25.7743 287.462C26.269 288.041 26.5163 288.792 26.5163 289.716V293.692C26.5163 293.785 26.4883 293.86 26.4323 293.916C26.3763 293.972 26.3016 294 26.2083 294H25.9703C25.877 294 25.8023 293.972 25.7463 293.916C25.6903 293.86 25.6623 293.785 25.6623 293.692V289.786C25.6623 289.03 25.4756 288.442 25.1023 288.022C24.7383 287.602 24.211 287.392 23.5203 287.392C22.8483 287.392 22.3116 287.607 21.9103 288.036C21.509 288.456 21.3083 289.039 21.3083 289.786V293.692C21.3083 293.785 21.2803 293.86 21.2243 293.916C21.1683 293.972 21.0936 294 21.0003 294H20.7623ZM31.0528 294C30.3621 294 29.8721 293.795 29.5828 293.384C29.2934 292.964 29.1488 292.39 29.1488 291.662V287.532H28.0568C27.9634 287.532 27.8888 287.504 27.8328 287.448C27.7768 287.392 27.7488 287.317 27.7488 287.224V287.028C27.7488 286.935 27.7768 286.86 27.8328 286.804C27.8888 286.748 27.9634 286.72 28.0568 286.72H29.1488V284.368C29.1488 284.275 29.1768 284.2 29.2328 284.144C29.2888 284.088 29.3634 284.06 29.4568 284.06H29.6948C29.7881 284.06 29.8628 284.088 29.9188 284.144C29.9748 284.2 30.0028 284.275 30.0028 284.368V286.72H31.7388C31.8321 286.72 31.9068 286.748 31.9628 286.804C32.0188 286.86 32.0468 286.935 32.0468 287.028V287.224C32.0468 287.317 32.0188 287.392 31.9628 287.448C31.9068 287.504 31.8321 287.532 31.7388 287.532H30.0028V291.606C30.0028 292.129 30.0868 292.525 30.2548 292.796C30.4321 293.057 30.7214 293.188 31.1228 293.188H31.8788C31.9721 293.188 32.0468 293.216 32.1028 293.272C32.1588 293.328 32.1868 293.403 32.1868 293.496V293.692C32.1868 293.785 32.1588 293.86 32.1028 293.916C32.0468 293.972 31.9721 294 31.8788 294H31.0528ZM39.3789 294C38.6883 294 38.1983 293.795 37.9089 293.384C37.6196 292.964 37.4749 292.39 37.4749 291.662V287.532H36.3829C36.2896 287.532 36.2149 287.504 36.1589 287.448C36.1029 287.392 36.0749 287.317 36.0749 287.224V287.028C36.0749 286.935 36.1029 286.86 36.1589 286.804C36.2149 286.748 36.2896 286.72 36.3829 286.72H37.4749V284.368C37.4749 284.275 37.5029 284.2 37.5589 284.144C37.6149 284.088 37.6896 284.06 37.7829 284.06H38.0209C38.1143 284.06 38.1889 284.088 38.2449 284.144C38.3009 284.2 38.3289 284.275 38.3289 284.368V286.72H40.0649C40.1583 286.72 40.2329 286.748 40.2889 286.804C40.3449 286.86 40.3729 286.935 40.3729 287.028V287.224C40.3729 287.317 40.3449 287.392 40.2889 287.448C40.2329 287.504 40.1583 287.532 40.0649 287.532H38.3289V291.606C38.3289 292.129 38.4129 292.525 38.5809 292.796C38.7583 293.057 39.0476 293.188 39.4489 293.188H40.2049C40.2983 293.188 40.3729 293.216 40.4289 293.272C40.4849 293.328 40.5129 293.403 40.5129 293.496V293.692C40.5129 293.785 40.4849 293.86 40.4289 293.916C40.3729 293.972 40.2983 294 40.2049 294H39.3789ZM44.7322 294.14C43.7615 294.14 43.0055 293.846 42.4642 293.258C41.9322 292.661 41.6522 291.891 41.6242 290.948L41.6102 290.36L41.6242 289.772C41.6522 288.829 41.9322 288.064 42.4642 287.476C43.0055 286.879 43.7615 286.58 44.7322 286.58C45.7028 286.58 46.4542 286.879 46.9862 287.476C47.5275 288.064 47.8122 288.829 47.8402 289.772C47.8495 289.865 47.8542 290.061 47.8542 290.36C47.8542 290.659 47.8495 290.855 47.8402 290.948C47.8122 291.891 47.5275 292.661 46.9862 293.258C46.4542 293.846 45.7028 294.14 44.7322 294.14ZM44.7322 293.328C45.3948 293.328 45.9268 293.118 46.3282 292.698C46.7388 292.269 46.9582 291.662 46.9862 290.878C46.9955 290.785 47.0002 290.612 47.0002 290.36C47.0002 290.108 46.9955 289.935 46.9862 289.842C46.9582 289.058 46.7388 288.456 46.3282 288.036C45.9268 287.607 45.3948 287.392 44.7322 287.392C44.0695 287.392 43.5328 287.607 43.1222 288.036C42.7208 288.456 42.5062 289.058 42.4782 289.842L42.4642 290.36L42.4782 290.878C42.5062 291.662 42.7208 292.269 43.1222 292.698C43.5328 293.118 44.0695 293.328 44.7322 293.328ZM55.3362 294.14C54.8882 294.14 54.4729 294.047 54.0902 293.86C53.7075 293.673 53.3995 293.421 53.1662 293.104C52.9422 292.787 52.8302 292.437 52.8302 292.054C52.8302 291.438 53.0775 290.934 53.5722 290.542C54.0762 290.15 54.7529 289.898 55.6022 289.786L57.8142 289.478V288.988C57.8142 288.475 57.6555 288.083 57.3382 287.812C57.0302 287.532 56.5542 287.392 55.9102 287.392C55.4342 287.392 55.0422 287.485 54.7342 287.672C54.4355 287.859 54.2442 288.083 54.1602 288.344C54.1229 288.456 54.0762 288.535 54.0202 288.582C53.9735 288.619 53.9082 288.638 53.8242 288.638H53.6282C53.5442 288.638 53.4695 288.61 53.4042 288.554C53.3482 288.489 53.3202 288.414 53.3202 288.33C53.3202 288.125 53.4135 287.887 53.6002 287.616C53.7869 287.336 54.0762 287.093 54.4682 286.888C54.8602 286.683 55.3409 286.58 55.9102 286.58C56.9089 286.58 57.6182 286.818 58.0382 287.294C58.4582 287.77 58.6682 288.349 58.6682 289.03V293.692C58.6682 293.785 58.6402 293.86 58.5842 293.916C58.5282 293.972 58.4535 294 58.3602 294H58.1222C58.0289 294 57.9542 293.972 57.8982 293.916C57.8422 293.86 57.8142 293.785 57.8142 293.692V293.034C57.6089 293.342 57.3055 293.603 56.9042 293.818C56.5122 294.033 55.9895 294.14 55.3362 294.14ZM55.4762 293.328C56.1575 293.328 56.7175 293.104 57.1562 292.656C57.5949 292.208 57.8142 291.564 57.8142 290.724V290.248L56.0082 290.5C55.2429 290.603 54.6642 290.78 54.2722 291.032C53.8802 291.284 53.6842 291.601 53.6842 291.984C53.6842 292.413 53.8615 292.745 54.2162 292.978C54.5802 293.211 55.0002 293.328 55.4762 293.328ZM63.514 294.14C62.506 294.14 61.7594 293.813 61.274 293.16C60.798 292.497 60.546 291.695 60.518 290.752L60.504 290.36L60.518 289.968C60.546 289.025 60.798 288.227 61.274 287.574C61.7594 286.911 62.506 286.58 63.514 286.58C64.5314 286.58 65.3154 286.949 65.866 287.686V284.368C65.866 284.275 65.894 284.2 65.95 284.144C66.006 284.088 66.0807 284.06 66.174 284.06H66.412C66.5054 284.06 66.58 284.088 66.636 284.144C66.692 284.2 66.72 284.275 66.72 284.368V293.692C66.72 293.785 66.692 293.86 66.636 293.916C66.58 293.972 66.5054 294 66.412 294H66.174C66.0807 294 66.006 293.972 65.95 293.916C65.894 293.86 65.866 293.785 65.866 293.692V293.034C65.3247 293.771 64.5407 294.14 63.514 294.14ZM63.598 293.328C64.3354 293.328 64.8907 293.085 65.264 292.6C65.6374 292.105 65.838 291.527 65.866 290.864C65.8754 290.771 65.88 290.589 65.88 290.318C65.88 290.047 65.8754 289.865 65.866 289.772C65.8567 289.371 65.768 288.993 65.6 288.638C65.432 288.274 65.18 287.975 64.844 287.742C64.508 287.509 64.0927 287.392 63.598 287.392C62.842 287.392 62.2867 287.635 61.932 288.12C61.5867 288.596 61.4 289.212 61.372 289.968L61.358 290.36C61.358 291.228 61.526 291.942 61.862 292.502C62.198 293.053 62.7767 293.328 63.598 293.328ZM71.6351 294.14C70.6271 294.14 69.8805 293.813 69.3951 293.16C68.9191 292.497 68.6671 291.695 68.6391 290.752L68.6251 290.36L68.6391 289.968C68.6671 289.025 68.9191 288.227 69.3951 287.574C69.8805 286.911 70.6271 286.58 71.6351 286.58C72.6525 286.58 73.4365 286.949 73.9871 287.686V284.368C73.9871 284.275 74.0151 284.2 74.0711 284.144C74.1271 284.088 74.2018 284.06 74.2951 284.06H74.5331C74.6265 284.06 74.7011 284.088 74.7571 284.144C74.8131 284.2 74.8411 284.275 74.8411 284.368V293.692C74.8411 293.785 74.8131 293.86 74.7571 293.916C74.7011 293.972 74.6265 294 74.5331 294H74.2951C74.2018 294 74.1271 293.972 74.0711 293.916C74.0151 293.86 73.9871 293.785 73.9871 293.692V293.034C73.4458 293.771 72.6618 294.14 71.6351 294.14ZM71.7191 293.328C72.4565 293.328 73.0118 293.085 73.3851 292.6C73.7585 292.105 73.9591 291.527 73.9871 290.864C73.9965 290.771 74.0011 290.589 74.0011 290.318C74.0011 290.047 73.9965 289.865 73.9871 289.772C73.9778 289.371 73.8891 288.993 73.7211 288.638C73.5531 288.274 73.3011 287.975 72.9651 287.742C72.6291 287.509 72.2138 287.392 71.7191 287.392C70.9631 287.392 70.4078 287.635 70.0531 288.12C69.7078 288.596 69.5211 289.212 69.4931 289.968L69.4791 290.36C69.4791 291.228 69.6471 291.942 69.9831 292.502C70.3191 293.053 70.8978 293.328 71.7191 293.328ZM81.0416 294C80.9483 294 80.8736 293.972 80.8176 293.916C80.7616 293.86 80.7336 293.785 80.7336 293.692V287.028C80.7336 286.935 80.7616 286.86 80.8176 286.804C80.8736 286.748 80.9483 286.72 81.0416 286.72H81.2796C81.3729 286.72 81.4476 286.748 81.5036 286.804C81.5596 286.86 81.5876 286.935 81.5876 287.028V287.518C81.8303 287.21 82.1103 286.977 82.4276 286.818C82.7543 286.659 83.1416 286.58 83.5896 286.58C84.6349 286.58 85.3816 287.019 85.8296 287.896C86.0536 287.495 86.3709 287.177 86.7816 286.944C87.2016 286.701 87.6776 286.58 88.2096 286.58C88.9843 286.58 89.6143 286.846 90.0996 287.378C90.5849 287.901 90.8276 288.647 90.8276 289.618V293.692C90.8276 293.785 90.7996 293.86 90.7436 293.916C90.6876 293.972 90.6129 294 90.5196 294H90.2816C90.1883 294 90.1136 293.972 90.0576 293.916C90.0016 293.86 89.9736 293.785 89.9736 293.692V289.758C89.9736 288.909 89.7963 288.302 89.4416 287.938C89.0963 287.574 88.6389 287.392 88.0696 287.392C87.5656 287.392 87.1269 287.579 86.7536 287.952C86.3896 288.316 86.2076 288.918 86.2076 289.758V293.692C86.2076 293.785 86.1796 293.86 86.1236 293.916C86.0676 293.972 85.9929 294 85.8996 294H85.6616C85.5683 294 85.4936 293.972 85.4376 293.916C85.3816 293.86 85.3536 293.785 85.3536 293.692V289.758C85.3536 288.918 85.1716 288.316 84.8076 287.952C84.4436 287.579 83.9909 287.392 83.4496 287.392C82.9456 287.392 82.5069 287.579 82.1336 287.952C81.7696 288.316 81.5876 288.913 81.5876 289.744V293.692C81.5876 293.785 81.5596 293.86 81.5036 293.916C81.4476 293.972 81.3729 294 81.2796 294H81.0416ZM95.7966 294.14C94.826 294.14 94.07 293.846 93.5286 293.258C92.9966 292.661 92.7166 291.891 92.6886 290.948L92.6746 290.36L92.6886 289.772C92.7166 288.829 92.9966 288.064 93.5286 287.476C94.07 286.879 94.826 286.58 95.7966 286.58C96.7673 286.58 97.5186 286.879 98.0506 287.476C98.592 288.064 98.8766 288.829 98.9046 289.772C98.914 289.865 98.9186 290.061 98.9186 290.36C98.9186 290.659 98.914 290.855 98.9046 290.948C98.8766 291.891 98.592 292.661 98.0506 293.258C97.5186 293.846 96.7673 294.14 95.7966 294.14ZM95.7966 293.328C96.4593 293.328 96.9913 293.118 97.3926 292.698C97.8033 292.269 98.0226 291.662 98.0506 290.878C98.06 290.785 98.0646 290.612 98.0646 290.36C98.0646 290.108 98.06 289.935 98.0506 289.842C98.0226 289.058 97.8033 288.456 97.3926 288.036C96.9913 287.607 96.4593 287.392 95.7966 287.392C95.134 287.392 94.5973 287.607 94.1866 288.036C93.7853 288.456 93.5706 289.058 93.5426 289.842L93.5286 290.36L93.5426 290.878C93.5706 291.662 93.7853 292.269 94.1866 292.698C94.5973 293.118 95.134 293.328 95.7966 293.328ZM101.139 294C101.046 294 100.971 293.972 100.915 293.916C100.859 293.86 100.831 293.785 100.831 293.692V287.042C100.831 286.949 100.859 286.874 100.915 286.818C100.971 286.753 101.046 286.72 101.139 286.72H101.363C101.457 286.72 101.531 286.753 101.587 286.818C101.653 286.874 101.685 286.949 101.685 287.042V287.686C102.021 287.042 102.656 286.72 103.589 286.72H104.107C104.201 286.72 104.275 286.748 104.331 286.804C104.387 286.86 104.415 286.935 104.415 287.028V287.224C104.415 287.317 104.387 287.392 104.331 287.448C104.275 287.504 104.201 287.532 104.107 287.532H103.505C102.945 287.532 102.502 287.695 102.175 288.022C101.849 288.349 101.685 288.792 101.685 289.352V293.692C101.685 293.785 101.653 293.86 101.587 293.916C101.531 293.972 101.457 294 101.363 294H101.139ZM108.236 294.14C107.35 294.14 106.636 293.851 106.094 293.272C105.553 292.684 105.245 291.9 105.17 290.92L105.156 290.36L105.17 289.8C105.245 288.829 105.548 288.05 106.08 287.462C106.622 286.874 107.34 286.58 108.236 286.58C109.207 286.58 109.963 286.902 110.504 287.546C111.055 288.19 111.33 289.072 111.33 290.192V290.402C111.33 290.495 111.298 290.57 111.232 290.626C111.176 290.682 111.102 290.71 111.008 290.71H106.024V290.85C106.043 291.289 106.141 291.699 106.318 292.082C106.505 292.455 106.762 292.759 107.088 292.992C107.415 293.216 107.798 293.328 108.236 293.328C108.75 293.328 109.165 293.23 109.482 293.034C109.809 292.829 110.042 292.623 110.182 292.418C110.266 292.306 110.327 292.236 110.364 292.208C110.411 292.18 110.49 292.166 110.602 292.166H110.826C110.91 292.166 110.98 292.189 111.036 292.236C111.092 292.283 111.12 292.343 111.12 292.418C111.12 292.614 110.994 292.852 110.742 293.132C110.5 293.403 110.159 293.641 109.72 293.846C109.282 294.042 108.787 294.14 108.236 294.14ZM110.476 289.926V289.87C110.476 289.151 110.271 288.559 109.86 288.092C109.459 287.625 108.918 287.392 108.236 287.392C107.555 287.392 107.014 287.625 106.612 288.092C106.22 288.559 106.024 289.151 106.024 289.87V289.926H110.476ZM113.373 294C113.28 294 113.205 293.972 113.149 293.916C113.093 293.86 113.065 293.785 113.065 293.692V293.02C113.065 292.927 113.093 292.852 113.149 292.796C113.205 292.731 113.28 292.698 113.373 292.698H114.045C114.138 292.698 114.213 292.731 114.269 292.796C114.334 292.852 114.367 292.927 114.367 293.02V293.692C114.367 293.785 114.334 293.86 114.269 293.916C114.213 293.972 114.138 294 114.045 294H113.373Z" fill="#363636"/>
<path d="M7.488 71C7.30133 71 7.18 70.9067 7.124 70.72L2.7 51.764V51.652C2.7 51.484 2.80267 51.4 3.008 51.4H5.696C5.90133 51.4 6.02267 51.5027 6.06 51.708L8.664 63.944C8.68267 64 8.71067 64.028 8.748 64.028C8.78533 64.028 8.81333 63.9907 8.832 63.916L11.24 51.708C11.2587 51.5027 11.38 51.4 11.604 51.4H14.04C14.2453 51.4 14.3667 51.5027 14.404 51.708L17.008 63.944C17.0267 64.0187 17.0547 64.056 17.092 64.056C17.1293 64.056 17.1573 64.0187 17.176 63.944L19.64 51.708C19.6773 51.5027 19.7987 51.4 20.004 51.4H22.58C22.8413 51.4 22.944 51.5213 22.888 51.764L18.716 70.692C18.6787 70.8973 18.5573 71 18.352 71H15.832C15.6267 71 15.5053 70.8973 15.468 70.692L12.892 58.064C12.8733 58.008 12.8453 57.98 12.808 57.98C12.7707 57.98 12.7427 58.008 12.724 58.064L10.288 70.692C10.2693 70.8973 10.148 71 9.924 71H7.488ZM36.7922 53.864C36.7922 53.9573 36.7549 54.0413 36.6802 54.116C36.6242 54.172 36.5495 54.2 36.4562 54.2H28.6722C28.5789 54.2 28.5322 54.2467 28.5322 54.34V59.604C28.5322 59.6973 28.5789 59.744 28.6722 59.744H33.6562C33.7495 59.744 33.8242 59.7813 33.8802 59.856C33.9549 59.912 33.9922 59.9867 33.9922 60.08V62.208C33.9922 62.3013 33.9549 62.3853 33.8802 62.46C33.8242 62.516 33.7495 62.544 33.6562 62.544H28.6722C28.5789 62.544 28.5322 62.5907 28.5322 62.684V68.06C28.5322 68.1533 28.5789 68.2 28.6722 68.2H36.4562C36.5495 68.2 36.6242 68.2373 36.6802 68.312C36.7549 68.368 36.7922 68.4427 36.7922 68.536V70.664C36.7922 70.7573 36.7549 70.8413 36.6802 70.916C36.6242 70.972 36.5495 71 36.4562 71H25.6202C25.5269 71 25.4429 70.972 25.3682 70.916C25.3122 70.8413 25.2842 70.7573 25.2842 70.664V51.736C25.2842 51.6427 25.3122 51.568 25.3682 51.512C25.4429 51.4373 25.5269 51.4 25.6202 51.4H36.4562C36.5495 51.4 36.6242 51.4373 36.6802 51.512C36.7549 51.568 36.7922 51.6427 36.7922 51.736V53.864ZM57.4531 65.624C57.4531 67.36 56.9025 68.6947 55.8011 69.628C54.7185 70.5427 53.2998 71 51.5451 71H45.5811C45.4878 71 45.4038 70.972 45.3291 70.916C45.2731 70.8413 45.2451 70.7573 45.2451 70.664V51.736C45.2451 51.6427 45.2731 51.568 45.3291 51.512C45.4038 51.4373 45.4878 51.4 45.5811 51.4H51.2091C53.0945 51.4 54.5598 51.848 55.6051 52.744C56.6691 53.6213 57.2011 54.9373 57.2011 56.692C57.2011 58.6147 56.4451 59.9773 54.9331 60.78C54.8398 60.836 54.8305 60.892 54.9051 60.948C56.6038 61.8627 57.4531 63.4213 57.4531 65.624ZM48.6331 54.2C48.5398 54.2 48.4931 54.2467 48.4931 54.34V59.548C48.4931 59.6413 48.5398 59.688 48.6331 59.688H51.2371C52.1145 59.688 52.7958 59.4547 53.2811 58.988C53.7851 58.5027 54.0371 57.8307 54.0371 56.972C54.0371 56.0947 53.7851 55.4133 53.2811 54.928C52.7958 54.4427 52.1145 54.2 51.2371 54.2H48.6331ZM51.4331 68.172C52.2918 68.172 52.9638 67.9107 53.4491 67.388C53.9531 66.8653 54.2051 66.1373 54.2051 65.204C54.2051 64.2707 53.9531 63.5427 53.4491 63.02C52.9451 62.4787 52.2638 62.208 51.4051 62.208H48.6331C48.5398 62.208 48.4931 62.2547 48.4931 62.348V68.032C48.4931 68.1253 48.5398 68.172 48.6331 68.172H51.4331ZM71.8742 53.864C71.8742 53.9573 71.8369 54.0413 71.7622 54.116C71.7062 54.172 71.6316 54.2 71.5382 54.2H63.7542C63.6609 54.2 63.6142 54.2467 63.6142 54.34V59.604C63.6142 59.6973 63.6609 59.744 63.7542 59.744H68.7382C68.8316 59.744 68.9062 59.7813 68.9622 59.856C69.0369 59.912 69.0742 59.9867 69.0742 60.08V62.208C69.0742 62.3013 69.0369 62.3853 68.9622 62.46C68.9062 62.516 68.8316 62.544 68.7382 62.544H63.7542C63.6609 62.544 63.6142 62.5907 63.6142 62.684V68.06C63.6142 68.1533 63.6609 68.2 63.7542 68.2H71.5382C71.6316 68.2 71.7062 68.2373 71.7622 68.312C71.8369 68.368 71.8742 68.4427 71.8742 68.536V70.664C71.8742 70.7573 71.8369 70.8413 71.7622 70.916C71.7062 70.972 71.6316 71 71.5382 71H60.7022C60.6089 71 60.5249 70.972 60.4502 70.916C60.3942 70.8413 60.3662 70.7573 60.3662 70.664V51.736C60.3662 51.6427 60.3942 51.568 60.4502 51.512C60.5249 51.4373 60.6089 51.4 60.7022 51.4H71.5382C71.6316 51.4 71.7062 51.4373 71.7622 51.512C71.8369 51.568 71.8742 51.6427 71.8742 51.736V53.864ZM75.0577 71C74.9644 71 74.8804 70.972 74.8057 70.916C74.7497 70.8413 74.7217 70.7573 74.7217 70.664V51.736C74.7217 51.6427 74.7497 51.568 74.8057 51.512C74.8804 51.4373 74.9644 51.4 75.0577 51.4H77.6337C77.727 51.4 77.8017 51.4373 77.8577 51.512C77.9324 51.568 77.9697 51.6427 77.9697 51.736V68.06C77.9697 68.1533 78.0164 68.2 78.1097 68.2H85.8097C85.903 68.2 85.9777 68.2373 86.0337 68.312C86.1084 68.368 86.1457 68.4427 86.1457 68.536V70.664C86.1457 70.7573 86.1084 70.8413 86.0337 70.916C85.9777 70.972 85.903 71 85.8097 71H75.0577ZM88.8663 71C88.7729 71 88.6889 70.972 88.6143 70.916C88.5583 70.8413 88.5303 70.7573 88.5303 70.664V51.736C88.5303 51.6427 88.5583 51.568 88.6143 51.512C88.6889 51.4373 88.7729 51.4 88.8663 51.4H91.4423C91.5356 51.4 91.6103 51.4373 91.6663 51.512C91.7409 51.568 91.7783 51.6427 91.7783 51.736V70.664C91.7783 70.7573 91.7409 70.8413 91.6663 70.916C91.6103 70.972 91.5356 71 91.4423 71H88.8663ZM106.847 53.864C106.847 53.9573 106.81 54.0413 106.735 54.116C106.679 54.172 106.604 54.2 106.511 54.2H98.7269C98.6335 54.2 98.5869 54.2467 98.5869 54.34V59.604C98.5869 59.6973 98.6335 59.744 98.7269 59.744H103.711C103.804 59.744 103.879 59.7813 103.935 59.856C104.01 59.912 104.047 59.9867 104.047 60.08V62.208C104.047 62.3013 104.01 62.3853 103.935 62.46C103.879 62.516 103.804 62.544 103.711 62.544H98.7269C98.6335 62.544 98.5869 62.5907 98.5869 62.684V68.06C98.5869 68.1533 98.6335 68.2 98.7269 68.2H106.511C106.604 68.2 106.679 68.2373 106.735 68.312C106.81 68.368 106.847 68.4427 106.847 68.536V70.664C106.847 70.7573 106.81 70.8413 106.735 70.916C106.679 70.972 106.604 71 106.511 71H95.6749C95.5815 71 95.4975 70.972 95.4229 70.916C95.3669 70.8413 95.3389 70.7573 95.3389 70.664V51.736C95.3389 51.6427 95.3669 51.568 95.4229 51.512C95.4975 51.4373 95.5815 51.4 95.6749 51.4H106.511C106.604 51.4 106.679 51.4373 106.735 51.512C106.81 51.568 106.847 51.6427 106.847 51.736V53.864ZM114.172 71C113.966 71 113.836 70.9067 113.78 70.72L108.824 51.764V51.652C108.824 51.484 108.926 51.4 109.132 51.4H111.904C112.09 51.4 112.212 51.4933 112.268 51.68L115.572 65.764C115.59 65.8387 115.618 65.876 115.656 65.876C115.693 65.876 115.721 65.8387 115.74 65.764L118.96 51.708C119.016 51.5027 119.137 51.4 119.324 51.4H122.04C122.282 51.4 122.376 51.5213 122.32 51.764L117.364 70.72C117.308 70.9067 117.177 71 116.972 71H114.172ZM136.323 53.864C136.323 53.9573 136.286 54.0413 136.211 54.116C136.155 54.172 136.081 54.2 135.987 54.2H128.203C128.11 54.2 128.063 54.2467 128.063 54.34V59.604C128.063 59.6973 128.11 59.744 128.203 59.744H133.187C133.281 59.744 133.355 59.7813 133.411 59.856C133.486 59.912 133.523 59.9867 133.523 60.08V62.208C133.523 62.3013 133.486 62.3853 133.411 62.46C133.355 62.516 133.281 62.544 133.187 62.544H128.203C128.11 62.544 128.063 62.5907 128.063 62.684V68.06C128.063 68.1533 128.11 68.2 128.203 68.2H135.987C136.081 68.2 136.155 68.2373 136.211 68.312C136.286 68.368 136.323 68.4427 136.323 68.536V70.664C136.323 70.7573 136.286 70.8413 136.211 70.916C136.155 70.972 136.081 71 135.987 71H125.151C125.058 71 124.974 70.972 124.899 70.916C124.843 70.8413 124.815 70.7573 124.815 70.664V51.736C124.815 51.6427 124.843 51.568 124.899 51.512C124.974 51.4373 125.058 51.4 125.151 51.4H135.987C136.081 51.4 136.155 51.4373 136.211 51.512C136.286 51.568 136.323 51.6427 136.323 51.736V53.864ZM145.112 71C145.019 71 144.935 70.972 144.86 70.916C144.804 70.8413 144.776 70.7573 144.776 70.664V51.736C144.776 51.6427 144.804 51.568 144.86 51.512C144.935 51.4373 145.019 51.4 145.112 51.4H147.688C147.782 51.4 147.856 51.4373 147.912 51.512C147.987 51.568 148.024 51.6427 148.024 51.736V70.664C148.024 70.7573 147.987 70.8413 147.912 70.916C147.856 70.972 147.782 71 147.688 71H145.112ZM161.245 51.736C161.245 51.6427 161.273 51.568 161.329 51.512C161.404 51.4373 161.488 51.4 161.581 51.4H164.157C164.25 51.4 164.325 51.4373 164.381 51.512C164.456 51.568 164.493 51.6427 164.493 51.736V70.664C164.493 70.7573 164.456 70.8413 164.381 70.916C164.325 70.972 164.25 71 164.157 71H161.441C161.273 71 161.142 70.916 161.049 70.748L154.945 58.204C154.908 58.148 154.87 58.1293 154.833 58.148C154.796 58.148 154.777 58.1853 154.777 58.26L154.805 70.664C154.805 70.7573 154.768 70.8413 154.693 70.916C154.637 70.972 154.562 71 154.469 71H151.893C151.8 71 151.716 70.972 151.641 70.916C151.585 70.8413 151.557 70.7573 151.557 70.664V51.736C151.557 51.6427 151.585 51.568 151.641 51.512C151.716 51.4373 151.8 51.4 151.893 51.4H154.581C154.768 51.4 154.898 51.484 154.973 51.652L161.105 64.252C161.142 64.308 161.18 64.336 161.217 64.336C161.254 64.3173 161.273 64.2707 161.273 64.196L161.245 51.736ZM183.703 71C183.498 71 183.367 70.9067 183.311 70.72L182.583 67.724C182.565 67.6493 182.518 67.612 182.443 67.612H176.675C176.601 67.612 176.554 67.6493 176.535 67.724L175.835 70.72C175.779 70.9067 175.649 71 175.443 71H172.783C172.541 71 172.447 70.8787 172.503 70.636L177.599 51.68C177.655 51.4933 177.786 51.4 177.991 51.4H181.183C181.389 51.4 181.519 51.4933 181.575 51.68L186.671 70.636L186.699 70.748C186.699 70.916 186.597 71 186.391 71H183.703ZM177.207 64.896C177.189 64.952 177.198 64.9987 177.235 65.036C177.273 65.0547 177.31 65.064 177.347 65.064H181.771C181.809 65.064 181.846 65.0547 181.883 65.036C181.921 64.9987 181.93 64.952 181.911 64.896L179.615 55.712C179.597 55.656 179.569 55.628 179.531 55.628C179.494 55.628 179.466 55.656 179.447 55.712L177.207 64.896ZM9.252 107.224C8.02 107.224 6.93733 107.009 6.004 106.58C5.07067 106.132 4.34267 105.507 3.82 104.704C3.316 103.883 3.064 102.94 3.064 101.876V101.148C3.064 101.055 3.092 100.98 3.148 100.924C3.22267 100.849 3.30667 100.812 3.4 100.812H5.92C6.01333 100.812 6.088 100.849 6.144 100.924C6.21867 100.98 6.256 101.055 6.256 101.148V101.708C6.256 102.511 6.536 103.164 7.096 103.668C7.656 104.172 8.412 104.424 9.364 104.424C10.2413 104.424 10.9133 104.2 11.38 103.752C11.8467 103.304 12.08 102.716 12.08 101.988C12.08 101.484 11.9493 101.055 11.688 100.7C11.4267 100.327 11.0533 99.9907 10.568 99.692C10.1013 99.3747 9.37333 98.9547 8.384 98.432C7.24533 97.8347 6.33067 97.3027 5.64 96.836C4.94933 96.3693 4.36133 95.772 3.876 95.044C3.40933 94.316 3.176 93.4293 3.176 92.384C3.176 90.7787 3.708 89.5093 4.772 88.576C5.85467 87.6427 7.27333 87.176 9.028 87.176C10.2413 87.176 11.3147 87.4093 12.248 87.876C13.1813 88.324 13.9 88.968 14.404 89.808C14.908 90.648 15.16 91.6093 15.16 92.692V93.28C15.16 93.3733 15.1227 93.4573 15.048 93.532C14.992 93.588 14.9173 93.616 14.824 93.616H12.304C12.2107 93.616 12.1267 93.588 12.052 93.532C11.996 93.4573 11.968 93.3733 11.968 93.28V92.748C11.968 91.9453 11.6973 91.2827 11.156 90.76C10.6147 90.2373 9.88667 89.976 8.972 89.976C8.16933 89.976 7.53467 90.1907 7.068 90.62C6.60133 91.0307 6.368 91.6093 6.368 92.356C6.368 92.86 6.48933 93.2893 6.732 93.644C6.97467 93.9987 7.33867 94.3347 7.824 94.652C8.328 94.9693 9.084 95.38 10.092 95.884C11.436 96.6493 12.4253 97.2467 13.06 97.676C13.6947 98.1053 14.2267 98.6653 14.656 99.356C15.104 100.028 15.328 100.859 15.328 101.848C15.328 103.491 14.7773 104.797 13.676 105.768C12.5747 106.739 11.1 107.224 9.252 107.224ZM29.2987 87.4C29.392 87.4 29.4667 87.4373 29.5227 87.512C29.5974 87.568 29.6347 87.6427 29.6347 87.736V89.892C29.6347 89.9853 29.5974 90.0693 29.5227 90.144C29.4667 90.2 29.392 90.228 29.2987 90.228H24.9587C24.8654 90.228 24.8187 90.2747 24.8187 90.368V106.664C24.8187 106.757 24.7814 106.841 24.7067 106.916C24.6507 106.972 24.576 107 24.4827 107H21.9067C21.8134 107 21.7294 106.972 21.6547 106.916C21.5987 106.841 21.5707 106.757 21.5707 106.664V90.368C21.5707 90.2747 21.524 90.228 21.4307 90.228H17.2587C17.1654 90.228 17.0814 90.2 17.0067 90.144C16.9507 90.0693 16.9227 89.9853 16.9227 89.892V87.736C16.9227 87.6427 16.9507 87.568 17.0067 87.512C17.0814 87.4373 17.1654 87.4 17.2587 87.4H29.2987ZM41.6362 107C41.4309 107 41.3002 106.907 41.2442 106.72L38.2202 98.684C38.1829 98.6093 38.1362 98.572 38.0802 98.572H35.6722C35.5789 98.572 35.5322 98.6187 35.5322 98.712V106.664C35.5322 106.757 35.4949 106.841 35.4202 106.916C35.3642 106.972 35.2895 107 35.1962 107H32.6202C32.5269 107 32.4429 106.972 32.3682 106.916C32.3122 106.841 32.2842 106.757 32.2842 106.664V87.736C32.2842 87.6427 32.3122 87.568 32.3682 87.512C32.4429 87.4373 32.5269 87.4 32.6202 87.4H39.0882C40.1522 87.4 41.0949 87.6427 41.9162 88.128C42.7375 88.5947 43.3722 89.2667 43.8202 90.144C44.2682 91.0027 44.4922 91.992 44.4922 93.112C44.4922 94.3253 44.2122 95.38 43.6522 96.276C43.0922 97.172 42.3269 97.8067 41.3562 98.18C41.2629 98.2173 41.2349 98.2827 41.2722 98.376L44.5762 106.608C44.5949 106.645 44.6042 106.701 44.6042 106.776C44.6042 106.925 44.5109 107 44.3242 107H41.6362ZM35.6722 90.2C35.5789 90.2 35.5322 90.2467 35.5322 90.34V95.912C35.5322 96.0053 35.5789 96.052 35.6722 96.052H38.6122C39.3962 96.052 40.0309 95.7907 40.5162 95.268C41.0015 94.7267 41.2442 94.0173 41.2442 93.14C41.2442 92.244 41.0015 91.5347 40.5162 91.012C40.0309 90.4707 39.3962 90.2 38.6122 90.2H35.6722ZM57.7854 107C57.5801 107 57.4494 106.907 57.3934 106.72L56.6654 103.724C56.6467 103.649 56.6001 103.612 56.5254 103.612H50.7574C50.6827 103.612 50.6361 103.649 50.6174 103.724L49.9174 106.72C49.8614 106.907 49.7307 107 49.5254 107H46.8654C46.6227 107 46.5294 106.879 46.5854 106.636L51.6814 87.68C51.7374 87.4933 51.8681 87.4 52.0734 87.4H55.2654C55.4707 87.4 55.6014 87.4933 55.6574 87.68L60.7534 106.636L60.7814 106.748C60.7814 106.916 60.6787 107 60.4734 107H57.7854ZM51.2894 100.896C51.2707 100.952 51.2801 100.999 51.3174 101.036C51.3547 101.055 51.3921 101.064 51.4294 101.064H55.8534C55.8907 101.064 55.9281 101.055 55.9654 101.036C56.0027 100.999 56.0121 100.952 55.9934 100.896L53.6974 91.712C53.6787 91.656 53.6507 91.628 53.6134 91.628C53.5761 91.628 53.5481 91.656 53.5294 91.712L51.2894 100.896ZM63.5186 107C63.4253 107 63.3413 106.972 63.2666 106.916C63.2106 106.841 63.1826 106.757 63.1826 106.664V87.736C63.1826 87.6427 63.2106 87.568 63.2666 87.512C63.3413 87.4373 63.4253 87.4 63.5186 87.4H66.0946C66.188 87.4 66.2626 87.4373 66.3186 87.512C66.3933 87.568 66.4306 87.6427 66.4306 87.736V106.664C66.4306 106.757 66.3933 106.841 66.3186 106.916C66.2626 106.972 66.188 107 66.0946 107H63.5186ZM75.7032 107.224C74.4899 107.224 73.4166 106.981 72.4832 106.496C71.5686 106.011 70.8499 105.329 70.3272 104.452C69.8232 103.556 69.5712 102.529 69.5712 101.372V93.028C69.5712 91.8707 69.8232 90.8533 70.3272 89.976C70.8499 89.08 71.5686 88.3893 72.4832 87.904C73.4166 87.4187 74.4899 87.176 75.7032 87.176C76.9166 87.176 77.9899 87.4187 78.9232 87.904C79.8566 88.3707 80.5752 89.0333 81.0792 89.892C81.6019 90.7507 81.8632 91.7307 81.8632 92.832V93.476C81.8632 93.5693 81.8259 93.6533 81.7512 93.728C81.6952 93.784 81.6206 93.812 81.5272 93.812H78.9512C78.8579 93.812 78.7739 93.784 78.6992 93.728C78.6432 93.6533 78.6152 93.5693 78.6152 93.476V92.832C78.6152 91.992 78.3446 91.3107 77.8032 90.788C77.2806 90.2467 76.5806 89.976 75.7032 89.976C74.8446 89.976 74.1446 90.256 73.6032 90.816C73.0806 91.3573 72.8192 92.076 72.8192 92.972V101.428C72.8192 102.324 73.0899 103.052 73.6312 103.612C74.1912 104.153 74.9099 104.424 75.7872 104.424C76.6459 104.424 77.3272 104.181 77.8312 103.696C78.3539 103.192 78.6152 102.511 78.6152 101.652V99.44C78.6152 99.3467 78.5686 99.3 78.4752 99.3H75.9272C75.8339 99.3 75.7499 99.272 75.6752 99.216C75.6192 99.1413 75.5912 99.0573 75.5912 98.964V96.92C75.5912 96.8267 75.6192 96.752 75.6752 96.696C75.7499 96.6213 75.8339 96.584 75.9272 96.584H81.5272C81.6206 96.584 81.6952 96.6213 81.7512 96.696C81.8259 96.752 81.8632 96.8267 81.8632 96.92V101.288C81.8632 103.136 81.3032 104.592 80.1832 105.656C79.0632 106.701 77.5699 107.224 75.7032 107.224ZM93.8783 87.736C93.8783 87.6427 93.9063 87.568 93.9623 87.512C94.0369 87.4373 94.1209 87.4 94.2143 87.4H96.7903C96.8836 87.4 96.9583 87.4373 97.0143 87.512C97.0889 87.568 97.1263 87.6427 97.1263 87.736V106.664C97.1263 106.757 97.0889 106.841 97.0143 106.916C96.9583 106.972 96.8836 107 96.7903 107H94.2143C94.1209 107 94.0369 106.972 93.9623 106.916C93.9063 106.841 93.8783 106.757 93.8783 106.664V98.712C93.8783 98.6187 93.8316 98.572 93.7383 98.572H88.4183C88.3249 98.572 88.2783 98.6187 88.2783 98.712V106.664C88.2783 106.757 88.2409 106.841 88.1663 106.916C88.1103 106.972 88.0356 107 87.9423 107H85.3663C85.2729 107 85.1889 106.972 85.1143 106.916C85.0583 106.841 85.0303 106.757 85.0303 106.664V87.736C85.0303 87.6427 85.0583 87.568 85.1143 87.512C85.1889 87.4373 85.2729 87.4 85.3663 87.4H87.9423C88.0356 87.4 88.1103 87.4373 88.1663 87.512C88.2409 87.568 88.2783 87.6427 88.2783 87.736V95.604C88.2783 95.6973 88.3249 95.744 88.4183 95.744H93.7383C93.8316 95.744 93.8783 95.6973 93.8783 95.604V87.736ZM112.068 87.4C112.162 87.4 112.236 87.4373 112.292 87.512C112.367 87.568 112.404 87.6427 112.404 87.736V89.892C112.404 89.9853 112.367 90.0693 112.292 90.144C112.236 90.2 112.162 90.228 112.068 90.228H107.728C107.635 90.228 107.588 90.2747 107.588 90.368V106.664C107.588 106.757 107.551 106.841 107.476 106.916C107.42 106.972 107.346 107 107.252 107H104.676C104.583 107 104.499 106.972 104.424 106.916C104.368 106.841 104.34 106.757 104.34 106.664V90.368C104.34 90.2747 104.294 90.228 104.2 90.228H100.028C99.9349 90.228 99.8509 90.2 99.7762 90.144C99.7202 90.0693 99.6922 89.9853 99.6922 89.892V87.736C99.6922 87.6427 99.7202 87.568 99.7762 87.512C99.8509 87.4373 99.9349 87.4 100.028 87.4H112.068ZM132.139 89.864C132.139 89.9573 132.102 90.0413 132.027 90.116C131.971 90.172 131.897 90.2 131.803 90.2H124.047C123.954 90.2 123.907 90.2467 123.907 90.34V95.604C123.907 95.6973 123.954 95.744 124.047 95.744H129.031C129.125 95.744 129.199 95.7813 129.255 95.856C129.33 95.912 129.367 95.9867 129.367 96.08V98.208C129.367 98.3013 129.33 98.3853 129.255 98.46C129.199 98.516 129.125 98.544 129.031 98.544H124.047C123.954 98.544 123.907 98.5907 123.907 98.684V106.664C123.907 106.757 123.87 106.841 123.795 106.916C123.739 106.972 123.665 107 123.571 107H120.995C120.902 107 120.818 106.972 120.743 106.916C120.687 106.841 120.659 106.757 120.659 106.664V87.736C120.659 87.6427 120.687 87.568 120.743 87.512C120.818 87.4373 120.902 87.4 120.995 87.4H131.803C131.897 87.4 131.971 87.4373 132.027 87.512C132.102 87.568 132.139 87.6427 132.139 87.736V89.864ZM140.127 107.252C138.895 107.252 137.803 107 136.851 106.496C135.918 105.992 135.19 105.283 134.667 104.368C134.163 103.435 133.911 102.361 133.911 101.148V93.252C133.911 92.0573 134.163 91.0027 134.667 90.088C135.19 89.1547 135.918 88.436 136.851 87.932C137.803 87.428 138.895 87.176 140.127 87.176C141.378 87.176 142.47 87.428 143.403 87.932C144.355 88.436 145.092 89.1547 145.615 90.088C146.138 91.0027 146.399 92.0573 146.399 93.252V101.148C146.399 102.361 146.138 103.435 145.615 104.368C145.092 105.283 144.355 105.992 143.403 106.496C142.47 107 141.378 107.252 140.127 107.252ZM140.127 104.452C141.042 104.452 141.77 104.163 142.311 103.584C142.871 102.987 143.151 102.221 143.151 101.288V93.168C143.151 92.216 142.871 91.4507 142.311 90.872C141.77 90.2747 141.042 89.976 140.127 89.976C139.231 89.976 138.512 90.2747 137.971 90.872C137.43 91.4507 137.159 92.216 137.159 93.168V101.288C137.159 102.221 137.43 102.987 137.971 103.584C138.512 104.163 139.231 104.452 140.127 104.452ZM158.914 107C158.708 107 158.578 106.907 158.522 106.72L155.498 98.684C155.46 98.6093 155.414 98.572 155.358 98.572H152.95C152.856 98.572 152.81 98.6187 152.81 98.712V106.664C152.81 106.757 152.772 106.841 152.698 106.916C152.642 106.972 152.567 107 152.474 107H149.898C149.804 107 149.72 106.972 149.646 106.916C149.59 106.841 149.562 106.757 149.562 106.664V87.736C149.562 87.6427 149.59 87.568 149.646 87.512C149.72 87.4373 149.804 87.4 149.898 87.4H156.366C157.43 87.4 158.372 87.6427 159.194 88.128C160.015 88.5947 160.65 89.2667 161.098 90.144C161.546 91.0027 161.77 91.992 161.77 93.112C161.77 94.3253 161.49 95.38 160.93 96.276C160.37 97.172 159.604 97.8067 158.634 98.18C158.54 98.2173 158.512 98.2827 158.55 98.376L161.854 106.608C161.872 106.645 161.882 106.701 161.882 106.776C161.882 106.925 161.788 107 161.602 107H158.914ZM152.95 90.2C152.856 90.2 152.81 90.2467 152.81 90.34V95.912C152.81 96.0053 152.856 96.052 152.95 96.052H155.89C156.674 96.052 157.308 95.7907 157.794 95.268C158.279 94.7267 158.522 94.0173 158.522 93.14C158.522 92.244 158.279 91.5347 157.794 91.012C157.308 90.4707 156.674 90.2 155.89 90.2H152.95ZM168.051 107C167.864 107 167.743 106.907 167.687 106.72L163.263 87.764V87.652C163.263 87.484 163.365 87.4 163.571 87.4H166.258C166.464 87.4 166.585 87.5027 166.623 87.708L169.227 99.944C169.245 100 169.273 100.028 169.311 100.028C169.348 100.028 169.376 99.9907 169.395 99.916L171.803 87.708C171.821 87.5027 171.943 87.4 172.167 87.4H174.603C174.808 87.4 174.929 87.5027 174.967 87.708L177.571 99.944C177.589 100.019 177.617 100.056 177.655 100.056C177.692 100.056 177.72 100.019 177.739 99.944L180.203 87.708C180.24 87.5027 180.361 87.4 180.567 87.4H183.143C183.404 87.4 183.507 87.5213 183.451 87.764L179.279 106.692C179.241 106.897 179.12 107 178.915 107H176.395C176.189 107 176.068 106.897 176.031 106.692L173.455 94.064C173.436 94.008 173.408 93.98 173.371 93.98C173.333 93.98 173.305 94.008 173.287 94.064L170.851 106.692C170.832 106.897 170.711 107 170.487 107H168.051ZM193.711 107C193.506 107 193.375 106.907 193.319 106.72L192.591 103.724C192.573 103.649 192.526 103.612 192.451 103.612H186.683C186.609 103.612 186.562 103.649 186.543 103.724L185.843 106.72C185.787 106.907 185.657 107 185.451 107H182.791C182.549 107 182.455 106.879 182.511 106.636L187.607 87.68C187.663 87.4933 187.794 87.4 187.999 87.4H191.191C191.397 87.4 191.527 87.4933 191.583 87.68L196.679 106.636L196.707 106.748C196.707 106.916 196.605 107 196.399 107H193.711ZM187.215 100.896C187.197 100.952 187.206 100.999 187.243 101.036C187.281 101.055 187.318 101.064 187.355 101.064H191.779C191.817 101.064 191.854 101.055 191.891 101.036C191.929 100.999 191.938 100.952 191.919 100.896L189.623 91.712C189.605 91.656 189.577 91.628 189.539 91.628C189.502 91.628 189.474 91.656 189.455 91.712L187.215 100.896ZM208.46 107C208.255 107 208.124 106.907 208.068 106.72L205.044 98.684C205.007 98.6093 204.96 98.572 204.904 98.572H202.496C202.403 98.572 202.356 98.6187 202.356 98.712V106.664C202.356 106.757 202.319 106.841 202.244 106.916C202.188 106.972 202.114 107 202.02 107H199.444C199.351 107 199.267 106.972 199.192 106.916C199.136 106.841 199.108 106.757 199.108 106.664V87.736C199.108 87.6427 199.136 87.568 199.192 87.512C199.267 87.4373 199.351 87.4 199.444 87.4H205.912C206.976 87.4 207.919 87.6427 208.74 88.128C209.562 88.5947 210.196 89.2667 210.644 90.144C211.092 91.0027 211.316 91.992 211.316 93.112C211.316 94.3253 211.036 95.38 210.476 96.276C209.916 97.172 209.151 97.8067 208.18 98.18C208.087 98.2173 208.059 98.2827 208.096 98.376L211.4 106.608C211.419 106.645 211.428 106.701 211.428 106.776C211.428 106.925 211.335 107 211.148 107H208.46ZM202.496 90.2C202.403 90.2 202.356 90.2467 202.356 90.34V95.912C202.356 96.0053 202.403 96.052 202.496 96.052H205.436C206.22 96.052 206.855 95.7907 207.34 95.268C207.826 94.7267 208.068 94.0173 208.068 93.14C208.068 92.244 207.826 91.5347 207.34 91.012C206.855 90.4707 206.22 90.2 205.436 90.2H202.496ZM214.483 107C214.39 107 214.306 106.972 214.231 106.916C214.175 106.841 214.147 106.757 214.147 106.664V87.736C214.147 87.6427 214.175 87.568 214.231 87.512C214.306 87.4373 214.39 87.4 214.483 87.4H220.279C222.09 87.4 223.537 87.904 224.619 88.912C225.721 89.92 226.271 91.264 226.271 92.944V101.456C226.271 103.136 225.721 104.48 224.619 105.488C223.537 106.496 222.09 107 220.279 107H214.483ZM217.395 104.06C217.395 104.153 217.442 104.2 217.535 104.2L220.307 104.172C221.11 104.172 221.754 103.901 222.239 103.36C222.725 102.8 222.986 102.044 223.023 101.092V93.308C223.023 92.356 222.771 91.6 222.267 91.04C221.782 90.48 221.129 90.2 220.307 90.2H217.535C217.442 90.2 217.395 90.2467 217.395 90.34V104.06ZM13.844 143C13.6387 143 13.508 142.907 13.452 142.72L12.724 139.724C12.7053 139.649 12.6587 139.612 12.584 139.612H6.816C6.74133 139.612 6.69467 139.649 6.676 139.724L5.976 142.72C5.92 142.907 5.78933 143 5.584 143H2.924C2.68133 143 2.588 142.879 2.644 142.636L7.74 123.68C7.796 123.493 7.92667 123.4 8.132 123.4H11.324C11.5293 123.4 11.66 123.493 11.716 123.68L16.812 142.636L16.84 142.748C16.84 142.916 16.7373 143 16.532 143H13.844ZM7.348 136.896C7.32933 136.952 7.33867 136.999 7.376 137.036C7.41333 137.055 7.45067 137.064 7.488 137.064H11.912C11.9493 137.064 11.9867 137.055 12.024 137.036C12.0613 136.999 12.0707 136.952 12.052 136.896L9.756 127.712C9.73733 127.656 9.70933 127.628 9.672 127.628C9.63467 127.628 9.60667 127.656 9.588 127.712L7.348 136.896ZM25.9332 123.372C27.0159 123.372 27.9679 123.615 28.7892 124.1C29.6292 124.585 30.2732 125.276 30.7212 126.172C31.1879 127.049 31.4212 128.057 31.4212 129.196C31.4212 130.316 31.1879 131.305 30.7212 132.164C30.2732 133.023 29.6292 133.695 28.7892 134.18C27.9679 134.647 27.0252 134.88 25.9612 134.88H22.5172C22.4239 134.88 22.3772 134.927 22.3772 135.02V142.664C22.3772 142.757 22.3399 142.841 22.2652 142.916C22.2092 142.972 22.1346 143 22.0412 143H19.4652C19.3719 143 19.2879 142.972 19.2132 142.916C19.1572 142.841 19.1292 142.757 19.1292 142.664V123.708C19.1292 123.615 19.1572 123.54 19.2132 123.484C19.2879 123.409 19.3719 123.372 19.4652 123.372H25.9332ZM25.4572 132.276C26.2786 132.276 26.9319 132.005 27.4172 131.464C27.9212 130.904 28.1732 130.167 28.1732 129.252C28.1732 128.319 27.9212 127.572 27.4172 127.012C26.9319 126.452 26.2786 126.172 25.4572 126.172H22.5172C22.4239 126.172 22.3772 126.219 22.3772 126.312V132.136C22.3772 132.229 22.4239 132.276 22.5172 132.276H25.4572ZM40.6715 123.372C41.7542 123.372 42.7062 123.615 43.5275 124.1C44.3675 124.585 45.0115 125.276 45.4595 126.172C45.9262 127.049 46.1595 128.057 46.1595 129.196C46.1595 130.316 45.9262 131.305 45.4595 132.164C45.0115 133.023 44.3675 133.695 43.5275 134.18C42.7062 134.647 41.7635 134.88 40.6995 134.88H37.2555C37.1622 134.88 37.1155 134.927 37.1155 135.02V142.664C37.1155 142.757 37.0782 142.841 37.0035 142.916C36.9475 142.972 36.8728 143 36.7795 143H34.2035C34.1102 143 34.0262 142.972 33.9515 142.916C33.8955 142.841 33.8675 142.757 33.8675 142.664V123.708C33.8675 123.615 33.8955 123.54 33.9515 123.484C34.0262 123.409 34.1102 123.372 34.2035 123.372H40.6715ZM40.1955 132.276C41.0168 132.276 41.6702 132.005 42.1555 131.464C42.6595 130.904 42.9115 130.167 42.9115 129.252C42.9115 128.319 42.6595 127.572 42.1555 127.012C41.6702 126.452 41.0168 126.172 40.1955 126.172H37.2555C37.1622 126.172 37.1155 126.219 37.1155 126.312V132.136C37.1155 132.229 37.1622 132.276 37.2555 132.276H40.1955ZM58.0698 143C57.8644 143 57.7338 142.907 57.6778 142.72L54.6538 134.684C54.6164 134.609 54.5698 134.572 54.5138 134.572H52.1058C52.0124 134.572 51.9658 134.619 51.9658 134.712V142.664C51.9658 142.757 51.9284 142.841 51.8538 142.916C51.7978 142.972 51.7231 143 51.6298 143H49.0538C48.9604 143 48.8764 142.972 48.8018 142.916C48.7458 142.841 48.7178 142.757 48.7178 142.664V123.736C48.7178 123.643 48.7458 123.568 48.8018 123.512C48.8764 123.437 48.9604 123.4 49.0538 123.4H55.5218C56.5858 123.4 57.5284 123.643 58.3498 124.128C59.1711 124.595 59.8058 125.267 60.2538 126.144C60.7018 127.003 60.9258 127.992 60.9258 129.112C60.9258 130.325 60.6458 131.38 60.0858 132.276C59.5258 133.172 58.7604 133.807 57.7898 134.18C57.6964 134.217 57.6684 134.283 57.7058 134.376L61.0098 142.608C61.0284 142.645 61.0378 142.701 61.0378 142.776C61.0378 142.925 60.9444 143 60.7578 143H58.0698ZM52.1058 126.2C52.0124 126.2 51.9658 126.247 51.9658 126.34V131.912C51.9658 132.005 52.0124 132.052 52.1058 132.052H55.0458C55.8298 132.052 56.4644 131.791 56.9498 131.268C57.4351 130.727 57.6778 130.017 57.6778 129.14C57.6778 128.244 57.4351 127.535 56.9498 127.012C56.4644 126.471 55.8298 126.2 55.0458 126.2H52.1058ZM69.5528 143.252C68.3208 143.252 67.2288 143 66.2768 142.496C65.3435 141.992 64.6155 141.283 64.0928 140.368C63.5888 139.435 63.3368 138.361 63.3368 137.148V129.252C63.3368 128.057 63.5888 127.003 64.0928 126.088C64.6155 125.155 65.3435 124.436 66.2768 123.932C67.2288 123.428 68.3208 123.176 69.5528 123.176C70.8035 123.176 71.8955 123.428 72.8288 123.932C73.7808 124.436 74.5182 125.155 75.0408 126.088C75.5635 127.003 75.8248 128.057 75.8248 129.252V137.148C75.8248 138.361 75.5635 139.435 75.0408 140.368C74.5182 141.283 73.7808 141.992 72.8288 142.496C71.8955 143 70.8035 143.252 69.5528 143.252ZM69.5528 140.452C70.4675 140.452 71.1955 140.163 71.7368 139.584C72.2968 138.987 72.5768 138.221 72.5768 137.288V129.168C72.5768 128.216 72.2968 127.451 71.7368 126.872C71.1955 126.275 70.4675 125.976 69.5528 125.976C68.6568 125.976 67.9382 126.275 67.3968 126.872C66.8555 127.451 66.5848 128.216 66.5848 129.168V137.288C66.5848 138.221 66.8555 138.987 67.3968 139.584C67.9382 140.163 68.6568 140.452 69.5528 140.452ZM88.7932 143C88.5879 143 88.4572 142.907 88.4012 142.72L87.6732 139.724C87.6546 139.649 87.6079 139.612 87.5332 139.612H81.7652C81.6906 139.612 81.6439 139.649 81.6252 139.724L80.9252 142.72C80.8692 142.907 80.7386 143 80.5332 143H77.8732C77.6306 143 77.5372 142.879 77.5932 142.636L82.6892 123.68C82.7452 123.493 82.8759 123.4 83.0812 123.4H86.2732C86.4786 123.4 86.6092 123.493 86.6652 123.68L91.7612 142.636L91.7892 142.748C91.7892 142.916 91.6866 143 91.4812 143H88.7932ZM82.2972 136.896C82.2786 136.952 82.2879 136.999 82.3252 137.036C82.3626 137.055 82.3999 137.064 82.4372 137.064H86.8612C86.8986 137.064 86.9359 137.055 86.9732 137.036C87.0106 136.999 87.0199 136.952 87.0012 136.896L84.7052 127.712C84.6866 127.656 84.6586 127.628 84.6212 127.628C84.5839 127.628 84.5559 127.656 84.5372 127.712L82.2972 136.896ZM99.4656 143.224C98.2523 143.224 97.1789 142.981 96.2456 142.496C95.3123 141.992 94.5843 141.292 94.0616 140.396C93.5576 139.5 93.3056 138.464 93.3056 137.288V129.056C93.3056 127.88 93.5576 126.853 94.0616 125.976C94.5843 125.08 95.3123 124.389 96.2456 123.904C97.1789 123.419 98.2523 123.176 99.4656 123.176C100.679 123.176 101.752 123.419 102.686 123.904C103.619 124.371 104.338 125.043 104.842 125.92C105.364 126.779 105.626 127.787 105.626 128.944V129.112C105.626 129.205 105.588 129.289 105.514 129.364C105.458 129.439 105.383 129.476 105.29 129.476L102.686 129.588C102.462 129.588 102.35 129.476 102.35 129.252V128.916C102.35 128.039 102.079 127.329 101.538 126.788C101.015 126.247 100.324 125.976 99.4656 125.976C98.5883 125.976 97.8789 126.247 97.3376 126.788C96.8149 127.329 96.5536 128.039 96.5536 128.916V137.512C96.5536 138.389 96.8149 139.099 97.3376 139.64C97.8789 140.163 98.5883 140.424 99.4656 140.424C100.324 140.424 101.015 140.163 101.538 139.64C102.079 139.099 102.35 138.389 102.35 137.512V137.148C102.35 136.943 102.462 136.84 102.686 136.84L105.29 136.952C105.383 136.952 105.458 136.989 105.514 137.064C105.588 137.12 105.626 137.195 105.626 137.288V137.4C105.626 138.557 105.364 139.584 104.842 140.48C104.338 141.357 103.619 142.039 102.686 142.524C101.752 142.991 100.679 143.224 99.4656 143.224ZM117.503 123.736C117.503 123.643 117.531 123.568 117.587 123.512C117.662 123.437 117.746 123.4 117.839 123.4H120.415C120.509 123.4 120.583 123.437 120.639 123.512C120.714 123.568 120.751 123.643 120.751 123.736V142.664C120.751 142.757 120.714 142.841 120.639 142.916C120.583 142.972 120.509 143 120.415 143H117.839C117.746 143 117.662 142.972 117.587 142.916C117.531 142.841 117.503 142.757 117.503 142.664V134.712C117.503 134.619 117.457 134.572 117.363 134.572H112.043C111.95 134.572 111.903 134.619 111.903 134.712V142.664C111.903 142.757 111.866 142.841 111.791 142.916C111.735 142.972 111.661 143 111.567 143H108.991C108.898 143 108.814 142.972 108.739 142.916C108.683 142.841 108.655 142.757 108.655 142.664V123.736C108.655 123.643 108.683 123.568 108.739 123.512C108.814 123.437 108.898 123.4 108.991 123.4H111.567C111.661 123.4 111.735 123.437 111.791 123.512C111.866 123.568 111.903 123.643 111.903 123.736V131.604C111.903 131.697 111.95 131.744 112.043 131.744H117.363C117.457 131.744 117.503 131.697 117.503 131.604V123.736ZM141.299 123.4C141.392 123.4 141.467 123.437 141.523 123.512C141.597 123.568 141.635 123.643 141.635 123.736V125.892C141.635 125.985 141.597 126.069 141.523 126.144C141.467 126.2 141.392 126.228 141.299 126.228H136.959C136.865 126.228 136.819 126.275 136.819 126.368V142.664C136.819 142.757 136.781 142.841 136.707 142.916C136.651 142.972 136.576 143 136.483 143H133.907C133.813 143 133.729 142.972 133.655 142.916C133.599 142.841 133.571 142.757 133.571 142.664V126.368C133.571 126.275 133.524 126.228 133.431 126.228H129.259C129.165 126.228 129.081 126.2 129.007 126.144C128.951 126.069 128.923 125.985 128.923 125.892V123.736C128.923 123.643 128.951 123.568 129.007 123.512C129.081 123.437 129.165 123.4 129.259 123.4H141.299ZM149.26 143.252C148.028 143.252 146.936 143 145.984 142.496C145.051 141.992 144.323 141.283 143.8 140.368C143.296 139.435 143.044 138.361 143.044 137.148V129.252C143.044 128.057 143.296 127.003 143.8 126.088C144.323 125.155 145.051 124.436 145.984 123.932C146.936 123.428 148.028 123.176 149.26 123.176C150.511 123.176 151.603 123.428 152.536 123.932C153.488 124.436 154.225 125.155 154.748 126.088C155.271 127.003 155.532 128.057 155.532 129.252V137.148C155.532 138.361 155.271 139.435 154.748 140.368C154.225 141.283 153.488 141.992 152.536 142.496C151.603 143 150.511 143.252 149.26 143.252ZM149.26 140.452C150.175 140.452 150.903 140.163 151.444 139.584C152.004 138.987 152.284 138.221 152.284 137.288V129.168C152.284 128.216 152.004 127.451 151.444 126.872C150.903 126.275 150.175 125.976 149.26 125.976C148.364 125.976 147.645 126.275 147.104 126.872C146.563 127.451 146.292 128.216 146.292 129.168V137.288C146.292 138.221 146.563 138.987 147.104 139.584C147.645 140.163 148.364 140.452 149.26 140.452ZM170.096 143.252C168.864 143.252 167.772 143 166.82 142.496C165.886 141.992 165.158 141.283 164.636 140.368C164.132 139.435 163.88 138.361 163.88 137.148V129.252C163.88 128.057 164.132 127.003 164.636 126.088C165.158 125.155 165.886 124.436 166.82 123.932C167.772 123.428 168.864 123.176 170.096 123.176C171.346 123.176 172.438 123.428 173.372 123.932C174.324 124.436 175.061 125.155 175.584 126.088C176.106 127.003 176.368 128.057 176.368 129.252V137.148C176.368 138.361 176.106 139.435 175.584 140.368C175.061 141.283 174.324 141.992 173.372 142.496C172.438 143 171.346 143.252 170.096 143.252ZM170.096 140.452C171.01 140.452 171.738 140.163 172.28 139.584C172.84 138.987 173.12 138.221 173.12 137.288V129.168C173.12 128.216 172.84 127.451 172.28 126.872C171.738 126.275 171.01 125.976 170.096 125.976C169.2 125.976 168.481 126.275 167.94 126.872C167.398 127.451 167.128 128.216 167.128 129.168V137.288C167.128 138.221 167.398 138.987 167.94 139.584C168.481 140.163 169.2 140.452 170.096 140.452ZM185.522 143.224C184.309 143.224 183.236 142.972 182.302 142.468C181.369 141.964 180.641 141.255 180.118 140.34C179.614 139.407 179.362 138.333 179.362 137.12V123.736C179.362 123.643 179.39 123.568 179.446 123.512C179.521 123.437 179.605 123.4 179.698 123.4H182.274C182.368 123.4 182.442 123.437 182.498 123.512C182.573 123.568 182.61 123.643 182.61 123.736V137.288C182.61 138.221 182.872 138.977 183.394 139.556C183.936 140.135 184.645 140.424 185.522 140.424C186.4 140.424 187.109 140.135 187.65 139.556C188.192 138.977 188.462 138.221 188.462 137.288V123.736C188.462 123.643 188.49 123.568 188.546 123.512C188.621 123.437 188.705 123.4 188.798 123.4H191.374C191.468 123.4 191.542 123.437 191.598 123.512C191.673 123.568 191.71 123.643 191.71 123.736V137.12C191.71 138.333 191.449 139.407 190.926 140.34C190.422 141.255 189.704 141.964 188.77 142.468C187.837 142.972 186.754 143.224 185.522 143.224ZM204.468 143C204.263 143 204.132 142.907 204.076 142.72L201.052 134.684C201.015 134.609 200.968 134.572 200.912 134.572H198.504C198.411 134.572 198.364 134.619 198.364 134.712V142.664C198.364 142.757 198.327 142.841 198.252 142.916C198.196 142.972 198.122 143 198.028 143H195.452C195.359 143 195.275 142.972 195.2 142.916C195.144 142.841 195.116 142.757 195.116 142.664V123.736C195.116 123.643 195.144 123.568 195.2 123.512C195.275 123.437 195.359 123.4 195.452 123.4H201.92C202.984 123.4 203.927 123.643 204.748 124.128C205.57 124.595 206.204 125.267 206.652 126.144C207.1 127.003 207.324 127.992 207.324 129.112C207.324 130.325 207.044 131.38 206.484 132.276C205.924 133.172 205.159 133.807 204.188 134.18C204.095 134.217 204.067 134.283 204.104 134.376L207.408 142.608C207.427 142.645 207.436 142.701 207.436 142.776C207.436 142.925 207.343 143 207.156 143H204.468ZM198.504 126.2C198.411 126.2 198.364 126.247 198.364 126.34V131.912C198.364 132.005 198.411 132.052 198.504 132.052H201.444C202.228 132.052 202.863 131.791 203.348 131.268C203.834 130.727 204.076 130.017 204.076 129.14C204.076 128.244 203.834 127.535 203.348 127.012C202.863 126.471 202.228 126.2 201.444 126.2H198.504ZM4.128 179C4.03467 179 3.95067 178.972 3.876 178.916C3.82 178.841 3.792 178.757 3.792 178.664V159.736C3.792 159.643 3.82 159.568 3.876 159.512C3.95067 159.437 4.03467 159.4 4.128 159.4H9.924C11.7347 159.4 13.1813 159.904 14.264 160.912C15.3653 161.92 15.916 163.264 15.916 164.944V173.456C15.916 175.136 15.3653 176.48 14.264 177.488C13.1813 178.496 11.7347 179 9.924 179H4.128ZM7.04 176.06C7.04 176.153 7.08667 176.2 7.18 176.2L9.952 176.172C10.7547 176.172 11.3987 175.901 11.884 175.36C12.3693 174.8 12.6307 174.044 12.668 173.092V165.308C12.668 164.356 12.416 163.6 11.912 163.04C11.4267 162.48 10.7733 162.2 9.952 162.2H7.18C7.08667 162.2 7.04 162.247 7.04 162.34V176.06ZM30.5031 161.864C30.5031 161.957 30.4658 162.041 30.3911 162.116C30.3351 162.172 30.2605 162.2 30.1671 162.2H22.3831C22.2898 162.2 22.2431 162.247 22.2431 162.34V167.604C22.2431 167.697 22.2898 167.744 22.3831 167.744H27.3671C27.4605 167.744 27.5351 167.781 27.5911 167.856C27.6658 167.912 27.7031 167.987 27.7031 168.08V170.208C27.7031 170.301 27.6658 170.385 27.5911 170.46C27.5351 170.516 27.4605 170.544 27.3671 170.544H22.3831C22.2898 170.544 22.2431 170.591 22.2431 170.684V176.06C22.2431 176.153 22.2898 176.2 22.3831 176.2H30.1671C30.2605 176.2 30.3351 176.237 30.3911 176.312C30.4658 176.368 30.5031 176.443 30.5031 176.536V178.664C30.5031 178.757 30.4658 178.841 30.3911 178.916C30.3351 178.972 30.2605 179 30.1671 179H19.3311C19.2378 179 19.1538 178.972 19.0791 178.916C19.0231 178.841 18.9951 178.757 18.9951 178.664V159.736C18.9951 159.643 19.0231 159.568 19.0791 159.512C19.1538 159.437 19.2378 159.4 19.3311 159.4H30.1671C30.2605 159.4 30.3351 159.437 30.3911 159.512C30.4658 159.568 30.5031 159.643 30.5031 159.736V161.864ZM38.8106 179.224C37.5786 179.224 36.4959 179.009 35.5626 178.58C34.6293 178.132 33.9013 177.507 33.3786 176.704C32.8746 175.883 32.6226 174.94 32.6226 173.876V173.148C32.6226 173.055 32.6506 172.98 32.7066 172.924C32.7813 172.849 32.8653 172.812 32.9586 172.812H35.4786C35.5719 172.812 35.6466 172.849 35.7026 172.924C35.7773 172.98 35.8146 173.055 35.8146 173.148V173.708C35.8146 174.511 36.0946 175.164 36.6546 175.668C37.2146 176.172 37.9706 176.424 38.9226 176.424C39.7999 176.424 40.4719 176.2 40.9386 175.752C41.4053 175.304 41.6386 174.716 41.6386 173.988C41.6386 173.484 41.5079 173.055 41.2466 172.7C40.9853 172.327 40.6119 171.991 40.1266 171.692C39.6599 171.375 38.9319 170.955 37.9426 170.432C36.8039 169.835 35.8893 169.303 35.1986 168.836C34.5079 168.369 33.9199 167.772 33.4346 167.044C32.9679 166.316 32.7346 165.429 32.7346 164.384C32.7346 162.779 33.2666 161.509 34.3306 160.576C35.4133 159.643 36.8319 159.176 38.5866 159.176C39.7999 159.176 40.8733 159.409 41.8066 159.876C42.7399 160.324 43.4586 160.968 43.9626 161.808C44.4666 162.648 44.7186 163.609 44.7186 164.692V165.28C44.7186 165.373 44.6813 165.457 44.6066 165.532C44.5506 165.588 44.4759 165.616 44.3826 165.616H41.8626C41.7693 165.616 41.6853 165.588 41.6106 165.532C41.5546 165.457 41.5266 165.373 41.5266 165.28V164.748C41.5266 163.945 41.2559 163.283 40.7146 162.76C40.1733 162.237 39.4453 161.976 38.5306 161.976C37.7279 161.976 37.0933 162.191 36.6266 162.62C36.1599 163.031 35.9266 163.609 35.9266 164.356C35.9266 164.86 36.0479 165.289 36.2906 165.644C36.5333 165.999 36.8973 166.335 37.3826 166.652C37.8866 166.969 38.6426 167.38 39.6506 167.884C40.9946 168.649 41.9839 169.247 42.6186 169.676C43.2533 170.105 43.7853 170.665 44.2146 171.356C44.6626 172.028 44.8866 172.859 44.8866 173.848C44.8866 175.491 44.3359 176.797 43.2346 177.768C42.1333 178.739 40.6586 179.224 38.8106 179.224ZM48.0421 179C47.9487 179 47.8647 178.972 47.7901 178.916C47.7341 178.841 47.7061 178.757 47.7061 178.664V159.736C47.7061 159.643 47.7341 159.568 47.7901 159.512C47.8647 159.437 47.9487 159.4 48.0421 159.4H50.6181C50.7114 159.4 50.7861 159.437 50.8421 159.512C50.9167 159.568 50.9541 159.643 50.9541 159.736V178.664C50.9541 178.757 50.9167 178.841 50.8421 178.916C50.7861 178.972 50.7114 179 50.6181 179H48.0421ZM60.2267 179.224C59.0133 179.224 57.94 178.981 57.0067 178.496C56.092 178.011 55.3733 177.329 54.8507 176.452C54.3467 175.556 54.0947 174.529 54.0947 173.372V165.028C54.0947 163.871 54.3467 162.853 54.8507 161.976C55.3733 161.08 56.092 160.389 57.0067 159.904C57.94 159.419 59.0133 159.176 60.2267 159.176C61.44 159.176 62.5133 159.419 63.4467 159.904C64.38 160.371 65.0987 161.033 65.6027 161.892C66.1253 162.751 66.3867 163.731 66.3867 164.832V165.476C66.3867 165.569 66.3493 165.653 66.2747 165.728C66.2187 165.784 66.144 165.812 66.0507 165.812H63.4747C63.3813 165.812 63.2973 165.784 63.2227 165.728C63.1667 165.653 63.1387 165.569 63.1387 165.476V164.832C63.1387 163.992 62.868 163.311 62.3267 162.788C61.804 162.247 61.104 161.976 60.2267 161.976C59.368 161.976 58.668 162.256 58.1267 162.816C57.604 163.357 57.3427 164.076 57.3427 164.972V173.428C57.3427 174.324 57.6133 175.052 58.1547 175.612C58.7147 176.153 59.4333 176.424 60.3107 176.424C61.1693 176.424 61.8507 176.181 62.3547 175.696C62.8773 175.192 63.1387 174.511 63.1387 173.652V171.44C63.1387 171.347 63.092 171.3 62.9987 171.3H60.4507C60.3573 171.3 60.2733 171.272 60.1987 171.216C60.1427 171.141 60.1147 171.057 60.1147 170.964V168.92C60.1147 168.827 60.1427 168.752 60.1987 168.696C60.2733 168.621 60.3573 168.584 60.4507 168.584H66.0507C66.144 168.584 66.2187 168.621 66.2747 168.696C66.3493 168.752 66.3867 168.827 66.3867 168.92V173.288C66.3867 175.136 65.8267 176.592 64.7067 177.656C63.5867 178.701 62.0933 179.224 60.2267 179.224ZM79.2137 159.736C79.2137 159.643 79.2417 159.568 79.2977 159.512C79.3724 159.437 79.4564 159.4 79.5497 159.4H82.1257C82.2191 159.4 82.2937 159.437 82.3497 159.512C82.4244 159.568 82.4617 159.643 82.4617 159.736V178.664C82.4617 178.757 82.4244 178.841 82.3497 178.916C82.2937 178.972 82.2191 179 82.1257 179H79.4097C79.2417 179 79.1111 178.916 79.0177 178.748L72.9137 166.204C72.8764 166.148 72.8391 166.129 72.8017 166.148C72.7644 166.148 72.7457 166.185 72.7457 166.26L72.7737 178.664C72.7737 178.757 72.7364 178.841 72.6617 178.916C72.6057 178.972 72.5311 179 72.4377 179H69.8617C69.7684 179 69.6844 178.972 69.6097 178.916C69.5537 178.841 69.5257 178.757 69.5257 178.664V159.736C69.5257 159.643 69.5537 159.568 69.6097 159.512C69.6844 159.437 69.7684 159.4 69.8617 159.4H72.5497C72.7364 159.4 72.8671 159.484 72.9417 159.652L79.0737 172.252C79.1111 172.308 79.1484 172.336 79.1857 172.336C79.2231 172.317 79.2417 172.271 79.2417 172.196L79.2137 159.736ZM98.3121 159.372C99.3948 159.372 100.347 159.615 101.168 160.1C102.008 160.585 102.652 161.276 103.1 162.172C103.567 163.049 103.8 164.057 103.8 165.196C103.8 166.316 103.567 167.305 103.1 168.164C102.652 169.023 102.008 169.695 101.168 170.18C100.347 170.647 99.4041 170.88 98.3401 170.88H94.8961C94.8028 170.88 94.7561 170.927 94.7561 171.02V178.664C94.7561 178.757 94.7188 178.841 94.6441 178.916C94.5881 178.972 94.5135 179 94.4201 179H91.8441C91.7508 179 91.6668 178.972 91.5921 178.916C91.5361 178.841 91.5081 178.757 91.5081 178.664V159.708C91.5081 159.615 91.5361 159.54 91.5921 159.484C91.6668 159.409 91.7508 159.372 91.8441 159.372H98.3121ZM97.8361 168.276C98.6575 168.276 99.3108 168.005 99.7961 167.464C100.3 166.904 100.552 166.167 100.552 165.252C100.552 164.319 100.3 163.572 99.7961 163.012C99.3108 162.452 98.6575 162.172 97.8361 162.172H94.8961C94.8028 162.172 94.7561 162.219 94.7561 162.312V168.136C94.7561 168.229 94.8028 168.276 94.8961 168.276H97.8361ZM115.71 179C115.505 179 115.374 178.907 115.318 178.72L112.294 170.684C112.257 170.609 112.21 170.572 112.154 170.572H109.746C109.653 170.572 109.606 170.619 109.606 170.712V178.664C109.606 178.757 109.569 178.841 109.494 178.916C109.438 178.972 109.364 179 109.27 179H106.694C106.601 179 106.517 178.972 106.442 178.916C106.386 178.841 106.358 178.757 106.358 178.664V159.736C106.358 159.643 106.386 159.568 106.442 159.512C106.517 159.437 106.601 159.4 106.694 159.4H113.162C114.226 159.4 115.169 159.643 115.99 160.128C116.812 160.595 117.446 161.267 117.894 162.144C118.342 163.003 118.566 163.992 118.566 165.112C118.566 166.325 118.286 167.38 117.726 168.276C117.166 169.172 116.401 169.807 115.43 170.18C115.337 170.217 115.309 170.283 115.346 170.376L118.65 178.608C118.669 178.645 118.678 178.701 118.678 178.776C118.678 178.925 118.585 179 118.398 179H115.71ZM109.746 162.2C109.653 162.2 109.606 162.247 109.606 162.34V167.912C109.606 168.005 109.653 168.052 109.746 168.052H112.686C113.47 168.052 114.105 167.791 114.59 167.268C115.076 166.727 115.318 166.017 115.318 165.14C115.318 164.244 115.076 163.535 114.59 163.012C114.105 162.471 113.47 162.2 112.686 162.2H109.746ZM127.193 179.252C125.961 179.252 124.869 179 123.917 178.496C122.984 177.992 122.256 177.283 121.733 176.368C121.229 175.435 120.977 174.361 120.977 173.148V165.252C120.977 164.057 121.229 163.003 121.733 162.088C122.256 161.155 122.984 160.436 123.917 159.932C124.869 159.428 125.961 159.176 127.193 159.176C128.444 159.176 129.536 159.428 130.469 159.932C131.421 160.436 132.159 161.155 132.681 162.088C133.204 163.003 133.465 164.057 133.465 165.252V173.148C133.465 174.361 133.204 175.435 132.681 176.368C132.159 177.283 131.421 177.992 130.469 178.496C129.536 179 128.444 179.252 127.193 179.252ZM127.193 176.452C128.108 176.452 128.836 176.163 129.377 175.584C129.937 174.987 130.217 174.221 130.217 173.288V165.168C130.217 164.216 129.937 163.451 129.377 162.872C128.836 162.275 128.108 161.976 127.193 161.976C126.297 161.976 125.579 162.275 125.037 162.872C124.496 163.451 124.225 164.216 124.225 165.168V173.288C124.225 174.221 124.496 174.987 125.037 175.584C125.579 176.163 126.297 176.452 127.193 176.452ZM148.836 173.624C148.836 175.36 148.285 176.695 147.184 177.628C146.101 178.543 144.683 179 142.928 179H136.964C136.871 179 136.787 178.972 136.712 178.916C136.656 178.841 136.628 178.757 136.628 178.664V159.736C136.628 159.643 136.656 159.568 136.712 159.512C136.787 159.437 136.871 159.4 136.964 159.4H142.592C144.477 159.4 145.943 159.848 146.988 160.744C148.052 161.621 148.584 162.937 148.584 164.692C148.584 166.615 147.828 167.977 146.316 168.78C146.223 168.836 146.213 168.892 146.288 168.948C147.987 169.863 148.836 171.421 148.836 173.624ZM140.016 162.2C139.923 162.2 139.876 162.247 139.876 162.34V167.548C139.876 167.641 139.923 167.688 140.016 167.688H142.62C143.497 167.688 144.179 167.455 144.664 166.988C145.168 166.503 145.42 165.831 145.42 164.972C145.42 164.095 145.168 163.413 144.664 162.928C144.179 162.443 143.497 162.2 142.62 162.2H140.016ZM142.816 176.172C143.675 176.172 144.347 175.911 144.832 175.388C145.336 174.865 145.588 174.137 145.588 173.204C145.588 172.271 145.336 171.543 144.832 171.02C144.328 170.479 143.647 170.208 142.788 170.208H140.016C139.923 170.208 139.876 170.255 139.876 170.348V176.032C139.876 176.125 139.923 176.172 140.016 176.172H142.816ZM152.14 179C152.046 179 151.962 178.972 151.888 178.916C151.832 178.841 151.804 178.757 151.804 178.664V159.736C151.804 159.643 151.832 159.568 151.888 159.512C151.962 159.437 152.046 159.4 152.14 159.4H154.716C154.809 159.4 154.884 159.437 154.94 159.512C155.014 159.568 155.052 159.643 155.052 159.736V176.06C155.052 176.153 155.098 176.2 155.192 176.2H162.892C162.985 176.2 163.06 176.237 163.116 176.312C163.19 176.368 163.228 176.443 163.228 176.536V178.664C163.228 178.757 163.19 178.841 163.116 178.916C163.06 178.972 162.985 179 162.892 179H152.14ZM177.12 161.864C177.12 161.957 177.083 162.041 177.008 162.116C176.952 162.172 176.878 162.2 176.784 162.2H169C168.907 162.2 168.86 162.247 168.86 162.34V167.604C168.86 167.697 168.907 167.744 169 167.744H173.984C174.078 167.744 174.152 167.781 174.208 167.856C174.283 167.912 174.32 167.987 174.32 168.08V170.208C174.32 170.301 174.283 170.385 174.208 170.46C174.152 170.516 174.078 170.544 173.984 170.544H169C168.907 170.544 168.86 170.591 168.86 170.684V176.06C168.86 176.153 168.907 176.2 169 176.2H176.784C176.878 176.2 176.952 176.237 177.008 176.312C177.083 176.368 177.12 176.443 177.12 176.536V178.664C177.12 178.757 177.083 178.841 177.008 178.916C176.952 178.972 176.878 179 176.784 179H165.948C165.855 179 165.771 178.972 165.696 178.916C165.64 178.841 165.612 178.757 165.612 178.664V159.736C165.612 159.643 165.64 159.568 165.696 159.512C165.771 159.437 165.855 159.4 165.948 159.4H176.784C176.878 159.4 176.952 159.437 177.008 159.512C177.083 159.568 177.12 159.643 177.12 159.736V161.864ZM190.664 159.624C190.738 159.475 190.869 159.4 191.056 159.4H193.66C193.753 159.4 193.828 159.437 193.884 159.512C193.958 159.568 193.996 159.643 193.996 159.736V178.664C193.996 178.757 193.958 178.841 193.884 178.916C193.828 178.972 193.753 179 193.66 179H191.084C190.99 179 190.906 178.972 190.832 178.916C190.776 178.841 190.748 178.757 190.748 178.664V165.392C190.748 165.317 190.729 165.28 190.692 165.28C190.654 165.261 190.617 165.28 190.58 165.336L187.612 170.236C187.537 170.385 187.406 170.46 187.22 170.46H186.688C186.501 170.46 186.37 170.385 186.296 170.236L183.328 165.364C183.29 165.308 183.253 165.289 183.216 165.308C183.178 165.308 183.16 165.345 183.16 165.42V178.664C183.16 178.757 183.122 178.841 183.048 178.916C182.992 178.972 182.917 179 182.824 179H180.248C180.154 179 180.07 178.972 179.996 178.916C179.94 178.841 179.912 178.757 179.912 178.664V159.736C179.912 159.643 179.94 159.568 179.996 159.512C180.07 159.437 180.154 159.4 180.248 159.4H182.824C183.01 159.4 183.141 159.475 183.216 159.624L186.884 165.476C186.94 165.588 186.996 165.588 187.052 165.476L190.664 159.624ZM202.982 179.224C201.75 179.224 200.668 179.009 199.734 178.58C198.801 178.132 198.073 177.507 197.55 176.704C197.046 175.883 196.794 174.94 196.794 173.876V173.148C196.794 173.055 196.822 172.98 196.878 172.924C196.953 172.849 197.037 172.812 197.13 172.812H199.65C199.744 172.812 199.818 172.849 199.874 172.924C199.949 172.98 199.986 173.055 199.986 173.148V173.708C199.986 174.511 200.266 175.164 200.826 175.668C201.386 176.172 202.142 176.424 203.094 176.424C203.972 176.424 204.644 176.2 205.11 175.752C205.577 175.304 205.81 174.716 205.81 173.988C205.81 173.484 205.68 173.055 205.418 172.7C205.157 172.327 204.784 171.991 204.298 171.692C203.832 171.375 203.104 170.955 202.114 170.432C200.976 169.835 200.061 169.303 199.37 168.836C198.68 168.369 198.092 167.772 197.606 167.044C197.14 166.316 196.906 165.429 196.906 164.384C196.906 162.779 197.438 161.509 198.502 160.576C199.585 159.643 201.004 159.176 202.758 159.176C203.972 159.176 205.045 159.409 205.978 159.876C206.912 160.324 207.63 160.968 208.134 161.808C208.638 162.648 208.89 163.609 208.89 164.692V165.28C208.89 165.373 208.853 165.457 208.778 165.532C208.722 165.588 208.648 165.616 208.554 165.616H206.034C205.941 165.616 205.857 165.588 205.782 165.532C205.726 165.457 205.698 165.373 205.698 165.28V164.748C205.698 163.945 205.428 163.283 204.886 162.76C204.345 162.237 203.617 161.976 202.702 161.976C201.9 161.976 201.265 162.191 200.798 162.62C200.332 163.031 200.098 163.609 200.098 164.356C200.098 164.86 200.22 165.289 200.462 165.644C200.705 165.999 201.069 166.335 201.554 166.652C202.058 166.969 202.814 167.38 203.822 167.884C205.166 168.649 206.156 169.247 206.79 169.676C207.425 170.105 207.957 170.665 208.386 171.356C208.834 172.028 209.058 172.859 209.058 173.848C209.058 175.491 208.508 176.797 207.406 177.768C206.305 178.739 204.83 179.224 202.982 179.224Z" fill="#323232"/>
<rect x="4" width="19" height="19" fill="#D21919"/>
<path d="M14.5889 9.0039C14.591 8.72777 14.3688 8.5022 14.0927 8.50007L9.59284 8.46551C9.31671 8.46339 9.09114 8.68553 9.08902 8.96166C9.08689 9.23779 9.30903 9.46336 9.58516 9.46548L13.585 9.49621L13.5543 13.4961C13.5522 13.7722 13.7743 13.9978 14.0505 13.9999C14.3266 14.002 14.5522 13.7799 14.5543 13.5038L14.5889 9.0039ZM1.35083 22.2457L14.4397 9.35632L13.738 8.6438L0.649172 21.5331L1.35083 22.2457Z" fill="white"/>
</svg>
