<svg  viewBox="0 0 1068 196" fill="none" xmlns="http://www.w3.org/2000/svg">
<rect x="34" y="148" width="2" height="34" transform="rotate(90 34 148)" fill="black"/>
<path d="M2.016 195C1.896 195 1.836 194.94 1.836 194.82V182.58C1.836 182.46 1.896 182.4 2.016 182.4H2.61C2.73 182.4 2.79 182.46 2.79 182.58V194.82C2.79 194.94 2.73 195 2.61 195H2.016ZM9.77063 185.802C10.6946 185.802 11.4386 186.084 12.0026 186.648C12.5786 187.212 12.8666 187.956 12.8666 188.88V194.82C12.8666 194.94 12.8066 195 12.6866 195H12.0926C11.9726 195 11.9126 194.94 11.9126 194.82V189.06C11.9126 188.352 11.6966 187.776 11.2646 187.332C10.8326 186.876 10.2686 186.648 9.57263 186.648C8.85263 186.648 8.27063 186.87 7.82663 187.314C7.38263 187.746 7.16063 188.316 7.16063 189.024V194.82C7.16063 194.94 7.10063 195 6.98063 195H6.38663C6.26663 195 6.20663 194.94 6.20663 194.82V186.108C6.20663 185.988 6.26663 185.928 6.38663 185.928H6.98063C7.10063 185.928 7.16063 185.988 7.16063 186.108V186.99C7.16063 187.026 7.16663 187.05 7.17863 187.062C7.20263 187.062 7.22063 187.05 7.23263 187.026C7.49663 186.63 7.84463 186.33 8.27663 186.126C8.70863 185.91 9.20663 185.802 9.77063 185.802ZM23.2581 186.558C23.2581 186.678 23.1981 186.738 23.0781 186.738H20.9721C20.9241 186.738 20.9001 186.762 20.9001 186.81V192.498C20.9001 193.11 21.0381 193.542 21.3141 193.794C21.5901 194.034 22.0341 194.154 22.6461 194.154H23.0601C23.1801 194.154 23.2401 194.214 23.2401 194.334V194.82C23.2401 194.94 23.1801 195 23.0601 195L22.5201 195.018C21.6801 195.018 21.0441 194.856 20.6121 194.532C20.1921 194.208 19.9761 193.614 19.9641 192.75V186.81C19.9641 186.762 19.9401 186.738 19.8921 186.738H18.8121C18.6921 186.738 18.6321 186.678 18.6321 186.558V186.108C18.6321 185.988 18.6921 185.928 18.8121 185.928H19.8921C19.9401 185.928 19.9641 185.904 19.9641 185.856V183.804C19.9641 183.684 20.0241 183.624 20.1441 183.624H20.7201C20.8401 183.624 20.9001 183.684 20.9001 183.804V185.856C20.9001 185.904 20.9241 185.928 20.9721 185.928H23.0781C23.1981 185.928 23.2581 185.988 23.2581 186.108V186.558ZM29.5109 185.802C30.4349 185.802 31.1789 186.084 31.7429 186.648C32.3189 187.212 32.6069 187.956 32.6069 188.88V194.82C32.6069 194.94 32.5469 195 32.4269 195H31.8329C31.7129 195 31.6529 194.94 31.6529 194.82V189.06C31.6529 188.352 31.4369 187.776 31.0049 187.332C30.5729 186.876 30.0089 186.648 29.3129 186.648C28.5929 186.648 28.0109 186.87 27.5669 187.314C27.1229 187.746 26.9009 188.316 26.9009 189.024V194.82C26.9009 194.94 26.8409 195 26.7209 195H26.1269C26.0069 195 25.9469 194.94 25.9469 194.82V182.58C25.9469 182.46 26.0069 182.4 26.1269 182.4H26.7209C26.8409 182.4 26.9009 182.46 26.9009 182.58V186.99C26.9009 187.026 26.9069 187.05 26.9189 187.062C26.9429 187.062 26.9609 187.05 26.9729 187.026C27.2369 186.63 27.5849 186.33 28.0169 186.126C28.4489 185.91 28.9469 185.802 29.5109 185.802ZM36.3528 184.11C36.0888 184.11 35.8728 184.026 35.7048 183.858C35.5368 183.69 35.4528 183.474 35.4528 183.21C35.4528 182.946 35.5368 182.73 35.7048 182.562C35.8728 182.394 36.0888 182.31 36.3528 182.31C36.6168 182.31 36.8328 182.394 37.0008 182.562C37.1688 182.73 37.2528 182.946 37.2528 183.21C37.2528 183.474 37.1688 183.69 37.0008 183.858C36.8328 184.026 36.6168 184.11 36.3528 184.11ZM36.0108 194.982C35.8908 194.982 35.8308 194.922 35.8308 194.802V186.09C35.8308 185.97 35.8908 185.91 36.0108 185.91H36.6048C36.7248 185.91 36.7848 185.97 36.7848 186.09V194.802C36.7848 194.922 36.7248 194.982 36.6048 194.982H36.0108ZM43.0463 195.09C42.3983 195.09 41.8223 194.988 41.3183 194.784C40.8263 194.568 40.4423 194.28 40.1663 193.92C39.8903 193.56 39.7523 193.164 39.7523 192.732V192.498C39.7523 192.378 39.8123 192.318 39.9323 192.318H40.4903C40.6103 192.318 40.6703 192.378 40.6703 192.498V192.696C40.6703 193.14 40.8923 193.524 41.3363 193.848C41.7803 194.16 42.3443 194.316 43.0283 194.316C43.7003 194.316 44.2463 194.154 44.6663 193.83C45.0863 193.506 45.2963 193.104 45.2963 192.624C45.2963 192.288 45.1883 192.012 44.9723 191.796C44.7563 191.58 44.4983 191.418 44.1983 191.31C43.9103 191.19 43.4723 191.04 42.8843 190.86C42.2123 190.656 41.6723 190.464 41.2643 190.284C40.8563 190.104 40.5083 189.852 40.2203 189.528C39.9443 189.192 39.8063 188.772 39.8063 188.268C39.8063 187.536 40.0943 186.954 40.6703 186.522C41.2583 186.078 42.0263 185.856 42.9743 185.856C43.6103 185.856 44.1683 185.964 44.6483 186.18C45.1403 186.384 45.5183 186.666 45.7823 187.026C46.0583 187.386 46.1963 187.794 46.1963 188.25V188.304C46.1963 188.424 46.1363 188.484 46.0163 188.484H45.4583C45.3383 188.484 45.2783 188.424 45.2783 188.304V188.25C45.2783 187.794 45.0623 187.416 44.6303 187.116C44.2103 186.804 43.6523 186.648 42.9563 186.648C42.2843 186.648 41.7443 186.792 41.3363 187.08C40.9283 187.356 40.7243 187.734 40.7243 188.214C40.7243 188.67 40.9103 189.012 41.2823 189.24C41.6663 189.468 42.2603 189.702 43.0643 189.942C43.7603 190.146 44.3123 190.338 44.7203 190.518C45.1403 190.698 45.5003 190.956 45.8003 191.292C46.1003 191.616 46.2503 192.042 46.2503 192.57C46.2503 193.326 45.9563 193.938 45.3683 194.406C44.7923 194.862 44.0183 195.09 43.0463 195.09ZM54.2019 195C54.1059 195 54.0399 194.952 54.0039 194.856L51.4479 186.126L51.4299 186.072C51.4299 185.976 51.4899 185.928 51.6099 185.928H52.2219C52.3299 185.928 52.3959 185.982 52.4199 186.09L54.4899 193.596C54.5019 193.62 54.5139 193.632 54.5259 193.632C54.5499 193.632 54.5679 193.62 54.5799 193.596L56.6679 186.072C56.6919 185.976 56.7579 185.928 56.8659 185.928H57.4239C57.5199 185.928 57.5859 185.976 57.6219 186.072L59.7459 193.578C59.7579 193.602 59.7699 193.614 59.7819 193.614C59.8059 193.614 59.8239 193.602 59.8359 193.578L61.9419 186.09C61.9659 185.982 62.0319 185.928 62.1399 185.928L62.7339 185.946C62.7939 185.946 62.8419 185.964 62.8779 186C62.9139 186.036 62.9199 186.084 62.8959 186.144L60.3219 194.856C60.2859 194.952 60.2199 195 60.1239 195H59.5119C59.4159 195 59.3499 194.952 59.3139 194.856L57.1899 187.656C57.1779 187.632 57.1599 187.62 57.1359 187.62C57.1239 187.62 57.1119 187.632 57.0999 187.656L55.0299 194.856C54.9939 194.952 54.9279 195 54.8319 195H54.2019ZM68.1408 195.144C67.3008 195.144 66.5808 194.922 65.9808 194.478C65.3808 194.034 64.9728 193.44 64.7568 192.696C64.6248 192.216 64.5588 191.466 64.5588 190.446C64.5588 189.426 64.6248 188.682 64.7568 188.214C64.9728 187.47 65.3748 186.882 65.9628 186.45C66.5628 186.006 67.2948 185.784 68.1588 185.784C68.9988 185.784 69.7188 186.006 70.3188 186.45C70.9308 186.894 71.3388 187.482 71.5428 188.214C71.6148 188.49 71.6628 188.802 71.6868 189.15C71.7108 189.486 71.7228 189.918 71.7228 190.446C71.7228 190.998 71.7108 191.442 71.6868 191.778C71.6628 192.114 71.6148 192.42 71.5428 192.696C71.3388 193.44 70.9308 194.034 70.3188 194.478C69.7188 194.922 68.9928 195.144 68.1408 195.144ZM68.1408 194.298C68.7768 194.298 69.3168 194.124 69.7608 193.776C70.2168 193.416 70.5108 192.948 70.6428 192.372C70.7268 192.048 70.7688 191.412 70.7688 190.464C70.7688 189.504 70.7328 188.868 70.6608 188.556C70.5288 187.968 70.2348 187.5 69.7788 187.152C69.3348 186.804 68.7888 186.63 68.1408 186.63C67.4928 186.63 66.9468 186.804 66.5028 187.152C66.0588 187.5 65.7708 187.968 65.6388 188.556C65.5548 188.928 65.5128 189.564 65.5128 190.464C65.5128 191.364 65.5548 192 65.6388 192.372C65.7708 192.96 66.0588 193.428 66.5028 193.776C66.9468 194.124 67.4928 194.298 68.1408 194.298ZM77.988 185.856C78.396 185.856 78.744 185.928 79.032 186.072C79.128 186.108 79.164 186.186 79.14 186.306L78.978 186.882C78.942 187.002 78.864 187.038 78.744 186.99C78.504 186.894 78.204 186.852 77.844 186.864C77.172 186.876 76.614 187.134 76.17 187.638C75.738 188.13 75.522 188.736 75.522 189.456V194.82C75.522 194.94 75.462 195 75.342 195H74.748C74.628 195 74.568 194.94 74.568 194.82V186.108C74.568 185.988 74.628 185.928 74.748 185.928H75.342C75.462 185.928 75.522 185.988 75.522 186.108V187.332C75.522 187.368 75.528 187.392 75.54 187.404C75.564 187.404 75.582 187.386 75.594 187.35C75.846 186.882 76.17 186.516 76.566 186.252C76.974 185.988 77.448 185.856 77.988 185.856ZM81.2167 195C81.0967 195 81.0367 194.94 81.0367 194.82V182.58C81.0367 182.46 81.0967 182.4 81.2167 182.4H81.8107C81.9307 182.4 81.9907 182.46 81.9907 182.58V194.82C81.9907 194.94 81.9307 195 81.8107 195H81.2167ZM90.7493 182.58C90.7493 182.46 90.8093 182.4 90.9293 182.4H91.5233C91.6433 182.4 91.7033 182.46 91.7033 182.58V194.82C91.7033 194.94 91.6433 195 91.5233 195H90.9293C90.8093 195 90.7493 194.94 90.7493 194.82V193.938C90.7493 193.902 90.7373 193.884 90.7133 193.884C90.7013 193.872 90.6833 193.878 90.6593 193.902C90.4073 194.298 90.0713 194.604 89.6513 194.82C89.2313 195.036 88.7573 195.144 88.2293 195.144C87.4133 195.144 86.7233 194.928 86.1593 194.496C85.5953 194.064 85.2113 193.482 85.0073 192.75C84.9233 192.474 84.8693 192.168 84.8453 191.832C84.8213 191.484 84.8093 191.034 84.8093 190.482C84.8093 189.942 84.8213 189.498 84.8453 189.15C84.8693 188.802 84.9173 188.49 84.9893 188.214C85.1693 187.47 85.5413 186.882 86.1053 186.45C86.6813 186.006 87.3893 185.784 88.2293 185.784C88.7573 185.784 89.2313 185.892 89.6513 186.108C90.0713 186.324 90.4073 186.63 90.6593 187.026C90.6713 187.062 90.6893 187.08 90.7133 187.08C90.7373 187.068 90.7493 187.044 90.7493 187.008V182.58ZM90.5153 192.606C90.5993 192.378 90.6533 192.12 90.6773 191.832C90.7133 191.544 90.7313 191.094 90.7313 190.482C90.7313 189.846 90.7133 189.384 90.6773 189.096C90.6413 188.796 90.5813 188.526 90.4973 188.286C90.3653 187.794 90.1073 187.398 89.7233 187.098C89.3513 186.786 88.8893 186.63 88.3373 186.63C87.7733 186.63 87.2873 186.786 86.8793 187.098C86.4713 187.398 86.1953 187.788 86.0513 188.268C85.9433 188.496 85.8653 188.76 85.8173 189.06C85.7813 189.348 85.7633 189.816 85.7633 190.464C85.7633 191.088 85.7813 191.544 85.8173 191.832C85.8533 192.108 85.9133 192.366 85.9973 192.606C86.1173 193.11 86.3873 193.518 86.8073 193.83C87.2273 194.142 87.7313 194.298 88.3193 194.298C88.8833 194.298 89.3513 194.142 89.7233 193.83C90.1073 193.518 90.3713 193.11 90.5153 192.606ZM101.715 195.144C100.875 195.144 100.155 194.922 99.555 194.478C98.955 194.034 98.547 193.44 98.331 192.696C98.199 192.216 98.133 191.466 98.133 190.446C98.133 189.426 98.199 188.682 98.331 188.214C98.547 187.47 98.949 186.882 99.537 186.45C100.137 186.006 100.869 185.784 101.733 185.784C102.573 185.784 103.293 186.006 103.893 186.45C104.505 186.894 104.913 187.482 105.117 188.214C105.189 188.49 105.237 188.802 105.261 189.15C105.285 189.486 105.297 189.918 105.297 190.446C105.297 190.998 105.285 191.442 105.261 191.778C105.237 192.114 105.189 192.42 105.117 192.696C104.913 193.44 104.505 194.034 103.893 194.478C103.293 194.922 102.567 195.144 101.715 195.144ZM101.715 194.298C102.351 194.298 102.891 194.124 103.335 193.776C103.791 193.416 104.085 192.948 104.217 192.372C104.301 192.048 104.343 191.412 104.343 190.464C104.343 189.504 104.307 188.868 104.235 188.556C104.103 187.968 103.809 187.5 103.353 187.152C102.909 186.804 102.363 186.63 101.715 186.63C101.067 186.63 100.521 186.804 100.077 187.152C99.633 187.5 99.345 187.968 99.213 188.556C99.129 188.928 99.087 189.564 99.087 190.464C99.087 191.364 99.129 192 99.213 192.372C99.345 192.96 99.633 193.428 100.077 193.776C100.521 194.124 101.067 194.298 101.715 194.298ZM111.384 183.246C110.676 183.246 110.19 183.414 109.926 183.75C109.674 184.086 109.548 184.632 109.548 185.388V185.856C109.548 185.904 109.572 185.928 109.62 185.928H111.726C111.846 185.928 111.906 185.988 111.906 186.108V186.63C111.906 186.75 111.846 186.81 111.726 186.81H109.62C109.572 186.81 109.548 186.834 109.548 186.882V194.82C109.548 194.94 109.488 195 109.368 195H108.774C108.654 195 108.594 194.94 108.594 194.82V186.882C108.594 186.834 108.57 186.81 108.522 186.81H107.334C107.214 186.81 107.154 186.75 107.154 186.63V186.108C107.154 185.988 107.214 185.928 107.334 185.928H108.522C108.57 185.928 108.594 185.904 108.594 185.856V185.352C108.594 184.644 108.672 184.08 108.828 183.66C108.996 183.24 109.272 182.928 109.656 182.724C110.052 182.508 110.604 182.4 111.312 182.4H111.78C111.9 182.4 111.96 182.46 111.96 182.58V183.066C111.96 183.186 111.9 183.246 111.78 183.246H111.384ZM121.245 195.144C120.393 195.144 119.667 194.922 119.067 194.478C118.479 194.034 118.083 193.44 117.879 192.696C117.723 192.12 117.645 191.37 117.645 190.446C117.645 189.558 117.723 188.814 117.879 188.214C118.071 187.482 118.467 186.894 119.067 186.45C119.667 186.006 120.393 185.784 121.245 185.784C122.097 185.784 122.829 186 123.441 186.432C124.065 186.864 124.461 187.404 124.629 188.052C124.677 188.22 124.713 188.388 124.737 188.556V188.592C124.737 188.676 124.683 188.73 124.575 188.754L123.999 188.826H123.963C123.879 188.826 123.825 188.772 123.801 188.664L123.747 188.412C123.639 187.908 123.357 187.488 122.901 187.152C122.445 186.804 121.893 186.63 121.245 186.63C120.585 186.63 120.033 186.804 119.589 187.152C119.157 187.5 118.881 187.962 118.761 188.538C118.653 188.994 118.599 189.636 118.599 190.464C118.599 191.304 118.653 191.94 118.761 192.372C118.881 192.96 119.157 193.428 119.589 193.776C120.033 194.124 120.585 194.298 121.245 194.298C121.893 194.298 122.445 194.13 122.901 193.794C123.369 193.446 123.651 193.014 123.747 192.498L123.765 192.408C123.789 192.276 123.861 192.222 123.981 192.246L124.539 192.336C124.659 192.36 124.713 192.426 124.701 192.534L124.629 192.858C124.461 193.53 124.065 194.082 123.441 194.514C122.829 194.934 122.097 195.144 121.245 195.144ZM127.412 195C127.292 195 127.232 194.94 127.232 194.82V182.58C127.232 182.46 127.292 182.4 127.412 182.4H128.006C128.126 182.4 128.186 182.46 128.186 182.58V194.82C128.186 194.94 128.126 195 128.006 195H127.412ZM136.855 186.108C136.855 185.988 136.915 185.928 137.035 185.928H137.611C137.731 185.928 137.791 185.988 137.791 186.108V194.82C137.791 194.94 137.731 195 137.611 195H137.035C136.915 195 136.855 194.94 136.855 194.82V193.938C136.855 193.902 136.843 193.884 136.819 193.884C136.795 193.872 136.777 193.884 136.765 193.92C136.513 194.316 136.171 194.616 135.739 194.82C135.319 195.024 134.821 195.126 134.245 195.126C133.357 195.126 132.619 194.862 132.031 194.334C131.443 193.806 131.149 193.08 131.149 192.156V186.108C131.149 185.988 131.209 185.928 131.329 185.928H131.905C132.025 185.928 132.085 185.988 132.085 186.108V191.904C132.085 192.624 132.295 193.2 132.715 193.632C133.147 194.064 133.717 194.28 134.425 194.28C135.157 194.28 135.745 194.064 136.189 193.632C136.633 193.188 136.855 192.612 136.855 191.904V186.108ZM144.705 186.558C144.705 186.678 144.645 186.738 144.525 186.738H142.419C142.371 186.738 142.347 186.762 142.347 186.81V192.498C142.347 193.11 142.485 193.542 142.761 193.794C143.037 194.034 143.481 194.154 144.093 194.154H144.507C144.627 194.154 144.687 194.214 144.687 194.334V194.82C144.687 194.94 144.627 195 144.507 195L143.967 195.018C143.127 195.018 142.491 194.856 142.059 194.532C141.639 194.208 141.423 193.614 141.411 192.75V186.81C141.411 186.762 141.387 186.738 141.339 186.738H140.259C140.139 186.738 140.079 186.678 140.079 186.558V186.108C140.079 185.988 140.139 185.928 140.259 185.928H141.339C141.387 185.928 141.411 185.904 141.411 185.856V183.804C141.411 183.684 141.471 183.624 141.591 183.624H142.167C142.287 183.624 142.347 183.684 142.347 183.804V185.856C142.347 185.904 142.371 185.928 142.419 185.928H144.525C144.645 185.928 144.705 185.988 144.705 186.108V186.558ZM151.174 186.558C151.174 186.678 151.114 186.738 150.994 186.738H148.888C148.84 186.738 148.816 186.762 148.816 186.81V192.498C148.816 193.11 148.954 193.542 149.23 193.794C149.506 194.034 149.95 194.154 150.562 194.154H150.976C151.096 194.154 151.156 194.214 151.156 194.334V194.82C151.156 194.94 151.096 195 150.976 195L150.436 195.018C149.596 195.018 148.96 194.856 148.528 194.532C148.108 194.208 147.892 193.614 147.88 192.75V186.81C147.88 186.762 147.856 186.738 147.808 186.738H146.728C146.608 186.738 146.548 186.678 146.548 186.558V186.108C146.548 185.988 146.608 185.928 146.728 185.928H147.808C147.856 185.928 147.88 185.904 147.88 185.856V183.804C147.88 183.684 147.94 183.624 148.06 183.624H148.636C148.756 183.624 148.816 183.684 148.816 183.804V185.856C148.816 185.904 148.84 185.928 148.888 185.928H150.994C151.114 185.928 151.174 185.988 151.174 186.108V186.558ZM156.948 194.298C157.512 194.298 157.992 194.172 158.388 193.92C158.796 193.656 159.114 193.296 159.342 192.84C159.402 192.732 159.48 192.702 159.576 192.75L160.044 192.984C160.152 193.044 160.182 193.122 160.134 193.218C159.87 193.806 159.45 194.274 158.874 194.622C158.31 194.97 157.644 195.144 156.876 195.144C156.036 195.144 155.322 194.94 154.734 194.532C154.146 194.124 153.744 193.566 153.528 192.858C153.432 192.558 153.366 192.222 153.33 191.85C153.294 191.478 153.276 191.01 153.276 190.446C153.276 189.858 153.282 189.414 153.294 189.114C153.318 188.814 153.36 188.538 153.42 188.286C153.612 187.53 154.002 186.924 154.59 186.468C155.19 186.012 155.922 185.784 156.786 185.784C157.77 185.784 158.556 186.042 159.144 186.558C159.732 187.062 160.098 187.764 160.242 188.664C160.278 188.892 160.302 189.162 160.314 189.474C160.326 189.774 160.332 190.152 160.332 190.608C160.332 190.728 160.272 190.788 160.152 190.788H154.284C154.236 190.788 154.212 190.812 154.212 190.86C154.212 191.628 154.242 192.138 154.302 192.39C154.434 192.978 154.728 193.446 155.184 193.794C155.652 194.13 156.24 194.298 156.948 194.298ZM154.338 188.502C154.278 188.73 154.236 189.198 154.212 189.906C154.212 189.954 154.236 189.978 154.284 189.978H159.306C159.354 189.978 159.378 189.954 159.378 189.906C159.378 189.306 159.348 188.856 159.288 188.556C159.156 187.98 158.868 187.518 158.424 187.17C157.98 186.81 157.434 186.63 156.786 186.63C156.138 186.63 155.598 186.804 155.166 187.152C154.734 187.488 154.458 187.938 154.338 188.502ZM166.529 185.856C166.937 185.856 167.285 185.928 167.573 186.072C167.669 186.108 167.705 186.186 167.681 186.306L167.519 186.882C167.483 187.002 167.405 187.038 167.285 186.99C167.045 186.894 166.745 186.852 166.385 186.864C165.713 186.876 165.155 187.134 164.711 187.638C164.279 188.13 164.063 188.736 164.063 189.456V194.82C164.063 194.94 164.003 195 163.883 195H163.289C163.169 195 163.109 194.94 163.109 194.82V186.108C163.109 185.988 163.169 185.928 163.289 185.928H163.883C164.003 185.928 164.063 185.988 164.063 186.108V187.332C164.063 187.368 164.069 187.392 164.081 187.404C164.105 187.404 164.123 187.386 164.135 187.35C164.387 186.882 164.711 186.516 165.107 186.252C165.515 185.988 165.989 185.856 166.529 185.856ZM174.981 195C174.885 195 174.819 194.952 174.783 194.856L172.227 186.126L172.209 186.072C172.209 185.976 172.269 185.928 172.389 185.928H173.001C173.109 185.928 173.175 185.982 173.199 186.09L175.269 193.596C175.281 193.62 175.293 193.632 175.305 193.632C175.329 193.632 175.347 193.62 175.359 193.596L177.447 186.072C177.471 185.976 177.537 185.928 177.645 185.928H178.203C178.299 185.928 178.365 185.976 178.401 186.072L180.525 193.578C180.537 193.602 180.549 193.614 180.561 193.614C180.585 193.614 180.603 193.602 180.615 193.578L182.721 186.09C182.745 185.982 182.811 185.928 182.919 185.928L183.513 185.946C183.573 185.946 183.621 185.964 183.657 186C183.693 186.036 183.699 186.084 183.675 186.144L181.101 194.856C181.065 194.952 180.999 195 180.903 195H180.291C180.195 195 180.129 194.952 180.093 194.856L177.969 187.656C177.957 187.632 177.939 187.62 177.915 187.62C177.903 187.62 177.891 187.632 177.879 187.656L175.809 194.856C175.773 194.952 175.707 195 175.611 195H174.981ZM189.028 194.298C189.592 194.298 190.072 194.172 190.468 193.92C190.876 193.656 191.194 193.296 191.422 192.84C191.482 192.732 191.56 192.702 191.656 192.75L192.124 192.984C192.232 193.044 192.262 193.122 192.214 193.218C191.95 193.806 191.53 194.274 190.954 194.622C190.39 194.97 189.724 195.144 188.956 195.144C188.116 195.144 187.402 194.94 186.814 194.532C186.226 194.124 185.824 193.566 185.608 192.858C185.512 192.558 185.446 192.222 185.41 191.85C185.374 191.478 185.356 191.01 185.356 190.446C185.356 189.858 185.362 189.414 185.374 189.114C185.398 188.814 185.44 188.538 185.5 188.286C185.692 187.53 186.082 186.924 186.67 186.468C187.27 186.012 188.002 185.784 188.866 185.784C189.85 185.784 190.636 186.042 191.224 186.558C191.812 187.062 192.178 187.764 192.322 188.664C192.358 188.892 192.382 189.162 192.394 189.474C192.406 189.774 192.412 190.152 192.412 190.608C192.412 190.728 192.352 190.788 192.232 190.788H186.364C186.316 190.788 186.292 190.812 186.292 190.86C186.292 191.628 186.322 192.138 186.382 192.39C186.514 192.978 186.808 193.446 187.264 193.794C187.732 194.13 188.32 194.298 189.028 194.298ZM186.418 188.502C186.358 188.73 186.316 189.198 186.292 189.906C186.292 189.954 186.316 189.978 186.364 189.978H191.386C191.434 189.978 191.458 189.954 191.458 189.906C191.458 189.306 191.428 188.856 191.368 188.556C191.236 187.98 190.948 187.518 190.504 187.17C190.06 186.81 189.514 186.63 188.866 186.63C188.218 186.63 187.678 186.804 187.246 187.152C186.814 187.488 186.538 187.938 186.418 188.502ZM204.445 182.58C204.445 182.46 204.505 182.4 204.625 182.4H205.219C205.339 182.4 205.399 182.46 205.399 182.58V194.82C205.399 194.94 205.339 195 205.219 195H204.625C204.505 195 204.445 194.94 204.445 194.82V193.938C204.445 193.902 204.433 193.884 204.409 193.884C204.397 193.872 204.379 193.878 204.355 193.902C204.103 194.298 203.767 194.604 203.347 194.82C202.927 195.036 202.453 195.144 201.925 195.144C201.109 195.144 200.419 194.928 199.855 194.496C199.291 194.064 198.907 193.482 198.703 192.75C198.619 192.474 198.565 192.168 198.541 191.832C198.517 191.484 198.505 191.034 198.505 190.482C198.505 189.942 198.517 189.498 198.541 189.15C198.565 188.802 198.613 188.49 198.685 188.214C198.865 187.47 199.237 186.882 199.801 186.45C200.377 186.006 201.085 185.784 201.925 185.784C202.453 185.784 202.927 185.892 203.347 186.108C203.767 186.324 204.103 186.63 204.355 187.026C204.367 187.062 204.385 187.08 204.409 187.08C204.433 187.068 204.445 187.044 204.445 187.008V182.58ZM204.211 192.606C204.295 192.378 204.349 192.12 204.373 191.832C204.409 191.544 204.427 191.094 204.427 190.482C204.427 189.846 204.409 189.384 204.373 189.096C204.337 188.796 204.277 188.526 204.193 188.286C204.061 187.794 203.803 187.398 203.419 187.098C203.047 186.786 202.585 186.63 202.033 186.63C201.469 186.63 200.983 186.786 200.575 187.098C200.167 187.398 199.891 187.788 199.747 188.268C199.639 188.496 199.561 188.76 199.513 189.06C199.477 189.348 199.459 189.816 199.459 190.464C199.459 191.088 199.477 191.544 199.513 191.832C199.549 192.108 199.609 192.366 199.693 192.606C199.813 193.11 200.083 193.518 200.503 193.83C200.923 194.142 201.427 194.298 202.015 194.298C202.579 194.298 203.047 194.142 203.419 193.83C203.803 193.518 204.067 193.11 204.211 192.606ZM211.807 195.144C210.967 195.144 210.247 194.922 209.647 194.478C209.047 194.034 208.639 193.44 208.423 192.696C208.291 192.216 208.225 191.466 208.225 190.446C208.225 189.426 208.291 188.682 208.423 188.214C208.639 187.47 209.041 186.882 209.629 186.45C210.229 186.006 210.961 185.784 211.825 185.784C212.665 185.784 213.385 186.006 213.985 186.45C214.597 186.894 215.005 187.482 215.209 188.214C215.281 188.49 215.329 188.802 215.353 189.15C215.377 189.486 215.389 189.918 215.389 190.446C215.389 190.998 215.377 191.442 215.353 191.778C215.329 192.114 215.281 192.42 215.209 192.696C215.005 193.44 214.597 194.034 213.985 194.478C213.385 194.922 212.659 195.144 211.807 195.144ZM211.807 194.298C212.443 194.298 212.983 194.124 213.427 193.776C213.883 193.416 214.177 192.948 214.309 192.372C214.393 192.048 214.435 191.412 214.435 190.464C214.435 189.504 214.399 188.868 214.327 188.556C214.195 187.968 213.901 187.5 213.445 187.152C213.001 186.804 212.455 186.63 211.807 186.63C211.159 186.63 210.613 186.804 210.169 187.152C209.725 187.5 209.437 187.968 209.305 188.556C209.221 188.928 209.179 189.564 209.179 190.464C209.179 191.364 209.221 192 209.305 192.372C209.437 192.96 209.725 193.428 210.169 193.776C210.613 194.124 211.159 194.298 211.807 194.298ZM225.401 185.802C226.325 185.802 227.069 186.084 227.633 186.648C228.209 187.212 228.497 187.956 228.497 188.88V194.82C228.497 194.94 228.437 195 228.317 195H227.723C227.603 195 227.543 194.94 227.543 194.82V189.06C227.543 188.352 227.327 187.776 226.895 187.332C226.463 186.876 225.899 186.648 225.203 186.648C224.483 186.648 223.901 186.87 223.457 187.314C223.013 187.746 222.791 188.316 222.791 189.024V194.82C222.791 194.94 222.731 195 222.611 195H222.017C221.897 195 221.837 194.94 221.837 194.82V186.108C221.837 185.988 221.897 185.928 222.017 185.928H222.611C222.731 185.928 222.791 185.988 222.791 186.108V186.99C222.791 187.026 222.797 187.05 222.809 187.062C222.833 187.062 222.851 187.05 222.863 187.026C223.127 186.63 223.475 186.33 223.907 186.126C224.339 185.91 224.837 185.802 225.401 185.802ZM234.641 195.144C233.801 195.144 233.081 194.922 232.481 194.478C231.881 194.034 231.473 193.44 231.257 192.696C231.125 192.216 231.059 191.466 231.059 190.446C231.059 189.426 231.125 188.682 231.257 188.214C231.473 187.47 231.875 186.882 232.463 186.45C233.063 186.006 233.795 185.784 234.659 185.784C235.499 185.784 236.219 186.006 236.819 186.45C237.431 186.894 237.839 187.482 238.043 188.214C238.115 188.49 238.163 188.802 238.187 189.15C238.211 189.486 238.223 189.918 238.223 190.446C238.223 190.998 238.211 191.442 238.187 191.778C238.163 192.114 238.115 192.42 238.043 192.696C237.839 193.44 237.431 194.034 236.819 194.478C236.219 194.922 235.493 195.144 234.641 195.144ZM234.641 194.298C235.277 194.298 235.817 194.124 236.261 193.776C236.717 193.416 237.011 192.948 237.143 192.372C237.227 192.048 237.269 191.412 237.269 190.464C237.269 189.504 237.233 188.868 237.161 188.556C237.029 187.968 236.735 187.5 236.279 187.152C235.835 186.804 235.289 186.63 234.641 186.63C233.993 186.63 233.447 186.804 233.003 187.152C232.559 187.5 232.271 187.968 232.139 188.556C232.055 188.928 232.013 189.564 232.013 190.464C232.013 191.364 232.055 192 232.139 192.372C232.271 192.96 232.559 193.428 233.003 193.776C233.447 194.124 233.993 194.298 234.641 194.298ZM244.778 186.558C244.778 186.678 244.718 186.738 244.598 186.738H242.492C242.444 186.738 242.42 186.762 242.42 186.81V192.498C242.42 193.11 242.558 193.542 242.834 193.794C243.11 194.034 243.554 194.154 244.166 194.154H244.58C244.7 194.154 244.76 194.214 244.76 194.334V194.82C244.76 194.94 244.7 195 244.58 195L244.04 195.018C243.2 195.018 242.564 194.856 242.132 194.532C241.712 194.208 241.496 193.614 241.484 192.75V186.81C241.484 186.762 241.46 186.738 241.412 186.738H240.332C240.212 186.738 240.152 186.678 240.152 186.558V186.108C240.152 185.988 240.212 185.928 240.332 185.928H241.412C241.46 185.928 241.484 185.904 241.484 185.856V183.804C241.484 183.684 241.544 183.624 241.664 183.624H242.24C242.36 183.624 242.42 183.684 242.42 183.804V185.856C242.42 185.904 242.444 185.928 242.492 185.928H244.598C244.718 185.928 244.778 185.988 244.778 186.108V186.558ZM252.87 195C252.774 195 252.708 194.952 252.672 194.856L250.116 186.126L250.098 186.072C250.098 185.976 250.158 185.928 250.278 185.928H250.89C250.998 185.928 251.064 185.982 251.088 186.09L253.158 193.596C253.17 193.62 253.182 193.632 253.194 193.632C253.218 193.632 253.236 193.62 253.248 193.596L255.336 186.072C255.36 185.976 255.426 185.928 255.534 185.928H256.092C256.188 185.928 256.254 185.976 256.29 186.072L258.414 193.578C258.426 193.602 258.438 193.614 258.45 193.614C258.474 193.614 258.492 193.602 258.504 193.578L260.61 186.09C260.634 185.982 260.7 185.928 260.808 185.928L261.402 185.946C261.462 185.946 261.51 185.964 261.546 186C261.582 186.036 261.588 186.084 261.564 186.144L258.99 194.856C258.954 194.952 258.888 195 258.792 195H258.18C258.084 195 258.018 194.952 257.982 194.856L255.858 187.656C255.846 187.632 255.828 187.62 255.804 187.62C255.792 187.62 255.78 187.632 255.768 187.656L253.698 194.856C253.662 194.952 253.596 195 253.5 195H252.87ZM266.644 185.784C267.7 185.784 268.504 186.06 269.056 186.612C269.608 187.152 269.884 187.884 269.884 188.808V194.82C269.884 194.94 269.824 195 269.704 195H269.11C268.99 195 268.93 194.94 268.93 194.82V193.974C268.93 193.95 268.918 193.932 268.894 193.92C268.882 193.908 268.864 193.914 268.84 193.938C268.528 194.334 268.12 194.634 267.616 194.838C267.124 195.042 266.572 195.144 265.96 195.144C265.132 195.144 264.43 194.934 263.854 194.514C263.278 194.094 262.99 193.452 262.99 192.588C262.99 191.7 263.32 190.998 263.98 190.482C264.64 189.966 265.546 189.708 266.698 189.708H268.858C268.906 189.708 268.93 189.684 268.93 189.636V188.826C268.93 188.154 268.738 187.62 268.354 187.224C267.982 186.828 267.406 186.63 266.626 186.63C266.014 186.63 265.51 186.756 265.114 187.008C264.718 187.26 264.472 187.596 264.376 188.016C264.34 188.136 264.268 188.19 264.16 188.178L263.53 188.088C263.398 188.064 263.344 188.016 263.368 187.944C263.476 187.296 263.824 186.774 264.412 186.378C265.012 185.982 265.756 185.784 266.644 185.784ZM266.122 194.316C266.878 194.316 267.532 194.13 268.084 193.758C268.648 193.386 268.93 192.87 268.93 192.21V190.572C268.93 190.524 268.906 190.5 268.858 190.5H266.788C265.936 190.5 265.246 190.68 264.718 191.04C264.202 191.4 263.944 191.898 263.944 192.534C263.944 193.122 264.148 193.566 264.556 193.866C264.964 194.166 265.486 194.316 266.122 194.316ZM276.308 185.802C277.232 185.802 277.976 186.084 278.54 186.648C279.116 187.212 279.404 187.956 279.404 188.88V194.82C279.404 194.94 279.344 195 279.224 195H278.63C278.51 195 278.45 194.94 278.45 194.82V189.06C278.45 188.352 278.234 187.776 277.802 187.332C277.37 186.876 276.806 186.648 276.11 186.648C275.39 186.648 274.808 186.87 274.364 187.314C273.92 187.746 273.698 188.316 273.698 189.024V194.82C273.698 194.94 273.638 195 273.518 195H272.924C272.804 195 272.744 194.94 272.744 194.82V186.108C272.744 185.988 272.804 185.928 272.924 185.928H273.518C273.638 185.928 273.698 185.988 273.698 186.108V186.99C273.698 187.026 273.704 187.05 273.716 187.062C273.74 187.062 273.758 187.05 273.77 187.026C274.034 186.63 274.382 186.33 274.814 186.126C275.246 185.91 275.744 185.802 276.308 185.802ZM286.192 186.558C286.192 186.678 286.132 186.738 286.012 186.738H283.906C283.858 186.738 283.834 186.762 283.834 186.81V192.498C283.834 193.11 283.972 193.542 284.248 193.794C284.524 194.034 284.968 194.154 285.58 194.154H285.994C286.114 194.154 286.174 194.214 286.174 194.334V194.82C286.174 194.94 286.114 195 285.994 195L285.454 195.018C284.614 195.018 283.978 194.856 283.546 194.532C283.126 194.208 282.91 193.614 282.898 192.75V186.81C282.898 186.762 282.874 186.738 282.826 186.738H281.746C281.626 186.738 281.566 186.678 281.566 186.558V186.108C281.566 185.988 281.626 185.928 281.746 185.928H282.826C282.874 185.928 282.898 185.904 282.898 185.856V183.804C282.898 183.684 282.958 183.624 283.078 183.624H283.654C283.774 183.624 283.834 183.684 283.834 183.804V185.856C283.834 185.904 283.858 185.928 283.906 185.928H286.012C286.132 185.928 286.192 185.988 286.192 186.108V186.558ZM296.264 186.558C296.264 186.678 296.204 186.738 296.084 186.738H293.978C293.93 186.738 293.906 186.762 293.906 186.81V192.498C293.906 193.11 294.044 193.542 294.32 193.794C294.596 194.034 295.04 194.154 295.652 194.154H296.066C296.186 194.154 296.246 194.214 296.246 194.334V194.82C296.246 194.94 296.186 195 296.066 195L295.526 195.018C294.686 195.018 294.05 194.856 293.618 194.532C293.198 194.208 292.982 193.614 292.97 192.75V186.81C292.97 186.762 292.946 186.738 292.898 186.738H291.818C291.698 186.738 291.638 186.678 291.638 186.558V186.108C291.638 185.988 291.698 185.928 291.818 185.928H292.898C292.946 185.928 292.97 185.904 292.97 185.856V183.804C292.97 183.684 293.03 183.624 293.15 183.624H293.726C293.846 183.624 293.906 183.684 293.906 183.804V185.856C293.906 185.904 293.93 185.928 293.978 185.928H296.084C296.204 185.928 296.264 185.988 296.264 186.108V186.558ZM301.93 195.144C301.09 195.144 300.37 194.922 299.77 194.478C299.17 194.034 298.762 193.44 298.546 192.696C298.414 192.216 298.348 191.466 298.348 190.446C298.348 189.426 298.414 188.682 298.546 188.214C298.762 187.47 299.164 186.882 299.752 186.45C300.352 186.006 301.084 185.784 301.948 185.784C302.788 185.784 303.508 186.006 304.108 186.45C304.72 186.894 305.128 187.482 305.332 188.214C305.404 188.49 305.452 188.802 305.476 189.15C305.5 189.486 305.512 189.918 305.512 190.446C305.512 190.998 305.5 191.442 305.476 191.778C305.452 192.114 305.404 192.42 305.332 192.696C305.128 193.44 304.72 194.034 304.108 194.478C303.508 194.922 302.782 195.144 301.93 195.144ZM301.93 194.298C302.566 194.298 303.106 194.124 303.55 193.776C304.006 193.416 304.3 192.948 304.432 192.372C304.516 192.048 304.558 191.412 304.558 190.464C304.558 189.504 304.522 188.868 304.45 188.556C304.318 187.968 304.024 187.5 303.568 187.152C303.124 186.804 302.578 186.63 301.93 186.63C301.282 186.63 300.736 186.804 300.292 187.152C299.848 187.5 299.56 187.968 299.428 188.556C299.344 188.928 299.302 189.564 299.302 190.464C299.302 191.364 299.344 192 299.428 192.372C299.56 192.96 299.848 193.428 300.292 193.776C300.736 194.124 301.282 194.298 301.93 194.298ZM314.967 185.784C316.023 185.784 316.827 186.06 317.379 186.612C317.931 187.152 318.207 187.884 318.207 188.808V194.82C318.207 194.94 318.147 195 318.027 195H317.433C317.313 195 317.253 194.94 317.253 194.82V193.974C317.253 193.95 317.241 193.932 317.217 193.92C317.205 193.908 317.187 193.914 317.163 193.938C316.851 194.334 316.443 194.634 315.939 194.838C315.447 195.042 314.895 195.144 314.283 195.144C313.455 195.144 312.753 194.934 312.177 194.514C311.601 194.094 311.313 193.452 311.313 192.588C311.313 191.7 311.643 190.998 312.303 190.482C312.963 189.966 313.869 189.708 315.021 189.708H317.181C317.229 189.708 317.253 189.684 317.253 189.636V188.826C317.253 188.154 317.061 187.62 316.677 187.224C316.305 186.828 315.729 186.63 314.949 186.63C314.337 186.63 313.833 186.756 313.437 187.008C313.041 187.26 312.795 187.596 312.699 188.016C312.663 188.136 312.591 188.19 312.483 188.178L311.853 188.088C311.721 188.064 311.667 188.016 311.691 187.944C311.799 187.296 312.147 186.774 312.735 186.378C313.335 185.982 314.079 185.784 314.967 185.784ZM314.445 194.316C315.201 194.316 315.855 194.13 316.407 193.758C316.971 193.386 317.253 192.87 317.253 192.21V190.572C317.253 190.524 317.229 190.5 317.181 190.5H315.111C314.259 190.5 313.569 190.68 313.041 191.04C312.525 191.4 312.267 191.898 312.267 192.534C312.267 193.122 312.471 193.566 312.879 193.866C313.287 194.166 313.809 194.316 314.445 194.316ZM326.718 182.58C326.718 182.46 326.778 182.4 326.898 182.4H327.492C327.612 182.4 327.672 182.46 327.672 182.58V194.82C327.672 194.94 327.612 195 327.492 195H326.898C326.778 195 326.718 194.94 326.718 194.82V193.938C326.718 193.902 326.706 193.884 326.682 193.884C326.67 193.872 326.652 193.878 326.628 193.902C326.376 194.298 326.04 194.604 325.62 194.82C325.2 195.036 324.726 195.144 324.198 195.144C323.382 195.144 322.692 194.928 322.128 194.496C321.564 194.064 321.18 193.482 320.976 192.75C320.892 192.474 320.838 192.168 320.814 191.832C320.79 191.484 320.778 191.034 320.778 190.482C320.778 189.942 320.79 189.498 320.814 189.15C320.838 188.802 320.886 188.49 320.958 188.214C321.138 187.47 321.51 186.882 322.074 186.45C322.65 186.006 323.358 185.784 324.198 185.784C324.726 185.784 325.2 185.892 325.62 186.108C326.04 186.324 326.376 186.63 326.628 187.026C326.64 187.062 326.658 187.08 326.682 187.08C326.706 187.068 326.718 187.044 326.718 187.008V182.58ZM326.484 192.606C326.568 192.378 326.622 192.12 326.646 191.832C326.682 191.544 326.7 191.094 326.7 190.482C326.7 189.846 326.682 189.384 326.646 189.096C326.61 188.796 326.55 188.526 326.466 188.286C326.334 187.794 326.076 187.398 325.692 187.098C325.32 186.786 324.858 186.63 324.306 186.63C323.742 186.63 323.256 186.786 322.848 187.098C322.44 187.398 322.164 187.788 322.02 188.268C321.912 188.496 321.834 188.76 321.786 189.06C321.75 189.348 321.732 189.816 321.732 190.464C321.732 191.088 321.75 191.544 321.786 191.832C321.822 192.108 321.882 192.366 321.966 192.606C322.086 193.11 322.356 193.518 322.776 193.83C323.196 194.142 323.7 194.298 324.288 194.298C324.852 194.298 325.32 194.142 325.692 193.83C326.076 193.518 326.34 193.11 326.484 192.606ZM336.456 182.58C336.456 182.46 336.516 182.4 336.636 182.4H337.23C337.35 182.4 337.41 182.46 337.41 182.58V194.82C337.41 194.94 337.35 195 337.23 195H336.636C336.516 195 336.456 194.94 336.456 194.82V193.938C336.456 193.902 336.444 193.884 336.42 193.884C336.408 193.872 336.39 193.878 336.366 193.902C336.114 194.298 335.778 194.604 335.358 194.82C334.938 195.036 334.464 195.144 333.936 195.144C333.12 195.144 332.43 194.928 331.866 194.496C331.302 194.064 330.918 193.482 330.714 192.75C330.63 192.474 330.576 192.168 330.552 191.832C330.528 191.484 330.516 191.034 330.516 190.482C330.516 189.942 330.528 189.498 330.552 189.15C330.576 188.802 330.624 188.49 330.696 188.214C330.876 187.47 331.248 186.882 331.812 186.45C332.388 186.006 333.096 185.784 333.936 185.784C334.464 185.784 334.938 185.892 335.358 186.108C335.778 186.324 336.114 186.63 336.366 187.026C336.378 187.062 336.396 187.08 336.42 187.08C336.444 187.068 336.456 187.044 336.456 187.008V182.58ZM336.222 192.606C336.306 192.378 336.36 192.12 336.384 191.832C336.42 191.544 336.438 191.094 336.438 190.482C336.438 189.846 336.42 189.384 336.384 189.096C336.348 188.796 336.288 188.526 336.204 188.286C336.072 187.794 335.814 187.398 335.43 187.098C335.058 186.786 334.596 186.63 334.044 186.63C333.48 186.63 332.994 186.786 332.586 187.098C332.178 187.398 331.902 187.788 331.758 188.268C331.65 188.496 331.572 188.76 331.524 189.06C331.488 189.348 331.47 189.816 331.47 190.464C331.47 191.088 331.488 191.544 331.524 191.832C331.56 192.108 331.62 192.366 331.704 192.606C331.824 193.11 332.094 193.518 332.514 193.83C332.934 194.142 333.438 194.298 334.026 194.298C334.59 194.298 335.058 194.142 335.43 193.83C335.814 193.518 336.078 193.11 336.222 192.606ZM353.146 185.802C354.022 185.802 354.724 186.066 355.252 186.594C355.78 187.122 356.044 187.848 356.044 188.772V194.82C356.044 194.94 355.984 195 355.864 195H355.288C355.168 195 355.108 194.94 355.108 194.82V188.952C355.108 188.244 354.898 187.686 354.478 187.278C354.07 186.858 353.536 186.648 352.876 186.648C352.18 186.648 351.616 186.852 351.184 187.26C350.764 187.668 350.554 188.22 350.554 188.916V194.82C350.554 194.94 350.494 195 350.374 195H349.798C349.678 195 349.618 194.94 349.618 194.82V188.952C349.618 188.244 349.414 187.686 349.006 187.278C348.598 186.858 348.064 186.648 347.404 186.648C346.696 186.648 346.132 186.852 345.712 187.26C345.304 187.668 345.1 188.22 345.1 188.916V194.82C345.1 194.94 345.04 195 344.92 195H344.326C344.206 195 344.146 194.94 344.146 194.82V186.108C344.146 185.988 344.206 185.928 344.326 185.928H344.92C345.04 185.928 345.1 185.988 345.1 186.108V186.918C345.1 186.942 345.112 186.96 345.136 186.972C345.16 186.984 345.178 186.978 345.19 186.954C345.442 186.57 345.778 186.282 346.198 186.09C346.63 185.898 347.116 185.802 347.656 185.802C348.28 185.802 348.814 185.94 349.258 186.216C349.714 186.48 350.056 186.858 350.284 187.35C350.308 187.398 350.338 187.404 350.374 187.368C350.626 186.852 350.992 186.462 351.472 186.198C351.952 185.934 352.51 185.802 353.146 185.802ZM362.17 195.144C361.33 195.144 360.61 194.922 360.01 194.478C359.41 194.034 359.002 193.44 358.786 192.696C358.654 192.216 358.588 191.466 358.588 190.446C358.588 189.426 358.654 188.682 358.786 188.214C359.002 187.47 359.404 186.882 359.992 186.45C360.592 186.006 361.324 185.784 362.188 185.784C363.028 185.784 363.748 186.006 364.348 186.45C364.96 186.894 365.368 187.482 365.572 188.214C365.644 188.49 365.692 188.802 365.716 189.15C365.74 189.486 365.752 189.918 365.752 190.446C365.752 190.998 365.74 191.442 365.716 191.778C365.692 192.114 365.644 192.42 365.572 192.696C365.368 193.44 364.96 194.034 364.348 194.478C363.748 194.922 363.022 195.144 362.17 195.144ZM362.17 194.298C362.806 194.298 363.346 194.124 363.79 193.776C364.246 193.416 364.54 192.948 364.672 192.372C364.756 192.048 364.798 191.412 364.798 190.464C364.798 189.504 364.762 188.868 364.69 188.556C364.558 187.968 364.264 187.5 363.808 187.152C363.364 186.804 362.818 186.63 362.17 186.63C361.522 186.63 360.976 186.804 360.532 187.152C360.088 187.5 359.8 187.968 359.668 188.556C359.584 188.928 359.542 189.564 359.542 190.464C359.542 191.364 359.584 192 359.668 192.372C359.8 192.96 360.088 193.428 360.532 193.776C360.976 194.124 361.522 194.298 362.17 194.298ZM372.017 185.856C372.425 185.856 372.773 185.928 373.061 186.072C373.157 186.108 373.193 186.186 373.169 186.306L373.007 186.882C372.971 187.002 372.893 187.038 372.773 186.99C372.533 186.894 372.233 186.852 371.873 186.864C371.201 186.876 370.643 187.134 370.199 187.638C369.767 188.13 369.551 188.736 369.551 189.456V194.82C369.551 194.94 369.491 195 369.371 195H368.777C368.657 195 368.597 194.94 368.597 194.82V186.108C368.597 185.988 368.657 185.928 368.777 185.928H369.371C369.491 185.928 369.551 185.988 369.551 186.108V187.332C369.551 187.368 369.557 187.392 369.569 187.404C369.593 187.404 369.611 187.386 369.623 187.35C369.875 186.882 370.199 186.516 370.595 186.252C371.003 185.988 371.477 185.856 372.017 185.856ZM378.397 194.298C378.961 194.298 379.441 194.172 379.837 193.92C380.245 193.656 380.563 193.296 380.791 192.84C380.851 192.732 380.929 192.702 381.025 192.75L381.493 192.984C381.601 193.044 381.631 193.122 381.583 193.218C381.319 193.806 380.899 194.274 380.323 194.622C379.759 194.97 379.093 195.144 378.325 195.144C377.485 195.144 376.771 194.94 376.183 194.532C375.595 194.124 375.193 193.566 374.977 192.858C374.881 192.558 374.815 192.222 374.779 191.85C374.743 191.478 374.725 191.01 374.725 190.446C374.725 189.858 374.731 189.414 374.743 189.114C374.767 188.814 374.809 188.538 374.869 188.286C375.061 187.53 375.451 186.924 376.039 186.468C376.639 186.012 377.371 185.784 378.235 185.784C379.219 185.784 380.005 186.042 380.593 186.558C381.181 187.062 381.547 187.764 381.691 188.664C381.727 188.892 381.751 189.162 381.763 189.474C381.775 189.774 381.781 190.152 381.781 190.608C381.781 190.728 381.721 190.788 381.601 190.788H375.733C375.685 190.788 375.661 190.812 375.661 190.86C375.661 191.628 375.691 192.138 375.751 192.39C375.883 192.978 376.177 193.446 376.633 193.794C377.101 194.13 377.689 194.298 378.397 194.298ZM375.787 188.502C375.727 188.73 375.685 189.198 375.661 189.906C375.661 189.954 375.685 189.978 375.733 189.978H380.755C380.803 189.978 380.827 189.954 380.827 189.906C380.827 189.306 380.797 188.856 380.737 188.556C380.605 187.98 380.317 187.518 379.873 187.17C379.429 186.81 378.883 186.63 378.235 186.63C377.587 186.63 377.047 186.804 376.615 187.152C376.183 187.488 375.907 187.938 375.787 188.502ZM385.143 194.928C384.879 194.928 384.663 194.844 384.495 194.676C384.327 194.508 384.243 194.292 384.243 194.028C384.243 193.764 384.327 193.548 384.495 193.38C384.663 193.212 384.879 193.128 385.143 193.128C385.407 193.128 385.623 193.212 385.791 193.38C385.959 193.548 386.043 193.764 386.043 194.028C386.043 194.292 385.959 194.508 385.791 194.676C385.623 194.844 385.407 194.928 385.143 194.928Z" fill="#363636"/>
<rect x="1" y="0.0499268" width="28" height="28" fill="#F52D01"/>
<path d="M6.88 81C6.68 81 6.55 80.9 6.49 80.7L1.75 60.39V60.27C1.75 60.09 1.86 60 2.08 60H4.96C5.18 60 5.31 60.11 5.35 60.33L8.14 73.44C8.16 73.5 8.19 73.53 8.23 73.53C8.27 73.53 8.3 73.49 8.32 73.41L10.9 60.33C10.92 60.11 11.05 60 11.29 60H13.9C14.12 60 14.25 60.11 14.29 60.33L17.08 73.44C17.1 73.52 17.13 73.56 17.17 73.56C17.21 73.56 17.24 73.52 17.26 73.44L19.9 60.33C19.94 60.11 20.07 60 20.29 60H23.05C23.33 60 23.44 60.13 23.38 60.39L18.91 80.67C18.87 80.89 18.74 81 18.52 81H15.82C15.6 81 15.47 80.89 15.43 80.67L12.67 67.14C12.65 67.08 12.62 67.05 12.58 67.05C12.54 67.05 12.51 67.08 12.49 67.14L9.88 80.67C9.86 80.89 9.73 81 9.49 81H6.88ZM38.2773 62.64C38.2773 62.74 38.2373 62.83 38.1573 62.91C38.0973 62.97 38.0173 63 37.9173 63H29.5773C29.4773 63 29.4273 63.05 29.4273 63.15V68.79C29.4273 68.89 29.4773 68.94 29.5773 68.94H34.9173C35.0173 68.94 35.0973 68.98 35.1573 69.06C35.2373 69.12 35.2773 69.2 35.2773 69.3V71.58C35.2773 71.68 35.2373 71.77 35.1573 71.85C35.0973 71.91 35.0173 71.94 34.9173 71.94H29.5773C29.4773 71.94 29.4273 71.99 29.4273 72.09V77.85C29.4273 77.95 29.4773 78 29.5773 78H37.9173C38.0173 78 38.0973 78.04 38.1573 78.12C38.2373 78.18 38.2773 78.26 38.2773 78.36V80.64C38.2773 80.74 38.2373 80.83 38.1573 80.91C38.0973 80.97 38.0173 81 37.9173 81H26.3073C26.2073 81 26.1173 80.97 26.0373 80.91C25.9773 80.83 25.9473 80.74 25.9473 80.64V60.36C25.9473 60.26 25.9773 60.18 26.0373 60.12C26.1173 60.04 26.2073 60 26.3073 60H37.9173C38.0173 60 38.0973 60.04 38.1573 60.12C38.2373 60.18 38.2773 60.26 38.2773 60.36V62.64ZM60.4141 75.24C60.4141 77.1 59.8241 78.53 58.6441 79.53C57.4841 80.51 55.9641 81 54.0841 81H47.6941C47.5941 81 47.5041 80.97 47.4241 80.91C47.3641 80.83 47.3341 80.74 47.3341 80.64V60.36C47.3341 60.26 47.3641 60.18 47.4241 60.12C47.5041 60.04 47.5941 60 47.6941 60H53.7241C55.7441 60 57.3141 60.48 58.4341 61.44C59.5741 62.38 60.1441 63.79 60.1441 65.67C60.1441 67.73 59.3341 69.19 57.7141 70.05C57.6141 70.11 57.6041 70.17 57.6841 70.23C59.5041 71.21 60.4141 72.88 60.4141 75.24ZM50.9641 63C50.8641 63 50.8141 63.05 50.8141 63.15V68.73C50.8141 68.83 50.8641 68.88 50.9641 68.88H53.7541C54.6941 68.88 55.4241 68.63 55.9441 68.13C56.4841 67.61 56.7541 66.89 56.7541 65.97C56.7541 65.03 56.4841 64.3 55.9441 63.78C55.4241 63.26 54.6941 63 53.7541 63H50.9641ZM53.9641 77.97C54.8841 77.97 55.6041 77.69 56.1241 77.13C56.6641 76.57 56.9341 75.79 56.9341 74.79C56.9341 73.79 56.6641 73.01 56.1241 72.45C55.5841 71.87 54.8541 71.58 53.9341 71.58H50.9641C50.8641 71.58 50.8141 71.63 50.8141 71.73V77.82C50.8141 77.92 50.8641 77.97 50.9641 77.97H53.9641ZM75.8652 62.64C75.8652 62.74 75.8252 62.83 75.7452 62.91C75.6852 62.97 75.6052 63 75.5052 63H67.1652C67.0652 63 67.0152 63.05 67.0152 63.15V68.79C67.0152 68.89 67.0652 68.94 67.1652 68.94H72.5052C72.6052 68.94 72.6852 68.98 72.7452 69.06C72.8252 69.12 72.8652 69.2 72.8652 69.3V71.58C72.8652 71.68 72.8252 71.77 72.7452 71.85C72.6852 71.91 72.6052 71.94 72.5052 71.94H67.1652C67.0652 71.94 67.0152 71.99 67.0152 72.09V77.85C67.0152 77.95 67.0652 78 67.1652 78H75.5052C75.6052 78 75.6852 78.04 75.7452 78.12C75.8252 78.18 75.8652 78.26 75.8652 78.36V80.64C75.8652 80.74 75.8252 80.83 75.7452 80.91C75.6852 80.97 75.6052 81 75.5052 81H63.8952C63.7952 81 63.7052 80.97 63.6252 80.91C63.5652 80.83 63.5352 80.74 63.5352 80.64V60.36C63.5352 60.26 63.5652 60.18 63.6252 60.12C63.7052 60.04 63.7952 60 63.8952 60H75.5052C75.6052 60 75.6852 60.04 75.7452 60.12C75.8252 60.18 75.8652 60.26 75.8652 60.36V62.64ZM79.2761 81C79.1761 81 79.0861 80.97 79.0061 80.91C78.9461 80.83 78.9161 80.74 78.9161 80.64V60.36C78.9161 60.26 78.9461 60.18 79.0061 60.12C79.0861 60.04 79.1761 60 79.2761 60H82.0361C82.1361 60 82.2161 60.04 82.2761 60.12C82.3561 60.18 82.3961 60.26 82.3961 60.36V77.85C82.3961 77.95 82.4461 78 82.5461 78H90.7961C90.8961 78 90.9761 78.04 91.0361 78.12C91.1161 78.18 91.1561 78.26 91.1561 78.36V80.64C91.1561 80.74 91.1161 80.83 91.0361 80.91C90.9761 80.97 90.8961 81 90.7961 81H79.2761ZM94.071 81C93.971 81 93.881 80.97 93.801 80.91C93.741 80.83 93.711 80.74 93.711 80.64V60.36C93.711 60.26 93.741 60.18 93.801 60.12C93.881 60.04 93.971 60 94.071 60H96.831C96.931 60 97.011 60.04 97.071 60.12C97.151 60.18 97.191 60.26 97.191 60.36V80.64C97.191 80.74 97.151 80.83 97.071 80.91C97.011 80.97 96.931 81 96.831 81H94.071ZM113.336 62.64C113.336 62.74 113.296 62.83 113.216 62.91C113.156 62.97 113.076 63 112.976 63H104.636C104.536 63 104.486 63.05 104.486 63.15V68.79C104.486 68.89 104.536 68.94 104.636 68.94H109.976C110.076 68.94 110.156 68.98 110.216 69.06C110.296 69.12 110.336 69.2 110.336 69.3V71.58C110.336 71.68 110.296 71.77 110.216 71.85C110.156 71.91 110.076 71.94 109.976 71.94H104.636C104.536 71.94 104.486 71.99 104.486 72.09V77.85C104.486 77.95 104.536 78 104.636 78H112.976C113.076 78 113.156 78.04 113.216 78.12C113.296 78.18 113.336 78.26 113.336 78.36V80.64C113.336 80.74 113.296 80.83 113.216 80.91C113.156 80.97 113.076 81 112.976 81H101.366C101.266 81 101.176 80.97 101.096 80.91C101.036 80.83 101.006 80.74 101.006 80.64V60.36C101.006 60.26 101.036 60.18 101.096 60.12C101.176 60.04 101.266 60 101.366 60H112.976C113.076 60 113.156 60.04 113.216 60.12C113.296 60.18 113.336 60.26 113.336 60.36V62.64ZM121.184 81C120.964 81 120.824 80.9 120.764 80.7L115.454 60.39V60.27C115.454 60.09 115.564 60 115.784 60H118.754C118.954 60 119.084 60.1 119.144 60.3L122.684 75.39C122.704 75.47 122.734 75.51 122.774 75.51C122.814 75.51 122.844 75.47 122.864 75.39L126.314 60.33C126.374 60.11 126.504 60 126.704 60H129.614C129.874 60 129.974 60.13 129.914 60.39L124.604 80.7C124.544 80.9 124.404 81 124.184 81H121.184ZM144.918 62.64C144.918 62.74 144.878 62.83 144.798 62.91C144.738 62.97 144.658 63 144.558 63H136.218C136.118 63 136.068 63.05 136.068 63.15V68.79C136.068 68.89 136.118 68.94 136.218 68.94H141.558C141.658 68.94 141.738 68.98 141.798 69.06C141.878 69.12 141.918 69.2 141.918 69.3V71.58C141.918 71.68 141.878 71.77 141.798 71.85C141.738 71.91 141.658 71.94 141.558 71.94H136.218C136.118 71.94 136.068 71.99 136.068 72.09V77.85C136.068 77.95 136.118 78 136.218 78H144.558C144.658 78 144.738 78.04 144.798 78.12C144.878 78.18 144.918 78.26 144.918 78.36V80.64C144.918 80.74 144.878 80.83 144.798 80.91C144.738 80.97 144.658 81 144.558 81H132.948C132.848 81 132.758 80.97 132.678 80.91C132.618 80.83 132.588 80.74 132.588 80.64V60.36C132.588 60.26 132.618 60.18 132.678 60.12C132.758 60.04 132.848 60 132.948 60H144.558C144.658 60 144.738 60.04 144.798 60.12C144.878 60.18 144.918 60.26 144.918 60.36V62.64ZM154.335 81C154.235 81 154.145 80.97 154.065 80.91C154.005 80.83 153.975 80.74 153.975 80.64V60.36C153.975 60.26 154.005 60.18 154.065 60.12C154.145 60.04 154.235 60 154.335 60H157.095C157.195 60 157.275 60.04 157.335 60.12C157.415 60.18 157.455 60.26 157.455 60.36V80.64C157.455 80.74 157.415 80.83 157.335 80.91C157.275 80.97 157.195 81 157.095 81H154.335ZM171.62 60.36C171.62 60.26 171.65 60.18 171.71 60.12C171.79 60.04 171.88 60 171.98 60H174.74C174.84 60 174.92 60.04 174.98 60.12C175.06 60.18 175.1 60.26 175.1 60.36V80.64C175.1 80.74 175.06 80.83 174.98 80.91C174.92 80.97 174.84 81 174.74 81H171.83C171.65 81 171.51 80.91 171.41 80.73L164.87 67.29C164.83 67.23 164.79 67.21 164.75 67.23C164.71 67.23 164.69 67.27 164.69 67.35L164.72 80.64C164.72 80.74 164.68 80.83 164.6 80.91C164.54 80.97 164.46 81 164.36 81H161.6C161.5 81 161.41 80.97 161.33 80.91C161.27 80.83 161.24 80.74 161.24 80.64V60.36C161.24 60.26 161.27 60.18 161.33 60.12C161.41 60.04 161.5 60 161.6 60H164.48C164.68 60 164.82 60.09 164.9 60.27L171.47 73.77C171.51 73.83 171.55 73.86 171.59 73.86C171.63 73.84 171.65 73.79 171.65 73.71L171.62 60.36ZM195.682 81C195.462 81 195.322 80.9 195.262 80.7L194.482 77.49C194.462 77.41 194.412 77.37 194.332 77.37H188.152C188.072 77.37 188.022 77.41 188.002 77.49L187.252 80.7C187.192 80.9 187.052 81 186.832 81H183.982C183.722 81 183.622 80.87 183.682 80.61L189.142 60.3C189.202 60.1 189.342 60 189.562 60H192.982C193.202 60 193.342 60.1 193.402 60.3L198.862 80.61L198.892 80.73C198.892 80.91 198.782 81 198.562 81H195.682ZM188.722 74.46C188.702 74.52 188.712 74.57 188.752 74.61C188.792 74.63 188.832 74.64 188.872 74.64H193.612C193.652 74.64 193.692 74.63 193.732 74.61C193.772 74.57 193.782 74.52 193.762 74.46L191.302 64.62C191.282 64.56 191.252 64.53 191.212 64.53C191.172 64.53 191.142 64.56 191.122 64.62L188.722 74.46ZM213.321 81.24C212.001 81.24 210.841 81.01 209.841 80.55C208.841 80.07 208.061 79.4 207.501 78.54C206.961 77.66 206.691 76.65 206.691 75.51V74.73C206.691 74.63 206.721 74.55 206.781 74.49C206.861 74.41 206.951 74.37 207.051 74.37H209.751C209.851 74.37 209.931 74.41 209.991 74.49C210.071 74.55 210.111 74.63 210.111 74.73V75.33C210.111 76.19 210.411 76.89 211.011 77.43C211.611 77.97 212.421 78.24 213.441 78.24C214.381 78.24 215.101 78 215.601 77.52C216.101 77.04 216.351 76.41 216.351 75.63C216.351 75.09 216.211 74.63 215.931 74.25C215.651 73.85 215.251 73.49 214.731 73.17C214.231 72.83 213.451 72.38 212.391 71.82C211.171 71.18 210.191 70.61 209.451 70.11C208.711 69.61 208.081 68.97 207.561 68.19C207.061 67.41 206.811 66.46 206.811 65.34C206.811 63.62 207.381 62.26 208.521 61.26C209.681 60.26 211.201 59.76 213.081 59.76C214.381 59.76 215.531 60.01 216.531 60.51C217.531 60.99 218.301 61.68 218.841 62.58C219.381 63.48 219.651 64.51 219.651 65.67V66.3C219.651 66.4 219.611 66.49 219.531 66.57C219.471 66.63 219.391 66.66 219.291 66.66H216.591C216.491 66.66 216.401 66.63 216.321 66.57C216.261 66.49 216.231 66.4 216.231 66.3V65.73C216.231 64.87 215.941 64.16 215.361 63.6C214.781 63.04 214.001 62.76 213.021 62.76C212.161 62.76 211.481 62.99 210.981 63.45C210.481 63.89 210.231 64.51 210.231 65.31C210.231 65.85 210.361 66.31 210.621 66.69C210.881 67.07 211.271 67.43 211.791 67.77C212.331 68.11 213.141 68.55 214.221 69.09C215.661 69.91 216.721 70.55 217.401 71.01C218.081 71.47 218.651 72.07 219.111 72.81C219.591 73.53 219.831 74.42 219.831 75.48C219.831 77.24 219.241 78.64 218.061 79.68C216.881 80.72 215.301 81.24 213.321 81.24ZM234.799 60C234.899 60 234.979 60.04 235.039 60.12C235.119 60.18 235.159 60.26 235.159 60.36V62.67C235.159 62.77 235.119 62.86 235.039 62.94C234.979 63 234.899 63.03 234.799 63.03H230.149C230.049 63.03 229.999 63.08 229.999 63.18V80.64C229.999 80.74 229.959 80.83 229.879 80.91C229.819 80.97 229.739 81 229.639 81H226.879C226.779 81 226.689 80.97 226.609 80.91C226.549 80.83 226.519 80.74 226.519 80.64V63.18C226.519 63.08 226.469 63.03 226.369 63.03H221.899C221.799 63.03 221.709 63 221.629 62.94C221.569 62.86 221.539 62.77 221.539 62.67V60.36C221.539 60.26 221.569 60.18 221.629 60.12C221.709 60.04 221.799 60 221.899 60H234.799ZM248.018 81C247.798 81 247.658 80.9 247.598 80.7L244.358 72.09C244.318 72.01 244.268 71.97 244.208 71.97H241.628C241.528 71.97 241.478 72.02 241.478 72.12V80.64C241.478 80.74 241.438 80.83 241.358 80.91C241.298 80.97 241.218 81 241.118 81H238.358C238.258 81 238.168 80.97 238.088 80.91C238.028 80.83 237.998 80.74 237.998 80.64V60.36C237.998 60.26 238.028 60.18 238.088 60.12C238.168 60.04 238.258 60 238.358 60H245.288C246.428 60 247.438 60.26 248.318 60.78C249.198 61.28 249.878 62 250.358 62.94C250.838 63.86 251.078 64.92 251.078 66.12C251.078 67.42 250.778 68.55 250.178 69.51C249.578 70.47 248.758 71.15 247.718 71.55C247.618 71.59 247.588 71.66 247.628 71.76L251.168 80.58C251.188 80.62 251.198 80.68 251.198 80.76C251.198 80.92 251.098 81 250.898 81H248.018ZM241.628 63C241.528 63 241.478 63.05 241.478 63.15V69.12C241.478 69.22 241.528 69.27 241.628 69.27H244.778C245.618 69.27 246.298 68.99 246.818 68.43C247.338 67.85 247.598 67.09 247.598 66.15C247.598 65.19 247.338 64.43 246.818 63.87C246.298 63.29 245.618 63 244.778 63H241.628ZM265.321 81C265.101 81 264.961 80.9 264.901 80.7L264.121 77.49C264.101 77.41 264.051 77.37 263.971 77.37H257.791C257.711 77.37 257.661 77.41 257.641 77.49L256.891 80.7C256.831 80.9 256.691 81 256.471 81H253.621C253.361 81 253.261 80.87 253.321 80.61L258.781 60.3C258.841 60.1 258.981 60 259.201 60H262.621C262.841 60 262.981 60.1 263.041 60.3L268.501 80.61L268.531 80.73C268.531 80.91 268.421 81 268.201 81H265.321ZM258.361 74.46C258.341 74.52 258.351 74.57 258.391 74.61C258.431 74.63 258.471 74.64 258.511 74.64H263.251C263.291 74.64 263.331 74.63 263.371 74.61C263.411 74.57 263.421 74.52 263.401 74.46L260.941 64.62C260.921 64.56 260.891 64.53 260.851 64.53C260.811 64.53 260.781 64.56 260.761 64.62L258.361 74.46ZM271.464 81C271.364 81 271.274 80.97 271.194 80.91C271.134 80.83 271.104 80.74 271.104 80.64V60.36C271.104 60.26 271.134 60.18 271.194 60.12C271.274 60.04 271.364 60 271.464 60H274.224C274.324 60 274.404 60.04 274.464 60.12C274.544 60.18 274.584 60.26 274.584 60.36V80.64C274.584 80.74 274.544 80.83 274.464 80.91C274.404 80.97 274.324 81 274.224 81H271.464ZM284.519 81.24C283.219 81.24 282.069 80.98 281.069 80.46C280.089 79.94 279.319 79.21 278.759 78.27C278.219 77.31 277.949 76.21 277.949 74.97V66.03C277.949 64.79 278.219 63.7 278.759 62.76C279.319 61.8 280.089 61.06 281.069 60.54C282.069 60.02 283.219 59.76 284.519 59.76C285.819 59.76 286.969 60.02 287.969 60.54C288.969 61.04 289.739 61.75 290.279 62.67C290.839 63.59 291.119 64.64 291.119 65.82V66.51C291.119 66.61 291.079 66.7 290.999 66.78C290.939 66.84 290.859 66.87 290.759 66.87H287.999C287.899 66.87 287.809 66.84 287.729 66.78C287.669 66.7 287.639 66.61 287.639 66.51V65.82C287.639 64.92 287.349 64.19 286.769 63.63C286.209 63.05 285.459 62.76 284.519 62.76C283.599 62.76 282.849 63.06 282.269 63.66C281.709 64.24 281.429 65.01 281.429 65.97V75.03C281.429 75.99 281.719 76.77 282.299 77.37C282.899 77.95 283.669 78.24 284.609 78.24C285.529 78.24 286.259 77.98 286.799 77.46C287.359 76.92 287.639 76.19 287.639 75.27V72.9C287.639 72.8 287.589 72.75 287.489 72.75H284.759C284.659 72.75 284.569 72.72 284.489 72.66C284.429 72.58 284.399 72.49 284.399 72.39V70.2C284.399 70.1 284.429 70.02 284.489 69.96C284.569 69.88 284.659 69.84 284.759 69.84H290.759C290.859 69.84 290.939 69.88 290.999 69.96C291.079 70.02 291.119 70.1 291.119 70.2V74.88C291.119 76.86 290.519 78.42 289.319 79.56C288.119 80.68 286.519 81.24 284.519 81.24ZM303.992 60.36C303.992 60.26 304.022 60.18 304.082 60.12C304.162 60.04 304.252 60 304.352 60H307.112C307.212 60 307.292 60.04 307.352 60.12C307.432 60.18 307.472 60.26 307.472 60.36V80.64C307.472 80.74 307.432 80.83 307.352 80.91C307.292 80.97 307.212 81 307.112 81H304.352C304.252 81 304.162 80.97 304.082 80.91C304.022 80.83 303.992 80.74 303.992 80.64V72.12C303.992 72.02 303.942 71.97 303.842 71.97H298.142C298.042 71.97 297.992 72.02 297.992 72.12V80.64C297.992 80.74 297.952 80.83 297.872 80.91C297.812 80.97 297.732 81 297.632 81H294.872C294.772 81 294.682 80.97 294.602 80.91C294.542 80.83 294.512 80.74 294.512 80.64V60.36C294.512 60.26 294.542 60.18 294.602 60.12C294.682 60.04 294.772 60 294.872 60H297.632C297.732 60 297.812 60.04 297.872 60.12C297.952 60.18 297.992 60.26 297.992 60.36V68.79C297.992 68.89 298.042 68.94 298.142 68.94H303.842C303.942 68.94 303.992 68.89 303.992 68.79V60.36ZM323.481 60C323.581 60 323.661 60.04 323.721 60.12C323.801 60.18 323.841 60.26 323.841 60.36V62.67C323.841 62.77 323.801 62.86 323.721 62.94C323.661 63 323.581 63.03 323.481 63.03H318.831C318.731 63.03 318.681 63.08 318.681 63.18V80.64C318.681 80.74 318.641 80.83 318.561 80.91C318.501 80.97 318.421 81 318.321 81H315.561C315.461 81 315.371 80.97 315.291 80.91C315.231 80.83 315.201 80.74 315.201 80.64V63.18C315.201 63.08 315.151 63.03 315.051 63.03H310.581C310.481 63.03 310.391 63 310.311 62.94C310.251 62.86 310.221 62.77 310.221 62.67V60.36C310.221 60.26 310.251 60.18 310.311 60.12C310.391 60.04 310.481 60 310.581 60H323.481ZM344.986 62.64C344.986 62.74 344.946 62.83 344.866 62.91C344.806 62.97 344.726 63 344.626 63H336.316C336.216 63 336.166 63.05 336.166 63.15V68.79C336.166 68.89 336.216 68.94 336.316 68.94H341.656C341.756 68.94 341.836 68.98 341.896 69.06C341.976 69.12 342.016 69.2 342.016 69.3V71.58C342.016 71.68 341.976 71.77 341.896 71.85C341.836 71.91 341.756 71.94 341.656 71.94H336.316C336.216 71.94 336.166 71.99 336.166 72.09V80.64C336.166 80.74 336.126 80.83 336.046 80.91C335.986 80.97 335.906 81 335.806 81H333.046C332.946 81 332.856 80.97 332.776 80.91C332.716 80.83 332.686 80.74 332.686 80.64V60.36C332.686 60.26 332.716 60.18 332.776 60.12C332.856 60.04 332.946 60 333.046 60H344.626C344.726 60 344.806 60.04 344.866 60.12C344.946 60.18 344.986 60.26 344.986 60.36V62.64ZM353.544 81.27C352.224 81.27 351.054 81 350.034 80.46C349.034 79.92 348.254 79.16 347.694 78.18C347.154 77.18 346.884 76.03 346.884 74.73V66.27C346.884 64.99 347.154 63.86 347.694 62.88C348.254 61.88 349.034 61.11 350.034 60.57C351.054 60.03 352.224 59.76 353.544 59.76C354.884 59.76 356.054 60.03 357.054 60.57C358.074 61.11 358.864 61.88 359.424 62.88C359.984 63.86 360.264 64.99 360.264 66.27V74.73C360.264 76.03 359.984 77.18 359.424 78.18C358.864 79.16 358.074 79.92 357.054 80.46C356.054 81 354.884 81.27 353.544 81.27ZM353.544 78.27C354.524 78.27 355.304 77.96 355.884 77.34C356.484 76.7 356.784 75.88 356.784 74.88V66.18C356.784 65.16 356.484 64.34 355.884 63.72C355.304 63.08 354.524 62.76 353.544 62.76C352.584 62.76 351.814 63.08 351.234 63.72C350.654 64.34 350.364 65.16 350.364 66.18V74.88C350.364 75.88 350.654 76.7 351.234 77.34C351.814 77.96 352.584 78.27 353.544 78.27ZM373.672 81C373.452 81 373.312 80.9 373.252 80.7L370.012 72.09C369.972 72.01 369.922 71.97 369.862 71.97H367.282C367.182 71.97 367.132 72.02 367.132 72.12V80.64C367.132 80.74 367.092 80.83 367.012 80.91C366.952 80.97 366.872 81 366.772 81H364.012C363.912 81 363.822 80.97 363.742 80.91C363.682 80.83 363.652 80.74 363.652 80.64V60.36C363.652 60.26 363.682 60.18 363.742 60.12C363.822 60.04 363.912 60 364.012 60H370.942C372.082 60 373.092 60.26 373.972 60.78C374.852 61.28 375.532 62 376.012 62.94C376.492 63.86 376.732 64.92 376.732 66.12C376.732 67.42 376.432 68.55 375.832 69.51C375.232 70.47 374.412 71.15 373.372 71.55C373.272 71.59 373.242 71.66 373.282 71.76L376.822 80.58C376.842 80.62 376.852 80.68 376.852 80.76C376.852 80.92 376.752 81 376.552 81H373.672ZM367.282 63C367.182 63 367.132 63.05 367.132 63.15V69.12C367.132 69.22 367.182 69.27 367.282 69.27H370.432C371.272 69.27 371.952 68.99 372.472 68.43C372.992 67.85 373.252 67.09 373.252 66.15C373.252 65.19 372.992 64.43 372.472 63.87C371.952 63.29 371.272 63 370.432 63H367.282ZM383.462 81C383.262 81 383.132 80.9 383.072 80.7L378.332 60.39V60.27C378.332 60.09 378.442 60 378.662 60H381.542C381.762 60 381.892 60.11 381.932 60.33L384.722 73.44C384.742 73.5 384.772 73.53 384.812 73.53C384.852 73.53 384.882 73.49 384.902 73.41L387.482 60.33C387.502 60.11 387.632 60 387.872 60H390.482C390.702 60 390.832 60.11 390.872 60.33L393.662 73.44C393.682 73.52 393.712 73.56 393.752 73.56C393.792 73.56 393.822 73.52 393.842 73.44L396.482 60.33C396.522 60.11 396.652 60 396.872 60H399.632C399.912 60 400.022 60.13 399.962 60.39L395.492 80.67C395.452 80.89 395.322 81 395.102 81H392.402C392.182 81 392.052 80.89 392.012 80.67L389.252 67.14C389.232 67.08 389.202 67.05 389.162 67.05C389.122 67.05 389.092 67.08 389.072 67.14L386.462 80.67C386.442 80.89 386.312 81 386.072 81H383.462ZM410.956 81C410.736 81 410.596 80.9 410.536 80.7L409.756 77.49C409.736 77.41 409.686 77.37 409.606 77.37H403.426C403.346 77.37 403.296 77.41 403.276 77.49L402.526 80.7C402.466 80.9 402.326 81 402.106 81H399.256C398.996 81 398.896 80.87 398.956 80.61L404.416 60.3C404.476 60.1 404.616 60 404.836 60H408.256C408.476 60 408.616 60.1 408.676 60.3L414.136 80.61L414.166 80.73C414.166 80.91 414.056 81 413.836 81H410.956ZM403.996 74.46C403.976 74.52 403.986 74.57 404.026 74.61C404.066 74.63 404.106 74.64 404.146 74.64H408.886C408.926 74.64 408.966 74.63 409.006 74.61C409.046 74.57 409.056 74.52 409.036 74.46L406.576 64.62C406.556 64.56 406.526 64.53 406.486 64.53C406.446 64.53 406.416 64.56 406.396 64.62L403.996 74.46ZM426.758 81C426.538 81 426.398 80.9 426.338 80.7L423.098 72.09C423.058 72.01 423.008 71.97 422.948 71.97H420.368C420.268 71.97 420.218 72.02 420.218 72.12V80.64C420.218 80.74 420.178 80.83 420.098 80.91C420.038 80.97 419.958 81 419.858 81H417.098C416.998 81 416.908 80.97 416.828 80.91C416.768 80.83 416.738 80.74 416.738 80.64V60.36C416.738 60.26 416.768 60.18 416.828 60.12C416.908 60.04 416.998 60 417.098 60H424.028C425.168 60 426.178 60.26 427.058 60.78C427.938 61.28 428.618 62 429.098 62.94C429.578 63.86 429.818 64.92 429.818 66.12C429.818 67.42 429.518 68.55 428.918 69.51C428.318 70.47 427.498 71.15 426.458 71.55C426.358 71.59 426.328 71.66 426.368 71.76L429.908 80.58C429.928 80.62 429.938 80.68 429.938 80.76C429.938 80.92 429.838 81 429.638 81H426.758ZM420.368 63C420.268 63 420.218 63.05 420.218 63.15V69.12C420.218 69.22 420.268 69.27 420.368 69.27H423.518C424.358 69.27 425.038 68.99 425.558 68.43C426.078 67.85 426.338 67.09 426.338 66.15C426.338 65.19 426.078 64.43 425.558 63.87C425.038 63.29 424.358 63 423.518 63H420.368ZM433.212 81C433.112 81 433.022 80.97 432.942 80.91C432.882 80.83 432.852 80.74 432.852 80.64V60.36C432.852 60.26 432.882 60.18 432.942 60.12C433.022 60.04 433.112 60 433.212 60H439.422C441.362 60 442.912 60.54 444.072 61.62C445.252 62.7 445.842 64.14 445.842 65.94V75.06C445.842 76.86 445.252 78.3 444.072 79.38C442.912 80.46 441.362 81 439.422 81H433.212ZM436.332 77.85C436.332 77.95 436.382 78 436.482 78L439.452 77.97C440.312 77.97 441.002 77.68 441.522 77.1C442.042 76.5 442.322 75.69 442.362 74.67V66.33C442.362 65.31 442.092 64.5 441.552 63.9C441.032 63.3 440.332 63 439.452 63H436.482C436.382 63 436.332 63.05 436.332 63.15V77.85ZM465.975 81C465.755 81 465.615 80.9 465.555 80.7L464.775 77.49C464.755 77.41 464.705 77.37 464.625 77.37H458.445C458.365 77.37 458.315 77.41 458.295 77.49L457.545 80.7C457.485 80.9 457.345 81 457.125 81H454.275C454.015 81 453.915 80.87 453.975 80.61L459.435 60.3C459.495 60.1 459.635 60 459.855 60H463.275C463.495 60 463.635 60.1 463.695 60.3L469.155 80.61L469.185 80.73C469.185 80.91 469.075 81 468.855 81H465.975ZM459.015 74.46C458.995 74.52 459.005 74.57 459.045 74.61C459.085 74.63 459.125 74.64 459.165 74.64H463.905C463.945 74.64 463.985 74.63 464.025 74.61C464.065 74.57 464.075 74.52 464.055 74.46L461.595 64.62C461.575 64.56 461.545 64.53 461.505 64.53C461.465 64.53 461.435 64.56 461.415 64.62L459.015 74.46ZM478.928 59.97C480.088 59.97 481.108 60.23 481.988 60.75C482.888 61.27 483.578 62.01 484.058 62.97C484.558 63.91 484.808 64.99 484.808 66.21C484.808 67.41 484.558 68.47 484.058 69.39C483.578 70.31 482.888 71.03 481.988 71.55C481.108 72.05 480.098 72.3 478.958 72.3H475.268C475.168 72.3 475.118 72.35 475.118 72.45V80.64C475.118 80.74 475.078 80.83 474.998 80.91C474.938 80.97 474.858 81 474.758 81H471.998C471.898 81 471.808 80.97 471.728 80.91C471.668 80.83 471.638 80.74 471.638 80.64V60.33C471.638 60.23 471.668 60.15 471.728 60.09C471.808 60.01 471.898 59.97 471.998 59.97H478.928ZM478.418 69.51C479.298 69.51 479.998 69.22 480.518 68.64C481.058 68.04 481.328 67.25 481.328 66.27C481.328 65.27 481.058 64.47 480.518 63.87C479.998 63.27 479.298 62.97 478.418 62.97H475.268C475.168 62.97 475.118 63.02 475.118 63.12V69.36C475.118 69.46 475.168 69.51 475.268 69.51H478.418ZM494.719 59.97C495.879 59.97 496.899 60.23 497.779 60.75C498.679 61.27 499.369 62.01 499.849 62.97C500.349 63.91 500.599 64.99 500.599 66.21C500.599 67.41 500.349 68.47 499.849 69.39C499.369 70.31 498.679 71.03 497.779 71.55C496.899 72.05 495.889 72.3 494.749 72.3H491.059C490.959 72.3 490.909 72.35 490.909 72.45V80.64C490.909 80.74 490.869 80.83 490.789 80.91C490.729 80.97 490.649 81 490.549 81H487.789C487.689 81 487.599 80.97 487.519 80.91C487.459 80.83 487.429 80.74 487.429 80.64V60.33C487.429 60.23 487.459 60.15 487.519 60.09C487.599 60.01 487.689 59.97 487.789 59.97H494.719ZM494.209 69.51C495.089 69.51 495.789 69.22 496.309 68.64C496.849 68.04 497.119 67.25 497.119 66.27C497.119 65.27 496.849 64.47 496.309 63.87C495.789 63.27 495.089 62.97 494.209 62.97H491.059C490.959 62.97 490.909 63.02 490.909 63.12V69.36C490.909 69.46 490.959 69.51 491.059 69.51H494.209ZM513.36 81C513.14 81 513 80.9 512.94 80.7L509.7 72.09C509.66 72.01 509.61 71.97 509.55 71.97H506.97C506.87 71.97 506.82 72.02 506.82 72.12V80.64C506.82 80.74 506.78 80.83 506.7 80.91C506.64 80.97 506.56 81 506.46 81H503.7C503.6 81 503.51 80.97 503.43 80.91C503.37 80.83 503.34 80.74 503.34 80.64V60.36C503.34 60.26 503.37 60.18 503.43 60.12C503.51 60.04 503.6 60 503.7 60H510.63C511.77 60 512.78 60.26 513.66 60.78C514.54 61.28 515.22 62 515.7 62.94C516.18 63.86 516.42 64.92 516.42 66.12C516.42 67.42 516.12 68.55 515.52 69.51C514.92 70.47 514.1 71.15 513.06 71.55C512.96 71.59 512.93 71.66 512.97 71.76L516.51 80.58C516.53 80.62 516.54 80.68 516.54 80.76C516.54 80.92 516.44 81 516.24 81H513.36ZM506.97 63C506.87 63 506.82 63.05 506.82 63.15V69.12C506.82 69.22 506.87 69.27 506.97 69.27H510.12C510.96 69.27 511.64 68.99 512.16 68.43C512.68 67.85 512.94 67.09 512.94 66.15C512.94 65.19 512.68 64.43 512.16 63.87C511.64 63.29 510.96 63 510.12 63H506.97ZM525.663 81.27C524.343 81.27 523.173 81 522.153 80.46C521.153 79.92 520.373 79.16 519.813 78.18C519.273 77.18 519.003 76.03 519.003 74.73V66.27C519.003 64.99 519.273 63.86 519.813 62.88C520.373 61.88 521.153 61.11 522.153 60.57C523.173 60.03 524.343 59.76 525.663 59.76C527.003 59.76 528.173 60.03 529.173 60.57C530.193 61.11 530.983 61.88 531.543 62.88C532.103 63.86 532.383 64.99 532.383 66.27V74.73C532.383 76.03 532.103 77.18 531.543 78.18C530.983 79.16 530.193 79.92 529.173 80.46C528.173 81 527.003 81.27 525.663 81.27ZM525.663 78.27C526.643 78.27 527.423 77.96 528.003 77.34C528.603 76.7 528.903 75.88 528.903 74.88V66.18C528.903 65.16 528.603 64.34 528.003 63.72C527.423 63.08 526.643 62.76 525.663 62.76C524.703 62.76 523.933 63.08 523.353 63.72C522.773 64.34 522.483 65.16 522.483 66.18V74.88C522.483 75.88 522.773 76.7 523.353 77.34C523.933 77.96 524.703 78.27 525.663 78.27ZM546.278 81C546.058 81 545.918 80.9 545.858 80.7L545.078 77.49C545.058 77.41 545.008 77.37 544.928 77.37H538.748C538.668 77.37 538.618 77.41 538.598 77.49L537.848 80.7C537.788 80.9 537.648 81 537.428 81H534.578C534.318 81 534.218 80.87 534.278 80.61L539.738 60.3C539.798 60.1 539.938 60 540.158 60H543.578C543.798 60 543.938 60.1 543.998 60.3L549.458 80.61L549.488 80.73C549.488 80.91 549.378 81 549.158 81H546.278ZM539.318 74.46C539.298 74.52 539.308 74.57 539.348 74.61C539.388 74.63 539.428 74.64 539.468 74.64H544.208C544.248 74.64 544.288 74.63 544.328 74.61C544.368 74.57 544.378 74.52 544.358 74.46L541.898 64.62C541.878 64.56 541.848 64.53 541.808 64.53C541.768 64.53 541.738 64.56 541.718 64.62L539.318 74.46ZM557.713 81.24C556.413 81.24 555.263 80.98 554.263 80.46C553.263 79.92 552.483 79.17 551.923 78.21C551.383 77.25 551.113 76.14 551.113 74.88V66.06C551.113 64.8 551.383 63.7 551.923 62.76C552.483 61.8 553.263 61.06 554.263 60.54C555.263 60.02 556.413 59.76 557.713 59.76C559.013 59.76 560.163 60.02 561.163 60.54C562.163 61.04 562.933 61.76 563.473 62.7C564.033 63.62 564.313 64.7 564.313 65.94V66.12C564.313 66.22 564.273 66.31 564.193 66.39C564.133 66.47 564.053 66.51 563.953 66.51L561.163 66.63C560.923 66.63 560.803 66.51 560.803 66.27V65.91C560.803 64.97 560.513 64.21 559.933 63.63C559.373 63.05 558.633 62.76 557.713 62.76C556.773 62.76 556.013 63.05 555.433 63.63C554.873 64.21 554.593 64.97 554.593 65.91V75.12C554.593 76.06 554.873 76.82 555.433 77.4C556.013 77.96 556.773 78.24 557.713 78.24C558.633 78.24 559.373 77.96 559.933 77.4C560.513 76.82 560.803 76.06 560.803 75.12V74.73C560.803 74.51 560.923 74.4 561.163 74.4L563.953 74.52C564.053 74.52 564.133 74.56 564.193 74.64C564.273 74.7 564.313 74.78 564.313 74.88V75C564.313 76.24 564.033 77.34 563.473 78.3C562.933 79.24 562.163 79.97 561.163 80.49C560.163 80.99 559.013 81.24 557.713 81.24ZM577.039 60.36C577.039 60.26 577.069 60.18 577.129 60.12C577.209 60.04 577.299 60 577.399 60H580.159C580.259 60 580.339 60.04 580.399 60.12C580.479 60.18 580.519 60.26 580.519 60.36V80.64C580.519 80.74 580.479 80.83 580.399 80.91C580.339 80.97 580.259 81 580.159 81H577.399C577.299 81 577.209 80.97 577.129 80.91C577.069 80.83 577.039 80.74 577.039 80.64V72.12C577.039 72.02 576.989 71.97 576.889 71.97H571.189C571.089 71.97 571.039 72.02 571.039 72.12V80.64C571.039 80.74 570.999 80.83 570.919 80.91C570.859 80.97 570.779 81 570.679 81H567.919C567.819 81 567.729 80.97 567.649 80.91C567.589 80.83 567.559 80.74 567.559 80.64V60.36C567.559 60.26 567.589 60.18 567.649 60.12C567.729 60.04 567.819 60 567.919 60H570.679C570.779 60 570.859 60.04 570.919 60.12C570.999 60.18 571.039 60.26 571.039 60.36V68.79C571.039 68.89 571.089 68.94 571.189 68.94H576.889C576.989 68.94 577.039 68.89 577.039 68.79V60.36ZM15.19 96C15.29 96 15.37 96.04 15.43 96.12C15.51 96.18 15.55 96.26 15.55 96.36V98.67C15.55 98.77 15.51 98.86 15.43 98.94C15.37 99 15.29 99.03 15.19 99.03H10.54C10.44 99.03 10.39 99.08 10.39 99.18V116.64C10.39 116.74 10.35 116.83 10.27 116.91C10.21 116.97 10.13 117 10.03 117H7.27C7.17 117 7.08 116.97 7 116.91C6.94 116.83 6.91 116.74 6.91 116.64V99.18C6.91 99.08 6.86 99.03 6.76 99.03H2.29C2.19 99.03 2.1 99 2.02 98.94C1.96 98.86 1.93 98.77 1.93 98.67V96.36C1.93 96.26 1.96 96.18 2.02 96.12C2.1 96.04 2.19 96 2.29 96H15.19ZM23.7198 117.27C22.3998 117.27 21.2298 117 20.2098 116.46C19.2098 115.92 18.4298 115.16 17.8698 114.18C17.3298 113.18 17.0598 112.03 17.0598 110.73V102.27C17.0598 100.99 17.3298 99.86 17.8698 98.88C18.4298 97.88 19.2098 97.11 20.2098 96.57C21.2298 96.03 22.3998 95.76 23.7198 95.76C25.0598 95.76 26.2298 96.03 27.2298 96.57C28.2498 97.11 29.0398 97.88 29.5998 98.88C30.1598 99.86 30.4398 100.99 30.4398 102.27V110.73C30.4398 112.03 30.1598 113.18 29.5998 114.18C29.0398 115.16 28.2498 115.92 27.2298 116.46C26.2298 117 25.0598 117.27 23.7198 117.27ZM23.7198 114.27C24.6998 114.27 25.4798 113.96 26.0598 113.34C26.6598 112.7 26.9598 111.88 26.9598 110.88V102.18C26.9598 101.16 26.6598 100.34 26.0598 99.72C25.4798 99.08 24.6998 98.76 23.7198 98.76C22.7598 98.76 21.9898 99.08 21.4098 99.72C20.8298 100.34 20.5398 101.16 20.5398 102.18V110.88C20.5398 111.88 20.8298 112.7 21.4098 113.34C21.9898 113.96 22.7598 114.27 23.7198 114.27ZM46.0441 117.27C44.7241 117.27 43.5541 117 42.5341 116.46C41.5341 115.92 40.7541 115.16 40.1941 114.18C39.6541 113.18 39.3841 112.03 39.3841 110.73V102.27C39.3841 100.99 39.6541 99.86 40.1941 98.88C40.7541 97.88 41.5341 97.11 42.5341 96.57C43.5541 96.03 44.7241 95.76 46.0441 95.76C47.3841 95.76 48.5541 96.03 49.5541 96.57C50.5741 97.11 51.3641 97.88 51.9241 98.88C52.4841 99.86 52.7641 100.99 52.7641 102.27V110.73C52.7641 112.03 52.4841 113.18 51.9241 114.18C51.3641 115.16 50.5741 115.92 49.5541 116.46C48.5541 117 47.3841 117.27 46.0441 117.27ZM46.0441 114.27C47.0241 114.27 47.8041 113.96 48.3841 113.34C48.9841 112.7 49.2841 111.88 49.2841 110.88V102.18C49.2841 101.16 48.9841 100.34 48.3841 99.72C47.8041 99.08 47.0241 98.76 46.0441 98.76C45.0841 98.76 44.3141 99.08 43.7341 99.72C43.1541 100.34 42.8641 101.16 42.8641 102.18V110.88C42.8641 111.88 43.1541 112.7 43.7341 113.34C44.3141 113.96 45.0841 114.27 46.0441 114.27ZM62.5724 117.24C61.2724 117.24 60.1224 116.97 59.1224 116.43C58.1224 115.89 57.3424 115.13 56.7824 114.15C56.2424 113.15 55.9724 112 55.9724 110.7V96.36C55.9724 96.26 56.0024 96.18 56.0624 96.12C56.1424 96.04 56.2324 96 56.3324 96H59.0924C59.1924 96 59.2724 96.04 59.3324 96.12C59.4124 96.18 59.4524 96.26 59.4524 96.36V110.88C59.4524 111.88 59.7324 112.69 60.2924 113.31C60.8724 113.93 61.6324 114.24 62.5724 114.24C63.5124 114.24 64.2724 113.93 64.8524 113.31C65.4324 112.69 65.7224 111.88 65.7224 110.88V96.36C65.7224 96.26 65.7524 96.18 65.8124 96.12C65.8924 96.04 65.9824 96 66.0824 96H68.8424C68.9424 96 69.0224 96.04 69.0824 96.12C69.1624 96.18 69.2024 96.26 69.2024 96.36V110.7C69.2024 112 68.9224 113.15 68.3624 114.15C67.8224 115.13 67.0524 115.89 66.0524 116.43C65.0524 116.97 63.8924 117.24 62.5724 117.24ZM82.8716 117C82.6516 117 82.5116 116.9 82.4516 116.7L79.2116 108.09C79.1716 108.01 79.1216 107.97 79.0616 107.97H76.4816C76.3816 107.97 76.3316 108.02 76.3316 108.12V116.64C76.3316 116.74 76.2916 116.83 76.2116 116.91C76.1516 116.97 76.0716 117 75.9716 117H73.2116C73.1116 117 73.0216 116.97 72.9416 116.91C72.8816 116.83 72.8516 116.74 72.8516 116.64V96.36C72.8516 96.26 72.8816 96.18 72.9416 96.12C73.0216 96.04 73.1116 96 73.2116 96H80.1416C81.2816 96 82.2916 96.26 83.1716 96.78C84.0516 97.28 84.7316 98 85.2116 98.94C85.6916 99.86 85.9316 100.92 85.9316 102.12C85.9316 103.42 85.6316 104.55 85.0316 105.51C84.4316 106.47 83.6116 107.15 82.5716 107.55C82.4716 107.59 82.4416 107.66 82.4816 107.76L86.0216 116.58C86.0416 116.62 86.0516 116.68 86.0516 116.76C86.0516 116.92 85.9516 117 85.7516 117H82.8716ZM76.4816 99C76.3816 99 76.3316 99.05 76.3316 99.15V105.12C76.3316 105.22 76.3816 105.27 76.4816 105.27H79.6316C80.4716 105.27 81.1516 104.99 81.6716 104.43C82.1916 103.85 82.4516 103.09 82.4516 102.15C82.4516 101.19 82.1916 100.43 81.6716 99.87C81.1516 99.29 80.4716 99 79.6316 99H76.4816ZM95.3308 117C95.2308 117 95.1408 116.97 95.0608 116.91C95.0008 116.83 94.9708 116.74 94.9708 116.64V96.36C94.9708 96.26 95.0008 96.18 95.0608 96.12C95.1408 96.04 95.2308 96 95.3308 96H101.541C103.481 96 105.031 96.54 106.191 97.62C107.371 98.7 107.961 100.14 107.961 101.94V111.06C107.961 112.86 107.371 114.3 106.191 115.38C105.031 116.46 103.481 117 101.541 117H95.3308ZM98.4508 113.85C98.4508 113.95 98.5008 114 98.6008 114L101.571 113.97C102.431 113.97 103.121 113.68 103.641 113.1C104.161 112.5 104.441 111.69 104.481 110.67V102.33C104.481 101.31 104.211 100.5 103.671 99.9C103.151 99.3 102.451 99 101.571 99H98.6008C98.5008 99 98.4508 99.05 98.4508 99.15V113.85ZM123.59 98.64C123.59 98.74 123.55 98.83 123.47 98.91C123.41 98.97 123.33 99 123.23 99H114.89C114.79 99 114.74 99.05 114.74 99.15V104.79C114.74 104.89 114.79 104.94 114.89 104.94H120.23C120.33 104.94 120.41 104.98 120.47 105.06C120.55 105.12 120.59 105.2 120.59 105.3V107.58C120.59 107.68 120.55 107.77 120.47 107.85C120.41 107.91 120.33 107.94 120.23 107.94H114.89C114.79 107.94 114.74 107.99 114.74 108.09V113.85C114.74 113.95 114.79 114 114.89 114H123.23C123.33 114 123.41 114.04 123.47 114.12C123.55 114.18 123.59 114.26 123.59 114.36V116.64C123.59 116.74 123.55 116.83 123.47 116.91C123.41 116.97 123.33 117 123.23 117H111.62C111.52 117 111.43 116.97 111.35 116.91C111.29 116.83 111.26 116.74 111.26 116.64V96.36C111.26 96.26 111.29 96.18 111.35 96.12C111.43 96.04 111.52 96 111.62 96H123.23C123.33 96 123.41 96.04 123.47 96.12C123.55 96.18 123.59 96.26 123.59 96.36V98.64ZM132.491 117.24C131.171 117.24 130.011 117.01 129.011 116.55C128.011 116.07 127.231 115.4 126.671 114.54C126.131 113.66 125.861 112.65 125.861 111.51V110.73C125.861 110.63 125.891 110.55 125.951 110.49C126.031 110.41 126.121 110.37 126.221 110.37H128.921C129.021 110.37 129.101 110.41 129.161 110.49C129.241 110.55 129.281 110.63 129.281 110.73V111.33C129.281 112.19 129.581 112.89 130.181 113.43C130.781 113.97 131.591 114.24 132.611 114.24C133.551 114.24 134.271 114 134.771 113.52C135.271 113.04 135.521 112.41 135.521 111.63C135.521 111.09 135.381 110.63 135.101 110.25C134.821 109.85 134.421 109.49 133.901 109.17C133.401 108.83 132.621 108.38 131.561 107.82C130.341 107.18 129.361 106.61 128.621 106.11C127.881 105.61 127.251 104.97 126.731 104.19C126.231 103.41 125.981 102.46 125.981 101.34C125.981 99.62 126.551 98.26 127.691 97.26C128.851 96.26 130.371 95.76 132.251 95.76C133.551 95.76 134.701 96.01 135.701 96.51C136.701 96.99 137.471 97.68 138.011 98.58C138.551 99.48 138.821 100.51 138.821 101.67V102.3C138.821 102.4 138.781 102.49 138.701 102.57C138.641 102.63 138.561 102.66 138.461 102.66H135.761C135.661 102.66 135.571 102.63 135.491 102.57C135.431 102.49 135.401 102.4 135.401 102.3V101.73C135.401 100.87 135.111 100.16 134.531 99.6C133.951 99.04 133.171 98.76 132.191 98.76C131.331 98.76 130.651 98.99 130.151 99.45C129.651 99.89 129.401 100.51 129.401 101.31C129.401 101.85 129.531 102.31 129.791 102.69C130.051 103.07 130.441 103.43 130.961 103.77C131.501 104.11 132.311 104.55 133.391 105.09C134.831 105.91 135.891 106.55 136.571 107.01C137.251 107.47 137.821 108.07 138.281 108.81C138.761 109.53 139.001 110.42 139.001 111.48C139.001 113.24 138.411 114.64 137.231 115.68C136.051 116.72 134.471 117.24 132.491 117.24ZM142.382 117C142.282 117 142.192 116.97 142.112 116.91C142.052 116.83 142.022 116.74 142.022 116.64V96.36C142.022 96.26 142.052 96.18 142.112 96.12C142.192 96.04 142.282 96 142.382 96H145.142C145.242 96 145.322 96.04 145.382 96.12C145.462 96.18 145.502 96.26 145.502 96.36V116.64C145.502 116.74 145.462 116.83 145.382 116.91C145.322 116.97 145.242 117 145.142 117H142.382ZM155.436 117.24C154.136 117.24 152.986 116.98 151.986 116.46C151.006 115.94 150.236 115.21 149.676 114.27C149.136 113.31 148.866 112.21 148.866 110.97V102.03C148.866 100.79 149.136 99.7 149.676 98.76C150.236 97.8 151.006 97.06 151.986 96.54C152.986 96.02 154.136 95.76 155.436 95.76C156.736 95.76 157.886 96.02 158.886 96.54C159.886 97.04 160.656 97.75 161.196 98.67C161.756 99.59 162.036 100.64 162.036 101.82V102.51C162.036 102.61 161.996 102.7 161.916 102.78C161.856 102.84 161.776 102.87 161.676 102.87H158.916C158.816 102.87 158.726 102.84 158.646 102.78C158.586 102.7 158.556 102.61 158.556 102.51V101.82C158.556 100.92 158.266 100.19 157.686 99.63C157.126 99.05 156.376 98.76 155.436 98.76C154.516 98.76 153.766 99.06 153.186 99.66C152.626 100.24 152.346 101.01 152.346 101.97V111.03C152.346 111.99 152.636 112.77 153.216 113.37C153.816 113.95 154.586 114.24 155.526 114.24C156.446 114.24 157.176 113.98 157.716 113.46C158.276 112.92 158.556 112.19 158.556 111.27V108.9C158.556 108.8 158.506 108.75 158.406 108.75H155.676C155.576 108.75 155.486 108.72 155.406 108.66C155.346 108.58 155.316 108.49 155.316 108.39V106.2C155.316 106.1 155.346 106.02 155.406 105.96C155.486 105.88 155.576 105.84 155.676 105.84H161.676C161.776 105.84 161.856 105.88 161.916 105.96C161.996 106.02 162.036 106.1 162.036 106.2V110.88C162.036 112.86 161.436 114.42 160.236 115.56C159.036 116.68 157.436 117.24 155.436 117.24ZM175.78 96.36C175.78 96.26 175.81 96.18 175.87 96.12C175.95 96.04 176.04 96 176.14 96H178.9C179 96 179.08 96.04 179.14 96.12C179.22 96.18 179.26 96.26 179.26 96.36V116.64C179.26 116.74 179.22 116.83 179.14 116.91C179.08 116.97 179 117 178.9 117H175.99C175.81 117 175.67 116.91 175.57 116.73L169.03 103.29C168.99 103.23 168.95 103.21 168.91 103.23C168.87 103.23 168.85 103.27 168.85 103.35L168.88 116.64C168.88 116.74 168.84 116.83 168.76 116.91C168.7 116.97 168.62 117 168.52 117H165.76C165.66 117 165.57 116.97 165.49 116.91C165.43 116.83 165.4 116.74 165.4 116.64V96.36C165.4 96.26 165.43 96.18 165.49 96.12C165.57 96.04 165.66 96 165.76 96H168.64C168.84 96 168.98 96.09 169.06 96.27L175.63 109.77C175.67 109.83 175.71 109.86 175.75 109.86C175.79 109.84 175.81 109.79 175.81 109.71L175.78 96.36ZM196.242 95.97C197.402 95.97 198.422 96.23 199.302 96.75C200.202 97.27 200.892 98.01 201.372 98.97C201.872 99.91 202.122 100.99 202.122 102.21C202.122 103.41 201.872 104.47 201.372 105.39C200.892 106.31 200.202 107.03 199.302 107.55C198.422 108.05 197.412 108.3 196.272 108.3H192.582C192.482 108.3 192.432 108.35 192.432 108.45V116.64C192.432 116.74 192.392 116.83 192.312 116.91C192.252 116.97 192.172 117 192.072 117H189.312C189.212 117 189.122 116.97 189.042 116.91C188.982 116.83 188.952 116.74 188.952 116.64V96.33C188.952 96.23 188.982 96.15 189.042 96.09C189.122 96.01 189.212 95.97 189.312 95.97H196.242ZM195.732 105.51C196.612 105.51 197.312 105.22 197.832 104.64C198.372 104.04 198.642 103.25 198.642 102.27C198.642 101.27 198.372 100.47 197.832 99.87C197.312 99.27 196.612 98.97 195.732 98.97H192.582C192.482 98.97 192.432 99.02 192.432 99.12V105.36C192.432 105.46 192.482 105.51 192.582 105.51H195.732ZM214.883 117C214.663 117 214.523 116.9 214.463 116.7L211.223 108.09C211.183 108.01 211.133 107.97 211.073 107.97H208.493C208.393 107.97 208.343 108.02 208.343 108.12V116.64C208.343 116.74 208.303 116.83 208.223 116.91C208.163 116.97 208.083 117 207.983 117H205.223C205.123 117 205.033 116.97 204.953 116.91C204.893 116.83 204.863 116.74 204.863 116.64V96.36C204.863 96.26 204.893 96.18 204.953 96.12C205.033 96.04 205.123 96 205.223 96H212.153C213.293 96 214.303 96.26 215.183 96.78C216.063 97.28 216.743 98 217.223 98.94C217.703 99.86 217.943 100.92 217.943 102.12C217.943 103.42 217.643 104.55 217.043 105.51C216.443 106.47 215.623 107.15 214.583 107.55C214.483 107.59 214.453 107.66 214.493 107.76L218.033 116.58C218.053 116.62 218.063 116.68 218.063 116.76C218.063 116.92 217.963 117 217.763 117H214.883ZM208.493 99C208.393 99 208.343 99.05 208.343 99.15V105.12C208.343 105.22 208.393 105.27 208.493 105.27H211.643C212.483 105.27 213.163 104.99 213.683 104.43C214.203 103.85 214.463 103.09 214.463 102.15C214.463 101.19 214.203 100.43 213.683 99.87C213.163 99.29 212.483 99 211.643 99H208.493ZM227.187 117.27C225.867 117.27 224.697 117 223.677 116.46C222.677 115.92 221.897 115.16 221.337 114.18C220.797 113.18 220.527 112.03 220.527 110.73V102.27C220.527 100.99 220.797 99.86 221.337 98.88C221.897 97.88 222.677 97.11 223.677 96.57C224.697 96.03 225.867 95.76 227.187 95.76C228.527 95.76 229.697 96.03 230.697 96.57C231.717 97.11 232.507 97.88 233.067 98.88C233.627 99.86 233.907 100.99 233.907 102.27V110.73C233.907 112.03 233.627 113.18 233.067 114.18C232.507 115.16 231.717 115.92 230.697 116.46C229.697 117 228.527 117.27 227.187 117.27ZM227.187 114.27C228.167 114.27 228.947 113.96 229.527 113.34C230.127 112.7 230.427 111.88 230.427 110.88V102.18C230.427 101.16 230.127 100.34 229.527 99.72C228.947 99.08 228.167 98.76 227.187 98.76C226.227 98.76 225.457 99.08 224.877 99.72C224.297 100.34 224.007 101.16 224.007 102.18V110.88C224.007 111.88 224.297 112.7 224.877 113.34C225.457 113.96 226.227 114.27 227.187 114.27ZM250.375 111.24C250.375 113.1 249.785 114.53 248.605 115.53C247.445 116.51 245.925 117 244.045 117H237.655C237.555 117 237.465 116.97 237.385 116.91C237.325 116.83 237.295 116.74 237.295 116.64V96.36C237.295 96.26 237.325 96.18 237.385 96.12C237.465 96.04 237.555 96 237.655 96H243.685C245.705 96 247.275 96.48 248.395 97.44C249.535 98.38 250.105 99.79 250.105 101.67C250.105 103.73 249.295 105.19 247.675 106.05C247.575 106.11 247.565 106.17 247.645 106.23C249.465 107.21 250.375 108.88 250.375 111.24ZM240.925 99C240.825 99 240.775 99.05 240.775 99.15V104.73C240.775 104.83 240.825 104.88 240.925 104.88H243.715C244.655 104.88 245.385 104.63 245.905 104.13C246.445 103.61 246.715 102.89 246.715 101.97C246.715 101.03 246.445 100.3 245.905 99.78C245.385 99.26 244.655 99 243.715 99H240.925ZM243.925 113.97C244.845 113.97 245.565 113.69 246.085 113.13C246.625 112.57 246.895 111.79 246.895 110.79C246.895 109.79 246.625 109.01 246.085 108.45C245.545 107.87 244.815 107.58 243.895 107.58H240.925C240.825 107.58 240.775 107.63 240.775 107.73V113.82C240.775 113.92 240.825 113.97 240.925 113.97H243.925ZM253.915 117C253.815 117 253.725 116.97 253.645 116.91C253.585 116.83 253.555 116.74 253.555 116.64V96.36C253.555 96.26 253.585 96.18 253.645 96.12C253.725 96.04 253.815 96 253.915 96H256.675C256.775 96 256.855 96.04 256.915 96.12C256.995 96.18 257.035 96.26 257.035 96.36V113.85C257.035 113.95 257.085 114 257.185 114H265.435C265.535 114 265.615 114.04 265.675 114.12C265.755 114.18 265.795 114.26 265.795 114.36V116.64C265.795 116.74 265.755 116.83 265.675 116.91C265.615 116.97 265.535 117 265.435 117H253.915ZM280.68 98.64C280.68 98.74 280.64 98.83 280.56 98.91C280.5 98.97 280.42 99 280.32 99H271.98C271.88 99 271.83 99.05 271.83 99.15V104.79C271.83 104.89 271.88 104.94 271.98 104.94H277.32C277.42 104.94 277.5 104.98 277.56 105.06C277.64 105.12 277.68 105.2 277.68 105.3V107.58C277.68 107.68 277.64 107.77 277.56 107.85C277.5 107.91 277.42 107.94 277.32 107.94H271.98C271.88 107.94 271.83 107.99 271.83 108.09V113.85C271.83 113.95 271.88 114 271.98 114H280.32C280.42 114 280.5 114.04 280.56 114.12C280.64 114.18 280.68 114.26 280.68 114.36V116.64C280.68 116.74 280.64 116.83 280.56 116.91C280.5 116.97 280.42 117 280.32 117H268.71C268.61 117 268.52 116.97 268.44 116.91C268.38 116.83 268.35 116.74 268.35 116.64V96.36C268.35 96.26 268.38 96.18 268.44 96.12C268.52 96.04 268.61 96 268.71 96H280.32C280.42 96 280.5 96.04 280.56 96.12C280.64 96.18 280.68 96.26 280.68 96.36V98.64ZM295.191 96.24C295.271 96.08 295.411 96 295.611 96H298.401C298.501 96 298.581 96.04 298.641 96.12C298.721 96.18 298.761 96.26 298.761 96.36V116.64C298.761 116.74 298.721 116.83 298.641 116.91C298.581 116.97 298.501 117 298.401 117H295.641C295.541 117 295.451 116.97 295.371 116.91C295.311 116.83 295.281 116.74 295.281 116.64V102.42C295.281 102.34 295.261 102.3 295.221 102.3C295.181 102.28 295.141 102.3 295.101 102.36L291.921 107.61C291.841 107.77 291.701 107.85 291.501 107.85H290.931C290.731 107.85 290.591 107.77 290.511 107.61L287.331 102.39C287.291 102.33 287.251 102.31 287.211 102.33C287.171 102.33 287.151 102.37 287.151 102.45V116.64C287.151 116.74 287.111 116.83 287.031 116.91C286.971 116.97 286.891 117 286.791 117H284.031C283.931 117 283.841 116.97 283.761 116.91C283.701 116.83 283.671 116.74 283.671 116.64V96.36C283.671 96.26 283.701 96.18 283.761 96.12C283.841 96.04 283.931 96 284.031 96H286.791C286.991 96 287.131 96.08 287.211 96.24L291.141 102.51C291.201 102.63 291.261 102.63 291.321 102.51L295.191 96.24ZM308.389 117.24C307.069 117.24 305.909 117.01 304.909 116.55C303.909 116.07 303.129 115.4 302.569 114.54C302.029 113.66 301.759 112.65 301.759 111.51V110.73C301.759 110.63 301.789 110.55 301.849 110.49C301.929 110.41 302.019 110.37 302.119 110.37H304.819C304.919 110.37 304.999 110.41 305.059 110.49C305.139 110.55 305.179 110.63 305.179 110.73V111.33C305.179 112.19 305.479 112.89 306.079 113.43C306.679 113.97 307.489 114.24 308.509 114.24C309.449 114.24 310.169 114 310.669 113.52C311.169 113.04 311.419 112.41 311.419 111.63C311.419 111.09 311.279 110.63 310.999 110.25C310.719 109.85 310.319 109.49 309.799 109.17C309.299 108.83 308.519 108.38 307.459 107.82C306.239 107.18 305.259 106.61 304.519 106.11C303.779 105.61 303.149 104.97 302.629 104.19C302.129 103.41 301.879 102.46 301.879 101.34C301.879 99.62 302.449 98.26 303.589 97.26C304.749 96.26 306.269 95.76 308.149 95.76C309.449 95.76 310.599 96.01 311.599 96.51C312.599 96.99 313.369 97.68 313.909 98.58C314.449 99.48 314.719 100.51 314.719 101.67V102.3C314.719 102.4 314.679 102.49 314.599 102.57C314.539 102.63 314.459 102.66 314.359 102.66H311.659C311.559 102.66 311.469 102.63 311.389 102.57C311.329 102.49 311.299 102.4 311.299 102.3V101.73C311.299 100.87 311.009 100.16 310.429 99.6C309.849 99.04 309.069 98.76 308.089 98.76C307.229 98.76 306.549 98.99 306.049 99.45C305.549 99.89 305.299 100.51 305.299 101.31C305.299 101.85 305.429 102.31 305.689 102.69C305.949 103.07 306.339 103.43 306.859 103.77C307.399 104.11 308.209 104.55 309.289 105.09C310.729 105.91 311.789 106.55 312.469 107.01C313.149 107.47 313.719 108.07 314.179 108.81C314.659 109.53 314.899 110.42 314.899 111.48C314.899 113.24 314.309 114.64 313.129 115.68C311.949 116.72 310.369 117.24 308.389 117.24Z" fill="#323232"/>
<path d="M20 10.2499C20 9.69759 19.5523 9.24988 19 9.24988L10 9.24988C9.44772 9.24988 9 9.69759 9 10.2499C9 10.8022 9.44772 11.2499 10 11.2499L18 11.2499L18 19.2499C18 19.8022 18.4477 20.2499 19 20.2499C19.5523 20.2499 20 19.8022 20 19.2499L20 10.2499ZM1.70711 28.957L19.7071 10.957L18.2929 9.54277L0.292893 27.5428L1.70711 28.957Z" fill="white"/>
<path d="M1067.5 12.5V0" stroke="black" stroke-width="0.5"/>
</svg>
